<svg width="81" height="38" viewBox="0 0 81 38" fill="none" xmlns="http://www.w3.org/2000/svg">
<g opacity="0.4" clip-path="url(#clip0_3079_2688)">
<path d="M11.0118 24.049L13.8679 21.0935L10.3164 16.3001L5.79618 9.90482C4.14458 12.7237 3.27531 15.9276 3.28773 19.1935C3.28773 24.8065 5.79618 29.8234 9.75755 33.2011L15.4947 29.1404C13.5451 27.9234 11.9804 26.1601 11.0118 24.049ZM16.8234 8.52642L19.7789 11.3826L24.5723 7.83101L30.9676 3.31083C28.1487 1.65923 24.9449 0.789959 21.6789 0.802377C16.0659 0.802377 11.049 3.31083 7.67131 7.27219L11.732 13.0093C12.949 11.0473 14.7248 9.48261 16.8234 8.52642ZM29.5023 17.2936L33.0539 22.087L37.574 28.4823C39.2256 25.6634 40.0949 22.4595 40.0825 19.1935C40.0825 13.5806 37.574 8.56367 33.6127 5.18596L27.8755 9.24667C29.8376 10.4636 31.4022 12.2394 32.3584 14.3381L29.5023 17.2936ZM35.6989 31.1149L31.6382 25.3777C30.4212 27.3398 28.6454 28.9045 26.5468 29.8607L23.5913 27.0045L18.7979 30.5561L12.4026 35.0763C15.2215 36.7279 18.4254 37.5971 21.6913 37.5847C27.2919 37.5847 32.3212 35.0763 35.6989 31.1149Z" fill="white"/>
<path d="M50.876 18.9093C50.876 12.9611 53.3596 9.99316 57.234 9.99316C61.0836 9.99316 63.6293 12.9983 63.6293 18.9093C63.6293 24.8079 61.096 27.8007 57.234 27.8007C53.372 27.8007 50.876 24.8079 50.876 18.9093ZM57.2092 11.9304C54.4151 11.9304 53.0243 14.5258 53.0243 18.9218C53.0243 20.9956 53.3348 22.6099 53.9184 23.7772L59.4196 12.663C58.7863 12.1663 58.0536 11.9304 57.2092 11.9304ZM55.0484 25.1929C55.6693 25.6648 56.3772 25.9007 57.2216 25.9007C60.0157 25.9007 61.4313 23.2929 61.4313 18.9218C61.4313 16.8976 61.1333 15.2957 60.5372 14.0911L55.0484 25.1929ZM77.4755 15.1467L73.9363 21.0949L77.8108 27.5026H75.4389L72.3344 22.3243H71.4527L68.2861 27.5026H65.9763L69.8632 21.1818L66.3737 15.1467H68.6214L71.4776 20.0518H72.3717L75.3023 15.1467H77.4755Z" fill="white"/>
</g>
<defs>
<clipPath id="clip0_3079_2688">
<rect width="80.9658" height="36.7575" fill="white" transform="translate(0 0.81543)"/>
</clipPath>
</defs>
</svg>
