<svg width="134" height="45" viewBox="0 0 134 45" fill="none" xmlns="http://www.w3.org/2000/svg">
<g opacity="0.4" clip-path="url(#clip0_3079_2685)">
<path d="M13.2373 22.6126L29.7237 32.1187C29.8556 32.1937 30.0045 32.2329 30.156 32.2324C30.3075 32.232 30.4562 32.192 30.5877 32.1163C30.7192 32.0407 30.8288 31.9319 30.9059 31.8007C30.9828 31.6696 31.0246 31.5206 31.0271 31.3683L31.0299 13.8627C31.0282 13.7102 30.9869 13.5607 30.9101 13.4291C30.8333 13.2975 30.7236 13.1884 30.592 13.1125C30.4603 13.0367 30.3112 12.9967 30.1594 12.9966C30.0077 12.9965 29.8585 13.0363 29.7268 13.1119L13.2373 22.6126Z" fill="white"/>
<path d="M28.7641 9.01521L17.82 0.604158C17.7032 0.515972 17.5663 0.458557 17.4218 0.437144C17.2774 0.415731 17.1299 0.431 16.9928 0.48156C16.8557 0.53212 16.7333 0.616365 16.6368 0.726621C16.5405 0.836876 16.4729 0.969639 16.4406 1.11282L12.439 19.8391L28.6753 10.4656C28.8009 10.395 28.9068 10.2938 28.9834 10.1714C29.06 10.0489 29.1047 9.90915 29.1136 9.76477C29.1224 9.62038 29.095 9.47617 29.0339 9.34518C28.9729 9.2142 28.8802 9.10072 28.7641 9.01521Z" fill="white"/>
<path d="M17.8137 44.6351L28.786 36.2149C28.8994 36.1276 28.9897 36.0137 29.049 35.8832C29.1084 35.7526 29.1349 35.6093 29.1262 35.466C29.1174 35.3227 29.0737 35.1838 28.999 35.0615C28.9242 34.9392 28.8207 34.8371 28.6976 34.7645L12.439 25.3984L16.4472 44.126C16.4766 44.2696 16.5418 44.4032 16.6368 44.5145C16.7317 44.6258 16.8533 44.7108 16.9899 44.7618C17.1267 44.8127 17.274 44.8278 17.4182 44.8057C17.5623 44.7835 17.6984 44.7248 17.8137 44.6351Z" fill="white"/>
<path d="M9.01125 22.6125L13.3295 2.43601C13.367 2.26125 13.3499 2.07911 13.2807 1.91445C13.2114 1.74979 13.0932 1.61063 12.9424 1.51598C12.7916 1.42133 12.6153 1.37579 12.4378 1.38558C12.2602 1.39537 12.09 1.46001 11.9503 1.57068L0.902197 10.0545C0.622281 10.2696 0.395555 10.5469 0.239675 10.8647C0.0837935 11.1824 0.00296328 11.532 0.00347935 11.8863L3.66539e-06 33.3738C-0.000626827 33.7282 0.0800901 34.0778 0.235868 34.3956C0.391647 34.7133 0.618283 34.9907 0.898126 35.206L11.9435 43.6807C12.0842 43.7867 12.2535 43.8476 12.4291 43.8552C12.6048 43.8628 12.7787 43.8168 12.9278 43.7232C13.0771 43.6297 13.1946 43.493 13.2652 43.331C13.3357 43.1691 13.3558 42.9895 13.3229 42.8158L9.01125 22.6125Z" fill="white"/>
<path d="M94.9977 16.7295C95.7866 16.7132 96.5663 16.9073 97.2573 17.2922C97.9474 17.6769 98.5244 18.2386 98.9289 18.9201L97.5629 19.978C97.2715 19.535 96.8871 19.1613 96.4373 18.8828C96.0018 18.6217 95.5035 18.4867 94.9968 18.4926C94.5404 18.4826 94.0907 18.6084 93.7046 18.8544C93.522 18.9755 93.3746 19.1432 93.2775 19.3405C93.1795 19.5378 93.1368 19.7574 93.151 19.9772C93.1451 20.1857 93.1895 20.3926 93.28 20.5802C93.3679 20.7496 93.4868 20.9008 93.6309 21.0256C93.7934 21.1659 93.9734 21.2845 94.166 21.3786C94.3754 21.484 94.6024 21.5984 94.8486 21.7219L96.2146 22.3533C96.6417 22.5482 97.0546 22.7716 97.4516 23.0218C97.7933 23.2339 98.104 23.4931 98.3745 23.7918C98.6157 24.0634 98.8091 24.3742 98.9465 24.7109C99.0864 25.0715 99.1559 25.456 99.15 25.843C99.1575 26.3524 99.0495 26.8569 98.8351 27.3184C98.6324 27.7498 98.336 28.1302 97.9675 28.4318C97.5805 28.7449 97.1392 28.9838 96.666 29.1367C96.1451 29.3075 95.599 29.392 95.0504 29.387C94.0982 29.4053 93.1585 29.1579 92.3378 28.6723C91.5539 28.2 90.9048 27.5316 90.4551 26.7322L91.8395 25.6747C92.0137 25.9372 92.208 26.1855 92.4215 26.4172C92.6343 26.6506 92.8721 26.8592 93.1317 27.039C93.3955 27.2217 93.6845 27.3655 93.9893 27.4662C94.3268 27.575 94.6786 27.6282 95.0329 27.6238C95.5764 27.6499 96.1132 27.4897 96.5554 27.1694C96.7455 27.0231 96.8971 26.8329 96.9985 26.6149C97.0998 26.3969 97.1475 26.1574 97.1375 25.917C97.1417 25.7026 97.0973 25.49 97.0085 25.2953C96.9197 25.1129 96.7941 24.9515 96.6392 24.8215C96.4641 24.676 96.2757 24.5485 96.0755 24.4411C95.8603 24.3237 95.6174 24.2031 95.3469 24.0794L94.0002 23.448C93.62 23.2702 93.2507 23.0718 92.8922 22.8538C92.5606 22.6538 92.2557 22.4103 91.9877 22.1297C91.7323 21.8621 91.5262 21.5511 91.3788 21.2111C91.2256 20.8441 91.1502 20.449 91.1577 20.0512C91.1502 19.5756 91.2549 19.1051 91.4626 18.6776C91.6619 18.2731 91.9458 17.9159 92.2926 17.6294C92.6544 17.3329 93.0681 17.1062 93.512 16.9612C93.991 16.8039 94.4935 16.7257 94.9977 16.7295Z" fill="white"/>
<path d="M110.003 25.9748L112.348 20.0731L114.397 20.0736L110.39 29.3897H109.725L106.865 23.3018L104.04 29.3887H103.375L99.3525 20.071L101.419 20.0713L103.8 26.0293L106.552 19.8682H107.216L110.003 25.9748Z" fill="white"/>
<path d="M118.899 19.8704C119.414 19.8644 119.925 19.9461 120.413 20.112C120.85 20.2622 121.25 20.5061 121.584 20.8267C121.924 21.1618 122.185 21.5674 122.351 22.0149C122.545 22.5465 122.639 23.1098 122.628 23.676L122.627 29.1881L120.817 29.1879V28.1672C120.486 28.5585 120.069 28.8666 119.6 29.0668C119.068 29.2909 118.496 29.4014 117.919 29.3915C117.478 29.3969 117.039 29.3342 116.618 29.2055C116.253 29.0945 115.915 28.9115 115.621 28.6672C115.35 28.4397 115.132 28.1544 114.984 27.832C114.832 27.4938 114.757 27.1262 114.763 26.7554C114.749 26.3884 114.824 26.0235 114.982 25.6921C115.139 25.3607 115.374 25.0729 115.667 24.8533C116.381 24.356 117.238 24.1114 118.105 24.1578L120.67 24.158L120.671 23.5641C120.702 23.3006 120.673 23.0334 120.587 22.7826C120.501 22.5318 120.359 22.304 120.172 22.1164C119.986 21.9288 119.759 21.7861 119.51 21.6993C119.26 21.6124 118.994 21.5835 118.732 21.6149C118.248 21.6036 117.769 21.7255 117.348 21.9674C116.915 22.2366 116.528 22.5751 116.203 22.9696L115.095 21.8188C115.519 21.1891 116.099 20.6806 116.776 20.3434C117.439 20.0256 118.165 19.8638 118.899 19.8704ZM118.325 27.8882C118.634 27.8903 118.94 27.8369 119.23 27.7306C119.505 27.6306 119.758 27.4795 119.977 27.2852C120.192 27.0944 120.366 26.8605 120.486 26.5986C120.61 26.3281 120.672 26.0333 120.67 25.7355V25.5685L118.344 25.5683C117.929 25.5428 117.515 25.6395 117.153 25.8464C117.017 25.9369 116.908 26.0617 116.835 26.2083C116.762 26.3549 116.729 26.5181 116.738 26.6816C116.729 26.8593 116.767 27.036 116.848 27.1941C116.93 27.3522 117.05 27.4859 117.199 27.5818C117.536 27.7943 117.928 27.901 118.325 27.8882Z" fill="white"/>
<path d="M129.552 19.8715C130.164 19.866 130.771 19.9893 131.333 20.2338C131.867 20.4661 132.348 20.8074 132.745 21.236C133.145 21.6735 133.458 22.184 133.668 22.7397C133.894 23.3413 134.006 23.9803 134 24.6235C134.006 25.2696 133.893 25.9114 133.667 26.5165C133.458 27.0773 133.141 27.5914 132.734 28.029C132.326 28.4657 131.833 28.8125 131.284 29.0471C130.737 29.2819 130.145 29.3995 129.55 29.3925C128.958 29.3994 128.371 29.2856 127.824 29.0583C127.318 28.8482 126.872 28.5167 126.522 28.0929L126.522 32.5285L124.584 32.5283L124.586 20.0748L126.377 20.0751L126.376 21.3929C126.713 20.907 127.172 20.5196 127.706 20.2701C128.283 19.9992 128.914 19.8629 129.552 19.8715ZM129.238 21.6531C128.901 21.6539 128.566 21.7135 128.249 21.8292C127.924 21.9467 127.625 22.1299 127.373 22.3676C127.102 22.6263 126.888 22.9391 126.745 23.2859C126.575 23.7101 126.493 24.1648 126.505 24.6221C126.493 25.0786 126.572 25.5327 126.735 25.9586C126.875 26.308 127.085 26.6242 127.354 26.8868C127.605 27.1294 127.903 27.316 128.23 27.4343C128.553 27.5514 128.893 27.6112 129.237 27.6109C129.607 27.613 129.974 27.5405 130.316 27.3977C130.65 27.2592 130.951 27.0539 131.202 26.7943C131.46 26.5253 131.661 26.2066 131.794 25.8573C132.076 25.0717 132.076 24.2116 131.795 23.4258C131.663 23.0783 131.465 22.7598 131.212 22.4886C130.965 22.2274 130.666 22.0191 130.336 21.8762C129.989 21.7258 129.615 21.6498 129.238 21.6531Z" fill="white"/>
<path d="M45.4726 29.1744L43.5161 29.1742L43.5181 16.9248L45.4747 16.9251L45.4726 29.1744ZM47.9659 22.6603L53.5952 29.1757L51.1768 29.1752L45.5289 22.6601L50.6437 16.9259L53.0434 16.9264L47.9659 22.6603Z" fill="white"/>
<path d="M57.9025 30.2167C57.6172 30.9633 57.1429 31.6221 56.5266 32.1279C55.9529 32.5357 55.2626 32.7441 54.5603 32.7216C54.3073 32.7209 54.0546 32.7053 53.8035 32.6751C53.5545 32.6457 53.3078 32.5992 53.0652 32.5359V30.8841C53.2868 30.9085 53.4838 30.927 53.6562 30.9397C53.8283 30.9519 53.9943 30.9581 54.1542 30.9582C54.5421 30.9656 54.9259 30.8765 55.2712 30.6987C55.6661 30.4431 55.9677 30.0654 56.1304 29.6225L56.4992 28.7688L52.8828 20.0635L54.9684 20.064L57.5521 26.7087L60.2485 20.0648L62.3156 20.0651L57.9025 30.2167Z" fill="white"/>
<path d="M65.2695 21.1788C65.6253 20.7623 66.0704 20.4324 66.5714 20.2139C67.1153 19.9746 67.7037 19.8544 68.2974 19.8615C68.8932 19.8548 69.4839 19.9726 70.0321 20.2075C70.5801 20.4424 71.0738 20.7892 71.4815 21.226C71.888 21.6639 72.2047 22.1781 72.4135 22.7391C72.639 23.3442 72.7515 23.986 72.7452 24.6321C72.7519 25.2753 72.6393 25.9142 72.413 26.5158C72.2034 27.0715 71.89 27.5817 71.4897 28.0191C71.0953 28.4462 70.6177 28.7872 70.0866 29.021C69.5279 29.2658 68.924 29.389 68.3145 29.3825C67.6752 29.3905 67.0419 29.2573 66.4593 28.9924C65.9207 28.7504 65.458 28.3654 65.1206 27.8788V29.1778L63.3306 29.1776L63.3326 15.2578L65.2705 15.2581L65.2695 21.1788ZM67.9834 21.6431C67.6403 21.6429 67.2998 21.7025 66.977 21.8192C66.6497 21.9377 66.3509 22.1242 66.1002 22.3667C65.8319 22.6292 65.6212 22.9452 65.4818 23.2946C65.318 23.7203 65.2396 24.1744 65.2509 24.6308C65.2397 25.091 65.3213 25.5487 65.4906 25.9764C65.632 26.327 65.846 26.6434 66.1183 26.9046C66.3695 27.1418 66.6683 27.3222 66.9945 27.4336C67.3124 27.5437 67.6461 27.6002 67.9823 27.6009C68.3598 27.6041 68.7339 27.5283 69.0807 27.3783C69.411 27.2354 69.7093 27.0271 69.958 26.7659C70.2109 26.4948 70.4085 26.1765 70.5397 25.8289C70.8219 25.0433 70.8221 24.1834 70.5402 23.3977C70.4081 23.0483 70.2071 22.7294 69.9492 22.4601C69.6976 22.2007 69.3962 21.9954 69.0632 21.8568C68.7211 21.7137 68.3539 21.6411 67.9834 21.6431Z" fill="white"/>
<path d="M78.7243 19.864C79.2993 19.8587 79.8698 19.9659 80.4039 20.1798C80.9007 20.3751 81.352 20.6712 81.7299 21.0496C82.1077 21.428 82.404 21.8807 82.6001 22.3793C82.8123 22.9069 82.9188 23.4714 82.9138 24.0404C82.9143 24.2764 82.8987 24.512 82.8672 24.7458C82.8458 24.9212 82.812 25.0947 82.7659 25.2652L76.0094 25.2642C76.1093 25.9571 76.4653 26.5869 77.0065 27.0276C77.5664 27.4589 78.2575 27.682 78.9625 27.6589C79.4572 27.6661 79.9479 27.5682 80.4023 27.3715C80.8416 27.1744 81.247 26.9082 81.603 26.583L82.5438 27.9195C82.0706 28.3727 81.5205 28.7372 80.9195 28.9955C80.2884 29.2609 79.6098 29.3935 78.9258 29.3851C78.2565 29.391 77.5922 29.268 76.9688 29.0231C76.3937 28.8009 75.8697 28.4632 75.4287 28.0307C74.9877 27.5982 74.6389 27.08 74.4037 26.5075C74.155 25.9144 74.0293 25.2767 74.0343 24.6331C74.0295 23.9904 74.1521 23.3531 74.3949 22.7586C74.6241 22.193 74.9629 21.6789 75.3915 21.2462C75.8189 20.8177 76.3233 20.4745 76.8779 20.2349C77.4611 19.984 78.0899 19.8577 78.7243 19.864ZM78.668 21.5158C78.0475 21.5 77.4429 21.7146 76.9698 22.1188C76.4903 22.5411 76.1653 23.1127 76.0471 23.7425L80.9758 23.7433C80.9829 23.4327 80.923 23.1242 80.8002 22.839C80.6775 22.5539 80.495 22.2988 80.2649 22.0912C79.8206 21.7094 79.2525 21.5047 78.668 21.5158Z" fill="white"/>
<path d="M89.2074 19.9762C89.3465 19.9749 89.4855 19.9842 89.6228 20.0042C89.7401 20.0227 89.8473 20.0443 89.9461 20.0692L89.9453 21.7952L89.3548 21.7949C89.0073 21.7934 88.6614 21.8467 88.3306 21.9529C88.0182 22.05 87.7293 22.2111 87.4814 22.4258C87.2351 22.6436 87.04 22.9128 86.9085 23.2145C86.7603 23.5633 86.6883 23.9397 86.6958 24.3188L86.6949 29.1814L84.7578 29.1811L84.7586 20.0684L86.5492 20.0687L86.5484 21.2937C86.8532 20.8739 87.2561 20.5361 87.7217 20.3099C88.1857 20.087 88.6932 19.9728 89.2074 19.9762Z" fill="white"/>
</g>
<defs>
<clipPath id="clip0_3079_2685">
<rect width="134" height="44.3875" fill="white" transform="translate(0 0.427734)"/>
</clipPath>
</defs>
</svg>
