<svg width="112" height="43" viewBox="0 0 112 43" fill="none" xmlns="http://www.w3.org/2000/svg">
<g opacity="0.4" clip-path="url(#clip0_3079_2686)">
<path d="M44.5566 11.2178H49.0121V29.0538H53.4676V6.75879H49.0121C46.5616 6.75879 44.5566 8.76536 44.5566 11.2178Z" fill="white"/>
<path d="M57.9219 29.0543H62.3774V20.1362C62.3774 17.6838 60.3724 15.6772 57.9219 15.6772V29.0543Z" fill="white"/>
<path d="M66.833 15.6772V29.0543H71.2884V20.1362H75.744V24.5952C75.744 27.0477 77.7493 29.0543 80.1993 29.0543V20.1362C80.1993 17.6838 78.1947 15.6772 75.744 15.6772H66.833Z" fill="white"/>
<path d="M106.929 15.6768H102.474V11.2178C102.474 8.76536 100.469 6.75879 98.0182 6.75879V24.5947H89.1075V20.1357H93.5628V15.6768H89.1075C86.6567 15.6768 84.6514 17.6833 84.6514 20.1357V24.5947C84.6514 27.0472 86.6567 29.0538 89.1075 29.0538H102.474V20.1357H106.929V24.5947C106.929 27.0472 108.934 29.0538 111.384 29.0538V20.1357C111.384 17.6833 109.38 15.6768 106.929 15.6768Z" fill="white"/>
<path d="M57.9219 11.2178H62.3774C62.3774 8.76536 60.3724 6.75879 57.9219 6.75879V11.2178Z" fill="white"/>
<path fill-rule="evenodd" clip-rule="evenodd" d="M51.5017 33.5132V36.3953H51.0935L49.4898 34.3984V36.3953H49.0107V33.5132H49.419L51.0227 35.5183V33.5132H51.5017ZM60.5649 36.3953H58.8363V33.5132H60.5232V33.9866H59.3485V34.7031H60.3983V35.1766H59.3485V35.9217H60.5649V36.3953ZM67.8994 33.9866H68.845V36.3953H69.3573V33.9866H70.3029V33.5132H67.8994V33.9866ZM81.2071 33.5132H81.6988L80.8657 36.3953H80.3863L79.6826 34.3119L78.9913 36.3953H78.5081L77.6372 33.5132H78.2122L78.7994 35.5677L79.4491 33.5132H79.9578L80.6237 35.5718L81.2071 33.5132ZM89.4581 33.9414C89.1752 34.2268 89.0334 34.5795 89.0334 34.9995C89.0334 35.4414 89.1768 35.7996 89.4627 36.0741C89.7486 36.3486 90.1109 36.4858 90.5494 36.4858C90.9856 36.4858 91.3478 36.3459 91.6368 36.0659C91.9258 35.7859 92.0699 35.4304 92.0699 34.9995C92.0699 34.5603 91.9258 34.2021 91.6368 33.9249C91.3509 33.6504 90.9887 33.5132 90.5494 33.5132C90.1109 33.5132 89.7471 33.6559 89.4581 33.9414ZM89.8542 35.7241C89.6677 35.532 89.5752 35.2905 89.5752 34.9995C89.5752 34.7031 89.6669 34.4601 89.8496 34.2708C90.0361 34.0813 90.2688 33.9866 90.5494 33.9866C90.8245 33.9866 91.0565 34.0813 91.2453 34.2708C91.4341 34.4629 91.5289 34.7058 91.5289 34.9995C91.5289 35.2905 91.4395 35.532 91.2623 35.7241C91.0873 35.9163 90.8499 36.0124 90.5494 36.0124C90.2719 36.0124 90.0399 35.9163 89.8542 35.7241ZM99.9171 35.3248V36.4035H99.4046V33.5214C99.5487 33.5214 99.7059 33.52 99.8755 33.5173C100.044 33.5146 100.184 33.5132 100.292 33.5132C100.997 33.5132 101.35 33.8096 101.35 34.4025C101.35 34.6221 101.293 34.8032 101.179 34.946C101.065 35.0832 100.934 35.1766 100.787 35.226L101.7 36.4035H101.079L100.275 35.3248H99.9171ZM100.267 33.9866C100.253 33.9866 100.231 33.988 100.2 33.9908C100.17 33.9908 100.127 33.9922 100.071 33.9949H99.9171V34.8513H100.25C100.414 34.8513 100.548 34.8115 100.65 34.7319C100.756 34.6523 100.808 34.5438 100.808 34.4066C100.808 34.1267 100.628 33.9866 100.267 33.9866ZM109.034 36.3953H109.546V34.9089L110.738 36.3953H111.387L110.113 34.8554L111.313 33.5132H110.696L109.546 34.8801V33.5132H109.034V36.3953Z" fill="#808080"/>
<path d="M10.3383 23.5193L11.3778 15.6835L2.34619 9.40843L10.5981 12.2046L12.5474 9.21337L19.6623 4.7915L35.354 13.4401L36.1661 26.6406L29.1812 36.3621L23.6583 37.2074L26.5173 31.9728V26.9331L24.438 22.9991L22.3263 21.601L19.0775 24.9499V28.4938L16.5435 30.8673L13.3271 31.2575L11.8977 32.0703L9.55855 31.3225L8.58386 27.811L10.3383 25.3401V23.5193Z" fill="white"/>
<path d="M24.765 9.34354C23.0432 8.98594 21.1588 9.08343 21.1588 9.08343C21.1588 9.08343 20.5416 11.9446 16.708 12.6924C16.7405 12.6924 21.7761 14.4157 24.765 9.34354Z" fill="#808080"/>
<path d="M26.3258 35.2888C28.4051 33.6631 29.9645 31.4197 30.6792 28.8837C30.7117 28.7861 31.0041 28.6236 31.199 28.4935C31.5239 28.2984 31.8488 28.1359 31.9138 27.8758C32.0437 27.1279 32.1087 26.3476 32.1087 25.5672C32.1087 25.2747 31.8163 24.9821 31.5239 24.6894C31.2965 24.4944 31.0691 24.2667 31.0691 24.1042C30.7442 21.1454 29.3798 18.3818 27.203 16.366L26.9756 16.5936C29.0874 18.5768 30.4519 21.2755 30.7442 24.1367C30.7767 24.3968 31.0366 24.6569 31.2965 24.917C31.5239 25.1121 31.7838 25.4047 31.7838 25.5348C31.7838 26.2826 31.7189 27.0304 31.5889 27.7782C31.5564 27.9082 31.264 28.0383 31.0366 28.1683C30.7117 28.3309 30.4193 28.4935 30.3544 28.7536C29.5747 31.5173 27.7878 33.9232 25.4162 35.4839C25.8385 34.5735 27.1706 31.6148 27.8853 30.1192L27.7553 25.3071L23.6293 21.308L21.2902 21.6332L18.7237 25.7949C18.7237 25.7949 19.9257 27.323 18.2364 29.1113C16.5794 30.867 15.2799 31.2572 15.2799 31.2572L14.0779 30.6069C14.4352 30.1517 15.15 29.4689 15.7022 29.0137C16.6444 28.2334 17.5866 28.1683 17.5866 27.323C17.6191 25.5672 15.7348 26.055 15.7348 26.055L15.0526 26.7052L14.7602 29.1113L13.3307 30.8995L13.1682 30.867L10.8291 30.3467C10.8291 30.3467 12.2586 29.5989 12.486 28.7536C12.7134 27.9407 12.0311 25.2422 11.9986 25.0795C12.0311 25.1121 12.6809 25.6648 12.9733 26.5752C13.4931 25.1446 14.1754 23.779 14.3703 23.649C14.5652 23.5189 17.1967 22.1209 17.1967 22.1209L16.3196 24.4293L16.9693 24.0716L18.5288 20.2351C18.5288 20.2351 20.0556 19.4873 21.1927 19.4873C23.2395 19.4547 26.2609 16.9512 24.8963 12.4644C25.2862 12.6269 32.0437 16.0083 33.2133 22.6411C34.0904 27.7457 31.199 32.5252 26.3258 35.2888Z" fill="#808080"/>
<path d="M18.5939 10.0583C19.3411 9.18045 19.0487 7.87988 19.0487 7.87988L16.872 11.0987C16.8395 11.0987 17.6517 11.1312 18.5939 10.0583Z" fill="#575757"/>
<path d="M11.2837 27.6487L11.5436 26.3481C11.5436 26.3481 10.4715 28.2339 10.3741 28.494C10.2766 28.7866 10.4391 29.3068 10.8614 29.2743C11.2837 29.2418 11.8036 28.6241 11.8036 28.1689C11.8036 27.5836 11.2837 27.6487 11.2837 27.6487Z" fill="#575757"/>
<path d="M30.5815 6.97C30.5815 6.97 32.2059 7.03503 33.8953 7.23011C30.0942 4.23887 26.4881 3.36101 23.5642 3.36101C19.5356 3.36101 16.8066 5.01919 16.6442 5.11674L17.9112 3.1009C17.9112 3.1009 12.8431 2.6132 11.0563 7.97792C10.6014 6.83995 10.1791 5.18176 10.1791 5.18176C10.1791 5.18176 7.54757 7.49022 8.78212 11.3268C5.76074 10.2213 1.43984 8.69322 1.2774 8.66069C1.04998 8.62817 0.985006 8.72574 0.985006 8.72574C0.985006 8.72574 0.920029 8.82331 1.11496 8.98585C1.47232 9.27848 8.29481 14.318 9.78926 15.2935C9.46433 16.4639 9.46433 17.0167 9.78926 17.5694C10.244 18.3172 10.2766 18.7073 10.2116 19.2601C10.1466 19.8128 9.56183 24.5923 9.43189 25.1776C9.30195 25.7628 7.93744 27.8436 8.00241 28.4614C8.06738 29.0792 8.91206 31.7127 9.65932 32.0053C10.2116 32.2005 11.5761 32.6231 12.4857 32.6231C12.8106 32.6231 13.103 32.5581 13.233 32.4281C13.7853 31.9404 13.9477 31.8428 14.3376 31.8428C14.3701 31.8428 14.4025 31.8428 14.4351 31.8428C14.5974 31.8428 14.7924 31.8753 15.0198 31.8753C15.5396 31.8753 16.2219 31.7778 16.7092 31.3226C17.4239 30.6073 18.6584 29.6319 19.0483 29.1767C19.5356 28.559 19.7955 27.7136 19.6656 26.8682C19.5682 26.0879 19.9905 25.4052 20.4778 24.7223C21.095 23.9095 22.2321 22.4464 22.2321 22.4464C24.4738 24.1371 25.8708 26.7057 25.8708 29.5669C25.8708 34.6389 21.4524 38.7356 15.9945 38.7356C15.1498 38.7356 14.3376 38.6381 13.5253 38.4431C16.0269 39.3209 18.1387 39.6135 19.8606 39.6135C23.5317 39.6135 25.481 38.2805 25.481 38.2805C25.481 38.2805 24.7987 39.1583 23.6941 40.1663C23.7266 40.1663 23.7266 40.1663 23.7266 40.1663C29.8018 39.3209 32.7583 34.3138 32.7583 34.3138C32.7583 34.3138 32.5308 35.9395 32.2384 37.045C40.3279 30.9649 38.9635 23.3568 38.931 23.0967C38.9959 23.1942 39.8082 24.1696 40.2305 24.6898C41.53 11.2943 30.5815 6.97 30.5815 6.97ZM18.1387 28.3638C18.0087 28.5265 17.4564 29.0141 17.0666 29.3717C16.6767 29.7294 16.2543 30.0871 15.9295 30.4122C15.7996 30.5423 15.5396 30.6073 15.1498 30.6073C15.0198 30.6073 14.8898 30.6073 14.7924 30.6073C14.7275 30.6073 14.6624 30.6073 14.5974 30.6073C14.5325 30.6073 14.5 30.6073 14.4675 30.6073C14.3701 30.6073 14.2726 30.6073 14.1751 30.6073C14.6624 29.957 16.0919 28.4614 16.5793 28.1363C17.164 27.7461 17.4564 27.3559 17.099 26.6732C16.7416 25.9903 15.7996 26.153 15.7996 26.153C15.7996 26.153 16.3518 25.9254 16.8391 25.9254C16.2219 25.7628 15.4422 25.9254 15.0848 26.283C14.6949 26.6407 14.7599 27.9087 14.5974 28.7215C14.4351 29.5669 13.8827 29.9895 13.038 30.7699C12.5832 31.1925 12.2583 31.3226 11.9984 31.3226C11.4462 31.225 10.7964 31.0625 10.3415 30.8999C10.0167 30.4772 9.5293 29.0792 9.39936 28.4939C9.49686 28.1688 9.88667 27.486 10.0817 27.0958C10.4715 26.348 10.6989 25.9254 10.7639 25.5352C10.8938 24.9824 11.3161 21.5685 11.4786 20.138C11.9009 20.6907 12.4857 21.601 12.3558 22.1863C13.298 20.8532 12.6157 19.5527 12.2908 19.0325C11.9984 18.5123 11.6085 17.4718 11.9335 16.3664C12.2583 15.261 13.4279 12.2046 13.4279 12.2046C13.4279 12.2046 13.8177 12.8875 14.3701 12.7574C14.9224 12.6274 19.3732 5.92957 19.3732 5.92957C19.3732 5.92957 20.5753 8.56312 19.3082 10.4814C18.0087 12.3998 16.7416 12.7574 16.7416 12.7574C16.7416 12.7574 18.5285 13.0825 20.1854 11.8796C20.8676 13.4727 21.5174 15.1309 21.5499 15.3584C21.4524 15.586 20.1529 18.7073 20.0229 18.9025C19.958 18.9674 19.5032 19.0975 19.1783 19.1626C18.626 19.3251 18.3011 19.4227 18.1711 19.5202C17.9437 19.7153 16.9041 22.5765 16.4168 23.9745C15.832 24.1371 15.2472 24.4622 14.8249 25.1125C15.0523 24.9499 15.767 24.8524 16.2869 24.7874C16.7416 24.7549 18.1387 25.5027 18.496 26.9008C18.496 26.9333 18.496 26.9333 18.496 26.9658C18.561 27.486 18.3986 27.9737 18.1387 28.3638ZM15.0848 28.754C15.3771 28.3313 15.3447 27.616 15.3771 27.3885C15.4097 27.1609 15.4746 26.7382 15.7345 26.6732C15.9945 26.6081 16.6117 26.7057 16.6117 27.1609C16.6117 27.5835 16.1569 27.6811 15.832 27.9737C15.6046 28.2013 15.1498 28.689 15.0848 28.754ZM28.0475 22.544C28.3724 20.8858 28.4049 19.4552 28.3074 18.2847C29.5744 19.9754 30.3541 22.0238 30.5815 24.1371C30.6141 24.3973 30.8739 24.6574 31.1338 24.9175C31.3612 25.1125 31.6212 25.3726 31.6212 25.5352C31.6212 26.283 31.5562 27.0308 31.4262 27.7787C31.3938 27.8761 31.1014 28.0388 30.8739 28.1688C30.5491 28.3313 30.2567 28.4939 30.1917 28.754C29.477 31.2575 27.95 33.4685 25.9033 35.0291C28.9246 31.8753 30.3866 26.6732 28.0475 22.544ZM26.0007 35.3218C28.1125 33.6961 29.7369 31.4202 30.4516 28.8515C30.484 28.754 30.7764 28.5914 30.9714 28.4614C31.2963 28.2989 31.6212 28.1037 31.6862 27.8436C31.8161 27.0958 31.8811 26.3155 31.8811 25.5352C31.8811 25.2425 31.5887 24.9499 31.2963 24.6574C31.1338 24.4622 30.8739 24.2346 30.8739 24.0721C30.6141 21.6986 29.6719 19.4552 28.2099 17.6019C27.5602 13.7003 24.9611 12.4973 24.8962 12.4647C24.9611 12.5623 26.6505 15.0008 25.481 17.862C24.2789 20.7557 21.1925 20.3005 20.9327 20.333C20.6727 20.333 19.6656 21.6336 18.3986 24.0396C18.2361 23.9745 17.5539 23.812 16.7742 23.942C17.359 22.3164 18.2361 20.0079 18.3986 19.8128C18.4635 19.7478 18.9508 19.6177 19.2758 19.5202C19.893 19.3576 20.1854 19.2601 20.2829 19.1301C20.3479 19.0325 20.6727 18.2847 20.9976 17.5044C21.29 17.5044 22.0372 17.4393 22.1022 17.4068C22.1671 17.3418 22.7844 15.7486 22.7844 15.5536C22.7844 15.391 21.5174 12.2372 21.0301 11.0342C21.2575 10.7741 21.4849 10.4489 21.7124 10.0913C28.3724 10.8066 33.5704 16.4639 33.5704 23.3243C33.5704 28.5914 30.484 33.1759 26.0007 35.3218Z" fill="#575757"/>
<path d="M17.3584 17.7642C17.9756 17.0489 17.6508 15.7159 16.5137 15.4883C16.806 14.8054 17.2284 13.4399 17.2284 13.4399C17.2284 13.4399 13.9146 18.6421 13.6222 18.7396C13.3298 18.8372 13.0374 17.6992 13.0374 17.6992C12.4202 20.0727 14.0771 20.3978 14.272 19.65C15.1816 19.4224 16.741 18.447 17.3584 17.7642Z" fill="#575757"/>
<path d="M14.5293 19.0333L16.2186 16.1396C16.2186 16.1396 17.1933 16.6273 16.706 17.4077C16.0887 18.318 14.5293 19.0333 14.5293 19.0333Z" fill="white"/>
<path d="M35.4219 32.4285C34.9345 33.0788 34.3822 33.7615 33.7324 34.4118C37.9234 26.3485 33.9274 18.9679 33.7649 18.6753C34.0573 18.9679 34.3497 19.2931 34.6096 19.5856C37.8259 23.1622 38.2158 28.5269 35.4219 32.4285Z" fill="white"/>
<path d="M39.3204 22.0561C37.8585 18.1219 35.7792 14.7731 31.1984 11.7493C26.78 8.8231 22.0368 9.05068 21.7769 9.0832C21.7444 9.0832 21.7119 9.0832 21.7119 9.0832C21.8744 9.01816 22.0368 8.98564 22.1992 8.95311C23.2064 8.62796 24.5059 8.36789 25.8054 8.20532C29.2491 7.71762 32.7254 8.88807 35.0969 11.3917C35.1295 11.4242 35.1295 11.4242 35.1619 11.4567C37.8585 14.3179 39.2554 17.8943 39.3204 22.0561Z" fill="white"/>
<path d="M30.159 5.96238C25.3183 5.05201 22.1994 5.50719 19.9578 6.35255C19.8928 6.09244 19.6654 5.57222 19.4705 5.14955C18.7882 5.96238 18.0734 6.93779 17.6187 7.55555C16.3841 8.40089 15.8643 9.21371 15.8643 9.21371C16.579 6.77522 18.6582 4.95447 21.1923 4.49928C21.907 4.36922 22.6867 4.3042 23.5315 4.3042C25.7731 4.33671 28.0148 4.88944 30.159 5.96238Z" fill="white"/>
<path d="M12.2573 12.2046C8.45614 12.0745 9.72316 7.65269 9.7882 7.39258C9.7882 7.42509 10.0481 10.8715 12.2573 12.2046Z" fill="white"/>
<path d="M15.9929 4.23877C13.0689 5.9945 13.6537 10.1887 13.6537 10.1887C10.8598 5.92947 15.7655 4.33631 15.9929 4.23877Z" fill="white"/>
<path d="M11.1837 13.3747C11.3786 13.5373 11.5736 13.8299 11.3462 14.2526C11.2162 14.4802 11.0213 14.4477 10.7289 14.3176C10.3391 14.1225 7.99987 12.757 5.88818 11.3589C8.29227 12.2043 10.7289 13.1146 11.1188 13.3097C11.1188 13.3097 11.1512 13.3422 11.1837 13.3747Z" fill="white"/>
</g>
<defs>
<clipPath id="clip0_3079_2686">
<rect width="111.75" height="41.6172" fill="white" transform="translate(0 0.812988)"/>
</clipPath>
</defs>
</svg>
