<svg width="175" height="36" viewBox="0 0 175 36" fill="none" xmlns="http://www.w3.org/2000/svg">
<g opacity="0.4" clip-path="url(#clip0_3079_2689)">
<path d="M17.2919 0.634196C25.6963 0.0791864 32.9511 5.51035 35.1315 13.1219C35.1315 13.1616 35.1315 13.1616 35.1315 13.2012C35.1711 13.3201 35.29 13.3598 35.409 13.3994H35.4486C36.8758 13.3994 37.9065 13.1616 38.5408 13.003C38.5805 13.003 38.6201 12.9633 38.6597 12.9633C38.6994 12.9633 38.739 12.9633 38.7787 12.9633C39.1355 12.9633 39.413 13.2408 39.413 13.5976V16.4916C39.3733 16.7295 39.2544 16.9277 39.0562 17.007C38.9769 17.007 38.9373 17.0466 38.858 17.0466C38.303 17.2052 37.3119 17.4431 36.0829 17.562C36.0433 17.562 36.0036 17.562 35.964 17.562C35.8451 17.6016 35.7261 17.7206 35.7261 17.8395V17.8791V17.9188C35.7261 18.3152 35.7261 18.7117 35.6865 19.1081C35.6865 19.1081 35.6865 19.1081 35.6865 19.1477C35.6865 19.3063 35.8054 19.4252 35.964 19.4649C36.0036 19.4649 36.0036 19.4649 36.0433 19.4649C37.1533 19.3856 37.9462 19.227 38.5012 19.0684C38.5408 19.0684 38.5805 19.0288 38.6201 19.0288C38.6597 19.0288 38.6994 19.0288 38.739 19.0288C39.0562 19.0288 39.3337 19.2667 39.3733 19.5838V22.5571C39.3733 22.7949 39.2148 23.0328 38.9769 23.1121C38.9372 23.1121 38.858 23.1517 38.8183 23.1517C38.1047 23.3499 36.6776 23.6671 34.9333 23.7464H34.8936C34.7747 23.7464 34.6954 23.8257 34.6161 23.905C34.6161 23.905 34.6161 23.9446 34.5765 23.9446C32.1582 30.5651 25.7756 35.2827 18.3226 35.2827C8.33243 35.2827 0.364081 26.8386 1.07766 16.7295C1.83089 8.08718 8.76851 1.22885 17.2919 0.634196ZM74.1934 13.7958C75.8187 13.7958 77.0873 14.3112 77.9992 15.3023C78.9109 16.2934 79.347 17.7602 79.347 19.6235C79.347 20.9317 79.0695 22.0417 78.5542 22.9932C78.0388 23.9446 77.2856 24.6582 76.3341 25.1736C75.3827 25.6889 74.2727 25.9268 72.9644 25.9268C72.3301 25.9268 71.6958 25.8475 70.9822 25.6889V30.9219H67.6125V13.9941H70.1894L70.7047 15.3816C71.2201 14.8266 71.7355 14.4301 72.2508 14.1923C72.8455 13.9148 73.4798 13.7958 74.1934 13.7958ZM18.4812 4.9157C11.3057 4.9157 5.51774 10.7433 5.51774 17.8791C5.51774 25.015 11.3453 30.8426 18.4812 30.8426C23.6348 30.8426 28.1146 27.8297 30.176 23.4292C30.2157 23.3896 30.2157 23.3103 30.2553 23.2707V23.231C30.2553 23.1121 30.176 22.9932 30.0571 22.9535C30.0571 22.9535 30.0571 22.9535 30.0175 22.9535H29.9778L29.8192 22.9139C26.0927 21.6453 22.5645 22.2796 21.0184 22.676C21.0184 22.676 21.0184 22.676 20.9787 22.676C20.9391 22.676 20.8994 22.676 20.8598 22.676C20.5426 22.676 20.2651 22.4381 20.2255 22.1606V18.9495C20.2651 18.7513 20.4237 18.5531 20.5823 18.4738C20.5823 18.4738 20.5823 18.4738 20.6219 18.4738C21.6527 18.0774 24.6259 17.2845 29.7796 18.6324C30.1364 18.7117 30.4932 18.8306 30.85 18.8702C30.8896 18.8702 30.9689 18.9099 31.0085 18.9099C31.1671 18.9099 31.286 18.7909 31.286 18.672C31.286 18.6324 31.286 18.5927 31.286 18.5531C31.286 18.3152 31.3257 18.117 31.3257 17.8791C31.3257 17.7602 31.3257 17.6413 31.3257 17.5223C31.3257 17.4827 31.3257 17.4431 31.3257 17.4431C31.3257 17.3241 31.2464 17.2448 31.1275 17.2052H31.0878C30.6914 17.1259 30.3346 17.007 29.9382 16.888L29.7796 16.8484C26.172 15.5798 22.723 16.1745 21.1373 16.5709C21.058 16.6105 20.9391 16.6105 20.8598 16.6502C20.8598 16.6502 20.8598 16.6502 20.8202 16.6502C20.503 16.6502 20.2255 16.4123 20.1859 16.1348V12.9237C20.2255 12.7255 20.3444 12.5669 20.5426 12.4876C20.5823 12.4876 20.6219 12.448 20.6616 12.448C21.732 12.0515 24.6259 11.338 29.5417 12.6065H29.5814C29.621 12.6065 29.621 12.6065 29.6607 12.6065C29.8589 12.6065 29.9778 12.448 29.9778 12.2894C29.9778 12.2498 29.9778 12.2498 29.9778 12.2101C29.9778 12.1705 29.9382 12.1308 29.9382 12.0912C27.956 7.80968 23.5556 4.9157 18.4812 4.9157ZM141.072 13.7166C144.6 13.7166 146.345 15.6987 146.345 19.7027V20.456H138.416C138.574 22.4778 139.605 23.4689 141.508 23.4689C142.103 23.4689 142.697 23.3896 143.292 23.2707C143.887 23.1517 144.521 22.9139 145.274 22.6364L146.067 24.7375C144.283 25.57 142.618 25.9664 141.112 25.9664C139.248 25.9664 137.782 25.4114 136.711 24.341C135.641 23.2707 135.126 21.7642 135.126 19.8217C135.126 17.9188 135.641 16.4123 136.672 15.342C137.742 14.2319 139.209 13.7166 141.072 13.7166ZM86.7207 13.7166C90.249 13.7166 91.9933 15.6987 91.9933 19.7027V20.456H84.0646C84.2232 22.4778 85.2539 23.4689 87.1568 23.4689C87.7515 23.4689 88.3461 23.3896 88.9408 23.2707C89.5354 23.1517 90.1697 22.9139 90.9229 22.6364L91.7158 24.7375C89.9319 25.57 88.2668 25.9664 86.7604 25.9664C84.8971 25.9664 83.4303 25.4114 82.3599 24.341C81.2896 23.2707 80.7742 21.7642 80.7742 19.8217C80.7742 17.9188 81.2896 16.4123 82.3203 15.342C83.3907 14.2319 84.8575 13.7166 86.7207 13.7166ZM115.224 9.55399C117.682 9.55399 119.585 10.2676 120.893 11.6551C122.202 13.0426 122.876 15.0644 122.876 17.6809C122.876 20.337 122.241 22.3985 120.933 23.8257C119.625 25.2528 117.722 25.9268 115.264 25.9268C112.767 25.9268 110.864 25.2132 109.555 23.8257C108.247 22.3985 107.613 20.3767 107.613 17.6809C107.613 15.0644 108.287 13.0823 109.595 11.6551C110.864 10.2676 112.767 9.55399 115.224 9.55399ZM57.5431 9.55399C60.001 9.55399 61.9039 10.2676 63.2121 11.6551C64.5203 13.0426 65.1943 15.0644 65.1943 17.6809C65.1943 20.337 64.56 22.3985 63.2518 23.8257C61.9435 25.2528 60.0406 25.9268 57.5827 25.9268C55.0852 25.9268 53.1823 25.2132 51.8741 23.8257C50.5658 22.3985 49.9315 20.3767 49.9315 17.6809C49.9315 15.0644 50.6055 13.0823 51.9137 11.6551C53.1426 10.2676 55.0455 9.55399 57.5431 9.55399ZM153.124 13.7166C154.789 13.7166 156.057 14.113 156.929 14.9455C157.802 15.778 158.277 16.9673 158.277 18.5134V25.7286H155.502L155.106 24.341C154.63 24.8564 154.075 25.2528 153.48 25.4907C152.886 25.7682 152.212 25.8871 151.538 25.8871C150.309 25.8871 149.358 25.57 148.644 24.9357C147.93 24.3014 147.574 23.4689 147.574 22.3985C147.574 21.1696 148.089 20.2181 149.12 19.5045C150.15 18.8306 151.617 18.4738 153.48 18.4738H154.908V18.1963C154.868 16.8484 154.075 16.1348 152.608 16.1348C152.093 16.1348 151.498 16.2141 150.824 16.3727C150.15 16.5313 149.556 16.7295 149.001 16.9673L148.287 14.7077C149.08 14.3905 149.873 14.1526 150.745 13.9941C151.617 13.8355 152.37 13.7166 153.124 13.7166ZM130.527 13.7562C131.716 13.7562 132.866 14.0337 133.936 14.5887L133.183 16.8088C132.39 16.3727 131.597 16.1745 130.884 16.1745C129.893 16.1745 129.139 16.4916 128.624 17.1259C128.109 17.7602 127.831 18.6324 127.831 19.782C127.831 20.9317 128.109 21.8038 128.664 22.4381C129.219 23.0724 130.011 23.3896 131.003 23.3896C131.835 23.3896 132.668 23.1914 133.46 22.8346L134.015 25.1339C133.46 25.3718 132.905 25.57 132.271 25.6889C131.637 25.8078 131.042 25.8871 130.487 25.8871C128.545 25.8871 127.038 25.3718 126.007 24.3014C124.977 23.2707 124.461 21.7642 124.461 19.782C124.461 17.8791 124.977 16.3727 126.047 15.3023C127.078 14.2716 128.584 13.7562 130.527 13.7562ZM101.547 13.7562C102.776 13.7562 103.728 14.113 104.402 14.8266C105.076 15.5402 105.393 16.5709 105.393 17.8791V25.6889H102.023V18.0377C102.023 17.3638 101.904 16.8484 101.627 16.5313C101.349 16.2141 100.913 16.0555 100.318 16.0555C99.7635 16.0555 99.2877 16.1745 98.812 16.4123C98.3363 16.6502 97.9795 17.007 97.6623 17.4034V25.6493H94.2926V13.8751H97.1073L97.4641 15.5005C98.4949 14.3509 99.8824 13.7562 101.547 13.7562ZM168.386 13.7562C169.615 13.7562 170.567 14.113 171.241 14.8266C171.915 15.5402 172.232 16.5709 172.232 17.8791V25.6889H168.862V18.0377C168.862 17.3638 168.743 16.8484 168.466 16.5313C168.188 16.2141 167.752 16.0555 167.157 16.0555C166.602 16.0555 166.127 16.1745 165.651 16.4123C165.175 16.6502 164.819 17.007 164.501 17.4034V25.6493H161.132V13.8751H163.946L164.303 15.5005C165.334 14.3509 166.721 13.7562 168.386 13.7562ZM154.908 20.337H153.758C152.807 20.337 152.053 20.4956 151.538 20.8128C151.023 21.1299 150.745 21.6056 150.745 22.2003C150.745 22.676 150.904 23.0328 151.181 23.3103C151.459 23.5482 151.895 23.7067 152.41 23.7067C152.886 23.7067 153.362 23.5878 153.798 23.3896C154.234 23.1914 154.63 22.8742 154.908 22.5174V20.337ZM73.4798 16.1745C72.8851 16.1745 72.3698 16.333 71.9337 16.6502C71.4976 16.9673 71.1805 17.4431 71.0219 17.9981V23.3499C71.458 23.4689 71.7751 23.5085 72.013 23.5482C72.2508 23.5878 72.4887 23.5878 72.8058 23.5878C73.8366 23.5878 74.5898 23.2707 75.1448 22.5967C75.6998 21.9228 75.9773 20.9713 75.9773 19.7027C75.9773 17.3241 75.1448 16.1745 73.4798 16.1745ZM57.5431 12.2498C56.1952 12.2498 55.1645 12.7255 54.4905 13.6373C53.8166 14.5491 53.4598 15.897 53.4598 17.6809C53.4598 19.5045 53.8166 20.892 54.4905 21.8038C55.1645 22.7553 56.1952 23.231 57.5431 23.231C58.891 23.231 59.9217 22.7553 60.5956 21.8038C61.2696 20.8524 61.6264 19.4649 61.6264 17.6809C61.6264 15.897 61.2696 14.5491 60.5956 13.6373C59.882 12.7255 58.8513 12.2498 57.5431 12.2498ZM115.224 12.2498C113.877 12.2498 112.846 12.7255 112.172 13.6373C111.498 14.5491 111.141 15.897 111.141 17.6809C111.141 19.5045 111.498 20.892 112.172 21.8038C112.846 22.7157 113.877 23.231 115.224 23.231C116.572 23.231 117.603 22.7553 118.277 21.8038C118.951 20.8524 119.308 19.4649 119.308 17.6809C119.308 15.897 118.951 14.5491 118.277 13.6373C117.603 12.7255 116.572 12.2498 115.224 12.2498ZM86.7604 16.0555C86.0071 16.0555 85.4125 16.2538 85.0161 16.6502C84.58 17.0466 84.3025 17.6809 84.1835 18.5134H88.9408C88.8218 16.8484 88.1083 16.0555 86.7604 16.0555ZM141.072 16.0555C140.319 16.0555 139.724 16.2538 139.328 16.6502C138.892 17.0466 138.614 17.6809 138.495 18.5134H143.252C143.133 16.8484 142.42 16.0555 141.072 16.0555Z" fill="white"/>
</g>
<defs>
<clipPath id="clip0_3079_2689">
<rect width="174.035" height="34.8863" fill="white" transform="translate(0.96582 0.750977)"/>
</clipPath>
</defs>
</svg>
