<svg width="158" height="26" viewBox="0 0 158 26" fill="none" xmlns="http://www.w3.org/2000/svg">
<g opacity="0.4" clip-path="url(#clip0_3079_2687)">
<path fill-rule="evenodd" clip-rule="evenodd" d="M7.63172 16.6509C6.07423 19.364 4.54186 22.1021 2.98438 24.8152H30.9689C29.0597 21.4741 27.1757 18.1582 25.2916 14.8674L25.2665 14.8422C22.5032 9.99393 19.7399 5.14562 16.9515 0.24707C13.8366 5.77364 10.7216 11.2248 7.63172 16.6509ZM21.0713 14.365C22.4279 16.7514 23.8095 19.1379 25.166 21.5495H8.76215C11.5003 16.7514 14.2134 12.0287 16.9767 7.15528C18.3332 9.592 19.7148 11.9785 21.0713 14.365Z" fill="white"/>
<path d="M126.683 7.48148C126.909 6.77809 127.135 6.07471 127.361 5.34621C127.16 5.34621 126.985 5.34621 126.809 5.34621C126.407 5.34621 126.055 5.37134 125.678 5.3211C125.251 5.27085 125.101 5.44669 125 5.84863C124.146 8.61191 123.242 11.3752 122.312 14.1134C122.036 14.867 121.734 15.6206 121.383 16.4245C121.232 16.8013 121.056 17.1781 120.905 17.58L120.629 17.0023C119.097 13.4602 117.815 9.81772 116.936 6.07472C116.936 6.02448 116.911 5.99936 116.911 5.94912C116.836 5.5723 116.76 5.22061 116.183 5.3211C116.032 5.34622 115.881 5.34621 115.73 5.34621C115.329 5.34621 114.927 5.32109 114.726 6.0496C113.972 8.48631 113.168 10.923 112.339 13.3346C112.063 14.1887 111.761 15.0177 111.485 15.8718C111.359 16.2486 111.184 16.6254 110.983 17.0525C110.907 17.2032 110.832 17.3539 110.757 17.5298C110.656 17.3037 110.556 17.1027 110.455 16.9269C110.304 16.6254 110.154 16.3491 110.053 16.0477C108.872 12.6815 107.717 9.29018 106.536 5.89887V5.87375C106.461 5.6979 106.26 5.39645 106.109 5.37133C105.682 5.32109 105.255 5.32109 104.828 5.34621C104.652 5.34621 104.476 5.34621 104.275 5.34621C104.301 5.44669 104.301 5.54718 104.326 5.62254C104.351 5.72302 104.351 5.82351 104.376 5.89887C105.582 10.2448 107.089 14.4399 109.048 18.5095C109.501 19.439 109.978 19.8409 110.983 19.7153C111.485 19.6399 111.761 19.5395 111.962 19.037C112.565 17.5047 113.168 15.9974 113.771 14.4902C114.198 13.41 114.625 12.3298 115.052 11.2747C115.228 10.7974 115.379 10.3452 115.53 9.9182C115.58 9.74235 115.655 9.5665 115.705 9.41578C116.986 12.5559 118.293 15.7713 119.574 18.9868C119.775 19.5143 120.076 19.7907 120.654 19.6902C120.83 19.6651 121.031 19.6651 121.207 19.6902C121.684 19.7907 121.935 19.5646 122.111 19.1375C122.488 18.2583 122.865 17.3791 123.267 16.4998C123.895 15.0931 124.523 13.6863 125.075 12.2544C125.678 10.6969 126.181 9.11433 126.683 7.48148Z" fill="white"/>
<path fill-rule="evenodd" clip-rule="evenodd" d="M145.997 19.062V24.7895H143.912C143.912 24.689 143.912 24.5634 143.912 24.4378C143.912 24.3122 143.912 24.1866 143.912 24.061V6.55182C143.912 6.50157 143.912 6.42621 143.887 6.37597C143.862 6.12476 143.837 5.87355 144.239 5.77307C147.052 5.09481 149.866 4.69288 152.679 5.49674C155.82 6.37597 157.804 9.01365 157.754 12.3045C157.754 13.3595 157.628 14.4397 157.327 15.4446C156.498 18.1325 153.986 19.9663 151.172 20.0166C150.293 20.0166 149.389 20.0166 148.509 19.8658C147.957 19.7653 147.404 19.5644 146.826 19.3634C146.575 19.2629 146.299 19.1373 145.997 19.062ZM145.997 13.5856C145.997 14.5653 145.997 15.5451 145.997 16.5248C145.997 16.9769 146.123 17.203 146.525 17.404C148.082 18.2079 149.74 18.5093 151.423 18.2832C153.433 17.9818 154.84 16.8765 155.317 14.8166C155.543 13.862 155.593 12.9074 155.593 11.9277C155.568 9.51607 154.111 7.68225 151.825 7.05423C150.193 6.60206 148.56 6.7779 146.902 6.97887C146.148 7.07935 145.997 7.35568 146.048 8.05906C146.048 8.5866 146.048 9.13926 146.022 9.66679C146.022 10.4707 145.997 11.2745 146.022 12.1035C145.997 12.6059 145.997 13.0832 145.997 13.5856Z" fill="white"/>
<path fill-rule="evenodd" clip-rule="evenodd" d="M39.2579 24.8147V18.9615L39.3835 19.0118C39.6096 19.1123 39.7352 19.1625 39.8356 19.2379C42.4231 20.3432 45.0105 20.4437 47.5477 19.1374C49.7583 17.9818 50.7632 15.9973 51.0144 13.5606C51.4163 9.94316 49.7332 6.57698 45.9651 5.49678C43.1265 4.6678 40.3381 5.06973 37.5245 5.74799C37.1226 5.84847 37.1226 6.09968 37.1477 6.35089C37.1477 6.40113 37.1477 6.45137 37.1477 6.50161V24.0862C37.1477 24.3123 37.1728 24.5383 37.198 24.7644H39.2579V24.8147ZM39.2579 13.3596C39.2579 12.9577 39.2579 12.5557 39.2579 12.1538C39.2579 11.6765 39.2579 11.1741 39.2579 10.6968C39.2579 9.71708 39.2579 8.71224 39.2579 7.73253C39.2579 7.25524 39.4086 7.07939 39.8859 7.00403C41.4936 6.7277 43.1265 6.55186 44.7593 6.92867C47.9497 7.70741 49.0801 10.2195 48.854 13.2842C48.8038 13.7615 48.7284 14.2388 48.6028 14.691C48.1004 16.8514 46.3922 18.2079 44.2318 18.3084C42.7497 18.3837 41.368 18.1325 40.0115 17.5296C39.484 17.3035 39.2327 17.0021 39.2579 16.349C39.283 15.3693 39.2579 14.3644 39.2579 13.3596Z" fill="white"/>
<path d="M79.9306 7.23039C79.8552 7.12991 79.8301 7.07967 79.8301 7.02943C79.5537 5.62267 79.5286 5.52218 80.9354 5.34634C82.3924 5.17049 83.8997 4.99465 85.3315 5.17049C88.346 5.52219 89.7779 7.2304 89.8533 10.3454C89.9035 12.0536 89.8784 13.7618 89.8784 15.47C89.8784 16.6005 89.8784 17.756 89.8784 18.8864C89.8784 19.3135 89.7277 19.4391 89.3257 19.5145C86.8639 19.9415 84.4272 20.243 81.9402 19.8913C78.9509 19.4893 77.2426 17.128 77.9711 14.3898C78.2475 13.4352 78.8253 12.7067 79.6794 12.2294C81.5132 11.1744 83.5228 11.0488 85.633 11.1492V12.757C85.4571 12.757 85.2562 12.757 85.0803 12.757C84.603 12.757 84.1509 12.7318 83.6736 12.7821C83.0204 12.8575 82.317 12.9579 81.7141 13.184C80.5083 13.6111 79.9557 14.4149 79.9808 15.6459C80.0059 16.9019 80.5837 17.8314 81.8649 18.0323C83.0204 18.2333 84.2262 18.2333 85.432 18.2584C85.8088 18.2584 86.1605 18.2584 86.5373 18.2835C86.7634 18.3087 87.0146 18.2584 87.2407 18.2082C87.3663 18.1831 87.517 18.1579 87.6426 18.1328C87.6426 18.0826 87.6678 18.0575 87.6678 18.0072C87.6929 17.957 87.6929 17.9067 87.6929 17.8565C87.6929 17.329 87.6929 16.8014 87.6929 16.2488C87.6929 14.1135 87.6929 11.9531 87.6426 9.79272C87.5924 8.00914 86.4117 6.85358 84.6533 6.7531C83.1963 6.65262 81.7644 6.65262 80.3576 7.15503C80.2823 7.15503 80.2069 7.18016 80.1315 7.18016C80.1064 7.20528 80.031 7.20527 79.9306 7.23039Z" fill="white"/>
<path d="M131.124 5.39631C130.848 5.44655 130.546 5.52191 130.27 5.57216C130.295 5.79824 130.345 5.97409 130.37 6.17505C130.446 6.52674 130.496 6.82819 130.496 7.05428L130.898 7.00404C131.978 6.85331 133.033 6.72771 134.063 6.65235C136.952 6.40114 138.334 7.70742 138.334 10.6214V18.2581C137.881 18.2581 137.454 18.2581 137.027 18.2581C135.972 18.2581 134.967 18.2833 133.963 18.233C133.309 18.1828 132.581 17.9818 131.953 17.7306C131.099 17.404 130.722 16.6504 130.621 15.7209C130.521 14.7412 130.822 13.862 131.702 13.435C132.48 13.0833 133.309 12.8321 134.164 12.6813C134.641 12.606 135.118 12.6311 135.646 12.6311C135.872 12.6311 136.098 12.6562 136.349 12.6562V11.149C135.344 10.8224 132.681 11.0736 131.35 11.6011C129.416 12.3548 128.436 13.7113 128.486 15.5451C128.562 17.5799 129.566 18.9113 131.576 19.5142C134.264 20.3181 136.927 19.9161 139.59 19.4891C139.866 19.4388 140.142 19.4137 140.393 19.3635C140.469 19.263 140.494 19.2127 140.494 19.1625C140.494 18.1828 140.494 17.2031 140.519 16.2234C140.544 14.0127 140.544 11.777 140.469 9.56636C140.368 7.53157 139.288 6.04945 137.304 5.37118C135.796 4.86877 134.264 4.96925 132.732 5.09485C132.204 5.17022 131.677 5.29582 131.124 5.39631Z" fill="white"/>
<path d="M65.2852 19.389C62.6224 19.8915 60.035 20.2683 57.4224 19.8663C56.091 19.6654 54.9103 19.1881 54.0311 18.0325C52.7499 16.2992 53.0765 13.6113 54.835 12.3803C56.7441 11.0741 58.9045 11.0238 61.1152 11.0992V12.6315C60.7635 12.6567 60.4369 12.6818 60.0852 12.7069C59.3818 12.7571 58.7036 12.8074 58.0002 12.9079C57.4726 13.0084 56.92 13.2344 56.4427 13.5108C54.8852 14.5658 55.0611 16.9523 56.719 17.7813C57.2466 18.0576 57.8746 18.2084 58.4775 18.2837C59.1306 18.3591 59.8089 18.334 60.462 18.3088C60.5625 18.3088 60.6881 18.3088 60.7886 18.3088C61.3161 18.2837 61.8437 18.2586 62.3712 18.2084C62.6224 18.1832 62.8987 18.1581 63.1751 18.133V10.7224C63.1751 7.80836 61.7934 6.52719 58.9297 6.72816C57.9248 6.80352 56.92 6.92913 55.8649 7.05473C55.6891 7.07985 55.5132 7.10497 55.3374 7.13009C55.2871 6.904 55.2369 6.60256 55.1615 6.27599C55.1113 6.07502 55.0862 5.84893 55.0359 5.59772C55.2871 5.54748 55.5384 5.49724 55.7896 5.42188C56.4176 5.27116 57.0456 5.14555 57.6736 5.12043C58.9548 5.07019 60.2611 5.04507 61.5171 5.27115C63.7026 5.67309 65.1094 7.15521 65.2099 9.49144C65.3103 11.8026 65.2852 14.1137 65.2852 16.4499C65.2852 17.4296 65.2852 18.4093 65.2852 19.389Z" fill="white"/>
<path d="M13.5346 0.347168H0.848633C1.90371 2.23123 2.95878 4.06505 4.01385 5.92398C5.06892 7.78292 6.124 9.61673 7.17907 11.5008C8.73656 8.78775 10.2438 6.12495 11.7511 3.46214C12.354 2.40707 12.9568 1.37712 13.5346 0.347168Z" fill="white"/>
<path d="M93.0415 5.29534C93.2425 5.29534 93.4183 5.29534 93.5942 5.29534C94.0212 5.29534 94.4232 5.27022 94.8 5.32046C94.9507 5.34559 95.1768 5.64703 95.1768 5.82288C95.227 6.75235 95.227 7.6567 95.1768 8.58617C95.1014 9.64124 95.629 10.3195 96.5082 10.7214C97.1362 10.9978 97.7893 11.249 98.4425 11.5002C99.0454 11.7263 99.6734 11.9775 100.276 12.2287C100.98 12.5301 101.708 12.8316 102.336 13.2837C104.547 14.9166 104.22 18.1069 101.733 19.2374C100.955 19.5891 100.1 19.8152 99.2464 19.9156C97.086 20.1417 94.9005 20.1668 92.8154 19.1871C92.9159 18.8606 93.0164 18.534 93.1169 18.2577C93.1671 18.0818 93.2174 17.906 93.2676 17.7553C93.7198 17.8306 94.1468 17.906 94.5739 17.9813C95.4531 18.1321 96.3323 18.3079 97.2116 18.333C98.1913 18.3833 99.1961 18.2074 100.176 17.9813C100.904 17.8306 101.482 17.3282 101.557 16.4741C101.658 15.5195 101.382 14.7408 100.502 14.3639C99.6985 14.0123 98.8947 13.6857 98.0908 13.3591C97.6135 13.1581 97.1362 12.9823 96.6589 12.7813C96.5082 12.706 96.3575 12.6557 96.2319 12.6055C96.1816 12.5804 96.1314 12.5804 96.0811 12.5552C93.5942 11.5253 93.0164 10.6461 92.9913 7.93302V5.29534H93.0415Z" fill="white"/>
<path d="M75.8841 6.90426C76.2358 6.92938 76.5875 6.9545 76.9643 6.9545C76.9894 6.77865 77.0397 6.60281 77.0899 6.42696C77.1653 6.15063 77.2406 5.8743 77.2909 5.54773C77.1653 5.52261 77.0648 5.47237 76.9643 5.44725C76.8638 5.42213 76.7633 5.39701 76.688 5.37189C74.1759 4.84435 71.6638 5.09556 69.202 5.82406C68.6744 5.94967 68.5488 6.22599 68.5488 6.77865C68.5739 10.8733 68.574 14.9429 68.574 19.0376C68.574 19.2888 68.5991 19.5149 68.6242 19.741H70.7343V18.8366C70.7343 17.6057 70.7343 16.3999 70.7343 15.169C70.7343 12.7323 70.7343 10.2956 70.7343 7.85884C70.7343 7.33131 70.8348 7.05498 71.3875 7.00474C71.6638 6.97962 71.9401 6.92938 72.2165 6.90426C72.5682 6.85401 72.9198 6.77865 73.2715 6.77865C74.1256 6.77865 74.9798 6.82889 75.8841 6.90426Z" fill="white"/>
</g>
<defs>
<clipPath id="clip0_3079_2687">
<rect width="157.005" height="24.8696" fill="white" transform="translate(0.75 0.186523)"/>
</clipPath>
</defs>
</svg>
