<svg width="290" height="291" viewBox="0 0 290 291" fill="none" xmlns="http://www.w3.org/2000/svg">
<g clip-path="url(#clip0_3079_2659)">
<mask id="path-1-inside-1_3079_2659" fill="white">
<path d="M0 0H292V291H0V0Z"/>
</mask>
<path d="M0 0H292V291H0V0Z" fill="#0038FF"/>
<path d="M0 0H292V291H0V0Z" fill="url(#paint0_radial_3079_2659)" fill-opacity="0.9"/>
<g filter="url(#filter0_f_3079_2659)">
<path d="M254 31H175.504V101.57L39 179.019V260H117.496V179.019L254 101.57V31Z" fill="url(#paint1_linear_3079_2659)" fill-opacity="0.6"/>
</g>
<rect x="29" y="57" width="233" height="177" rx="10.4727" fill="url(#paint2_linear_3079_2659)"/>
<rect x="63.1152" y="71.3223" width="1.74545" height="146.618" fill="#5568AA" fill-opacity="0.46"/>
<rect x="64.8613" y="71.322" width="141.382" height="16.5818" fill="#216CC4" fill-opacity="0.13"/>
<rect x="64.8613" y="87.9033" width="83.7818" height="16.5818" fill="#216CC4" fill-opacity="0.13"/>
<rect x="64.8613" y="104.487" width="67.2" height="15.7091" fill="#216CC4" fill-opacity="0.13"/>
<rect x="64.8613" y="120.195" width="88.1455" height="15.7091" fill="#216CC4" fill-opacity="0.13"/>
<rect x="64.8613" y="135.903" width="119.564" height="15.7091" fill="#216CC4" fill-opacity="0.13"/>
<rect x="64.8613" y="151.614" width="73.3091" height="15.7091" fill="#216CC4" fill-opacity="0.13"/>
<rect x="64.8613" y="167.322" width="99.4909" height="15.7091" fill="#216CC4" fill-opacity="0.13"/>
<rect x="64.8613" y="183.031" width="73.3091" height="15.7091" fill="#216CC4" fill-opacity="0.13"/>
<rect x="64.8613" y="198.741" width="19.2" height="19.2" fill="#216CC4" fill-opacity="0.13"/>
<path d="M75.6927 82.5775L77.2152 78.1953H78.3961L76.3466 83.573H75.0192L72.9794 78.1953H74.1701L75.6927 82.5775ZM78.8663 80.8598C78.8663 80.3197 78.9769 79.8415 79.1981 79.4251C79.4259 79.0086 79.7317 78.6866 80.1156 78.4588C80.506 78.2246 80.9354 78.1075 81.4039 78.1075C81.8268 78.1075 82.1944 78.1921 82.5067 78.3612C82.8255 78.5239 83.0793 78.7289 83.268 78.9761V78.1953H84.3904V83.573H83.268V82.7727C83.0793 83.0264 82.8223 83.2379 82.497 83.4071C82.1716 83.5763 81.8008 83.6608 81.3843 83.6608C80.9224 83.6608 80.4994 83.5437 80.1156 83.3095C79.7317 83.0687 79.4259 82.7369 79.1981 82.314C78.9769 81.8845 78.8663 81.3998 78.8663 80.8598ZM83.268 80.8793C83.268 80.5084 83.1899 80.1863 83.0338 79.9131C82.8841 79.6398 82.6857 79.4316 82.4384 79.2884C82.1912 79.1453 81.9244 79.0737 81.6381 79.0737C81.3518 79.0737 81.085 79.1453 80.8378 79.2884C80.5905 79.4251 80.3888 79.63 80.2327 79.9033C80.083 80.1701 80.0082 80.4889 80.0082 80.8598C80.0082 81.2306 80.083 81.556 80.2327 81.8357C80.3888 82.1155 80.5905 82.3302 80.8378 82.4799C81.0915 82.623 81.3583 82.6946 81.6381 82.6946C81.9244 82.6946 82.1912 82.623 82.4384 82.4799C82.6857 82.3368 82.8841 82.1285 83.0338 81.8553C83.1899 81.5755 83.268 81.2502 83.268 80.8793ZM90.7219 78.1953V83.573H89.6093V82.9386C89.4336 83.1598 89.2026 83.3355 88.9163 83.4656C88.6366 83.5893 88.3373 83.6511 88.0184 83.6511C87.5955 83.6511 87.2149 83.5632 86.8765 83.3876C86.5447 83.2119 86.2812 82.9516 86.086 82.6068C85.8973 82.2619 85.803 81.8455 85.803 81.3575V78.1953H86.9058V81.1916C86.9058 81.6731 87.0262 82.044 87.2669 82.3042C87.5077 82.558 87.8363 82.6849 88.2527 82.6849C88.6691 82.6849 88.9977 82.558 89.2384 82.3042C89.4857 82.044 89.6093 81.6731 89.6093 81.1916V78.1953H90.7219ZM93.3026 76.3507V83.573H92.1899V76.3507H93.3026ZM96.0614 79.103V82.0797C96.0614 82.2814 96.1069 82.4278 96.198 82.5189C96.2956 82.6035 96.4583 82.6458 96.686 82.6458H97.3692V83.573H96.4908C95.9898 83.573 95.6059 83.4559 95.3392 83.2216C95.0724 82.9874 94.939 82.6068 94.939 82.0797V79.103H94.3046V78.1953H94.939V76.8582H96.0614V78.1953H97.3692V79.103H96.0614Z" fill="#F3F99D"/>
<path d="M106.571 78.4686V79.4055H101.379V78.4686H106.571ZM106.571 80.6841V81.621H101.379V80.6841H106.571Z" fill="#FF6AC1"/>
<path d="M113.737 78.1075C114.16 78.1075 114.537 78.1953 114.869 78.371C115.207 78.5467 115.471 78.8069 115.659 79.1518C115.848 79.4966 115.942 79.9131 115.942 80.401V83.573H114.839V80.567C114.839 80.0855 114.719 79.7179 114.478 79.4641C114.238 79.2038 113.909 79.0737 113.493 79.0737C113.076 79.0737 112.744 79.2038 112.497 79.4641C112.256 79.7179 112.136 80.0855 112.136 80.567V83.573H111.023V78.1953H112.136V78.8102C112.318 78.589 112.549 78.4165 112.829 78.2929C113.115 78.1693 113.418 78.1075 113.737 78.1075ZM122.29 80.7524C122.29 80.9541 122.277 81.1363 122.251 81.299H118.142C118.175 81.7284 118.334 82.0732 118.621 82.3335C118.907 82.5938 119.258 82.7239 119.675 82.7239C120.273 82.7239 120.696 82.4734 120.943 81.9724H122.144C121.981 82.4669 121.685 82.8735 121.256 83.1924C120.833 83.5047 120.306 83.6608 119.675 83.6608C119.161 83.6608 118.699 83.547 118.289 83.3192C117.885 83.085 117.567 82.7597 117.332 82.3433C117.105 81.9203 116.991 81.4323 116.991 80.8793C116.991 80.3262 117.101 79.8415 117.323 79.4251C117.55 79.0021 117.866 78.6768 118.269 78.4491C118.679 78.2213 119.148 78.1075 119.675 78.1075C120.182 78.1075 120.634 78.2181 121.031 78.4393C121.428 78.6605 121.737 78.9729 121.958 79.3763C122.18 79.7732 122.29 80.2319 122.29 80.7524ZM121.129 80.401C121.122 79.9911 120.976 79.6626 120.69 79.4153C120.403 79.1681 120.049 79.0444 119.626 79.0444C119.242 79.0444 118.913 79.1681 118.64 79.4153C118.367 79.656 118.204 79.9846 118.152 80.401H121.129ZM130.608 78.1953L128.939 83.573H127.767L126.684 79.6007L125.601 83.573H124.43L122.751 78.1953H123.883L125.005 82.5189L126.147 78.1953H127.309L128.402 82.4994L129.514 78.1953H130.608Z" fill="white"/>
<path d="M138.064 82.1871H135.224L134.736 83.573H133.574L136.004 76.7801H137.293L139.723 83.573H138.552L138.064 82.1871ZM137.751 81.2794L136.648 78.127L135.536 81.2794H137.751ZM140.409 80.8598C140.409 80.3197 140.519 79.8415 140.74 79.4251C140.968 79.0086 141.274 78.6866 141.658 78.4588C142.048 78.2246 142.478 78.1075 142.946 78.1075C143.369 78.1075 143.737 78.1921 144.049 78.3612C144.368 78.5239 144.622 78.7289 144.81 78.9761V78.1953H145.933V83.573H144.81V82.7727C144.622 83.0264 144.365 83.2379 144.039 83.4071C143.714 83.5763 143.343 83.6608 142.927 83.6608C142.465 83.6608 142.042 83.5437 141.658 83.3095C141.274 83.0687 140.968 82.7369 140.74 82.314C140.519 81.8845 140.409 81.3998 140.409 80.8598ZM144.81 80.8793C144.81 80.5084 144.732 80.1863 144.576 79.9131C144.426 79.6398 144.228 79.4316 143.981 79.2884C143.733 79.1453 143.467 79.0737 143.18 79.0737C142.894 79.0737 142.627 79.1453 142.38 79.2884C142.133 79.4251 141.931 79.63 141.775 79.9033C141.625 80.1701 141.551 80.4889 141.551 80.8598C141.551 81.2306 141.625 81.556 141.775 81.8357C141.931 82.1155 142.133 82.3302 142.38 82.4799C142.634 82.623 142.901 82.6946 143.18 82.6946C143.467 82.6946 143.733 82.623 143.981 82.4799C144.228 82.3368 144.426 82.1285 144.576 81.8553C144.732 81.5755 144.81 81.2502 144.81 80.8793ZM149.473 82.5775L150.995 78.1953H152.176L150.127 83.573H148.799L146.76 78.1953H147.95L149.473 82.5775ZM157.946 80.7524C157.946 80.9541 157.933 81.1363 157.907 81.299H153.798C153.831 81.7284 153.99 82.0732 154.276 82.3335C154.563 82.5938 154.914 82.7239 155.33 82.7239C155.929 82.7239 156.352 82.4734 156.599 81.9724H157.8C157.637 82.4669 157.341 82.8735 156.912 83.1924C156.489 83.5047 155.962 83.6608 155.33 83.6608C154.816 83.6608 154.355 83.547 153.945 83.3192C153.541 83.085 153.222 82.7597 152.988 82.3433C152.76 81.9203 152.647 81.4323 152.647 80.8793C152.647 80.3262 152.757 79.8415 152.978 79.4251C153.206 79.0021 153.522 78.6768 153.925 78.4491C154.335 78.2213 154.803 78.1075 155.33 78.1075C155.838 78.1075 156.29 78.2181 156.687 78.4393C157.084 78.6605 157.393 78.9729 157.614 79.3763C157.836 79.7732 157.946 80.2319 157.946 80.7524ZM156.785 80.401C156.778 79.9911 156.632 79.6626 156.346 79.4153C156.059 79.1681 155.705 79.0444 155.282 79.0444C154.898 79.0444 154.569 79.1681 154.296 79.4153C154.023 79.656 153.86 79.9846 153.808 80.401H156.785ZM164.887 76.7899L162.34 83.573H161.052L158.495 76.7899H159.685L161.696 82.4311L163.716 76.7899H164.887ZM165.652 78.2148C165.691 77.6097 165.922 77.138 166.345 76.7997C166.774 76.4613 167.321 76.2922 167.984 76.2922C168.44 76.2922 168.833 76.3735 169.165 76.5361C169.497 76.6988 169.748 76.92 169.917 77.1998C170.086 77.4796 170.171 77.7952 170.171 78.1465C170.171 78.5499 170.063 78.8948 169.848 79.1811C169.634 79.4674 169.377 79.6593 169.077 79.7569V79.7959C169.461 79.9131 169.761 80.1278 169.975 80.4401C170.19 80.7459 170.297 81.1395 170.297 81.621C170.297 82.0049 170.21 82.3465 170.034 82.6458C169.858 82.9451 169.598 83.1826 169.253 83.3583C168.908 83.5275 168.495 83.612 168.014 83.612C167.311 83.612 166.732 83.4331 166.276 83.0752C165.827 82.7109 165.587 82.1904 165.554 81.5137H166.628C166.654 81.8585 166.787 82.1416 167.028 82.3628C167.269 82.5775 167.594 82.6849 168.004 82.6849C168.401 82.6849 168.707 82.5775 168.921 82.3628C169.136 82.1416 169.243 81.8585 169.243 81.5137C169.243 81.0582 169.097 80.7361 168.804 80.5474C168.518 80.3522 168.075 80.2547 167.477 80.2547H167.223V79.3372H167.487C168.014 79.3307 168.414 79.2429 168.687 79.0737C168.967 78.9045 169.107 78.6378 169.107 78.2734C169.107 77.9611 169.006 77.7138 168.804 77.5317C168.602 77.343 168.316 77.2486 167.945 77.2486C167.581 77.2486 167.298 77.343 167.096 77.5317C166.895 77.7138 166.774 77.9416 166.735 78.2148H165.652ZM177.459 76.7899L174.911 83.573H173.623L171.066 76.7899H172.257L174.267 82.4311L176.288 76.7899H177.459ZM178.018 80.8598C178.018 80.3197 178.129 79.8415 178.35 79.4251C178.578 79.0086 178.884 78.6866 179.268 78.4588C179.658 78.2246 180.087 78.1075 180.556 78.1075C180.979 78.1075 181.346 78.1921 181.659 78.3612C181.978 78.5239 182.231 78.7289 182.42 78.9761V78.1953H183.542V83.573H182.42V82.7727C182.231 83.0264 181.974 83.2379 181.649 83.4071C181.324 83.5763 180.953 83.6608 180.536 83.6608C180.074 83.6608 179.651 83.5437 179.268 83.3095C178.884 83.0687 178.578 82.7369 178.35 82.314C178.129 81.8845 178.018 81.3998 178.018 80.8598ZM182.42 80.8793C182.42 80.5084 182.342 80.1863 182.186 79.9131C182.036 79.6398 181.838 79.4316 181.59 79.2884C181.343 79.1453 181.076 79.0737 180.79 79.0737C180.504 79.0737 180.237 79.1453 179.99 79.2884C179.743 79.4251 179.541 79.63 179.385 79.9033C179.235 80.1701 179.16 80.4889 179.16 80.8598C179.16 81.2306 179.235 81.556 179.385 81.8357C179.541 82.1155 179.743 82.3302 179.99 82.4799C180.244 82.623 180.51 82.6946 180.79 82.6946C181.076 82.6946 181.343 82.623 181.59 82.4799C181.838 82.3368 182.036 82.1285 182.186 81.8553C182.342 81.5755 182.42 81.2502 182.42 80.8793ZM189.874 78.1953V83.573H188.761V82.9386C188.586 83.1598 188.355 83.3355 188.068 83.4656C187.789 83.5893 187.489 83.6511 187.17 83.6511C186.748 83.6511 186.367 83.5632 186.029 83.3876C185.697 83.2119 185.433 82.9516 185.238 82.6068C185.049 82.2619 184.955 81.8455 184.955 81.3575V78.1953H186.058V81.1916C186.058 81.6731 186.178 82.044 186.419 82.3042C186.66 82.558 186.988 82.6849 187.405 82.6849C187.821 82.6849 188.15 82.558 188.39 82.3042C188.638 82.044 188.761 81.6731 188.761 81.1916V78.1953H189.874ZM192.455 76.3507V83.573H191.342V76.3507H192.455ZM195.213 79.103V82.0797C195.213 82.2814 195.259 82.4278 195.35 82.5189C195.448 82.6035 195.61 82.6458 195.838 82.6458H196.521V83.573H195.643C195.142 83.573 194.758 83.4559 194.491 83.2216C194.224 82.9874 194.091 82.6068 194.091 82.0797V79.103H193.457V78.1953H194.091V76.8582H195.213V78.1953H196.521V79.103H195.213Z" fill="#57C7F9"/>
<path d="M200.006 85.3883C199.369 84.7767 198.877 83.9992 198.532 83.0557C198.194 82.1123 198.025 81.1005 198.025 80.0204C198.025 78.9143 198.207 77.87 198.571 76.8875C198.942 75.905 199.486 75.0949 200.201 74.4573H201.353V74.5647C200.605 75.2544 200.042 76.0807 199.665 77.0437C199.287 78.0066 199.099 78.9989 199.099 80.0204C199.099 81.0029 199.274 81.9529 199.626 82.8703C199.977 83.7877 200.488 84.5913 201.158 85.281V85.3883H200.006Z" fill="#E6B422"/>
<path d="M73.3405 214.553V214.446C74.0107 213.756 74.5215 212.953 74.8728 212.035C75.2242 211.118 75.3999 210.168 75.3999 209.185C75.3999 208.164 75.2112 207.172 74.8338 206.209C74.4564 205.246 73.8936 204.419 73.1454 203.73V203.622H74.297C75.0127 204.26 75.5528 205.07 75.9171 206.053C76.288 207.035 76.4735 208.079 76.4735 209.185C76.4735 210.266 76.301 211.277 75.9562 212.221C75.6178 213.164 75.1299 213.942 74.4922 214.553H73.3405Z" fill="#E6B422"/>
<path d="M79.0812 208.707C78.8795 208.707 78.7103 208.639 78.5737 208.502C78.437 208.366 78.3687 208.196 78.3687 207.995C78.3687 207.793 78.437 207.624 78.5737 207.487C78.7103 207.351 78.8795 207.282 79.0812 207.282C79.2764 207.282 79.4423 207.351 79.5789 207.487C79.7156 207.624 79.7839 207.793 79.7839 207.995C79.7839 208.196 79.7156 208.366 79.5789 208.502C79.4423 208.639 79.2764 208.707 79.0812 208.707ZM79.901 211.401L78.7201 214.095H77.9978L78.6908 211.401H79.901Z" fill="white"/>
<path d="M95.2906 94.7764V100.154H94.178V99.5197C94.0023 99.7409 93.7713 99.9166 93.4851 100.047C93.2053 100.17 92.906 100.232 92.5872 100.232C92.1642 100.232 91.7836 100.144 91.4452 99.9686C91.1134 99.7929 90.8499 99.5327 90.6547 99.1878C90.466 98.843 90.3717 98.4266 90.3717 97.9386V94.7764H91.4745V97.7727C91.4745 98.2541 91.5949 98.625 91.8356 98.8853C92.0764 99.139 92.405 99.2659 92.8214 99.2659C93.2378 99.2659 93.5664 99.139 93.8071 98.8853C94.0544 98.625 94.178 98.2541 94.178 97.7727V94.7764H95.2906ZM99.4719 94.6885C99.8948 94.6885 100.272 94.7764 100.604 94.9521C100.942 95.1277 101.206 95.388 101.395 95.7328C101.583 96.0777 101.678 96.4941 101.678 96.9821V100.154H100.575V97.148C100.575 96.6665 100.454 96.2989 100.214 96.0452C99.9729 95.7849 99.6443 95.6548 99.2279 95.6548C98.8115 95.6548 98.4796 95.7849 98.2324 96.0452C97.9916 96.2989 97.8713 96.6665 97.8713 97.148V100.154H96.7586V94.7764H97.8713V95.3912C98.0535 95.17 98.2844 94.9976 98.5642 94.874C98.8505 94.7504 99.1531 94.6885 99.4719 94.6885ZM102.726 97.4408C102.726 96.9008 102.837 96.4225 103.058 96.0061C103.286 95.5897 103.591 95.2676 103.975 95.0399C104.366 94.8057 104.798 94.6885 105.273 94.6885C105.625 94.6885 105.969 94.7666 106.308 94.9228C106.653 95.0724 106.926 95.2741 107.128 95.5279V92.9318H108.25V100.154H107.128V99.344C106.945 99.6042 106.692 99.819 106.366 99.9881C106.048 100.157 105.68 100.242 105.264 100.242C104.795 100.242 104.366 100.125 103.975 99.8905C103.591 99.6498 103.286 99.318 103.058 98.895C102.837 98.4656 102.726 97.9809 102.726 97.4408ZM107.128 97.4603C107.128 97.0895 107.05 96.7674 106.893 96.4941C106.744 96.2208 106.545 96.0126 106.298 95.8695C106.051 95.7263 105.784 95.6548 105.498 95.6548C105.211 95.6548 104.945 95.7263 104.697 95.8695C104.45 96.0061 104.248 96.2111 104.092 96.4844C103.943 96.7511 103.868 97.0699 103.868 97.4408C103.868 97.8117 103.943 98.137 104.092 98.4168C104.248 98.6966 104.45 98.9113 104.697 99.061C104.951 99.2041 105.218 99.2757 105.498 99.2757C105.784 99.2757 106.051 99.2041 106.298 99.061C106.545 98.9178 106.744 98.7096 106.893 98.4363C107.05 98.1565 107.128 97.8312 107.128 97.4603ZM114.64 97.3335C114.64 97.5352 114.627 97.7173 114.601 97.88H110.492C110.525 98.3094 110.684 98.6543 110.97 98.9146C111.257 99.1748 111.608 99.3049 112.024 99.3049C112.623 99.3049 113.046 99.0544 113.293 98.5534H114.494C114.331 99.0479 114.035 99.4546 113.606 99.7734C113.183 100.086 112.656 100.242 112.024 100.242C111.51 100.242 111.049 100.128 110.639 99.9003C110.235 99.6661 109.916 99.3407 109.682 98.9243C109.454 98.5014 109.341 98.0134 109.341 97.4603C109.341 96.9073 109.451 96.4225 109.672 96.0061C109.9 95.5832 110.216 95.2579 110.619 95.0301C111.029 94.8024 111.497 94.6885 112.024 94.6885C112.532 94.6885 112.984 94.7992 113.381 95.0204C113.778 95.2416 114.087 95.5539 114.308 95.9573C114.53 96.3542 114.64 96.8129 114.64 97.3335ZM113.479 96.9821C113.472 96.5722 113.326 96.2436 113.04 95.9964C112.753 95.7491 112.399 95.6255 111.976 95.6255C111.592 95.6255 111.263 95.7491 110.99 95.9964C110.717 96.2371 110.554 96.5657 110.502 96.9821H113.479ZM116.848 95.5572C117.01 95.2839 117.225 95.0724 117.492 94.9228C117.765 94.7666 118.087 94.6885 118.458 94.6885V95.8402H118.175C117.739 95.8402 117.407 95.9508 117.18 96.172C116.958 96.3933 116.848 96.7771 116.848 97.3237V100.154H115.735V94.7764H116.848V95.5572ZM120.593 92.9318V100.154H119.481V92.9318H120.593ZM126.895 94.7764L123.596 102.682H122.445L123.538 100.066L121.42 94.7764H122.659L124.172 98.8755L125.743 94.7764H126.895ZM128.301 94.0639C128.099 94.0639 127.93 93.9956 127.793 93.859C127.657 93.7223 127.588 93.5531 127.588 93.3514C127.588 93.1497 127.657 92.9806 127.793 92.8439C127.93 92.7073 128.099 92.639 128.301 92.639C128.496 92.639 128.662 92.7073 128.799 92.8439C128.935 92.9806 129.003 93.1497 129.003 93.3514C129.003 93.5531 128.935 93.7223 128.799 93.859C128.662 93.9956 128.496 94.0639 128.301 94.0639ZM128.847 94.7764V100.154H127.735V94.7764H128.847ZM133.021 94.6885C133.444 94.6885 133.822 94.7764 134.153 94.9521C134.492 95.1277 134.755 95.388 134.944 95.7328C135.133 96.0777 135.227 96.4941 135.227 96.9821V100.154H134.124V97.148C134.124 96.6665 134.004 96.2989 133.763 96.0452C133.522 95.7849 133.194 95.6548 132.777 95.6548C132.361 95.6548 132.029 95.7849 131.782 96.0452C131.541 96.2989 131.421 96.6665 131.421 97.148V100.154H130.308V94.7764H131.421V95.3912C131.603 95.17 131.834 94.9976 132.114 94.874C132.4 94.7504 132.703 94.6885 133.021 94.6885ZM138.813 94.6885C139.229 94.6885 139.597 94.7731 139.916 94.9423C140.241 95.105 140.495 95.3099 140.677 95.5572V94.7764H141.799V100.242C141.799 100.736 141.695 101.176 141.487 101.559C141.279 101.95 140.976 102.256 140.58 102.477C140.189 102.698 139.721 102.809 139.174 102.809C138.445 102.809 137.84 102.636 137.359 102.291C136.877 101.953 136.604 101.491 136.539 100.906H137.642C137.726 101.185 137.905 101.41 138.179 101.579C138.458 101.755 138.79 101.843 139.174 101.843C139.623 101.843 139.984 101.706 140.257 101.433C140.537 101.159 140.677 100.762 140.677 100.242V99.344C140.488 99.5977 140.231 99.8125 139.906 99.9881C139.587 100.157 139.223 100.242 138.813 100.242C138.345 100.242 137.915 100.125 137.525 99.8905C137.141 99.6498 136.835 99.318 136.607 98.895C136.386 98.4656 136.275 97.9809 136.275 97.4408C136.275 96.9008 136.386 96.4225 136.607 96.0061C136.835 95.5897 137.141 95.2676 137.525 95.0399C137.915 94.8057 138.345 94.6885 138.813 94.6885ZM140.677 97.4603C140.677 97.0895 140.599 96.7674 140.443 96.4941C140.293 96.2208 140.095 96.0126 139.848 95.8695C139.6 95.7263 139.334 95.6548 139.047 95.6548C138.761 95.6548 138.494 95.7263 138.247 95.8695C138 96.0061 137.798 96.2111 137.642 96.4844C137.492 96.7511 137.417 97.0699 137.417 97.4408C137.417 97.8117 137.492 98.137 137.642 98.4168C137.798 98.6966 138 98.9113 138.247 99.061C138.501 99.2041 138.767 99.2757 139.047 99.2757C139.334 99.2757 139.6 99.2041 139.848 99.061C140.095 98.9178 140.293 98.7096 140.443 98.4363C140.599 98.1565 140.677 97.8312 140.677 97.4603ZM90.0496 113.441C90.0496 112.901 90.1602 112.423 90.3814 112.006C90.6092 111.59 90.915 111.268 91.2989 111.04C91.6892 110.806 92.1187 110.689 92.5872 110.689C93.0101 110.689 93.3777 110.773 93.69 110.942C94.0088 111.105 94.2626 111.31 94.4513 111.557V110.776H95.5737V116.154H94.4513V115.354C94.2626 115.608 94.0056 115.819 93.6803 115.988C93.3549 116.157 92.9841 116.242 92.5676 116.242C92.1057 116.242 91.6827 116.125 91.2989 115.891C90.915 115.65 90.6092 115.318 90.3814 114.895C90.1602 114.466 90.0496 113.981 90.0496 113.441ZM94.4513 113.46C94.4513 113.089 94.3732 112.767 94.217 112.494C94.0674 112.221 93.8689 112.013 93.6217 111.869C93.3744 111.726 93.1077 111.655 92.8214 111.655C92.5351 111.655 92.2683 111.726 92.0211 111.869C91.7738 112.006 91.5721 112.211 91.416 112.484C91.2663 112.751 91.1915 113.07 91.1915 113.441C91.1915 113.812 91.2663 114.137 91.416 114.417C91.5721 114.697 91.7738 114.911 92.0211 115.061C92.2748 115.204 92.5416 115.276 92.8214 115.276C93.1077 115.276 93.3744 115.204 93.6217 115.061C93.8689 114.918 94.0674 114.71 94.217 114.436C94.3732 114.157 94.4513 113.831 94.4513 113.46ZM101.417 109.371V110.279H99.6116V116.154H98.499V110.279H96.6837V109.371H101.417ZM104.877 116.242C104.369 116.242 103.91 116.128 103.5 115.9C103.091 115.666 102.768 115.341 102.534 114.924C102.3 114.501 102.183 114.013 102.183 113.46C102.183 112.914 102.303 112.429 102.544 112.006C102.785 111.583 103.113 111.258 103.53 111.03C103.946 110.802 104.411 110.689 104.925 110.689C105.439 110.689 105.905 110.802 106.321 111.03C106.738 111.258 107.066 111.583 107.307 112.006C107.548 112.429 107.668 112.914 107.668 113.46C107.668 114.007 107.544 114.492 107.297 114.915C107.05 115.337 106.711 115.666 106.282 115.9C105.859 116.128 105.391 116.242 104.877 116.242ZM104.877 115.276C105.163 115.276 105.43 115.207 105.677 115.071C105.931 114.934 106.136 114.729 106.292 114.456C106.448 114.183 106.526 113.851 106.526 113.46C106.526 113.07 106.451 112.741 106.302 112.475C106.152 112.201 105.953 111.996 105.706 111.86C105.459 111.723 105.192 111.655 104.906 111.655C104.62 111.655 104.353 111.723 104.106 111.86C103.865 111.996 103.673 112.201 103.53 112.475C103.387 112.741 103.315 113.07 103.315 113.46C103.315 114.039 103.461 114.488 103.754 114.807C104.054 115.12 104.428 115.276 104.877 115.276ZM110.895 113.47L113.374 116.154H111.871L109.88 113.841V116.154H108.768V108.932H109.88V113.129L111.832 110.776H113.374L110.895 113.47ZM119.101 113.333C119.101 113.535 119.088 113.717 119.062 113.88H114.953C114.985 114.309 115.145 114.654 115.431 114.915C115.717 115.175 116.069 115.305 116.485 115.305C117.084 115.305 117.507 115.054 117.754 114.553H118.954C118.792 115.048 118.496 115.455 118.066 115.773C117.643 116.086 117.116 116.242 116.485 116.242C115.971 116.242 115.509 116.128 115.099 115.9C114.696 115.666 114.377 115.341 114.143 114.924C113.915 114.501 113.801 114.013 113.801 113.46C113.801 112.907 113.912 112.423 114.133 112.006C114.361 111.583 114.676 111.258 115.08 111.03C115.49 110.802 115.958 110.689 116.485 110.689C116.993 110.689 117.445 110.799 117.842 111.02C118.239 111.242 118.548 111.554 118.769 111.957C118.99 112.354 119.101 112.813 119.101 113.333ZM117.939 112.982C117.933 112.572 117.786 112.244 117.5 111.996C117.214 111.749 116.859 111.625 116.436 111.625C116.052 111.625 115.724 111.749 115.451 111.996C115.177 112.237 115.015 112.566 114.963 112.982H117.939ZM122.909 110.689C123.332 110.689 123.709 110.776 124.041 110.952C124.379 111.128 124.643 111.388 124.832 111.733C125.02 112.078 125.115 112.494 125.115 112.982V116.154H124.012V113.148C124.012 112.667 123.891 112.299 123.651 112.045C123.41 111.785 123.081 111.655 122.665 111.655C122.248 111.655 121.917 111.785 121.669 112.045C121.429 112.299 121.308 112.667 121.308 113.148V116.154H120.196V110.776H121.308V111.391C121.49 111.17 121.721 110.998 122.001 110.874C122.287 110.75 122.59 110.689 122.909 110.689ZM91.5331 124.932V132.154H90.4205V124.932H91.5331ZM97.9226 129.333C97.9226 129.535 97.9096 129.717 97.8835 129.88H93.7746C93.8072 130.309 93.9666 130.654 94.2529 130.915C94.5392 131.175 94.8905 131.305 95.3069 131.305C95.9055 131.305 96.3285 131.054 96.5757 130.553H97.7762C97.6135 131.048 97.3175 131.455 96.888 131.773C96.4651 132.086 95.9381 132.242 95.3069 132.242C94.7929 132.242 94.331 132.128 93.921 131.9C93.5176 131.666 93.1988 131.341 92.9646 130.924C92.7369 130.501 92.623 130.013 92.623 129.46C92.623 128.907 92.7336 128.423 92.9548 128.006C93.1826 127.583 93.4981 127.258 93.9015 127.03C94.3114 126.802 94.7799 126.689 95.3069 126.689C95.8145 126.689 96.2667 126.799 96.6636 127.02C97.0605 127.242 97.3695 127.554 97.5907 127.957C97.812 128.354 97.9226 128.813 97.9226 129.333ZM96.7612 128.982C96.7547 128.572 96.6083 128.244 96.322 127.996C96.0357 127.749 95.6811 127.625 95.2581 127.625C94.8743 127.625 94.5457 127.749 94.2724 127.996C93.9991 128.237 93.8365 128.566 93.7844 128.982H96.7612ZM101.731 126.689C102.154 126.689 102.531 126.776 102.863 126.952C103.201 127.128 103.465 127.388 103.653 127.733C103.842 128.078 103.936 128.494 103.936 128.982V132.154H102.834V129.148C102.834 128.667 102.713 128.299 102.473 128.045C102.232 127.785 101.903 127.655 101.487 127.655C101.07 127.655 100.739 127.785 100.491 128.045C100.251 128.299 100.13 128.667 100.13 129.148V132.154H99.0175V126.776H100.13V127.391C100.312 127.17 100.543 126.998 100.823 126.874C101.109 126.75 101.412 126.689 101.731 126.689ZM104.985 129.441C104.985 128.901 105.095 128.423 105.317 128.006C105.544 127.59 105.85 127.268 106.234 127.04C106.624 126.806 107.057 126.689 107.532 126.689C107.883 126.689 108.228 126.767 108.567 126.923C108.912 127.072 109.185 127.274 109.387 127.528V124.932H110.509V132.154H109.387V131.344C109.204 131.604 108.951 131.819 108.625 131.988C108.306 132.157 107.939 132.242 107.522 132.242C107.054 132.242 106.624 132.125 106.234 131.891C105.85 131.65 105.544 131.318 105.317 130.895C105.095 130.466 104.985 129.981 104.985 129.441ZM109.387 129.46C109.387 129.089 109.308 128.767 109.152 128.494C109.003 128.221 108.804 128.013 108.557 127.869C108.31 127.726 108.043 127.655 107.757 127.655C107.47 127.655 107.204 127.726 106.956 127.869C106.709 128.006 106.507 128.211 106.351 128.484C106.202 128.751 106.127 129.07 106.127 129.441C106.127 129.812 106.202 130.137 106.351 130.417C106.507 130.697 106.709 130.911 106.956 131.061C107.21 131.204 107.477 131.276 107.757 131.276C108.043 131.276 108.31 131.204 108.557 131.061C108.804 130.918 109.003 130.71 109.152 130.436C109.308 130.157 109.387 129.831 109.387 129.46ZM112.536 126.064C112.335 126.064 112.165 125.996 112.029 125.859C111.892 125.722 111.824 125.553 111.824 125.351C111.824 125.15 111.892 124.981 112.029 124.844C112.165 124.707 112.335 124.639 112.536 124.639C112.732 124.639 112.897 124.707 113.034 124.844C113.171 124.981 113.239 125.15 113.239 125.351C113.239 125.553 113.171 125.722 113.034 125.859C112.897 125.996 112.732 126.064 112.536 126.064ZM113.083 126.776V132.154H111.97V126.776H113.083ZM117.257 126.689C117.68 126.689 118.057 126.776 118.389 126.952C118.727 127.128 118.991 127.388 119.18 127.733C119.368 128.078 119.463 128.494 119.463 128.982V132.154H118.36V129.148C118.36 128.667 118.239 128.299 117.999 128.045C117.758 127.785 117.429 127.655 117.013 127.655C116.596 127.655 116.265 127.785 116.017 128.045C115.777 128.299 115.656 128.667 115.656 129.148V132.154H114.544V126.776H115.656V127.391C115.838 127.17 116.069 126.998 116.349 126.874C116.636 126.75 116.938 126.689 117.257 126.689ZM123.049 126.689C123.465 126.689 123.833 126.773 124.151 126.942C124.477 127.105 124.73 127.31 124.913 127.557V126.776H126.035V132.242C126.035 132.736 125.931 133.176 125.723 133.559C125.515 133.95 125.212 134.256 124.815 134.477C124.425 134.698 123.956 134.809 123.41 134.809C122.681 134.809 122.076 134.636 121.594 134.291C121.113 133.953 120.84 133.491 120.774 132.906H121.877C121.962 133.185 122.141 133.41 122.414 133.579C122.694 133.755 123.026 133.843 123.41 133.843C123.859 133.843 124.22 133.706 124.493 133.433C124.773 133.159 124.913 132.762 124.913 132.242V131.344C124.724 131.598 124.467 131.812 124.142 131.988C123.823 132.157 123.458 132.242 123.049 132.242C122.58 132.242 122.151 132.125 121.76 131.891C121.376 131.65 121.071 131.318 120.843 130.895C120.622 130.466 120.511 129.981 120.511 129.441C120.511 128.901 120.622 128.423 120.843 128.006C121.071 127.59 121.376 127.268 121.76 127.04C122.151 126.806 122.58 126.689 123.049 126.689ZM124.913 129.46C124.913 129.089 124.835 128.767 124.678 128.494C124.529 128.221 124.33 128.013 124.083 127.869C123.836 127.726 123.569 127.655 123.283 127.655C122.996 127.655 122.73 127.726 122.482 127.869C122.235 128.006 122.034 128.211 121.877 128.484C121.728 128.751 121.653 129.07 121.653 129.441C121.653 129.812 121.728 130.137 121.877 130.417C122.034 130.697 122.235 130.911 122.482 131.061C122.736 131.204 123.003 131.276 123.283 131.276C123.569 131.276 123.836 131.204 124.083 131.061C124.33 130.918 124.529 130.71 124.678 130.436C124.835 130.157 124.913 129.831 124.913 129.46ZM132.24 127.391C132.24 127.736 132.158 128.061 131.996 128.367C131.833 128.673 131.573 128.924 131.215 129.119C130.857 129.307 130.398 129.402 129.839 129.402H128.609V132.154H127.496V125.371H129.839C130.359 125.371 130.799 125.462 131.156 125.644C131.521 125.82 131.791 126.061 131.966 126.366C132.149 126.672 132.24 127.014 132.24 127.391ZM129.839 128.494C130.262 128.494 130.577 128.4 130.786 128.211C130.994 128.016 131.098 127.743 131.098 127.391C131.098 126.649 130.678 126.279 129.839 126.279H128.609V128.494H129.839ZM135.633 132.242C135.126 132.242 134.667 132.128 134.257 131.9C133.847 131.666 133.525 131.341 133.291 130.924C133.057 130.501 132.94 130.013 132.94 129.46C132.94 128.914 133.06 128.429 133.301 128.006C133.542 127.583 133.87 127.258 134.287 127.03C134.703 126.802 135.168 126.689 135.682 126.689C136.196 126.689 136.662 126.802 137.078 127.03C137.494 127.258 137.823 127.583 138.064 128.006C138.304 128.429 138.425 128.914 138.425 129.46C138.425 130.007 138.301 130.492 138.054 130.915C137.807 131.337 137.468 131.666 137.039 131.9C136.616 132.128 136.147 132.242 135.633 132.242ZM135.633 131.276C135.92 131.276 136.187 131.207 136.434 131.071C136.688 130.934 136.893 130.729 137.049 130.456C137.205 130.183 137.283 129.851 137.283 129.46C137.283 129.07 137.208 128.741 137.058 128.475C136.909 128.201 136.71 127.996 136.463 127.86C136.216 127.723 135.949 127.655 135.663 127.655C135.376 127.655 135.11 127.723 134.862 127.86C134.622 127.996 134.43 128.201 134.287 128.475C134.143 128.741 134.072 129.07 134.072 129.46C134.072 130.039 134.218 130.488 134.511 130.807C134.81 131.12 135.185 131.276 135.633 131.276ZM141.857 132.242C141.35 132.242 140.891 132.128 140.481 131.9C140.071 131.666 139.749 131.341 139.515 130.924C139.281 130.501 139.164 130.013 139.164 129.46C139.164 128.914 139.284 128.429 139.525 128.006C139.765 127.583 140.094 127.258 140.51 127.03C140.927 126.802 141.392 126.689 141.906 126.689C142.42 126.689 142.885 126.802 143.302 127.03C143.718 127.258 144.047 127.583 144.287 128.006C144.528 128.429 144.649 128.914 144.649 129.46C144.649 130.007 144.525 130.492 144.278 130.915C144.03 131.337 143.692 131.666 143.263 131.9C142.84 132.128 142.371 132.242 141.857 132.242ZM141.857 131.276C142.144 131.276 142.41 131.207 142.658 131.071C142.911 130.934 143.116 130.729 143.272 130.456C143.429 130.183 143.507 129.851 143.507 129.46C143.507 129.07 143.432 128.741 143.282 128.475C143.133 128.201 142.934 127.996 142.687 127.86C142.44 127.723 142.173 127.655 141.887 127.655C141.6 127.655 141.334 127.723 141.086 127.86C140.846 127.996 140.654 128.201 140.51 128.475C140.367 128.741 140.296 129.07 140.296 129.46C140.296 130.039 140.442 130.488 140.735 130.807C141.034 131.12 141.408 131.276 141.857 131.276ZM146.861 124.932V132.154H145.748V124.932H146.861ZM91.5331 142.557C91.6958 142.284 91.9105 142.072 92.1772 141.923C92.4505 141.767 92.7726 141.689 93.1435 141.689V142.84H92.8604C92.4245 142.84 92.0927 142.951 91.8649 143.172C91.6437 143.393 91.5331 143.777 91.5331 144.324V147.154H90.4205V141.776H91.5331V142.557ZM99.0949 144.333C99.0949 144.535 99.0819 144.717 99.0559 144.88H94.947C94.9795 145.309 95.1389 145.654 95.4252 145.915C95.7115 146.175 96.0628 146.305 96.4793 146.305C97.0779 146.305 97.5008 146.054 97.748 145.553H98.9485C98.7858 146.048 98.4898 146.455 98.0604 146.773C97.6374 147.086 97.1104 147.242 96.4793 147.242C95.9653 147.242 95.5033 147.128 95.0934 146.9C94.69 146.666 94.3711 146.341 94.1369 145.924C93.9092 145.501 93.7953 145.013 93.7953 144.46C93.7953 143.907 93.9059 143.423 94.1271 143.006C94.3549 142.583 94.6704 142.258 95.0739 142.03C95.4838 141.802 95.9522 141.689 96.4793 141.689C96.9868 141.689 97.439 141.799 97.8359 142.02C98.2328 142.242 98.5419 142.554 98.7631 142.957C98.9843 143.354 99.0949 143.813 99.0949 144.333ZM97.9335 143.982C97.927 143.572 97.7806 143.244 97.4943 142.996C97.208 142.749 96.8534 142.625 96.4305 142.625C96.0466 142.625 95.718 142.749 95.4447 142.996C95.1715 143.237 95.0088 143.566 94.9567 143.982H97.9335ZM107.412 141.776L105.743 147.154H104.572L103.489 143.182L102.405 147.154H101.234L99.5555 141.776H100.688L101.81 146.1L102.952 141.776H104.113L105.206 146.08L106.319 141.776H107.412ZM107.873 144.441C107.873 143.901 107.983 143.423 108.205 143.006C108.432 142.59 108.738 142.268 109.122 142.04C109.512 141.806 109.942 141.689 110.41 141.689C110.833 141.689 111.201 141.773 111.513 141.942C111.832 142.105 112.086 142.31 112.274 142.557V141.776H113.397V147.154H112.274V146.354C112.086 146.608 111.829 146.819 111.503 146.988C111.178 147.157 110.807 147.242 110.391 147.242C109.929 147.242 109.506 147.125 109.122 146.891C108.738 146.65 108.432 146.318 108.205 145.895C107.983 145.466 107.873 144.981 107.873 144.441ZM112.274 144.46C112.274 144.089 112.196 143.767 112.04 143.494C111.891 143.221 111.692 143.013 111.445 142.869C111.198 142.726 110.931 142.655 110.645 142.655C110.358 142.655 110.091 142.726 109.844 142.869C109.597 143.006 109.395 143.211 109.239 143.484C109.089 143.751 109.015 144.07 109.015 144.441C109.015 144.812 109.089 145.137 109.239 145.417C109.395 145.697 109.597 145.911 109.844 146.061C110.098 146.204 110.365 146.276 110.645 146.276C110.931 146.276 111.198 146.204 111.445 146.061C111.692 145.918 111.891 145.71 112.04 145.436C112.196 145.157 112.274 144.831 112.274 144.46ZM115.971 142.557C116.133 142.284 116.348 142.072 116.615 141.923C116.888 141.767 117.21 141.689 117.581 141.689V142.84H117.298C116.862 142.84 116.53 142.951 116.303 143.172C116.081 143.393 115.971 143.777 115.971 144.324V147.154H114.858V141.776H115.971V142.557ZM118.233 144.441C118.233 143.901 118.344 143.423 118.565 143.006C118.793 142.59 119.098 142.268 119.482 142.04C119.873 141.806 120.305 141.689 120.78 141.689C121.132 141.689 121.477 141.767 121.815 141.923C122.16 142.072 122.433 142.274 122.635 142.528V139.932H123.757V147.154H122.635V146.344C122.453 146.604 122.199 146.819 121.873 146.988C121.555 147.157 121.187 147.242 120.771 147.242C120.302 147.242 119.873 147.125 119.482 146.891C119.098 146.65 118.793 146.318 118.565 145.895C118.344 145.466 118.233 144.981 118.233 144.441ZM122.635 144.46C122.635 144.089 122.557 143.767 122.401 143.494C122.251 143.221 122.052 143.013 121.805 142.869C121.558 142.726 121.291 142.655 121.005 142.655C120.719 142.655 120.452 142.726 120.205 142.869C119.957 143.006 119.756 143.211 119.599 143.484C119.45 143.751 119.375 144.07 119.375 144.441C119.375 144.812 119.45 145.137 119.599 145.417C119.756 145.697 119.957 145.911 120.205 146.061C120.458 146.204 120.725 146.276 121.005 146.276C121.291 146.276 121.558 146.204 121.805 146.061C122.052 145.918 122.251 145.71 122.401 145.436C122.557 145.157 122.635 144.831 122.635 144.46ZM127.17 147.242C126.748 147.242 126.367 147.167 126.029 147.017C125.697 146.861 125.433 146.653 125.238 146.393C125.043 146.126 124.939 145.83 124.926 145.505H126.077C126.097 145.732 126.204 145.924 126.399 146.08C126.601 146.23 126.852 146.305 127.151 146.305C127.463 146.305 127.704 146.246 127.873 146.129C128.049 146.006 128.137 145.849 128.137 145.661C128.137 145.459 128.039 145.309 127.844 145.212C127.655 145.114 127.353 145.007 126.936 144.89C126.533 144.779 126.204 144.672 125.95 144.568C125.697 144.464 125.476 144.304 125.287 144.089C125.105 143.875 125.014 143.592 125.014 143.24C125.014 142.954 125.098 142.694 125.267 142.46C125.436 142.219 125.677 142.03 125.99 141.893C126.308 141.757 126.673 141.689 127.083 141.689C127.694 141.689 128.185 141.845 128.556 142.157C128.934 142.463 129.135 142.882 129.161 143.416H128.049C128.029 143.175 127.932 142.983 127.756 142.84C127.58 142.697 127.343 142.625 127.044 142.625C126.751 142.625 126.526 142.681 126.37 142.791C126.214 142.902 126.136 143.048 126.136 143.231C126.136 143.374 126.188 143.494 126.292 143.592C126.396 143.689 126.523 143.767 126.673 143.826C126.822 143.878 127.044 143.946 127.336 144.031C127.727 144.135 128.046 144.242 128.293 144.353C128.547 144.457 128.765 144.613 128.947 144.821C129.129 145.03 129.223 145.306 129.23 145.651C129.23 145.957 129.145 146.23 128.976 146.471C128.807 146.712 128.566 146.9 128.254 147.037C127.948 147.174 127.587 147.242 127.17 147.242ZM130.061 143.748C130.061 143.084 130.214 142.489 130.52 141.962C130.832 141.435 131.252 141.025 131.779 140.732C132.312 140.433 132.895 140.283 133.526 140.283C134.248 140.283 134.889 140.462 135.449 140.82C136.015 141.171 136.425 141.672 136.678 142.323H135.341C135.166 141.965 134.922 141.698 134.609 141.523C134.297 141.347 133.936 141.259 133.526 141.259C133.077 141.259 132.677 141.36 132.325 141.562C131.974 141.763 131.698 142.053 131.496 142.43C131.301 142.808 131.203 143.247 131.203 143.748C131.203 144.249 131.301 144.688 131.496 145.065C131.698 145.443 131.974 145.736 132.325 145.944C132.677 146.146 133.077 146.246 133.526 146.246C133.936 146.246 134.297 146.159 134.609 145.983C134.922 145.807 135.166 145.54 135.341 145.183H136.678C136.425 145.833 136.015 146.334 135.449 146.686C134.889 147.037 134.248 147.213 133.526 147.213C132.888 147.213 132.306 147.066 131.779 146.773C131.252 146.474 130.832 146.061 130.52 145.534C130.214 145.007 130.061 144.412 130.061 143.748ZM140.313 147.242C139.806 147.242 139.347 147.128 138.937 146.9C138.527 146.666 138.205 146.341 137.971 145.924C137.737 145.501 137.62 145.013 137.62 144.46C137.62 143.914 137.74 143.429 137.981 143.006C138.221 142.583 138.55 142.258 138.966 142.03C139.383 141.802 139.848 141.689 140.362 141.689C140.876 141.689 141.341 141.802 141.758 142.03C142.174 142.258 142.503 142.583 142.743 143.006C142.984 143.429 143.105 143.914 143.105 144.46C143.105 145.007 142.981 145.492 142.734 145.915C142.486 146.337 142.148 146.666 141.719 146.9C141.296 147.128 140.827 147.242 140.313 147.242ZM140.313 146.276C140.6 146.276 140.866 146.207 141.114 146.071C141.367 145.934 141.572 145.729 141.728 145.456C141.885 145.183 141.963 144.851 141.963 144.46C141.963 144.07 141.888 143.741 141.738 143.475C141.589 143.201 141.39 142.996 141.143 142.86C140.896 142.723 140.629 142.655 140.343 142.655C140.056 142.655 139.789 142.723 139.542 142.86C139.301 142.996 139.11 143.201 138.966 143.475C138.823 143.741 138.752 144.07 138.752 144.46C138.752 145.039 138.898 145.488 139.191 145.807C139.49 146.12 139.864 146.276 140.313 146.276ZM146.918 141.689C147.341 141.689 147.718 141.776 148.05 141.952C148.388 142.128 148.652 142.388 148.84 142.733C149.029 143.078 149.123 143.494 149.123 143.982V147.154H148.021V144.148C148.021 143.667 147.9 143.299 147.659 143.045C147.419 142.785 147.09 142.655 146.674 142.655C146.257 142.655 145.925 142.785 145.678 143.045C145.437 143.299 145.317 143.667 145.317 144.148V147.154H144.204V141.776H145.317V142.391C145.499 142.17 145.73 141.998 146.01 141.874C146.296 141.75 146.599 141.689 146.918 141.689ZM151.841 142.684V145.661C151.841 145.862 151.886 146.009 151.977 146.1C152.075 146.185 152.238 146.227 152.465 146.227H153.149V147.154H152.27C151.769 147.154 151.385 147.037 151.118 146.803C150.852 146.568 150.718 146.188 150.718 145.661V142.684H150.084V141.776H150.718V140.439H151.841V141.776H153.149V142.684H151.841ZM155.287 142.557C155.449 142.284 155.664 142.072 155.931 141.923C156.204 141.767 156.526 141.689 156.897 141.689V142.84H156.614C156.178 142.84 155.846 142.951 155.618 143.172C155.397 143.393 155.287 143.777 155.287 144.324V147.154H154.174V141.776H155.287V142.557ZM160.252 147.242C159.745 147.242 159.286 147.128 158.876 146.9C158.466 146.666 158.144 146.341 157.91 145.924C157.676 145.501 157.559 145.013 157.559 144.46C157.559 143.914 157.679 143.429 157.92 143.006C158.16 142.583 158.489 142.258 158.905 142.03C159.322 141.802 159.787 141.689 160.301 141.689C160.815 141.689 161.28 141.802 161.697 142.03C162.113 142.258 162.442 142.583 162.683 143.006C162.923 143.429 163.044 143.914 163.044 144.46C163.044 145.007 162.92 145.492 162.673 145.915C162.425 146.337 162.087 146.666 161.658 146.9C161.235 147.128 160.766 147.242 160.252 147.242ZM160.252 146.276C160.539 146.276 160.805 146.207 161.053 146.071C161.306 145.934 161.511 145.729 161.667 145.456C161.824 145.183 161.902 144.851 161.902 144.46C161.902 144.07 161.827 143.741 161.677 143.475C161.528 143.201 161.329 142.996 161.082 142.86C160.835 142.723 160.568 142.655 160.282 142.655C159.995 142.655 159.729 142.723 159.481 142.86C159.241 142.996 159.049 143.201 158.905 143.475C158.762 143.741 158.691 144.07 158.691 144.46C158.691 145.039 158.837 145.488 159.13 145.807C159.429 146.12 159.803 146.276 160.252 146.276ZM165.256 139.932V147.154H164.144V139.932H165.256ZM167.83 139.932V147.154H166.717V139.932H167.83ZM174.219 144.333C174.219 144.535 174.206 144.717 174.18 144.88H170.071C170.104 145.309 170.263 145.654 170.549 145.915C170.836 146.175 171.187 146.305 171.603 146.305C172.202 146.305 172.625 146.054 172.872 145.553H174.073C173.91 146.048 173.614 146.455 173.184 146.773C172.762 147.086 172.235 147.242 171.603 147.242C171.089 147.242 170.627 147.128 170.217 146.9C169.814 146.666 169.495 146.341 169.261 145.924C169.033 145.501 168.919 145.013 168.919 144.46C168.919 143.907 169.03 143.423 169.251 143.006C169.479 142.583 169.795 142.258 170.198 142.03C170.608 141.802 171.076 141.689 171.603 141.689C172.111 141.689 172.563 141.799 172.96 142.02C173.357 142.242 173.666 142.554 173.887 142.957C174.108 143.354 174.219 143.813 174.219 144.333ZM173.058 143.982C173.051 143.572 172.905 143.244 172.618 142.996C172.332 142.749 171.978 142.625 171.555 142.625C171.171 142.625 170.842 142.749 170.569 142.996C170.296 143.237 170.133 143.566 170.081 143.982H173.058ZM176.427 142.557C176.589 142.284 176.804 142.072 177.071 141.923C177.344 141.767 177.666 141.689 178.037 141.689V142.84H177.754C177.318 142.84 176.986 142.951 176.758 143.172C176.537 143.393 176.427 143.777 176.427 144.324V147.154H175.314V141.776H176.427V142.557ZM92.3724 163.242C91.9495 163.242 91.5689 163.167 91.2305 163.017C90.8987 162.861 90.6352 162.653 90.44 162.393C90.2448 162.126 90.1407 161.83 90.1277 161.505H91.2793C91.2989 161.732 91.4062 161.924 91.6014 162.08C91.8031 162.23 92.0536 162.305 92.3529 162.305C92.6652 162.305 92.906 162.246 93.0751 162.129C93.2508 162.006 93.3387 161.849 93.3387 161.661C93.3387 161.459 93.2411 161.309 93.0459 161.212C92.8572 161.114 92.5546 161.007 92.1382 160.89C91.7348 160.779 91.4062 160.672 91.1525 160.568C90.8987 160.464 90.6775 160.304 90.4888 160.089C90.3066 159.875 90.2155 159.592 90.2155 159.24C90.2155 158.954 90.3001 158.694 90.4693 158.46C90.6384 158.219 90.8792 158.03 91.1915 157.893C91.5103 157.757 91.8747 157.689 92.2846 157.689C92.8962 157.689 93.3875 157.845 93.7583 158.157C94.1357 158.463 94.3374 158.882 94.3634 159.416H93.2508C93.2313 159.175 93.1337 158.983 92.958 158.84C92.7823 158.697 92.5449 158.625 92.2456 158.625C91.9528 158.625 91.7283 158.681 91.5721 158.791C91.416 158.902 91.3379 159.048 91.3379 159.231C91.3379 159.374 91.3899 159.494 91.494 159.592C91.5982 159.689 91.725 159.767 91.8747 159.826C92.0243 159.878 92.2456 159.946 92.5384 160.031C92.9287 160.135 93.2476 160.242 93.4948 160.353C93.7486 160.457 93.9665 160.613 94.1487 160.821C94.3309 161.03 94.4253 161.306 94.4318 161.651C94.4318 161.957 94.3472 162.23 94.178 162.471C94.0088 162.712 93.7681 162.9 93.4558 163.037C93.15 163.174 92.7889 163.242 92.3724 163.242ZM102.856 157.776L101.187 163.154H100.016L98.9328 159.182L97.8495 163.154H96.6783L94.9996 157.776H96.1317L97.2541 162.1L98.396 157.776H99.5574L100.651 162.08L101.763 157.776H102.856ZM103.317 160.441C103.317 159.901 103.427 159.423 103.649 159.006C103.876 158.59 104.182 158.268 104.566 158.04C104.957 157.806 105.386 157.689 105.854 157.689C106.277 157.689 106.645 157.773 106.957 157.942C107.276 158.105 107.53 158.31 107.719 158.557V157.776H108.841V163.154H107.719V162.354C107.53 162.608 107.273 162.819 106.948 162.988C106.622 163.157 106.251 163.242 105.835 163.242C105.373 163.242 104.95 163.125 104.566 162.891C104.182 162.65 103.876 162.318 103.649 161.895C103.427 161.466 103.317 160.981 103.317 160.441ZM107.719 160.46C107.719 160.089 107.64 159.767 107.484 159.494C107.335 159.221 107.136 159.013 106.889 158.869C106.642 158.726 106.375 158.655 106.089 158.655C105.802 158.655 105.536 158.726 105.288 158.869C105.041 159.006 104.839 159.211 104.683 159.484C104.534 159.751 104.459 160.07 104.459 160.441C104.459 160.812 104.534 161.137 104.683 161.417C104.839 161.697 105.041 161.911 105.288 162.061C105.542 162.204 105.809 162.276 106.089 162.276C106.375 162.276 106.642 162.204 106.889 162.061C107.136 161.918 107.335 161.71 107.484 161.436C107.64 161.157 107.719 160.831 107.719 160.46ZM111.415 158.567C111.604 158.32 111.861 158.111 112.186 157.942C112.511 157.773 112.879 157.689 113.289 157.689C113.757 157.689 114.184 157.806 114.567 158.04C114.958 158.268 115.264 158.59 115.485 159.006C115.706 159.423 115.817 159.901 115.817 160.441C115.817 160.981 115.706 161.466 115.485 161.895C115.264 162.318 114.958 162.65 114.567 162.891C114.184 163.125 113.757 163.242 113.289 163.242C112.879 163.242 112.515 163.161 112.196 162.998C111.877 162.829 111.617 162.621 111.415 162.373V165.711H110.302V157.776H111.415V158.567ZM114.685 160.441C114.685 160.07 114.606 159.751 114.45 159.484C114.301 159.211 114.099 159.006 113.845 158.869C113.598 158.726 113.331 158.655 113.045 158.655C112.765 158.655 112.498 158.726 112.245 158.869C111.997 159.013 111.796 159.221 111.639 159.494C111.49 159.767 111.415 160.089 111.415 160.46C111.415 160.831 111.49 161.157 111.639 161.436C111.796 161.71 111.997 161.918 112.245 162.061C112.498 162.204 112.765 162.276 113.045 162.276C113.331 162.276 113.598 162.204 113.845 162.061C114.099 161.911 114.301 161.697 114.45 161.417C114.606 161.137 114.685 160.812 114.685 160.441ZM118.03 158.567C118.218 158.32 118.475 158.111 118.801 157.942C119.126 157.773 119.494 157.689 119.903 157.689C120.372 157.689 120.798 157.806 121.182 158.04C121.572 158.268 121.878 158.59 122.099 159.006C122.321 159.423 122.431 159.901 122.431 160.441C122.431 160.981 122.321 161.466 122.099 161.895C121.878 162.318 121.572 162.65 121.182 162.891C120.798 163.125 120.372 163.242 119.903 163.242C119.494 163.242 119.129 163.161 118.81 162.998C118.492 162.829 118.231 162.621 118.03 162.373V165.711H116.917V157.776H118.03V158.567ZM121.299 160.441C121.299 160.07 121.221 159.751 121.065 159.484C120.915 159.211 120.713 159.006 120.46 158.869C120.212 158.726 119.946 158.655 119.659 158.655C119.38 158.655 119.113 158.726 118.859 158.869C118.612 159.013 118.41 159.221 118.254 159.494C118.104 159.767 118.03 160.089 118.03 160.46C118.03 160.831 118.104 161.157 118.254 161.436C118.41 161.71 118.612 161.918 118.859 162.061C119.113 162.204 119.38 162.276 119.659 162.276C119.946 162.276 120.212 162.204 120.46 162.061C120.713 161.911 120.915 161.697 121.065 161.417C121.221 161.137 121.299 160.812 121.299 160.441ZM128.46 160.333C128.46 160.535 128.447 160.717 128.421 160.88H124.312C124.345 161.309 124.504 161.654 124.791 161.915C125.077 162.175 125.428 162.305 125.845 162.305C126.443 162.305 126.866 162.054 127.113 161.553H128.314C128.151 162.048 127.855 162.455 127.426 162.773C127.003 163.086 126.476 163.242 125.845 163.242C125.331 163.242 124.869 163.128 124.459 162.9C124.055 162.666 123.736 162.341 123.502 161.924C123.274 161.501 123.161 161.013 123.161 160.46C123.161 159.907 123.271 159.423 123.492 159.006C123.72 158.583 124.036 158.258 124.439 158.03C124.849 157.802 125.318 157.689 125.845 157.689C126.352 157.689 126.804 157.799 127.201 158.02C127.598 158.242 127.907 158.554 128.128 158.957C128.35 159.354 128.46 159.813 128.46 160.333ZM127.299 159.982C127.292 159.572 127.146 159.244 126.86 158.996C126.573 158.749 126.219 158.625 125.796 158.625C125.412 158.625 125.083 158.749 124.81 158.996C124.537 159.237 124.374 159.566 124.322 159.982H127.299ZM130.668 158.557C130.83 158.284 131.045 158.072 131.312 157.923C131.585 157.767 131.907 157.689 132.278 157.689V158.84H131.995C131.559 158.84 131.227 158.951 131 159.172C130.778 159.393 130.668 159.777 130.668 160.324V163.154H129.555V157.776H130.668V158.557ZM92.675 174.684H91.6795V179.154H90.5571V174.684H89.9227V173.776H90.5571V173.396C90.5571 172.778 90.7198 172.329 91.0451 172.049C91.3769 171.763 91.8942 171.619 92.5969 171.619V172.547C92.2586 172.547 92.0211 172.612 91.8844 172.742C91.7478 172.865 91.6795 173.083 91.6795 173.396V173.776H92.675V174.684ZM98.5898 176.333C98.5898 176.535 98.5767 176.717 98.5507 176.88H94.4418C94.4744 177.309 94.6338 177.654 94.9201 177.915C95.2063 178.175 95.5577 178.305 95.9741 178.305C96.5727 178.305 96.9957 178.054 97.2429 177.553H98.4434C98.2807 178.048 97.9846 178.455 97.5552 178.773C97.1323 179.086 96.6053 179.242 95.9741 179.242C95.4601 179.242 94.9981 179.128 94.5882 178.9C94.1848 178.666 93.866 178.341 93.6318 177.924C93.404 177.501 93.2902 177.013 93.2902 176.46C93.2902 175.907 93.4008 175.423 93.622 175.006C93.8497 174.583 94.1653 174.258 94.5687 174.03C94.9786 173.802 95.4471 173.689 95.9741 173.689C96.4816 173.689 96.9338 173.799 97.3307 174.02C97.7276 174.242 98.0367 174.554 98.2579 174.957C98.4791 175.354 98.5898 175.813 98.5898 176.333ZM97.4283 175.982C97.4218 175.572 97.2754 175.244 96.9891 174.996C96.7029 174.749 96.3482 174.625 95.9253 174.625C95.5414 174.625 95.2129 174.749 94.9396 174.996C94.6663 175.237 94.5036 175.566 94.4516 175.982H97.4283ZM104.613 176.333C104.613 176.535 104.6 176.717 104.574 176.88H100.465C100.498 177.309 100.657 177.654 100.944 177.915C101.23 178.175 101.581 178.305 101.998 178.305C102.596 178.305 103.019 178.054 103.267 177.553H104.467C104.304 178.048 104.008 178.455 103.579 178.773C103.156 179.086 102.629 179.242 101.998 179.242C101.484 179.242 101.022 179.128 100.612 178.9C100.208 178.666 99.8896 178.341 99.6554 177.924C99.4277 177.501 99.3138 177.013 99.3138 176.46C99.3138 175.907 99.4244 175.423 99.6457 175.006C99.8734 174.583 100.189 174.258 100.592 174.03C101.002 173.802 101.471 173.689 101.998 173.689C102.505 173.689 102.957 173.799 103.354 174.02C103.751 174.242 104.06 174.554 104.282 174.957C104.503 175.354 104.613 175.813 104.613 176.333ZM103.452 175.982C103.445 175.572 103.299 175.244 103.013 174.996C102.727 174.749 102.372 174.625 101.949 174.625C101.565 174.625 101.237 174.749 100.963 174.996C100.69 175.237 100.527 175.566 100.475 175.982H103.452ZM107.66 179.242C107.237 179.242 106.857 179.167 106.518 179.017C106.187 178.861 105.923 178.653 105.728 178.393C105.533 178.126 105.429 177.83 105.416 177.505H106.567C106.587 177.732 106.694 177.924 106.889 178.08C107.091 178.23 107.341 178.305 107.641 178.305C107.953 178.305 108.194 178.246 108.363 178.129C108.539 178.006 108.627 177.849 108.627 177.661C108.627 177.459 108.529 177.309 108.334 177.212C108.145 177.114 107.842 177.007 107.426 176.89C107.023 176.779 106.694 176.672 106.44 176.568C106.187 176.464 105.965 176.304 105.777 176.089C105.594 175.875 105.503 175.592 105.503 175.24C105.503 174.954 105.588 174.694 105.757 174.46C105.926 174.219 106.167 174.03 106.479 173.893C106.798 173.757 107.163 173.689 107.572 173.689C108.184 173.689 108.675 173.845 109.046 174.157C109.424 174.463 109.625 174.882 109.651 175.416H108.539C108.519 175.175 108.422 174.983 108.246 174.84C108.07 174.697 107.833 174.625 107.533 174.625C107.241 174.625 107.016 174.681 106.86 174.791C106.704 174.902 106.626 175.048 106.626 175.231C106.626 175.374 106.678 175.494 106.782 175.592C106.886 175.689 107.013 175.767 107.163 175.826C107.312 175.878 107.533 175.946 107.826 176.031C108.217 176.135 108.535 176.242 108.783 176.353C109.036 176.457 109.254 176.613 109.437 176.821C109.619 177.03 109.713 177.306 109.72 177.651C109.72 177.957 109.635 178.23 109.466 178.471C109.297 178.712 109.056 178.9 108.744 179.037C108.438 179.174 108.077 179.242 107.66 179.242ZM110.551 175.748C110.551 175.084 110.704 174.489 111.01 173.962C111.322 173.435 111.742 173.025 112.269 172.732C112.802 172.433 113.385 172.283 114.016 172.283C114.738 172.283 115.379 172.462 115.938 172.82C116.504 173.171 116.914 173.672 117.168 174.323H115.831C115.655 173.965 115.411 173.698 115.099 173.523C114.787 173.347 114.426 173.259 114.016 173.259C113.567 173.259 113.167 173.36 112.815 173.562C112.464 173.763 112.187 174.053 111.986 174.43C111.79 174.808 111.693 175.247 111.693 175.748C111.693 176.249 111.79 176.688 111.986 177.065C112.187 177.443 112.464 177.736 112.815 177.944C113.167 178.146 113.567 178.246 114.016 178.246C114.426 178.246 114.787 178.159 115.099 177.983C115.411 177.807 115.655 177.54 115.831 177.183H117.168C116.914 177.833 116.504 178.334 115.938 178.686C115.379 179.037 114.738 179.213 114.016 179.213C113.378 179.213 112.796 179.066 112.269 178.773C111.742 178.474 111.322 178.061 111.01 177.534C110.704 177.007 110.551 176.412 110.551 175.748ZM120.803 179.242C120.296 179.242 119.837 179.128 119.427 178.9C119.017 178.666 118.695 178.341 118.461 177.924C118.226 177.501 118.109 177.013 118.109 176.46C118.109 175.914 118.23 175.429 118.47 175.006C118.711 174.583 119.04 174.258 119.456 174.03C119.873 173.802 120.338 173.689 120.852 173.689C121.366 173.689 121.831 173.802 122.248 174.03C122.664 174.258 122.993 174.583 123.233 175.006C123.474 175.429 123.594 175.914 123.594 176.46C123.594 177.007 123.471 177.492 123.224 177.915C122.976 178.337 122.638 178.666 122.209 178.9C121.786 179.128 121.317 179.242 120.803 179.242ZM120.803 178.276C121.089 178.276 121.356 178.207 121.603 178.071C121.857 177.934 122.062 177.729 122.218 177.456C122.374 177.183 122.453 176.851 122.453 176.46C122.453 176.07 122.378 175.741 122.228 175.475C122.078 175.201 121.88 174.996 121.633 174.86C121.385 174.723 121.119 174.655 120.832 174.655C120.546 174.655 120.279 174.723 120.032 174.86C119.791 174.996 119.599 175.201 119.456 175.475C119.313 175.741 119.242 176.07 119.242 176.46C119.242 177.039 119.388 177.488 119.681 177.807C119.98 178.12 120.354 178.276 120.803 178.276ZM127.408 173.689C127.83 173.689 128.208 173.776 128.54 173.952C128.878 174.128 129.142 174.388 129.33 174.733C129.519 175.078 129.613 175.494 129.613 175.982V179.154H128.51V176.148C128.51 175.667 128.39 175.299 128.149 175.045C127.909 174.785 127.58 174.655 127.164 174.655C126.747 174.655 126.415 174.785 126.168 175.045C125.927 175.299 125.807 175.667 125.807 176.148V179.154H124.694V173.776H125.807V174.391C125.989 174.17 126.22 173.998 126.5 173.874C126.786 173.75 127.089 173.689 127.408 173.689ZM132.331 174.684V177.661C132.331 177.862 132.376 178.009 132.467 178.1C132.565 178.185 132.727 178.227 132.955 178.227H133.638V179.154H132.76C132.259 179.154 131.875 179.037 131.608 178.803C131.342 178.568 131.208 178.188 131.208 177.661V174.684H130.574V173.776H131.208V172.439H132.331V173.776H133.638V174.684H132.331ZM135.776 174.557C135.939 174.284 136.154 174.072 136.421 173.923C136.694 173.767 137.016 173.689 137.387 173.689V174.84H137.104C136.668 174.84 136.336 174.951 136.108 175.172C135.887 175.393 135.776 175.777 135.776 176.324V179.154H134.664V173.776H135.776V174.557ZM140.742 179.242C140.235 179.242 139.776 179.128 139.366 178.9C138.956 178.666 138.634 178.341 138.4 177.924C138.166 177.501 138.048 177.013 138.048 176.46C138.048 175.914 138.169 175.429 138.41 175.006C138.65 174.583 138.979 174.258 139.395 174.03C139.812 173.802 140.277 173.689 140.791 173.689C141.305 173.689 141.77 173.802 142.187 174.03C142.603 174.258 142.932 174.583 143.172 175.006C143.413 175.429 143.533 175.914 143.533 176.46C143.533 177.007 143.41 177.492 143.163 177.915C142.915 178.337 142.577 178.666 142.148 178.9C141.725 179.128 141.256 179.242 140.742 179.242ZM140.742 178.276C141.028 178.276 141.295 178.207 141.542 178.071C141.796 177.934 142.001 177.729 142.157 177.456C142.313 177.183 142.392 176.851 142.392 176.46C142.392 176.07 142.317 175.741 142.167 175.475C142.017 175.201 141.819 174.996 141.572 174.86C141.324 174.723 141.058 174.655 140.771 174.655C140.485 174.655 140.218 174.723 139.971 174.86C139.73 174.996 139.538 175.201 139.395 175.475C139.252 175.741 139.181 176.07 139.181 176.46C139.181 177.039 139.327 177.488 139.62 177.807C139.919 178.12 140.293 178.276 140.742 178.276ZM145.746 171.932V179.154H144.633V171.932H145.746ZM148.319 171.932V179.154H147.207V171.932H148.319ZM154.709 176.333C154.709 176.535 154.696 176.717 154.67 176.88H150.561C150.593 177.309 150.753 177.654 151.039 177.915C151.325 178.175 151.677 178.305 152.093 178.305C152.692 178.305 153.115 178.054 153.362 177.553H154.562C154.4 178.048 154.104 178.455 153.674 178.773C153.251 179.086 152.724 179.242 152.093 179.242C151.579 179.242 151.117 179.128 150.707 178.9C150.304 178.666 149.985 178.341 149.751 177.924C149.523 177.501 149.409 177.013 149.409 176.46C149.409 175.907 149.52 175.423 149.741 175.006C149.969 174.583 150.284 174.258 150.688 174.03C151.098 173.802 151.566 173.689 152.093 173.689C152.601 173.689 153.053 173.799 153.45 174.02C153.847 174.242 154.156 174.554 154.377 174.957C154.598 175.354 154.709 175.813 154.709 176.333ZM153.547 175.982C153.541 175.572 153.395 175.244 153.108 174.996C152.822 174.749 152.467 174.625 152.044 174.625C151.661 174.625 151.332 174.749 151.059 174.996C150.785 175.237 150.623 175.566 150.571 175.982H153.547ZM156.916 174.557C157.079 174.284 157.294 174.072 157.561 173.923C157.834 173.767 158.156 173.689 158.527 173.689V174.84H158.244C157.808 174.84 157.476 174.951 157.248 175.172C157.027 175.393 156.916 175.777 156.916 176.324V179.154H155.804V173.776H156.916V174.557ZM96.9303 189.689C97.3532 189.689 97.7306 189.776 98.0624 189.952C98.4008 190.128 98.6643 190.388 98.853 190.733C99.0482 191.078 99.1458 191.494 99.1458 191.982V195.154H98.0429V192.148C98.0429 191.667 97.9225 191.299 97.6818 191.045C97.441 190.785 97.1125 190.655 96.696 190.655C96.2796 190.655 95.9478 190.785 95.7005 191.045C95.4598 191.299 95.3394 191.667 95.3394 192.148V195.154H94.2366V192.148C94.2366 191.667 94.1162 191.299 93.8755 191.045C93.6347 190.785 93.3061 190.655 92.8897 190.655C92.4733 190.655 92.1415 190.785 91.8942 191.045C91.6535 191.299 91.5331 191.667 91.5331 192.148V195.154H90.4205V189.776H91.5331V190.391C91.7153 190.17 91.9463 189.998 92.226 189.874C92.5058 189.75 92.8051 189.689 93.1239 189.689C93.5534 189.689 93.9373 189.78 94.2756 189.962C94.6139 190.144 94.8742 190.408 95.0564 190.752C95.2191 190.427 95.4728 190.17 95.8177 189.981C96.1625 189.786 96.5334 189.689 96.9303 189.689ZM100.191 192.441C100.191 191.901 100.301 191.423 100.523 191.006C100.75 190.59 101.056 190.268 101.44 190.04C101.83 189.806 102.26 189.689 102.728 189.689C103.151 189.689 103.519 189.773 103.831 189.942C104.15 190.105 104.404 190.31 104.592 190.557V189.776H105.715V195.154H104.592V194.354C104.404 194.608 104.147 194.819 103.821 194.988C103.496 195.157 103.125 195.242 102.709 195.242C102.247 195.242 101.824 195.125 101.44 194.891C101.056 194.65 100.75 194.318 100.523 193.895C100.301 193.466 100.191 192.981 100.191 192.441ZM104.592 192.46C104.592 192.089 104.514 191.767 104.358 191.494C104.208 191.221 104.01 191.013 103.763 190.869C103.516 190.726 103.249 190.655 102.962 190.655C102.676 190.655 102.409 190.726 102.162 190.869C101.915 191.006 101.713 191.211 101.557 191.484C101.407 191.751 101.333 192.07 101.333 192.441C101.333 192.812 101.407 193.137 101.557 193.417C101.713 193.697 101.915 193.911 102.162 194.061C102.416 194.204 102.683 194.276 102.962 194.276C103.249 194.276 103.516 194.204 103.763 194.061C104.01 193.918 104.208 193.71 104.358 193.436C104.514 193.157 104.592 192.831 104.592 192.46ZM109.889 189.689C110.312 189.689 110.69 189.776 111.022 189.952C111.36 190.128 111.623 190.388 111.812 190.733C112.001 191.078 112.095 191.494 112.095 191.982V195.154H110.992V192.148C110.992 191.667 110.872 191.299 110.631 191.045C110.39 190.785 110.062 190.655 109.645 190.655C109.229 190.655 108.897 190.785 108.65 191.045C108.409 191.299 108.289 191.667 108.289 192.148V195.154H107.176V189.776H108.289V190.391C108.471 190.17 108.702 189.998 108.982 189.874C109.268 189.75 109.571 189.689 109.889 189.689ZM113.143 192.441C113.143 191.901 113.254 191.423 113.475 191.006C113.703 190.59 114.009 190.268 114.393 190.04C114.783 189.806 115.213 189.689 115.681 189.689C116.104 189.689 116.472 189.773 116.784 189.942C117.103 190.105 117.356 190.31 117.545 190.557V189.776H118.668V195.154H117.545V194.354C117.356 194.608 117.099 194.819 116.774 194.988C116.449 195.157 116.078 195.242 115.661 195.242C115.2 195.242 114.777 195.125 114.393 194.891C114.009 194.65 113.703 194.318 113.475 193.895C113.254 193.466 113.143 192.981 113.143 192.441ZM117.545 192.46C117.545 192.089 117.467 191.767 117.311 191.494C117.161 191.221 116.963 191.013 116.716 190.869C116.468 190.726 116.202 190.655 115.915 190.655C115.629 190.655 115.362 190.726 115.115 190.869C114.868 191.006 114.666 191.211 114.51 191.484C114.36 191.751 114.285 192.07 114.285 192.441C114.285 192.812 114.36 193.137 114.51 193.417C114.666 193.697 114.868 193.911 115.115 194.061C115.369 194.204 115.635 194.276 115.915 194.276C116.202 194.276 116.468 194.204 116.716 194.061C116.963 193.918 117.161 193.71 117.311 193.436C117.467 193.157 117.545 192.831 117.545 192.46ZM122.296 189.689C122.712 189.689 123.08 189.773 123.398 189.942C123.724 190.105 123.978 190.31 124.16 190.557V189.776H125.282V195.242C125.282 195.736 125.178 196.176 124.97 196.559C124.762 196.95 124.459 197.256 124.062 197.477C123.672 197.698 123.203 197.809 122.657 197.809C121.928 197.809 121.323 197.636 120.841 197.291C120.36 196.953 120.087 196.491 120.022 195.906H121.124C121.209 196.185 121.388 196.41 121.661 196.579C121.941 196.755 122.273 196.843 122.657 196.843C123.106 196.843 123.467 196.706 123.74 196.433C124.02 196.159 124.16 195.762 124.16 195.242V194.344C123.971 194.598 123.714 194.812 123.389 194.988C123.07 195.157 122.705 195.242 122.296 195.242C121.827 195.242 121.398 195.125 121.007 194.891C120.623 194.65 120.318 194.318 120.09 193.895C119.869 193.466 119.758 192.981 119.758 192.441C119.758 191.901 119.869 191.423 120.09 191.006C120.318 190.59 120.623 190.268 121.007 190.04C121.398 189.806 121.827 189.689 122.296 189.689ZM124.16 192.46C124.16 192.089 124.082 191.767 123.925 191.494C123.776 191.221 123.577 191.013 123.33 190.869C123.083 190.726 122.816 190.655 122.53 190.655C122.244 190.655 121.977 190.726 121.73 190.869C121.482 191.006 121.281 191.211 121.124 191.484C120.975 191.751 120.9 192.07 120.9 192.441C120.9 192.812 120.975 193.137 121.124 193.417C121.281 193.697 121.482 193.911 121.73 194.061C121.983 194.204 122.25 194.276 122.53 194.276C122.816 194.276 123.083 194.204 123.33 194.061C123.577 193.918 123.776 193.71 123.925 193.436C124.082 193.157 124.16 192.831 124.16 192.46ZM131.672 192.333C131.672 192.535 131.659 192.717 131.633 192.88H127.524C127.557 193.309 127.716 193.654 128.003 193.915C128.289 194.175 128.64 194.305 129.057 194.305C129.655 194.305 130.078 194.054 130.325 193.553H131.526C131.363 194.048 131.067 194.455 130.638 194.773C130.215 195.086 129.688 195.242 129.057 195.242C128.543 195.242 128.081 195.128 127.671 194.9C127.267 194.666 126.948 194.341 126.714 193.924C126.486 193.501 126.373 193.013 126.373 192.46C126.373 191.907 126.483 191.423 126.704 191.006C126.932 190.583 127.248 190.258 127.651 190.03C128.061 189.802 128.53 189.689 129.057 189.689C129.564 189.689 130.016 189.799 130.413 190.02C130.81 190.242 131.119 190.554 131.34 190.957C131.562 191.354 131.672 191.813 131.672 192.333ZM130.511 191.982C130.504 191.572 130.358 191.244 130.072 190.996C129.785 190.749 129.431 190.625 129.008 190.625C128.624 190.625 128.295 190.749 128.022 190.996C127.749 191.237 127.586 191.566 127.534 191.982H130.511ZM133.88 190.557C134.042 190.284 134.257 190.072 134.524 189.923C134.797 189.767 135.119 189.689 135.49 189.689V190.84H135.207C134.771 190.84 134.439 190.951 134.212 191.172C133.99 191.393 133.88 191.777 133.88 192.324V195.154H132.767V189.776H133.88V190.557Z" fill="#5AF77A"/>
<path d="M144.481 98.817L143.3 101.511H142.578L143.271 98.817H144.481ZM127.754 114.817L126.573 117.511H125.851L126.544 114.817H127.754ZM149.542 130.817L148.361 133.511H147.639L148.332 130.817H149.542ZM180.28 145.817L179.099 148.511H178.376L179.069 145.817H180.28ZM134.521 161.817L133.34 164.511H132.618L133.311 161.817H134.521ZM160.77 177.817L159.589 180.511H158.866L159.559 177.817H160.77Z" fill="white"/>
<path d="M48.0603 77.4731V76.4581H50.0903V83.573H48.9679V77.4731H48.0603ZM47.7112 99.0602C48.3358 98.5202 48.827 98.0777 49.1849 97.7329C49.5493 97.3815 49.8518 97.0172 50.0926 96.6398C50.3333 96.2624 50.4537 95.885 50.4537 95.5076C50.4537 95.1172 50.3593 94.8114 50.1707 94.5902C49.9885 94.369 49.6989 94.2584 49.302 94.2584C48.9181 94.2584 48.6188 94.382 48.4041 94.6293C48.1959 94.87 48.0853 95.1953 48.0723 95.6052H46.9987C47.0182 94.8635 47.2394 94.2974 47.6624 93.907C48.0918 93.5101 48.6351 93.3117 49.2923 93.3117C50.0015 93.3117 50.5545 93.5069 50.9514 93.8973C51.3548 94.2877 51.5565 94.8082 51.5565 95.4588C51.5565 95.9273 51.4362 96.3795 51.1954 96.8155C50.9612 97.2449 50.6782 97.632 50.3463 97.9769C50.021 98.3152 49.6046 98.7089 49.0971 99.1578L48.6579 99.5482H51.7517V100.475H47.0085V99.6653L47.7112 99.0602ZM46.9958 111.215C47.0348 110.61 47.2658 110.138 47.6887 109.8C48.1181 109.461 48.6647 109.292 49.3284 109.292C49.7838 109.292 50.1775 109.373 50.5093 109.536C50.8411 109.699 51.0916 109.92 51.2608 110.2C51.43 110.48 51.5146 110.795 51.5146 111.147C51.5146 111.55 51.4072 111.895 51.1925 112.181C50.9778 112.467 50.7208 112.659 50.4215 112.757V112.796C50.8054 112.913 51.1047 113.128 51.3194 113.44C51.5341 113.746 51.6415 114.14 51.6415 114.621C51.6415 115.005 51.5536 115.347 51.3779 115.646C51.2023 115.945 50.942 116.183 50.5971 116.358C50.2523 116.527 49.8391 116.612 49.3576 116.612C48.6549 116.612 48.0759 116.433 47.6204 116.075C47.1714 115.711 46.9307 115.19 46.8982 114.514H47.9717C47.9978 114.859 48.1312 115.142 48.3719 115.363C48.6126 115.577 48.938 115.685 49.3479 115.685C49.7448 115.685 50.0506 115.577 50.2653 115.363C50.48 115.142 50.5874 114.859 50.5874 114.514C50.5874 114.058 50.441 113.736 50.1482 113.547C49.8619 113.352 49.4195 113.255 48.8209 113.255H48.5671V112.337H48.8306C49.3576 112.331 49.7578 112.243 50.0311 112.074C50.3109 111.905 50.4508 111.638 50.4508 111.273C50.4508 110.961 50.3499 110.714 50.1482 110.532C49.9465 110.343 49.6602 110.249 49.2893 110.249C48.925 110.249 48.6419 110.343 48.4402 110.532C48.2385 110.714 48.1181 110.942 48.0791 111.215H46.9958ZM46.6165 131.09V130.25L49.8959 125.546H51.2427V130.123H52.1504V131.09H51.2427V132.573H50.1496V131.09H46.6165ZM50.1984 126.678L47.8951 130.123H50.1984V126.678ZM51.3832 142.415H48.1136V144.357C48.2503 144.175 48.452 144.022 48.7188 143.898C48.992 143.774 49.2816 143.713 49.5874 143.713C50.1339 143.713 50.5764 143.83 50.9147 144.064C51.2596 144.298 51.5036 144.594 51.6467 144.952C51.7964 145.31 51.8712 145.687 51.8712 146.084C51.8712 146.566 51.7768 146.995 51.5882 147.373C51.406 147.743 51.1294 148.036 50.7586 148.251C50.3942 148.466 49.9452 148.573 49.4117 148.573C48.7025 148.573 48.1332 148.397 47.7037 148.046C47.2743 147.695 47.0173 147.229 46.9327 146.65H48.0161C48.0876 146.956 48.247 147.2 48.4943 147.382C48.7415 147.558 49.0506 147.646 49.4215 147.646C49.8834 147.646 50.2283 147.506 50.456 147.226C50.6902 146.946 50.8074 146.575 50.8074 146.114C50.8074 145.645 50.6902 145.287 50.456 145.04C50.2218 144.786 49.8769 144.659 49.4215 144.659C49.1026 144.659 48.8326 144.741 48.6114 144.903C48.3967 145.059 48.2405 145.274 48.1429 145.547H47.0889V141.439H51.3832V142.415ZM50.6076 159.107C50.5361 158.808 50.4059 158.584 50.2172 158.434C50.0285 158.284 49.765 158.21 49.4267 158.21C48.9127 158.21 48.5288 158.408 48.275 158.805C48.0213 159.195 47.8879 159.846 47.8749 160.757C48.044 160.471 48.2913 160.249 48.6166 160.093C48.942 159.937 49.2933 159.859 49.6707 159.859C50.1001 159.859 50.4775 159.953 50.8028 160.142C51.1347 160.324 51.3917 160.591 51.5739 160.942C51.7625 161.294 51.8569 161.713 51.8569 162.201C51.8569 162.657 51.7658 163.063 51.5836 163.421C51.4079 163.779 51.1444 164.062 50.7931 164.27C50.4417 164.472 50.0188 164.573 49.5243 164.573C48.8541 164.573 48.3271 164.427 47.9432 164.134C47.5658 163.835 47.299 163.415 47.1429 162.875C46.9932 162.335 46.9184 161.661 46.9184 160.854C46.9184 158.473 47.7578 157.282 49.4365 157.282C50.0871 157.282 50.5979 157.458 50.9687 157.809C51.3461 158.161 51.5674 158.593 51.6324 159.107H50.6076ZM49.4267 160.796C49.0298 160.796 48.6914 160.916 48.4117 161.157C48.1384 161.391 48.0018 161.733 48.0018 162.182C48.0018 162.631 48.1286 162.989 48.3824 163.255C48.6427 163.516 49.0038 163.646 49.4657 163.646C49.8756 163.646 50.1977 163.519 50.432 163.265C50.6727 163.011 50.7931 162.673 50.7931 162.25C50.7931 161.808 50.676 161.456 50.4417 161.196C50.214 160.929 49.8756 160.796 49.4267 160.796ZM51.6911 174.317L48.9779 180.573H47.8555L50.598 174.434H46.9869V173.487H51.6911V174.317ZM48.0013 193.854C47.3246 193.516 46.9863 192.983 46.9863 192.254C46.9863 191.903 47.0741 191.58 47.2498 191.288C47.4255 190.995 47.689 190.764 48.0403 190.595C48.3917 190.419 48.8211 190.331 49.3286 190.331C49.8296 190.331 50.2558 190.419 50.6072 190.595C50.965 190.764 51.2318 190.995 51.4075 191.288C51.5832 191.58 51.671 191.903 51.671 192.254C51.671 192.618 51.5767 192.94 51.388 193.22C51.2058 193.493 50.9618 193.705 50.656 193.854C51.0268 193.991 51.3196 194.216 51.5344 194.528C51.7491 194.834 51.8564 195.195 51.8564 195.611C51.8564 196.034 51.7491 196.408 51.5344 196.734C51.3196 197.059 51.0203 197.309 50.6365 197.485C50.2526 197.661 49.8166 197.749 49.3286 197.749C48.8406 197.749 48.4047 197.661 48.0208 197.485C47.6434 197.309 47.3474 197.059 47.1327 196.734C46.918 196.408 46.8106 196.034 46.8106 195.611C46.8106 195.188 46.918 194.824 47.1327 194.518C47.3474 194.212 47.6369 193.991 48.0013 193.854ZM50.6072 192.391C50.6072 192.026 50.4933 191.746 50.2656 191.551C50.0379 191.356 49.7255 191.258 49.3286 191.258C48.9382 191.258 48.6292 191.356 48.4015 191.551C48.1737 191.746 48.0599 192.029 48.0599 192.4C48.0599 192.726 48.177 192.992 48.4112 193.201C48.652 193.402 48.9578 193.503 49.3286 193.503C49.6995 193.503 50.0053 193.399 50.2461 193.191C50.4868 192.983 50.6072 192.716 50.6072 192.391ZM49.3286 194.342C48.8992 194.342 48.5478 194.45 48.2746 194.665C48.0078 194.873 47.8744 195.175 47.8744 195.572C47.8744 195.943 48.0045 196.246 48.2648 196.48C48.5251 196.708 48.8797 196.821 49.3286 196.821C49.7711 196.821 50.1192 196.704 50.3729 196.47C50.6332 196.236 50.7633 195.937 50.7633 195.572C50.7633 195.182 50.6299 194.879 50.3632 194.665C50.1029 194.45 49.7581 194.342 49.3286 194.342ZM48.201 211.641C48.2661 211.966 48.406 212.213 48.6207 212.382C48.8354 212.551 49.125 212.636 49.4893 212.636C49.9513 212.636 50.2896 212.454 50.5044 212.09C50.7191 211.725 50.8264 211.104 50.8264 210.225C50.6703 210.447 50.449 210.619 50.1628 210.743C49.883 210.86 49.5772 210.918 49.2453 210.918C48.8224 210.918 48.4385 210.834 48.0937 210.665C47.7488 210.489 47.4755 210.232 47.2738 209.894C47.0786 209.549 46.981 209.132 46.981 208.644C46.981 207.929 47.1893 207.359 47.6057 206.936C48.0286 206.507 48.6077 206.292 49.3429 206.292C50.2278 206.292 50.8557 206.588 51.2266 207.18C51.604 207.766 51.7927 208.667 51.7927 209.884C51.7927 210.723 51.7211 211.41 51.5779 211.943C51.4413 212.477 51.2006 212.88 50.8557 213.153C50.5109 213.427 50.0326 213.563 49.421 213.563C48.7248 213.563 48.188 213.381 47.8106 213.017C47.4333 212.652 47.2218 212.194 47.1762 211.641H48.201ZM49.4405 209.981C49.8309 209.981 50.1367 209.861 50.358 209.62C50.5857 209.373 50.6996 209.048 50.6996 208.644C50.6996 208.195 50.5792 207.847 50.3384 207.6C50.1042 207.346 49.7821 207.219 49.3722 207.219C48.9623 207.219 48.637 207.349 48.3962 207.61C48.162 207.863 48.0449 208.199 48.0449 208.615C48.0449 209.012 48.1587 209.34 48.3865 209.601C48.6207 209.854 48.9721 209.981 49.4405 209.981Z" fill="white" fill-opacity="0.17"/>
</g>
<path d="M0 0V-1H-1V0H0ZM0 1H292V-1H0V1ZM1 291V0H-1V291H1Z" fill="white" fill-opacity="0.12" mask="url(#path-1-inside-1_3079_2659)"/>
<defs>
<filter id="filter0_f_3079_2659" x="-24.6779" y="-32.6779" width="342.356" height="356.356" filterUnits="userSpaceOnUse" color-interpolation-filters="sRGB">
<feFlood flood-opacity="0" result="BackgroundImageFix"/>
<feBlend mode="normal" in="SourceGraphic" in2="BackgroundImageFix" result="shape"/>
<feGaussianBlur stdDeviation="31.8389" result="effect1_foregroundBlur_3079_2659"/>
</filter>
<radialGradient id="paint0_radial_3079_2659" cx="0" cy="0" r="1" gradientUnits="userSpaceOnUse" gradientTransform="translate(292 46.7428) rotate(161.385) scale(308.12 139.987)">
<stop stop-color="#4E5968"/>
<stop offset="0.884788" stop-color="#313F54"/>
</radialGradient>
<linearGradient id="paint1_linear_3079_2659" x1="275.649" y1="119.514" x2="25.5625" y2="119.514" gradientUnits="userSpaceOnUse">
<stop offset="0.357695" stop-color="#2087E7"/>
<stop offset="0.678238" stop-color="#DF57F5"/>
</linearGradient>
<linearGradient id="paint2_linear_3079_2659" x1="145.5" y1="57" x2="145.5" y2="234" gradientUnits="userSpaceOnUse">
<stop stop-color="#172438"/>
<stop offset="1" stop-color="#172438" stop-opacity="0.57"/>
</linearGradient>
<clipPath id="clip0_3079_2659">
<path d="M0 0H292V291H0V0Z" fill="white"/>
</clipPath>
</defs>
</svg>
