<svg width="205" height="205" viewBox="0 0 205 205" fill="none" xmlns="http://www.w3.org/2000/svg">
<g clip-path="url(#clip0_3582_17023)">
<rect width="204" height="204" transform="translate(0.5 0.0117188)" fill="#0038FF"/>
<rect width="204" height="204" transform="translate(0.5 0.0117188)" fill="url(#paint0_radial_3582_17023)" fill-opacity="0.9"/>
<g filter="url(#filter0_f_3582_17023)">
<path d="M178.472 21.7437H123.254V71.2156L27.2303 125.51V182.28H82.4485V125.51L178.472 71.2156V21.7437Z" fill="url(#paint1_linear_3582_17023)" fill-opacity="0.6"/>
</g>
<rect x="15.2715" y="39.9705" width="174.455" height="124.082" rx="7.13696" fill="url(#paint2_linear_3582_17023)"/>
<rect x="39.9736" y="50.011" width="1.22784" height="102.784" fill="#5568AA" fill-opacity="0.46"/>
<rect x="41.2021" y="50.0107" width="99.4548" height="11.6244" fill="#216CC4" fill-opacity="0.13"/>
<rect x="41.2021" y="61.6348" width="58.9362" height="11.6244" fill="#216CC4" fill-opacity="0.13"/>
<rect x="41.2021" y="73.26" width="47.2717" height="11.0126" fill="#216CC4" fill-opacity="0.13"/>
<rect x="41.2021" y="84.2722" width="62.0058" height="11.0126" fill="#216CC4" fill-opacity="0.13"/>
<rect x="41.2021" y="95.2842" width="84.1068" height="11.0126" fill="#216CC4" fill-opacity="0.13"/>
<rect x="41.2021" y="106.298" width="51.5692" height="11.0126" fill="#216CC4" fill-opacity="0.13"/>
<rect x="41.2021" y="117.31" width="69.9867" height="11.0126" fill="#216CC4" fill-opacity="0.13"/>
<rect x="41.2021" y="128.323" width="51.5692" height="11.0126" fill="#216CC4" fill-opacity="0.13"/>
<rect x="41.2021" y="139.335" width="13.5062" height="13.4598" fill="#216CC4" fill-opacity="0.13"/>
<path d="M48.7593 57.2093L49.7969 54.2229H50.6016L49.2049 57.8877H48.3004L46.9103 54.2229H47.7217L48.7593 57.2093ZM50.922 56.0387C50.922 55.6706 50.9974 55.3447 51.1482 55.061C51.3034 54.7772 51.5118 54.5577 51.7734 54.4025C52.0394 54.2429 52.3321 54.1631 52.6513 54.1631C52.9396 54.1631 53.1901 54.2207 53.4029 54.336C53.6202 54.4468 53.7931 54.5865 53.9217 54.755V54.2229H54.6866V57.8877H53.9217V57.3423C53.7931 57.5152 53.618 57.6593 53.3963 57.7746C53.1746 57.8899 52.9218 57.9476 52.638 57.9476C52.3232 57.9476 52.035 57.8677 51.7734 57.7081C51.5118 57.5441 51.3034 57.3179 51.1482 57.0297C50.9974 56.737 50.922 56.4067 50.922 56.0387ZM53.9217 56.052C53.9217 55.7992 53.8685 55.5797 53.7621 55.3935C53.6601 55.2073 53.5249 55.0654 53.3564 54.9678C53.1879 54.8703 53.0061 54.8215 52.811 54.8215C52.6159 54.8215 52.4341 54.8703 52.2656 54.9678C52.0971 55.061 51.9596 55.2006 51.8532 55.3869C51.7512 55.5687 51.7002 55.7859 51.7002 56.0387C51.7002 56.2914 51.7512 56.5131 51.8532 56.7038C51.9596 56.8945 52.0971 57.0408 52.2656 57.1428C52.4385 57.2403 52.6203 57.2891 52.811 57.2891C53.0061 57.2891 53.1879 57.2403 53.3564 57.1428C53.5249 57.0452 53.6601 56.9033 53.7621 56.7171C53.8685 56.5264 53.9217 56.3047 53.9217 56.052ZM59.0014 54.2229V57.8877H58.2432V57.4554C58.1235 57.6061 57.9661 57.7259 57.771 57.8145C57.5803 57.8988 57.3763 57.9409 57.1591 57.9409C56.8708 57.9409 56.6114 57.881 56.3809 57.7613C56.1547 57.6416 55.9751 57.4642 55.8421 57.2292C55.7135 56.9942 55.6492 56.7104 55.6492 56.3779V54.2229H56.4008V56.2648C56.4008 56.5929 56.4829 56.8457 56.6469 57.023C56.811 57.196 57.0349 57.2824 57.3187 57.2824C57.6025 57.2824 57.8264 57.196 57.9904 57.023C58.1589 56.8457 58.2432 56.5929 58.2432 56.2648V54.2229H59.0014ZM60.7601 52.9658V57.8877H60.0018V52.9658H60.7601ZM62.6402 54.8415V56.8701C62.6402 57.0075 62.6712 57.1073 62.7333 57.1694C62.7998 57.227 62.9106 57.2558 63.0658 57.2558H63.5314V57.8877H62.9328C62.5914 57.8877 62.3298 57.8079 62.148 57.6483C61.9662 57.4886 61.8753 57.2292 61.8753 56.8701V54.8415H61.443V54.2229H61.8753V53.3117H62.6402V54.2229H63.5314V54.8415H62.6402Z" fill="#F3F99D"/>
<path d="M69.8024 54.4091V55.0477H66.264V54.4091H69.8024ZM69.8024 55.919V56.5575H66.264V55.919H69.8024Z" fill="#FF6AC1"/>
<path d="M74.6855 54.1631C74.9737 54.1631 75.2309 54.2229 75.457 54.3426C75.6876 54.4624 75.8672 54.6397 75.9958 54.8747C76.1244 55.1097 76.1887 55.3935 76.1887 55.7261V57.8877H75.4371V55.8391C75.4371 55.511 75.355 55.2605 75.191 55.0876C75.0269 54.9102 74.803 54.8215 74.5192 54.8215C74.2354 54.8215 74.0093 54.9102 73.8408 55.0876C73.6767 55.2605 73.5947 55.511 73.5947 55.8391V57.8877H72.8365V54.2229H73.5947V54.6419C73.7189 54.4912 73.8763 54.3737 74.0669 54.2894C74.262 54.2052 74.4682 54.1631 74.6855 54.1631ZM80.5147 55.9655C80.5147 56.103 80.5058 56.2271 80.488 56.338H77.6879C77.7101 56.6306 77.8187 56.8656 78.0138 57.043C78.2089 57.2204 78.4484 57.309 78.7321 57.309C79.1401 57.309 79.4283 57.1383 79.5968 56.7969H80.4149C80.304 57.1339 80.1023 57.411 79.8096 57.6283C79.5214 57.8411 79.1623 57.9476 78.7321 57.9476C78.3819 57.9476 78.067 57.87 77.7877 57.7148C77.5128 57.5551 77.2955 57.3334 77.1359 57.0497C76.9807 56.7614 76.9031 56.4289 76.9031 56.052C76.9031 55.6751 76.9785 55.3447 77.1292 55.061C77.2844 54.7727 77.4995 54.551 77.7744 54.3958C78.0537 54.2407 78.373 54.1631 78.7321 54.1631C79.078 54.1631 79.3862 54.2384 79.6567 54.3892C79.9271 54.54 80.1378 54.7528 80.2885 55.0277C80.4393 55.2982 80.5147 55.6108 80.5147 55.9655ZM79.7232 55.7261C79.7187 55.4467 79.619 55.2228 79.4239 55.0543C79.2288 54.8858 78.9871 54.8016 78.6989 54.8016C78.4373 54.8016 78.2134 54.8858 78.0271 55.0543C77.8409 55.2184 77.73 55.4423 77.6946 55.7261H79.7232ZM86.1827 54.2229L85.0453 57.8877H84.2472L83.5089 55.1807L82.7706 57.8877H81.9725L80.8285 54.2229H81.6L82.3649 57.1694L83.1431 54.2229H83.9346L84.6795 57.1561L85.4377 54.2229H86.1827Z" fill="white"/>
<path d="M91.2639 56.9432H89.3284L88.9958 57.8877H88.2044L89.8605 53.2585H90.7384L92.3946 57.8877H91.5964L91.2639 56.9432ZM91.0511 56.3247L90.2995 54.1764L89.5412 56.3247H91.0511ZM92.8619 56.0387C92.8619 55.6706 92.9373 55.3447 93.0881 55.061C93.2433 54.7772 93.4517 54.5577 93.7133 54.4025C93.9793 54.2429 94.272 54.1631 94.5912 54.1631C94.8794 54.1631 95.13 54.2207 95.3428 54.336C95.5601 54.4468 95.733 54.5865 95.8616 54.755V54.2229H96.6265V57.8877H95.8616V57.3423C95.733 57.5152 95.5579 57.6593 95.3362 57.7746C95.1145 57.8899 94.8617 57.9476 94.5779 57.9476C94.2631 57.9476 93.9749 57.8677 93.7133 57.7081C93.4517 57.5441 93.2433 57.3179 93.0881 57.0297C92.9373 56.737 92.8619 56.4067 92.8619 56.0387ZM95.8616 56.052C95.8616 55.7992 95.8084 55.5797 95.702 55.3935C95.6 55.2073 95.4647 55.0654 95.2962 54.9678C95.1278 54.8703 94.946 54.8215 94.7509 54.8215C94.5558 54.8215 94.374 54.8703 94.2055 54.9678C94.037 55.061 93.8995 55.2006 93.7931 55.3869C93.6911 55.5687 93.6401 55.7859 93.6401 56.0387C93.6401 56.2914 93.6911 56.5131 93.7931 56.7038C93.8995 56.8945 94.037 57.0408 94.2055 57.1428C94.3784 57.2403 94.5602 57.2891 94.7509 57.2891C94.946 57.2891 95.1278 57.2403 95.2962 57.1428C95.4647 57.0452 95.6 56.9033 95.702 56.7171C95.8084 56.5264 95.8616 56.3047 95.8616 56.052ZM99.0391 57.2093L100.077 54.2229H100.881L99.4847 57.8877H98.5801L97.1901 54.2229H98.0015L99.0391 57.2093ZM104.813 55.9655C104.813 56.103 104.805 56.2271 104.787 56.338H101.987C102.009 56.6306 102.117 56.8656 102.313 57.043C102.508 57.2204 102.747 57.309 103.031 57.309C103.439 57.309 103.727 57.1383 103.896 56.7969H104.714C104.603 57.1339 104.401 57.411 104.108 57.6283C103.82 57.8411 103.461 57.9476 103.031 57.9476C102.681 57.9476 102.366 57.87 102.086 57.7148C101.812 57.5551 101.594 57.3334 101.435 57.0497C101.279 56.7614 101.202 56.4289 101.202 56.052C101.202 55.6751 101.277 55.3447 101.428 55.061C101.583 54.7727 101.798 54.551 102.073 54.3958C102.352 54.2407 102.672 54.1631 103.031 54.1631C103.377 54.1631 103.685 54.2384 103.955 54.3892C104.226 54.54 104.437 54.7528 104.587 55.0277C104.738 55.2982 104.813 55.6108 104.813 55.9655ZM104.022 55.7261C104.017 55.4467 103.918 55.2228 103.723 55.0543C103.528 54.8858 103.286 54.8016 102.998 54.8016C102.736 54.8016 102.512 54.8858 102.326 55.0543C102.14 55.2184 102.029 55.4423 101.993 55.7261H104.022ZM109.544 53.2651L107.808 57.8877H106.93L105.187 53.2651H105.999L107.369 57.1095L108.745 53.2651H109.544ZM110.065 54.2362C110.091 53.8238 110.249 53.5024 110.537 53.2718C110.83 53.0412 111.202 52.9259 111.654 52.9259C111.965 52.9259 112.233 52.9814 112.459 53.0922C112.685 53.2031 112.856 53.3538 112.971 53.5445C113.086 53.7352 113.144 53.9502 113.144 54.1897C113.144 54.4646 113.071 54.6996 112.925 54.8947C112.778 55.0898 112.603 55.2206 112.399 55.2871V55.3137C112.661 55.3935 112.865 55.5398 113.011 55.7527C113.157 55.9611 113.231 56.2293 113.231 56.5575C113.231 56.8191 113.171 57.0519 113.051 57.2558C112.931 57.4598 112.754 57.6216 112.519 57.7414C112.284 57.8567 112.002 57.9143 111.674 57.9143C111.195 57.9143 110.801 57.7924 110.49 57.5485C110.184 57.3002 110.02 56.9454 109.998 56.4843H110.73C110.747 56.7193 110.838 56.9122 111.002 57.063C111.167 57.2093 111.388 57.2824 111.668 57.2824C111.938 57.2824 112.146 57.2093 112.293 57.063C112.439 56.9122 112.512 56.7193 112.512 56.4843C112.512 56.1739 112.413 55.9544 112.213 55.8258C112.018 55.6928 111.716 55.6263 111.308 55.6263H111.135V55.0011H111.315C111.674 54.9967 111.947 54.9368 112.133 54.8215C112.324 54.7062 112.419 54.5244 112.419 54.2761C112.419 54.0633 112.35 53.8948 112.213 53.7706C112.076 53.642 111.88 53.5778 111.628 53.5778C111.379 53.5778 111.186 53.642 111.049 53.7706C110.912 53.8948 110.83 54.05 110.803 54.2362H110.065ZM118.111 53.2651L116.375 57.8877H115.497L113.754 53.2651H114.566L115.936 57.1095L117.313 53.2651H118.111ZM118.492 56.0387C118.492 55.6706 118.568 55.3447 118.718 55.061C118.874 54.7772 119.082 54.5577 119.344 54.4025C119.61 54.2429 119.902 54.1631 120.222 54.1631C120.51 54.1631 120.76 54.2207 120.973 54.336C121.19 54.4468 121.363 54.5865 121.492 54.755V54.2229H122.257V57.8877H121.492V57.3423C121.363 57.5152 121.188 57.6593 120.966 57.7746C120.745 57.8899 120.492 57.9476 120.208 57.9476C119.893 57.9476 119.605 57.8677 119.344 57.7081C119.082 57.5441 118.874 57.3179 118.718 57.0297C118.568 56.737 118.492 56.4067 118.492 56.0387ZM121.492 56.052C121.492 55.7992 121.439 55.5797 121.332 55.3935C121.23 55.2073 121.095 55.0654 120.927 54.9678C120.758 54.8703 120.576 54.8215 120.381 54.8215C120.186 54.8215 120.004 54.8703 119.836 54.9678C119.667 55.061 119.53 55.2006 119.423 55.3869C119.321 55.5687 119.27 55.7859 119.27 56.0387C119.27 56.2914 119.321 56.5131 119.423 56.7038C119.53 56.8945 119.667 57.0408 119.836 57.1428C120.009 57.2403 120.19 57.2891 120.381 57.2891C120.576 57.2891 120.758 57.2403 120.927 57.1428C121.095 57.0452 121.23 56.9033 121.332 56.7171C121.439 56.5264 121.492 56.3047 121.492 56.052ZM126.572 54.2229V57.8877H125.813V57.4554C125.694 57.6061 125.536 57.7259 125.341 57.8145C125.15 57.8988 124.946 57.9409 124.729 57.9409C124.441 57.9409 124.182 57.881 123.951 57.7613C123.725 57.6416 123.545 57.4642 123.412 57.2292C123.284 56.9942 123.219 56.7104 123.219 56.3779V54.2229H123.971V56.2648C123.971 56.5929 124.053 56.8457 124.217 57.023C124.381 57.196 124.605 57.2824 124.889 57.2824C125.173 57.2824 125.397 57.196 125.561 57.023C125.729 56.8457 125.813 56.5929 125.813 56.2648V54.2229H126.572ZM128.33 52.9658V57.8877H127.572V52.9658H128.33ZM130.21 54.8415V56.8701C130.21 57.0075 130.241 57.1073 130.303 57.1694C130.37 57.227 130.481 57.2558 130.636 57.2558H131.102V57.8877H130.503C130.162 57.8877 129.9 57.8079 129.718 57.6483C129.536 57.4886 129.445 57.2292 129.445 56.8701V54.8415H129.013V54.2229H129.445V53.3117H130.21V54.2229H131.102V54.8415H130.21Z" fill="#57C7F9"/>
<path d="M133.477 59.1248C133.042 58.708 132.707 58.1781 132.472 57.5352C132.242 56.8922 132.126 56.2027 132.126 55.4667C132.126 54.7129 132.25 54.0012 132.499 53.3317C132.752 52.6621 133.122 52.1101 133.61 51.6755H134.394V51.7487C133.884 52.2187 133.501 52.7818 133.244 53.4381C132.987 54.0943 132.858 54.7705 132.858 55.4667C132.858 56.1362 132.978 56.7836 133.217 57.4088C133.457 58.034 133.805 58.5816 134.261 59.0516V59.1248H133.477Z" fill="#E6B422"/>
<path d="M47.1564 150.673V150.6C47.6131 150.13 47.9611 149.583 48.2006 148.957C48.44 148.332 48.5597 147.685 48.5597 147.015C48.5597 146.319 48.4312 145.643 48.174 144.987C47.9168 144.33 47.5333 143.767 47.0233 143.297V143.224H47.8082C48.2959 143.659 48.6639 144.211 48.9123 144.88C49.165 145.55 49.2914 146.261 49.2914 147.015C49.2914 147.751 49.1739 148.441 48.9389 149.084C48.7083 149.727 48.3757 150.257 47.9412 150.673H47.1564Z" fill="#E6B422"/>
<path d="M51.0685 146.689C50.931 146.689 50.8157 146.643 50.7226 146.55C50.6295 146.457 50.5829 146.341 50.5829 146.204C50.5829 146.066 50.6295 145.951 50.7226 145.858C50.8157 145.765 50.931 145.718 51.0685 145.718C51.2015 145.718 51.3146 145.765 51.4077 145.858C51.5008 145.951 51.5474 146.066 51.5474 146.204C51.5474 146.341 51.5008 146.457 51.4077 146.55C51.3146 146.643 51.2015 146.689 51.0685 146.689ZM51.6272 148.525L50.8224 150.361H50.3302L50.8024 148.525H51.6272Z" fill="white"/>
<path d="M62.4838 66.8467V70.5115H61.7255V70.0792C61.6058 70.2299 61.4484 70.3496 61.2533 70.4383C61.0626 70.5226 60.8587 70.5647 60.6414 70.5647C60.3532 70.5647 60.0938 70.5048 59.8632 70.3851C59.6371 70.2654 59.4575 70.088 59.3245 69.853C59.1959 69.618 59.1316 69.3342 59.1316 69.0017V66.8467H59.8832V68.8886C59.8832 69.2167 59.9652 69.4695 60.1293 69.6468C60.2933 69.8198 60.5173 69.9062 60.801 69.9062C61.0848 69.9062 61.3087 69.8198 61.4728 69.6468C61.6413 69.4695 61.7255 69.2167 61.7255 68.8886V66.8467H62.4838ZM65.3332 66.7868C65.6214 66.7868 65.8786 66.8467 66.1047 66.9664C66.3353 67.0861 66.5149 67.2635 66.6435 67.4985C66.7721 67.7335 66.8364 68.0173 66.8364 68.3499V70.5115H66.0848V68.4629C66.0848 68.1348 66.0028 67.8843 65.8387 67.7113C65.6746 67.534 65.4507 67.4453 65.1669 67.4453C64.8832 67.4453 64.657 67.534 64.4885 67.7113C64.3245 67.8843 64.2424 68.1348 64.2424 68.4629V70.5115H63.4842V66.8467H64.2424V67.2657C64.3666 67.115 64.524 66.9975 64.7147 66.9132C64.9098 66.829 65.1159 66.7868 65.3332 66.7868ZM67.5508 68.6625C67.5508 68.2944 67.6262 67.9685 67.7769 67.6847C67.9321 67.401 68.1405 67.1815 68.4021 67.0263C68.6682 66.8666 68.9631 66.7868 69.2868 66.7868C69.5262 66.7868 69.7612 66.84 69.9918 66.9465C70.2268 67.0484 70.413 67.1859 70.5505 67.3588V65.5896H71.3154V70.5115H70.5505V69.9594C70.4263 70.1368 70.2534 70.2831 70.0317 70.3984C69.8144 70.5137 69.5639 70.5713 69.2801 70.5713C68.9608 70.5713 68.6682 70.4915 68.4021 70.3319C68.1405 70.1678 67.9321 69.9417 67.7769 69.6535C67.6262 69.3608 67.5508 69.0305 67.5508 68.6625ZM70.5505 68.6758C70.5505 68.423 70.4973 68.2035 70.3908 68.0173C70.2889 67.8311 70.1536 67.6892 69.9851 67.5916C69.8166 67.4941 69.6348 67.4453 69.4397 67.4453C69.2446 67.4453 69.0628 67.4941 68.8943 67.5916C68.7258 67.6847 68.5884 67.8244 68.482 68.0106C68.38 68.1924 68.329 68.4097 68.329 68.6625C68.329 68.9152 68.38 69.1369 68.482 69.3276C68.5884 69.5182 68.7258 69.6646 68.8943 69.7665C69.0673 69.8641 69.2491 69.9129 69.4397 69.9129C69.6348 69.9129 69.8166 69.8641 69.9851 69.7665C70.1536 69.669 70.2889 69.5271 70.3908 69.3409C70.4973 69.1502 70.5505 68.9285 70.5505 68.6758ZM75.6701 68.5893C75.6701 68.7268 75.6612 68.8509 75.6435 68.9618H72.8433C72.8655 69.2544 72.9742 69.4894 73.1693 69.6668C73.3644 69.8441 73.6038 69.9328 73.8876 69.9328C74.2955 69.9328 74.5837 69.7621 74.7522 69.4207H75.5703C75.4595 69.7577 75.2577 70.0348 74.9651 70.2521C74.6768 70.4649 74.3177 70.5713 73.8876 70.5713C73.5373 70.5713 73.2225 70.4937 72.9431 70.3385C72.6682 70.1789 72.4509 69.9572 72.2913 69.6734C72.1361 69.3852 72.0585 69.0527 72.0585 68.6758C72.0585 68.2989 72.1339 67.9685 72.2847 67.6847C72.4398 67.3965 72.6549 67.1748 72.9298 67.0196C73.2092 66.8644 73.5284 66.7868 73.8876 66.7868C74.2334 66.7868 74.5416 66.8622 74.8121 67.013C75.0826 67.1637 75.2932 67.3766 75.4439 67.6515C75.5947 67.922 75.6701 68.2346 75.6701 68.5893ZM74.8786 68.3499C74.8742 68.0705 74.7744 67.8466 74.5793 67.6781C74.3842 67.5096 74.1425 67.4253 73.8543 67.4253C73.5927 67.4253 73.3688 67.5096 73.1826 67.6781C72.9963 67.8421 72.8855 68.0661 72.85 68.3499H74.8786ZM77.1745 67.3788C77.2853 67.1926 77.4317 67.0484 77.6135 66.9465C77.7997 66.84 78.0192 66.7868 78.2719 66.7868V67.5717H78.079C77.782 67.5717 77.5558 67.647 77.4006 67.7978C77.2499 67.9486 77.1745 68.2102 77.1745 68.5826V70.5115H76.4163V66.8467H77.1745V67.3788ZM79.7271 65.5896V70.5115H78.9689V65.5896H79.7271ZM84.0216 66.8467L81.7735 72.2341H80.9887L81.7336 70.4516L80.2903 66.8467H81.135L82.1659 69.6402L83.2367 66.8467H84.0216ZM84.9796 66.3612C84.8421 66.3612 84.7268 66.3146 84.6337 66.2215C84.5406 66.1284 84.494 66.0131 84.494 65.8756C84.494 65.7382 84.5406 65.6229 84.6337 65.5298C84.7268 65.4367 84.8421 65.3901 84.9796 65.3901C85.1126 65.3901 85.2256 65.4367 85.3188 65.5298C85.4119 65.6229 85.4584 65.7382 85.4584 65.8756C85.4584 66.0131 85.4119 66.1284 85.3188 66.2215C85.2256 66.3146 85.1126 66.3612 84.9796 66.3612ZM85.352 66.8467V70.5115H84.5938V66.8467H85.352ZM88.1965 66.7868C88.4847 66.7868 88.7419 66.8467 88.9681 66.9664C89.1986 67.0861 89.3782 67.2635 89.5068 67.4985C89.6354 67.7335 89.6997 68.0173 89.6997 68.3499V70.5115H88.9481V68.4629C88.9481 68.1348 88.8661 67.8843 88.702 67.7113C88.538 67.534 88.314 67.4453 88.0302 67.4453C87.7465 67.4453 87.5203 67.534 87.3518 67.7113C87.1878 67.8843 87.1057 68.1348 87.1057 68.4629V70.5115H86.3475V66.8467H87.1057V67.2657C87.2299 67.115 87.3873 66.9975 87.578 66.9132C87.7731 66.829 87.9793 66.7868 88.1965 66.7868ZM92.1434 66.7868C92.4272 66.7868 92.6777 66.8445 92.895 66.9598C93.1167 67.0706 93.2896 67.2103 93.4138 67.3788V66.8467H94.1787V70.5713C94.1787 70.9083 94.1077 71.2076 93.9658 71.4692C93.8239 71.7353 93.6177 71.9437 93.3473 72.0944C93.0812 72.2452 92.762 72.3206 92.3895 72.3206C91.8929 72.3206 91.4805 72.2031 91.1524 71.9681C90.8243 71.7375 90.638 71.4227 90.5937 71.0236H91.3453C91.4029 71.2143 91.5249 71.3673 91.7111 71.4825C91.9018 71.6023 92.1279 71.6621 92.3895 71.6621C92.6955 71.6621 92.9415 71.569 93.1278 71.3828C93.3184 71.1965 93.4138 70.9261 93.4138 70.5713V69.9594C93.2852 70.1324 93.11 70.2787 92.8883 70.3984C92.6711 70.5137 92.4228 70.5713 92.1434 70.5713C91.8242 70.5713 91.5315 70.4915 91.2655 70.3319C91.0038 70.1678 90.7954 69.9417 90.6403 69.6535C90.4895 69.3608 90.4141 69.0305 90.4141 68.6625C90.4141 68.2944 90.4895 67.9685 90.6403 67.6847C90.7954 67.401 91.0038 67.1815 91.2655 67.0263C91.5315 66.8666 91.8242 66.7868 92.1434 66.7868ZM93.4138 68.6758C93.4138 68.423 93.3606 68.2035 93.2542 68.0173C93.1522 67.8311 93.0169 67.6892 92.8484 67.5916C92.6799 67.4941 92.4981 67.4453 92.303 67.4453C92.1079 67.4453 91.9261 67.4941 91.7576 67.5916C91.5891 67.6847 91.4517 67.8244 91.3453 68.0106C91.2433 68.1924 91.1923 68.4097 91.1923 68.6625C91.1923 68.9152 91.2433 69.1369 91.3453 69.3276C91.4517 69.5182 91.5891 69.6646 91.7576 69.7665C91.9306 69.8641 92.1124 69.9129 92.303 69.9129C92.4981 69.9129 92.6799 69.8641 92.8484 69.7665C93.0169 69.669 93.1522 69.5271 93.2542 69.3409C93.3606 69.1502 93.4138 68.9285 93.4138 68.6758ZM58.9121 78.6625C58.9121 78.2944 58.9875 77.9685 59.1382 77.6847C59.2934 77.401 59.5018 77.1815 59.7635 77.0263C60.0295 76.8666 60.3222 76.7868 60.6414 76.7868C60.9296 76.7868 61.1801 76.8445 61.393 76.9598C61.6103 77.0706 61.7832 77.2103 61.9118 77.3788V76.8467H62.6767V80.5115H61.9118V79.9661C61.7832 80.139 61.608 80.2831 61.3863 80.3984C61.1646 80.5137 60.9119 80.5713 60.6281 80.5713C60.3133 80.5713 60.0251 80.4915 59.7635 80.3319C59.5018 80.1678 59.2934 79.9417 59.1382 79.6535C58.9875 79.3608 58.9121 79.0305 58.9121 78.6625ZM61.9118 78.6758C61.9118 78.423 61.8586 78.2035 61.7521 78.0173C61.6502 77.8311 61.5149 77.6892 61.3464 77.5916C61.1779 77.4941 60.9961 77.4453 60.801 77.4453C60.6059 77.4453 60.4241 77.4941 60.2556 77.5916C60.0871 77.6847 59.9497 77.8244 59.8433 78.0106C59.7413 78.1924 59.6903 78.4097 59.6903 78.6625C59.6903 78.9152 59.7413 79.1369 59.8433 79.3276C59.9497 79.5182 60.0871 79.6646 60.2556 79.7665C60.4286 79.8641 60.6104 79.9129 60.801 79.9129C60.9961 79.9129 61.1779 79.8641 61.3464 79.7665C61.5149 79.669 61.6502 79.5271 61.7521 79.3409C61.8586 79.1502 61.9118 78.9285 61.9118 78.6758ZM66.6589 75.8889V76.5075H65.4285V80.5115H64.6702V76.5075H63.4331V75.8889H66.6589ZM69.0164 80.5713C68.6706 80.5713 68.358 80.4937 68.0786 80.3385C67.7993 80.1789 67.5798 79.9572 67.4202 79.6734C67.2605 79.3852 67.1807 79.0527 67.1807 78.6758C67.1807 78.3033 67.2628 77.973 67.4268 77.6847C67.5909 77.3965 67.8148 77.1748 68.0986 77.0196C68.3824 76.8644 68.6994 76.7868 69.0497 76.7868C69.4 76.7868 69.717 76.8644 70.0008 77.0196C70.2846 77.1748 70.5085 77.3965 70.6726 77.6847C70.8366 77.973 70.9187 78.3033 70.9187 78.6758C70.9187 79.0482 70.8344 79.3786 70.6659 79.6668C70.4974 79.955 70.2669 80.1789 69.9742 80.3385C69.686 80.4937 69.3667 80.5713 69.0164 80.5713ZM69.0164 79.9129C69.2115 79.9129 69.3933 79.8663 69.5618 79.7732C69.7348 79.6801 69.8744 79.5404 69.9809 79.3542C70.0873 79.1679 70.1405 78.9418 70.1405 78.6758C70.1405 78.4097 70.0895 78.1858 69.9875 78.004C69.8855 77.8178 69.7503 77.6781 69.5818 77.585C69.4133 77.4919 69.2315 77.4453 69.0364 77.4453C68.8413 77.4453 68.6595 77.4919 68.491 77.585C68.3269 77.6781 68.1961 77.8178 68.0986 78.004C68.001 78.1858 67.9523 78.4097 67.9523 78.6758C67.9523 79.0704 68.052 79.3763 68.2516 79.5936C68.4555 79.8065 68.7105 79.9129 69.0164 79.9129ZM73.1182 78.6824L74.8076 80.5115H73.7833L72.4265 78.9352V80.5115H71.6682V75.5896H72.4265V78.4496L73.7567 76.8467H74.8076L73.1182 78.6824ZM78.7099 78.5893C78.7099 78.7268 78.701 78.8509 78.6833 78.9618H75.8831C75.9053 79.2544 76.0139 79.4894 76.209 79.6668C76.4041 79.8441 76.6436 79.9328 76.9274 79.9328C77.3353 79.9328 77.6235 79.7621 77.792 79.4207H78.6101C78.4992 79.7577 78.2975 80.0348 78.0048 80.2521C77.7166 80.4649 77.3575 80.5713 76.9274 80.5713C76.5771 80.5713 76.2622 80.4937 75.9829 80.3385C75.708 80.1789 75.4907 79.9572 75.3311 79.6734C75.1759 79.3852 75.0983 79.0527 75.0983 78.6758C75.0983 78.2989 75.1737 77.9685 75.3244 77.6847C75.4796 77.3965 75.6947 77.1748 75.9696 77.0196C76.2489 76.8644 76.5682 76.7868 76.9274 76.7868C77.2732 76.7868 77.5814 76.8622 77.8519 77.013C78.1223 77.1637 78.333 77.3766 78.4837 77.6515C78.6345 77.922 78.7099 78.2346 78.7099 78.5893ZM77.9184 78.3499C77.9139 78.0705 77.8142 77.8466 77.6191 77.6781C77.424 77.5096 77.1823 77.4253 76.8941 77.4253C76.6325 77.4253 76.4086 77.5096 76.2223 77.6781C76.0361 77.8421 75.9253 78.0661 75.8898 78.3499H77.9184ZM81.3051 76.7868C81.5933 76.7868 81.8505 76.8467 82.0766 76.9664C82.3072 77.0861 82.4867 77.2635 82.6153 77.4985C82.7439 77.7335 82.8082 78.0173 82.8082 78.3499V80.5115H82.0566V78.4629C82.0566 78.1348 81.9746 77.8843 81.8105 77.7113C81.6465 77.534 81.4226 77.4453 81.1388 77.4453C80.855 77.4453 80.6289 77.534 80.4604 77.7113C80.2963 77.8843 80.2143 78.1348 80.2143 78.4629V80.5115H79.456V76.8467H80.2143V77.2657C80.3384 77.115 80.4958 76.9975 80.6865 76.9132C80.8816 76.829 81.0878 76.7868 81.3051 76.7868ZM59.9231 86.5896V91.5115H59.1649V86.5896H59.9231ZM64.2774 89.5893C64.2774 89.7268 64.2685 89.8509 64.2508 89.9618H61.4507C61.4728 90.2544 61.5815 90.4894 61.7766 90.6668C61.9717 90.8441 62.2111 90.9328 62.4949 90.9328C62.9028 90.9328 63.191 90.7621 63.3595 90.4207H64.1776C64.0668 90.7577 63.865 91.0348 63.5724 91.2521C63.2842 91.4649 62.925 91.5713 62.4949 91.5713C62.1446 91.5713 61.8298 91.4937 61.5504 91.3385C61.2755 91.1789 61.0582 90.9572 60.8986 90.6734C60.7434 90.3852 60.6658 90.0527 60.6658 89.6758C60.6658 89.2989 60.7412 88.9685 60.892 88.6847C61.0472 88.3965 61.2622 88.1748 61.5371 88.0196C61.8165 87.8644 62.1357 87.7868 62.4949 87.7868C62.8408 87.7868 63.1489 87.8622 63.4194 88.013C63.6899 88.1637 63.9005 88.3766 64.0513 88.6515C64.202 88.922 64.2774 89.2346 64.2774 89.5893ZM63.4859 89.3499C63.4815 89.0705 63.3817 88.8466 63.1866 88.6781C62.9915 88.5096 62.7499 88.4253 62.4616 88.4253C62.2 88.4253 61.9761 88.5096 61.7899 88.6781C61.6036 88.8421 61.4928 89.0661 61.4573 89.3499H63.4859ZM66.8726 87.7868C67.1608 87.7868 67.418 87.8467 67.6441 87.9664C67.8747 88.0861 68.0543 88.2635 68.1829 88.4985C68.3115 88.7335 68.3758 89.0173 68.3758 89.3499V91.5115H67.6242V89.4629C67.6242 89.1348 67.5421 88.8843 67.3781 88.7113C67.214 88.534 66.9901 88.4453 66.7063 88.4453C66.4225 88.4453 66.1964 88.534 66.0279 88.7113C65.8638 88.8843 65.7818 89.1348 65.7818 89.4629V91.5115H65.0236V87.8467H65.7818V88.2657C65.906 88.115 66.0634 87.9975 66.254 87.9132C66.4491 87.829 66.6553 87.7868 66.8726 87.7868ZM69.0902 89.6625C69.0902 89.2944 69.1656 88.9685 69.3163 88.6847C69.4715 88.401 69.6799 88.1815 69.9415 88.0263C70.2076 87.8666 70.5024 87.7868 70.8261 87.7868C71.0656 87.7868 71.3006 87.84 71.5311 87.9465C71.7662 88.0484 71.9524 88.1859 72.0898 88.3588V86.5896H72.8547V91.5115H72.0898V90.9594C71.9657 91.1368 71.7928 91.2831 71.5711 91.3984C71.3538 91.5137 71.1033 91.5713 70.8195 91.5713C70.5002 91.5713 70.2076 91.4915 69.9415 91.3319C69.6799 91.1678 69.4715 90.9417 69.3163 90.6535C69.1656 90.3608 69.0902 90.0305 69.0902 89.6625ZM72.0898 89.6758C72.0898 89.423 72.0366 89.2035 71.9302 89.0173C71.8282 88.8311 71.693 88.6892 71.5245 88.5916C71.356 88.4941 71.1742 88.4453 70.9791 88.4453C70.784 88.4453 70.6022 88.4941 70.4337 88.5916C70.2652 88.6847 70.1278 88.8244 70.0213 89.0106C69.9194 89.1924 69.8684 89.4097 69.8684 89.6625C69.8684 89.9152 69.9194 90.1369 70.0213 90.3276C70.1278 90.5182 70.2652 90.6646 70.4337 90.7665C70.6066 90.8641 70.7884 90.9129 70.9791 90.9129C71.1742 90.9129 71.356 90.8641 71.5245 90.7665C71.693 90.669 71.8282 90.5271 71.9302 90.3409C72.0366 90.1502 72.0898 89.9285 72.0898 89.6758ZM74.2364 87.3612C74.0989 87.3612 73.9837 87.3146 73.8905 87.2215C73.7974 87.1284 73.7509 87.0131 73.7509 86.8756C73.7509 86.7382 73.7974 86.6229 73.8905 86.5298C73.9837 86.4367 74.0989 86.3901 74.2364 86.3901C74.3694 86.3901 74.4825 86.4367 74.5756 86.5298C74.6687 86.6229 74.7153 86.7382 74.7153 86.8756C74.7153 87.0131 74.6687 87.1284 74.5756 87.2215C74.4825 87.3146 74.3694 87.3612 74.2364 87.3612ZM74.6089 87.8467V91.5115H73.8506V87.8467H74.6089ZM77.4534 87.7868C77.7416 87.7868 77.9988 87.8467 78.2249 87.9664C78.4555 88.0861 78.6351 88.2635 78.7636 88.4985C78.8922 88.7335 78.9565 89.0173 78.9565 89.3499V91.5115H78.2049V89.4629C78.2049 89.1348 78.1229 88.8843 77.9589 88.7113C77.7948 88.534 77.5709 88.4453 77.2871 88.4453C77.0033 88.4453 76.7772 88.534 76.6087 88.7113C76.4446 88.8843 76.3626 89.1348 76.3626 89.4629V91.5115H75.6044V87.8467H76.3626V88.2657C76.4867 88.115 76.6441 87.9975 76.8348 87.9132C77.0299 87.829 77.2361 87.7868 77.4534 87.7868ZM81.4003 87.7868C81.684 87.7868 81.9346 87.8445 82.1518 87.9598C82.3735 88.0706 82.5465 88.2103 82.6706 88.3788V87.8467H83.4355V91.5713C83.4355 91.9083 83.3646 92.2076 83.2227 92.4692C83.0808 92.7353 82.8746 92.9437 82.6041 93.0944C82.3381 93.2452 82.0188 93.3206 81.6463 93.3206C81.1497 93.3206 80.7374 93.2031 80.4092 92.9681C80.0811 92.7375 79.8949 92.4227 79.8505 92.0236H80.6021C80.6598 92.2143 80.7817 92.3673 80.9679 92.4825C81.1586 92.6023 81.3847 92.6621 81.6463 92.6621C81.9523 92.6621 82.1984 92.569 82.3846 92.3828C82.5753 92.1965 82.6706 91.9261 82.6706 91.5713V90.9594C82.542 91.1324 82.3669 91.2787 82.1452 91.3984C81.9279 91.5137 81.6796 91.5713 81.4003 91.5713C81.081 91.5713 80.7883 91.4915 80.5223 91.3319C80.2607 91.1678 80.0523 90.9417 79.8971 90.6535C79.7463 90.3608 79.671 90.0305 79.671 89.6625C79.671 89.2944 79.7463 88.9685 79.8971 88.6847C80.0523 88.401 80.2607 88.1815 80.5223 88.0263C80.7883 87.8666 81.081 87.7868 81.4003 87.7868ZM82.6706 89.6758C82.6706 89.423 82.6174 89.2035 82.511 89.0173C82.409 88.8311 82.2738 88.6892 82.1053 88.5916C81.9368 88.4941 81.755 88.4453 81.5599 88.4453C81.3648 88.4453 81.183 88.4941 81.0145 88.5916C80.846 88.6847 80.7085 88.8244 80.6021 89.0106C80.5001 89.1924 80.4491 89.4097 80.4491 89.6625C80.4491 89.9152 80.5001 90.1369 80.6021 90.3276C80.7085 90.5182 80.846 90.6646 81.0145 90.7665C81.1874 90.8641 81.3692 90.9129 81.5599 90.9129C81.755 90.9129 81.9368 90.8641 82.1053 90.7665C82.2738 90.669 82.409 90.5271 82.511 90.3409C82.6174 90.1502 82.6706 89.9285 82.6706 89.6758ZM87.6639 88.2657C87.6639 88.5007 87.6084 88.7224 87.4976 88.9308C87.3867 89.1392 87.2094 89.3099 86.9655 89.443C86.7216 89.5716 86.409 89.6359 86.0277 89.6359H85.1896V91.5115H84.4314V86.8889H86.0277C86.3824 86.8889 86.6817 86.951 86.9256 87.0752C87.1739 87.1949 87.3579 87.3589 87.4776 87.5673C87.6018 87.7757 87.6639 88.0085 87.6639 88.2657ZM86.0277 89.0173C86.3159 89.0173 86.531 88.953 86.6728 88.8244C86.8147 88.6914 86.8857 88.5052 86.8857 88.2657C86.8857 87.7602 86.5997 87.5075 86.0277 87.5075H85.1896V89.0173H86.0277ZM89.9766 91.5713C89.6308 91.5713 89.3182 91.4937 89.0388 91.3385C88.7595 91.1789 88.54 90.9572 88.3804 90.6734C88.2207 90.3852 88.1409 90.0527 88.1409 89.6758C88.1409 89.3033 88.223 88.973 88.387 88.6847C88.5511 88.3965 88.775 88.1748 89.0588 88.0196C89.3426 87.8644 89.6596 87.7868 90.0099 87.7868C90.3602 87.7868 90.6772 87.8644 90.961 88.0196C91.2448 88.1748 91.4687 88.3965 91.6328 88.6847C91.7968 88.973 91.8789 89.3033 91.8789 89.6758C91.8789 90.0482 91.7946 90.3786 91.6261 90.6668C91.4576 90.955 91.2271 91.1789 90.9344 91.3385C90.6462 91.4937 90.3269 91.5713 89.9766 91.5713ZM89.9766 90.9129C90.1717 90.9129 90.3535 90.8663 90.522 90.7732C90.695 90.6801 90.8346 90.5404 90.9411 90.3542C91.0475 90.1679 91.1007 89.9418 91.1007 89.6758C91.1007 89.4097 91.0497 89.1858 90.9477 89.004C90.8457 88.8178 90.7105 88.6781 90.542 88.585C90.3735 88.4919 90.1917 88.4453 89.9966 88.4453C89.8015 88.4453 89.6197 88.4919 89.4512 88.585C89.2871 88.6781 89.1563 88.8178 89.0588 89.004C88.9612 89.1858 88.9125 89.4097 88.9125 89.6758C88.9125 90.0704 89.0122 90.3763 89.2118 90.5936C89.4157 90.8065 89.6707 90.9129 89.9766 90.9129ZM94.218 91.5713C93.8722 91.5713 93.5596 91.4937 93.2802 91.3385C93.0009 91.1789 92.7814 90.9572 92.6218 90.6734C92.4621 90.3852 92.3823 90.0527 92.3823 89.6758C92.3823 89.3033 92.4644 88.973 92.6284 88.6847C92.7925 88.3965 93.0164 88.1748 93.3002 88.0196C93.584 87.8644 93.901 87.7868 94.2513 87.7868C94.6016 87.7868 94.9186 87.8644 95.2024 88.0196C95.4862 88.1748 95.7101 88.3965 95.8742 88.6847C96.0382 88.973 96.1203 89.3033 96.1203 89.6758C96.1203 90.0482 96.036 90.3786 95.8675 90.6668C95.699 90.955 95.4685 91.1789 95.1758 91.3385C94.8876 91.4937 94.5683 91.5713 94.218 91.5713ZM94.218 90.9129C94.4131 90.9129 94.5949 90.8663 94.7634 90.7732C94.9364 90.6801 95.076 90.5404 95.1825 90.3542C95.2889 90.1679 95.3421 89.9418 95.3421 89.6758C95.3421 89.4097 95.2911 89.1858 95.1891 89.004C95.0871 88.8178 94.9519 88.6781 94.7834 88.585C94.6149 88.4919 94.4331 88.4453 94.238 88.4453C94.0429 88.4453 93.8611 88.4919 93.6926 88.585C93.5285 88.6781 93.3977 88.8178 93.3002 89.004C93.2026 89.1858 93.1539 89.4097 93.1539 89.6758C93.1539 90.0704 93.2536 90.3763 93.4532 90.5936C93.6571 90.8065 93.9121 90.9129 94.218 90.9129ZM97.6281 86.5896V91.5115H96.8698V86.5896H97.6281ZM59.9231 99.3788C60.0339 99.1926 60.1803 99.0484 60.3621 98.9465C60.5483 98.84 60.7678 98.7868 61.0205 98.7868V99.5717H60.8276C60.5306 99.5717 60.3044 99.647 60.1492 99.7978C59.9985 99.9486 59.9231 100.21 59.9231 100.583V102.511H59.1649V98.8467H59.9231V99.3788ZM65.0763 100.589C65.0763 100.727 65.0674 100.851 65.0497 100.962H62.2496C62.2718 101.254 62.3804 101.489 62.5755 101.667C62.7706 101.844 63.01 101.933 63.2938 101.933C63.7017 101.933 63.99 101.762 64.1585 101.421H64.9765C64.8657 101.758 64.6639 102.035 64.3713 102.252C64.0831 102.465 63.7239 102.571 63.2938 102.571C62.9435 102.571 62.6287 102.494 62.3493 102.339C62.0744 102.179 61.8572 101.957 61.6975 101.673C61.5423 101.385 61.4647 101.053 61.4647 100.676C61.4647 100.299 61.5401 99.9685 61.6909 99.6847C61.8461 99.3965 62.0611 99.1748 62.336 99.0196C62.6154 98.8644 62.9346 98.7868 63.2938 98.7868C63.6397 98.7868 63.9478 98.8622 64.2183 99.013C64.4888 99.1637 64.6994 99.3766 64.8502 99.6515C65.0009 99.922 65.0763 100.235 65.0763 100.589ZM64.2848 100.35C64.2804 100.071 64.1806 99.8466 63.9855 99.6781C63.7904 99.5096 63.5488 99.4253 63.2606 99.4253C62.9989 99.4253 62.775 99.5096 62.5888 99.6781C62.4026 99.8421 62.2917 100.066 62.2562 100.35H64.2848ZM70.7443 98.8467L69.607 102.511H68.8089L68.0706 99.8045L67.3323 102.511H66.5342L65.3902 98.8467H66.1617L66.9266 101.793L67.7048 98.8467H68.4963L69.2412 101.78L69.9994 98.8467H70.7443ZM71.0582 100.662C71.0582 100.294 71.1336 99.9685 71.2844 99.6847C71.4396 99.401 71.648 99.1815 71.9096 99.0263C72.1756 98.8666 72.4683 98.7868 72.7875 98.7868C73.0758 98.7868 73.3263 98.8445 73.5391 98.9598C73.7564 99.0706 73.9293 99.2103 74.0579 99.3788V98.8467H74.8228V102.511H74.0579V101.966C73.9293 102.139 73.7542 102.283 73.5325 102.398C73.3108 102.514 73.058 102.571 72.7742 102.571C72.4594 102.571 72.1712 102.492 71.9096 102.332C71.648 102.168 71.4396 101.942 71.2844 101.653C71.1336 101.361 71.0582 101.03 71.0582 100.662ZM74.0579 100.676C74.0579 100.423 74.0047 100.204 73.8983 100.017C73.7963 99.8311 73.6611 99.6892 73.4926 99.5916C73.3241 99.4941 73.1423 99.4453 72.9472 99.4453C72.7521 99.4453 72.5703 99.4941 72.4018 99.5916C72.2333 99.6847 72.0958 99.8244 71.9894 100.011C71.8874 100.192 71.8364 100.41 71.8364 100.662C71.8364 100.915 71.8874 101.137 71.9894 101.328C72.0958 101.518 72.2333 101.665 72.4018 101.767C72.5747 101.864 72.7565 101.913 72.9472 101.913C73.1423 101.913 73.3241 101.864 73.4926 101.767C73.6611 101.669 73.7963 101.527 73.8983 101.341C74.0047 101.15 74.0579 100.929 74.0579 100.676ZM76.5769 99.3788C76.6878 99.1926 76.8341 99.0484 77.0159 98.9465C77.2021 98.84 77.4216 98.7868 77.6744 98.7868V99.5717H77.4815C77.1844 99.5717 76.9583 99.647 76.8031 99.7978C76.6523 99.9486 76.5769 100.21 76.5769 100.583V102.511H75.8187V98.8467H76.5769V99.3788ZM78.1186 100.662C78.1186 100.294 78.194 99.9685 78.3447 99.6847C78.4999 99.401 78.7083 99.1815 78.9699 99.0263C79.236 98.8666 79.5308 98.7868 79.8545 98.7868C80.094 98.7868 80.329 98.84 80.5596 98.9465C80.7946 99.0484 80.9808 99.1859 81.1183 99.3588V97.5896H81.8831V102.511H81.1183V101.959C80.9941 102.137 80.8212 102.283 80.5995 102.398C80.3822 102.514 80.1317 102.571 79.8479 102.571C79.5286 102.571 79.236 102.492 78.9699 102.332C78.7083 102.168 78.4999 101.942 78.3447 101.653C78.194 101.361 78.1186 101.03 78.1186 100.662ZM81.1183 100.676C81.1183 100.423 81.065 100.204 80.9586 100.017C80.8566 99.8311 80.7214 99.6892 80.5529 99.5916C80.3844 99.4941 80.2026 99.4453 80.0075 99.4453C79.8124 99.4453 79.6306 99.4941 79.4621 99.5916C79.2936 99.6847 79.1562 99.8244 79.0497 100.011C78.9478 100.192 78.8968 100.41 78.8968 100.662C78.8968 100.915 78.9478 101.137 79.0497 101.328C79.1562 101.518 79.2936 101.665 79.4621 101.767C79.635 101.864 79.8168 101.913 80.0075 101.913C80.2026 101.913 80.3844 101.864 80.5529 101.767C80.7214 101.669 80.8566 101.527 80.9586 101.341C81.065 101.15 81.1183 100.929 81.1183 100.676ZM84.2093 102.571C83.9211 102.571 83.6617 102.52 83.4311 102.418C83.2049 102.312 83.0254 102.17 82.8923 101.993C82.7593 101.811 82.6884 101.609 82.6795 101.387H83.4643C83.4776 101.543 83.5508 101.673 83.6838 101.78C83.8213 101.882 83.992 101.933 84.196 101.933C84.4088 101.933 84.5729 101.893 84.6882 101.813C84.8079 101.729 84.8677 101.622 84.8677 101.494C84.8677 101.356 84.8012 101.254 84.6682 101.188C84.5396 101.121 84.3334 101.048 84.0496 100.968C83.7747 100.893 83.5508 100.82 83.3779 100.749C83.2049 100.678 83.0542 100.569 82.9256 100.423C82.8014 100.277 82.7394 100.084 82.7394 99.8444C82.7394 99.6493 82.797 99.4719 82.9123 99.3123C83.0276 99.1482 83.1916 99.0196 83.4045 98.9265C83.6218 98.8334 83.8701 98.7868 84.1494 98.7868C84.5662 98.7868 84.901 98.8933 85.1537 99.1061C85.4109 99.3145 85.5484 99.6005 85.5661 99.9641H84.8079C84.7946 99.8 84.7281 99.6692 84.6083 99.5717C84.4886 99.4741 84.3268 99.4253 84.1228 99.4253C83.9233 99.4253 83.7703 99.463 83.6639 99.5384C83.5575 99.6138 83.5042 99.7136 83.5042 99.8377C83.5042 99.9353 83.5397 100.017 83.6107 100.084C83.6816 100.15 83.7681 100.204 83.8701 100.243C83.972 100.279 84.1228 100.325 84.3223 100.383C84.5884 100.454 84.8057 100.527 84.9742 100.603C85.1471 100.674 85.2956 100.78 85.4198 100.922C85.5439 101.064 85.6082 101.252 85.6127 101.487C85.6127 101.696 85.555 101.882 85.4397 102.046C85.3244 102.21 85.1604 102.339 84.9475 102.432C84.7391 102.525 84.4931 102.571 84.2093 102.571ZM86.1792 100.19C86.1792 99.7379 86.2834 99.3322 86.4918 98.9731C86.7046 98.6139 86.9906 98.3346 87.3498 98.135C87.7134 97.9311 88.1103 97.8291 88.5404 97.8291C89.0325 97.8291 89.4693 97.951 89.8506 98.1949C90.2364 98.4343 90.5158 98.7757 90.6887 99.2192H89.7775C89.6578 98.9753 89.4915 98.7935 89.2786 98.6738C89.0658 98.554 88.8197 98.4942 88.5404 98.4942C88.2344 98.4942 87.9617 98.5629 87.7223 98.7004C87.4828 98.8378 87.2944 99.0351 87.1569 99.2923C87.0239 99.5495 86.9574 99.8488 86.9574 100.19C86.9574 100.532 87.0239 100.831 87.1569 101.088C87.2944 101.345 87.4828 101.545 87.7223 101.687C87.9617 101.824 88.2344 101.893 88.5404 101.893C88.8197 101.893 89.0658 101.833 89.2786 101.713C89.4915 101.594 89.6578 101.412 89.7775 101.168H90.6887C90.5158 101.611 90.2364 101.953 89.8506 102.192C89.4693 102.432 89.0325 102.551 88.5404 102.551C88.1058 102.551 87.709 102.452 87.3498 102.252C86.9906 102.048 86.7046 101.767 86.4918 101.407C86.2834 101.048 86.1792 100.643 86.1792 100.19ZM93.1658 102.571C92.82 102.571 92.5074 102.494 92.228 102.339C91.9487 102.179 91.7292 101.957 91.5695 101.673C91.4099 101.385 91.3301 101.053 91.3301 100.676C91.3301 100.303 91.4121 99.973 91.5762 99.6847C91.7403 99.3965 91.9642 99.1748 92.248 99.0196C92.5317 98.8644 92.8488 98.7868 93.1991 98.7868C93.5494 98.7868 93.8664 98.8644 94.1502 99.0196C94.434 99.1748 94.6579 99.3965 94.8219 99.6847C94.986 99.973 95.068 100.303 95.068 100.676C95.068 101.048 94.9838 101.379 94.8153 101.667C94.6468 101.955 94.4162 102.179 94.1236 102.339C93.8354 102.494 93.5161 102.571 93.1658 102.571ZM93.1658 101.913C93.3609 101.913 93.5427 101.866 93.7112 101.773C93.8841 101.68 94.0238 101.54 94.1302 101.354C94.2366 101.168 94.2899 100.942 94.2899 100.676C94.2899 100.41 94.2389 100.186 94.1369 100.004C94.0349 99.8178 93.8997 99.6781 93.7312 99.585C93.5627 99.4919 93.3809 99.4453 93.1858 99.4453C92.9907 99.4453 92.8089 99.4919 92.6404 99.585C92.4763 99.6781 92.3455 99.8178 92.248 100.004C92.1504 100.186 92.1016 100.41 92.1016 100.676C92.1016 101.07 92.2014 101.376 92.4009 101.594C92.6049 101.806 92.8599 101.913 93.1658 101.913ZM97.6666 98.7868C97.9548 98.7868 98.212 98.8467 98.4381 98.9664C98.6687 99.0861 98.8483 99.2635 98.9769 99.4985C99.1055 99.7335 99.1698 100.017 99.1698 100.35V102.511H98.4182V100.463C98.4182 100.135 98.3362 99.8843 98.1721 99.7113C98.008 99.534 97.7841 99.4453 97.5003 99.4453C97.2166 99.4453 96.9904 99.534 96.8219 99.7113C96.6579 99.8843 96.5758 100.135 96.5758 100.463V102.511H95.8176V98.8467H96.5758V99.2657C96.7 99.115 96.8574 98.9975 97.0481 98.9132C97.2432 98.829 97.4493 98.7868 97.6666 98.7868ZM101.022 99.4652V101.494C101.022 101.631 101.053 101.731 101.115 101.793C101.181 101.851 101.292 101.88 101.447 101.88H101.913V102.511H101.314C100.973 102.511 100.711 102.432 100.529 102.272C100.348 102.112 100.257 101.853 100.257 101.494V99.4652H99.8243V98.8467H100.257V97.9355H101.022V98.8467H101.913V99.4652H101.022ZM103.37 99.3788C103.481 99.1926 103.627 99.0484 103.809 98.9465C103.995 98.84 104.215 98.7868 104.467 98.7868V99.5717H104.274C103.977 99.5717 103.751 99.647 103.596 99.7978C103.445 99.9486 103.37 100.21 103.37 100.583V102.511H102.612V98.8467H103.37V99.3788ZM106.754 102.571C106.408 102.571 106.095 102.494 105.816 102.339C105.537 102.179 105.317 101.957 105.158 101.673C104.998 101.385 104.918 101.053 104.918 100.676C104.918 100.303 105 99.973 105.164 99.6847C105.328 99.3965 105.552 99.1748 105.836 99.0196C106.12 98.8644 106.437 98.7868 106.787 98.7868C107.137 98.7868 107.454 98.8644 107.738 99.0196C108.022 99.1748 108.246 99.3965 108.41 99.6847C108.574 99.973 108.656 100.303 108.656 100.676C108.656 101.048 108.572 101.379 108.403 101.667C108.235 101.955 108.004 102.179 107.712 102.339C107.423 102.494 107.104 102.571 106.754 102.571ZM106.754 101.913C106.949 101.913 107.131 101.866 107.299 101.773C107.472 101.68 107.612 101.54 107.718 101.354C107.825 101.168 107.878 100.942 107.878 100.676C107.878 100.41 107.827 100.186 107.725 100.004C107.623 99.8178 107.488 99.6781 107.319 99.585C107.151 99.4919 106.969 99.4453 106.774 99.4453C106.579 99.4453 106.397 99.4919 106.228 99.585C106.064 99.6781 105.934 99.8178 105.836 100.004C105.738 100.186 105.69 100.41 105.69 100.676C105.69 101.07 105.789 101.376 105.989 101.594C106.193 101.806 106.448 101.913 106.754 101.913ZM110.164 97.5896V102.511H109.406V97.5896H110.164ZM111.918 97.5896V102.511H111.159V97.5896H111.918ZM116.272 100.589C116.272 100.727 116.263 100.851 116.245 100.962H113.445C113.467 101.254 113.576 101.489 113.771 101.667C113.966 101.844 114.206 101.933 114.489 101.933C114.897 101.933 115.186 101.762 115.354 101.421H116.172C116.061 101.758 115.86 102.035 115.567 102.252C115.279 102.465 114.92 102.571 114.489 102.571C114.139 102.571 113.824 102.494 113.545 102.339C113.27 102.179 113.053 101.957 112.893 101.673C112.738 101.385 112.66 101.053 112.66 100.676C112.66 100.299 112.736 99.9685 112.887 99.6847C113.042 99.3965 113.257 99.1748 113.532 99.0196C113.811 98.8644 114.13 98.7868 114.489 98.7868C114.835 98.7868 115.143 98.8622 115.414 99.013C115.684 99.1637 115.895 99.3766 116.046 99.6515C116.197 99.922 116.272 100.235 116.272 100.589ZM115.48 100.35C115.476 100.071 115.376 99.8466 115.181 99.6781C114.986 99.5096 114.744 99.4253 114.456 99.4253C114.195 99.4253 113.971 99.5096 113.784 99.6781C113.598 99.8421 113.487 100.066 113.452 100.35H115.48ZM117.776 99.3788C117.887 99.1926 118.034 99.0484 118.215 98.9465C118.402 98.84 118.621 98.7868 118.874 98.7868V99.5717H118.681C118.384 99.5717 118.158 99.647 118.002 99.7978C117.852 99.9486 117.776 100.21 117.776 100.583V102.511H117.018V98.8467H117.776V99.3788ZM60.4951 113.571C60.2069 113.571 59.9475 113.52 59.7169 113.418C59.4908 113.312 59.3112 113.17 59.1782 112.993C59.0451 112.811 58.9742 112.609 58.9653 112.387H59.7502C59.7635 112.543 59.8366 112.673 59.9696 112.78C60.1071 112.882 60.2778 112.933 60.4818 112.933C60.6946 112.933 60.8587 112.893 60.974 112.813C61.0937 112.729 61.1535 112.622 61.1535 112.494C61.1535 112.356 61.087 112.254 60.954 112.188C60.8254 112.121 60.6192 112.048 60.3355 111.968C60.0605 111.893 59.8366 111.82 59.6637 111.749C59.4908 111.678 59.34 111.569 59.2114 111.423C59.0873 111.277 59.0252 111.084 59.0252 110.844C59.0252 110.649 59.0828 110.472 59.1981 110.312C59.3134 110.148 59.4775 110.02 59.6903 109.927C59.9076 109.833 60.1559 109.787 60.4352 109.787C60.852 109.787 61.1868 109.893 61.4395 110.106C61.6967 110.314 61.8342 110.6 61.8519 110.964H61.0937C61.0804 110.8 61.0139 110.669 60.8941 110.572C60.7744 110.474 60.6126 110.425 60.4086 110.425C60.2091 110.425 60.0561 110.463 59.9497 110.538C59.8433 110.614 59.7901 110.714 59.7901 110.838C59.7901 110.935 59.8255 111.017 59.8965 111.084C59.9674 111.15 60.0539 111.204 60.1559 111.243C60.2579 111.279 60.4086 111.325 60.6082 111.383C60.8742 111.454 61.0915 111.527 61.26 111.603C61.4329 111.674 61.5814 111.78 61.7056 111.922C61.8297 112.064 61.894 112.252 61.8985 112.487C61.8985 112.696 61.8408 112.882 61.7255 113.046C61.6103 113.21 61.4462 113.339 61.2334 113.432C61.025 113.525 60.7789 113.571 60.4951 113.571ZM67.6396 109.847L66.5023 113.511H65.7041L64.9658 110.804L64.2276 113.511H63.4294L62.2854 109.847H63.057L63.8218 112.793L64.6 109.847H65.3915L66.1364 112.78L66.8947 109.847H67.6396ZM67.9535 111.662C67.9535 111.294 68.0289 110.969 68.1796 110.685C68.3348 110.401 68.5432 110.181 68.8049 110.026C69.0709 109.867 69.3636 109.787 69.6828 109.787C69.971 109.787 70.2215 109.844 70.4344 109.96C70.6517 110.071 70.8246 110.21 70.9532 110.379V109.847H71.7181V113.511H70.9532V112.966C70.8246 113.139 70.6494 113.283 70.4277 113.398C70.206 113.514 69.9533 113.571 69.6695 113.571C69.3547 113.571 69.0665 113.492 68.8049 113.332C68.5432 113.168 68.3348 112.942 68.1796 112.653C68.0289 112.361 67.9535 112.03 67.9535 111.662ZM70.9532 111.676C70.9532 111.423 70.9 111.204 70.7935 111.017C70.6916 110.831 70.5563 110.689 70.3878 110.592C70.2193 110.494 70.0375 110.445 69.8424 110.445C69.6473 110.445 69.4655 110.494 69.297 110.592C69.1285 110.685 68.9911 110.824 68.8847 111.011C68.7827 111.192 68.7317 111.41 68.7317 111.662C68.7317 111.915 68.7827 112.137 68.8847 112.328C68.9911 112.518 69.1285 112.665 69.297 112.767C69.47 112.864 69.6518 112.913 69.8424 112.913C70.0375 112.913 70.2193 112.864 70.3878 112.767C70.5563 112.669 70.6916 112.527 70.7935 112.341C70.9 112.15 70.9532 111.929 70.9532 111.676ZM73.4722 110.385C73.6008 110.217 73.7759 110.075 73.9976 109.96C74.2193 109.844 74.4699 109.787 74.7492 109.787C75.0685 109.787 75.3589 109.867 75.6205 110.026C75.8866 110.181 76.095 110.401 76.2457 110.685C76.3965 110.969 76.4719 111.294 76.4719 111.662C76.4719 112.03 76.3965 112.361 76.2457 112.653C76.095 112.942 75.8866 113.168 75.6205 113.332C75.3589 113.492 75.0685 113.571 74.7492 113.571C74.4699 113.571 74.2216 113.516 74.0043 113.405C73.787 113.29 73.6096 113.148 73.4722 112.979V115.254H72.714V109.847H73.4722V110.385ZM75.7003 111.662C75.7003 111.41 75.6471 111.192 75.5407 111.011C75.4387 110.824 75.3013 110.685 75.1283 110.592C74.9598 110.494 74.778 110.445 74.5829 110.445C74.3923 110.445 74.2105 110.494 74.0375 110.592C73.869 110.689 73.7316 110.831 73.6252 111.017C73.5232 111.204 73.4722 111.423 73.4722 111.676C73.4722 111.929 73.5232 112.15 73.6252 112.341C73.7316 112.527 73.869 112.669 74.0375 112.767C74.2105 112.864 74.3923 112.913 74.5829 112.913C74.778 112.913 74.9598 112.864 75.1283 112.767C75.3013 112.665 75.4387 112.518 75.5407 112.328C75.6471 112.137 75.7003 111.915 75.7003 111.662ZM77.9799 110.385C78.1085 110.217 78.2836 110.075 78.5053 109.96C78.727 109.844 78.9776 109.787 79.2569 109.787C79.5762 109.787 79.8666 109.867 80.1282 110.026C80.3943 110.181 80.6027 110.401 80.7534 110.685C80.9042 110.969 80.9796 111.294 80.9796 111.662C80.9796 112.03 80.9042 112.361 80.7534 112.653C80.6027 112.942 80.3943 113.168 80.1282 113.332C79.8666 113.492 79.5762 113.571 79.2569 113.571C78.9776 113.571 78.7293 113.516 78.512 113.405C78.2947 113.29 78.1174 113.148 77.9799 112.979V115.254H77.2217V109.847H77.9799V110.385ZM80.208 111.662C80.208 111.41 80.1548 111.192 80.0484 111.011C79.9464 110.824 79.809 110.685 79.636 110.592C79.4675 110.494 79.2857 110.445 79.0906 110.445C78.9 110.445 78.7182 110.494 78.5452 110.592C78.3768 110.689 78.2393 110.831 78.1329 111.017C78.0309 111.204 77.9799 111.423 77.9799 111.676C77.9799 111.929 78.0309 112.15 78.1329 112.341C78.2393 112.527 78.3768 112.669 78.5452 112.767C78.7182 112.864 78.9 112.913 79.0906 112.913C79.2857 112.913 79.4675 112.864 79.636 112.767C79.809 112.665 79.9464 112.518 80.0484 112.328C80.1548 112.137 80.208 111.915 80.208 111.662ZM85.0882 111.589C85.0882 111.727 85.0793 111.851 85.0616 111.962H82.2615C82.2836 112.254 82.3923 112.489 82.5874 112.667C82.7825 112.844 83.0219 112.933 83.3057 112.933C83.7136 112.933 84.0019 112.762 84.1704 112.421H84.9884C84.8776 112.758 84.6758 113.035 84.3832 113.252C84.095 113.465 83.7358 113.571 83.3057 113.571C82.9554 113.571 82.6406 113.494 82.3612 113.339C82.0863 113.179 81.8691 112.957 81.7094 112.673C81.5542 112.385 81.4766 112.053 81.4766 111.676C81.4766 111.299 81.552 110.969 81.7028 110.685C81.858 110.397 82.073 110.175 82.3479 110.02C82.6273 109.864 82.9465 109.787 83.3057 109.787C83.6516 109.787 83.9597 109.862 84.2302 110.013C84.5007 110.164 84.7113 110.377 84.8621 110.651C85.0128 110.922 85.0882 111.235 85.0882 111.589ZM84.2967 111.35C84.2923 111.071 84.1925 110.847 83.9974 110.678C83.8023 110.51 83.5607 110.425 83.2724 110.425C83.0108 110.425 82.7869 110.51 82.6007 110.678C82.4144 110.842 82.3036 111.066 82.2681 111.35H84.2967ZM86.5926 110.379C86.7035 110.193 86.8498 110.048 87.0316 109.946C87.2178 109.84 87.4373 109.787 87.6901 109.787V110.572H87.4972C87.2001 110.572 86.9739 110.647 86.8188 110.798C86.668 110.949 86.5926 111.21 86.5926 111.583V113.511H85.8344V109.847H86.5926V110.379ZM60.7013 120.465H60.0228V123.511H59.258V120.465H58.8256V119.847H59.258V119.587C59.258 119.166 59.3688 118.86 59.5905 118.669C59.8167 118.474 60.1692 118.377 60.6481 118.377V119.009C60.4175 119.009 60.2556 119.053 60.1625 119.142C60.0694 119.226 60.0228 119.374 60.0228 119.587V119.847H60.7013V120.465ZM64.7321 121.589C64.7321 121.727 64.7232 121.851 64.7055 121.962H61.9053C61.9275 122.254 62.0361 122.489 62.2312 122.667C62.4263 122.844 62.6658 122.933 62.9496 122.933C63.3575 122.933 63.6457 122.762 63.8142 122.421H64.6323C64.5214 122.758 64.3197 123.035 64.027 123.252C63.7388 123.465 63.3797 123.571 62.9496 123.571C62.5993 123.571 62.2844 123.494 62.0051 123.339C61.7302 123.179 61.5129 122.957 61.3533 122.673C61.1981 122.385 61.1205 122.053 61.1205 121.676C61.1205 121.299 61.1959 120.969 61.3466 120.685C61.5018 120.397 61.7169 120.175 61.9918 120.02C62.2711 119.864 62.5904 119.787 62.9496 119.787C63.2954 119.787 63.6036 119.862 63.8741 120.013C64.1446 120.164 64.3552 120.377 64.5059 120.651C64.6567 120.922 64.7321 121.235 64.7321 121.589ZM63.9406 121.35C63.9361 121.071 63.8364 120.847 63.6413 120.678C63.4462 120.51 63.2045 120.425 62.9163 120.425C62.6547 120.425 62.4308 120.51 62.2445 120.678C62.0583 120.842 61.9475 121.066 61.912 121.35H63.9406ZM68.8371 121.589C68.8371 121.727 68.8282 121.851 68.8105 121.962H66.0103C66.0325 122.254 66.1411 122.489 66.3362 122.667C66.5313 122.844 66.7708 122.933 67.0546 122.933C67.4625 122.933 67.7507 122.762 67.9192 122.421H68.7373C68.6265 122.758 68.4247 123.035 68.1321 123.252C67.8438 123.465 67.4847 123.571 67.0546 123.571C66.7043 123.571 66.3895 123.494 66.1101 123.339C65.8352 123.179 65.6179 122.957 65.4583 122.673C65.3031 122.385 65.2255 122.053 65.2255 121.676C65.2255 121.299 65.3009 120.969 65.4516 120.685C65.6068 120.397 65.8219 120.175 66.0968 120.02C66.3761 119.864 66.6954 119.787 67.0546 119.787C67.4004 119.787 67.7086 119.862 67.9791 120.013C68.2496 120.164 68.4602 120.377 68.6109 120.651C68.7617 120.922 68.8371 121.235 68.8371 121.589ZM68.0456 121.35C68.0412 121.071 67.9414 120.847 67.7463 120.678C67.5512 120.51 67.3095 120.425 67.0213 120.425C66.7597 120.425 66.5358 120.51 66.3495 120.678C66.1633 120.842 66.0525 121.066 66.017 121.35H68.0456ZM70.9135 123.571C70.6253 123.571 70.3659 123.52 70.1353 123.418C69.9092 123.312 69.7296 123.17 69.5965 122.993C69.4635 122.811 69.3926 122.609 69.3837 122.387H70.1685C70.1818 122.543 70.255 122.673 70.388 122.78C70.5255 122.882 70.6962 122.933 70.9002 122.933C71.113 122.933 71.2771 122.893 71.3924 122.813C71.5121 122.729 71.5719 122.622 71.5719 122.494C71.5719 122.356 71.5054 122.254 71.3724 122.188C71.2438 122.121 71.0376 122.048 70.7538 121.968C70.4789 121.893 70.255 121.82 70.0821 121.749C69.9092 121.678 69.7584 121.569 69.6298 121.423C69.5056 121.277 69.4436 121.084 69.4436 120.844C69.4436 120.649 69.5012 120.472 69.6165 120.312C69.7318 120.148 69.8959 120.02 70.1087 119.927C70.326 119.833 70.5743 119.787 70.8536 119.787C71.2704 119.787 71.6052 119.893 71.8579 120.106C72.1151 120.314 72.2526 120.6 72.2703 120.964H71.5121C71.4988 120.8 71.4323 120.669 71.3125 120.572C71.1928 120.474 71.031 120.425 70.827 120.425C70.6275 120.425 70.4745 120.463 70.3681 120.538C70.2617 120.614 70.2085 120.714 70.2085 120.838C70.2085 120.935 70.2439 121.017 70.3149 121.084C70.3858 121.15 70.4723 121.204 70.5743 121.243C70.6763 121.279 70.827 121.325 71.0265 121.383C71.2926 121.454 71.5099 121.527 71.6784 121.603C71.8513 121.674 71.9998 121.78 72.124 121.922C72.2481 122.064 72.3124 122.252 72.3169 122.487C72.3169 122.696 72.2592 122.882 72.1439 123.046C72.0287 123.21 71.8646 123.339 71.6518 123.432C71.4434 123.525 71.1973 123.571 70.9135 123.571ZM72.8834 121.19C72.8834 120.738 72.9876 120.332 73.196 119.973C73.4088 119.614 73.6948 119.335 74.054 119.135C74.4176 118.931 74.8145 118.829 75.2446 118.829C75.7368 118.829 76.1735 118.951 76.5548 119.195C76.9406 119.434 77.22 119.776 77.3929 120.219H76.4817C76.362 119.975 76.1957 119.793 75.9828 119.674C75.77 119.554 75.5239 119.494 75.2446 119.494C74.9386 119.494 74.6659 119.563 74.4265 119.7C74.187 119.838 73.9986 120.035 73.8611 120.292C73.7281 120.549 73.6616 120.849 73.6616 121.19C73.6616 121.532 73.7281 121.831 73.8611 122.088C73.9986 122.345 74.187 122.545 74.4265 122.687C74.6659 122.824 74.9386 122.893 75.2446 122.893C75.5239 122.893 75.77 122.833 75.9828 122.713C76.1957 122.594 76.362 122.412 76.4817 122.168H77.3929C77.22 122.611 76.9406 122.953 76.5548 123.192C76.1735 123.432 75.7368 123.551 75.2446 123.551C74.81 123.551 74.4132 123.452 74.054 123.252C73.6948 123.048 73.4088 122.767 73.196 122.407C72.9876 122.048 72.8834 121.643 72.8834 121.19ZM79.87 123.571C79.5242 123.571 79.2116 123.494 78.9322 123.339C78.6529 123.179 78.4334 122.957 78.2737 122.673C78.1141 122.385 78.0343 122.053 78.0343 121.676C78.0343 121.303 78.1163 120.973 78.2804 120.685C78.4445 120.397 78.6684 120.175 78.9522 120.02C79.2359 119.864 79.553 119.787 79.9033 119.787C80.2536 119.787 80.5706 119.864 80.8544 120.02C81.1382 120.175 81.3621 120.397 81.5262 120.685C81.6902 120.973 81.7722 121.303 81.7722 121.676C81.7722 122.048 81.688 122.379 81.5195 122.667C81.351 122.955 81.1204 123.179 80.8278 123.339C80.5396 123.494 80.2203 123.571 79.87 123.571ZM79.87 122.913C80.0651 122.913 80.2469 122.866 80.4154 122.773C80.5883 122.68 80.728 122.54 80.8344 122.354C80.9409 122.168 80.9941 121.942 80.9941 121.676C80.9941 121.41 80.9431 121.186 80.8411 121.004C80.7391 120.818 80.6039 120.678 80.4354 120.585C80.2669 120.492 80.0851 120.445 79.89 120.445C79.6949 120.445 79.5131 120.492 79.3446 120.585C79.1805 120.678 79.0497 120.818 78.9522 121.004C78.8546 121.186 78.8058 121.41 78.8058 121.676C78.8058 122.07 78.9056 122.376 79.1051 122.594C79.3091 122.806 79.5641 122.913 79.87 122.913ZM84.3708 119.787C84.659 119.787 84.9162 119.847 85.1424 119.966C85.3729 120.086 85.5525 120.263 85.6811 120.499C85.8097 120.734 85.874 121.017 85.874 121.35V123.511H85.1224V121.463C85.1224 121.135 85.0404 120.884 84.8763 120.711C84.7122 120.534 84.4883 120.445 84.2045 120.445C83.9208 120.445 83.6946 120.534 83.5261 120.711C83.3621 120.884 83.28 121.135 83.28 121.463V123.511H82.5218V119.847H83.28V120.266C83.4042 120.115 83.5616 119.997 83.7523 119.913C83.9474 119.829 84.1535 119.787 84.3708 119.787ZM87.7258 120.465V122.494C87.7258 122.631 87.7568 122.731 87.8189 122.793C87.8854 122.851 87.9962 122.88 88.1514 122.88H88.617V123.511H88.0184C87.677 123.511 87.4154 123.432 87.2336 123.272C87.0518 123.112 86.9609 122.853 86.9609 122.494V120.465H86.5285V119.847H86.9609V118.935H87.7258V119.847H88.617V120.465H87.7258ZM90.0741 120.379C90.1849 120.193 90.3313 120.048 90.513 119.946C90.6993 119.84 90.9188 119.787 91.1715 119.787V120.572H90.9786C90.6815 120.572 90.4554 120.647 90.3002 120.798C90.1495 120.949 90.0741 121.21 90.0741 121.583V123.511H89.3158V119.847H90.0741V120.379ZM93.4581 123.571C93.1122 123.571 92.7996 123.494 92.5203 123.339C92.2409 123.179 92.0215 122.957 91.8618 122.673C91.7022 122.385 91.6224 122.053 91.6224 121.676C91.6224 121.303 91.7044 120.973 91.8685 120.685C92.0325 120.397 92.2565 120.175 92.5402 120.02C92.824 119.864 93.1411 119.787 93.4914 119.787C93.8417 119.787 94.1587 119.864 94.4425 120.02C94.7263 120.175 94.9502 120.397 95.1142 120.685C95.2783 120.973 95.3603 121.303 95.3603 121.676C95.3603 122.048 95.2761 122.379 95.1076 122.667C94.9391 122.955 94.7085 123.179 94.4159 123.339C94.1277 123.494 93.8084 123.571 93.4581 123.571ZM93.4581 122.913C93.6532 122.913 93.835 122.866 94.0035 122.773C94.1764 122.68 94.3161 122.54 94.4225 122.354C94.5289 122.168 94.5821 121.942 94.5821 121.676C94.5821 121.41 94.5312 121.186 94.4292 121.004C94.3272 120.818 94.1919 120.678 94.0235 120.585C93.855 120.492 93.6732 120.445 93.4781 120.445C93.283 120.445 93.1012 120.492 92.9327 120.585C92.7686 120.678 92.6378 120.818 92.5402 121.004C92.4427 121.186 92.3939 121.41 92.3939 121.676C92.3939 122.07 92.4937 122.376 92.6932 122.594C92.8972 122.806 93.1522 122.913 93.4581 122.913ZM96.8681 118.59V123.511H96.1099V118.59H96.8681ZM98.6218 118.59V123.511H97.8636V118.59H98.6218ZM102.976 121.589C102.976 121.727 102.967 121.851 102.95 121.962H100.149C100.172 122.254 100.28 122.489 100.475 122.667C100.67 122.844 100.91 122.933 101.194 122.933C101.602 122.933 101.89 122.762 102.058 122.421H102.876C102.766 122.758 102.564 123.035 102.271 123.252C101.983 123.465 101.624 123.571 101.194 123.571C100.843 123.571 100.529 123.494 100.249 123.339C99.9743 123.179 99.757 122.957 99.5974 122.673C99.4422 122.385 99.3646 122.053 99.3646 121.676C99.3646 121.299 99.44 120.969 99.5907 120.685C99.7459 120.397 99.961 120.175 100.236 120.02C100.515 119.864 100.834 119.787 101.194 119.787C101.54 119.787 101.848 119.862 102.118 120.013C102.389 120.164 102.599 120.377 102.75 120.651C102.901 120.922 102.976 121.235 102.976 121.589ZM102.185 121.35C102.18 121.071 102.08 120.847 101.885 120.678C101.69 120.51 101.449 120.425 101.16 120.425C100.899 120.425 100.675 120.51 100.489 120.678C100.302 120.842 100.192 121.066 100.156 121.35H102.185ZM104.481 120.379C104.591 120.193 104.738 120.048 104.92 119.946C105.106 119.84 105.325 119.787 105.578 119.787V120.572H105.385C105.088 120.572 104.862 120.647 104.707 120.798C104.556 120.949 104.481 121.21 104.481 121.583V123.511H103.722V119.847H104.481V120.379ZM63.6012 130.787C63.8894 130.787 64.1466 130.847 64.3727 130.966C64.6033 131.086 64.7829 131.263 64.9114 131.499C65.0445 131.734 65.111 132.017 65.111 132.35V134.511H64.3594V132.463C64.3594 132.135 64.2774 131.884 64.1133 131.711C63.9492 131.534 63.7253 131.445 63.4415 131.445C63.1578 131.445 62.9316 131.534 62.7631 131.711C62.5991 131.884 62.517 132.135 62.517 132.463V134.511H61.7654V132.463C61.7654 132.135 61.6834 131.884 61.5194 131.711C61.3553 131.534 61.1314 131.445 60.8476 131.445C60.5638 131.445 60.3377 131.534 60.1692 131.711C60.0051 131.884 59.9231 132.135 59.9231 132.463V134.511H59.1649V130.847H59.9231V131.266C60.0472 131.115 60.2046 130.997 60.3953 130.913C60.586 130.829 60.7899 130.787 61.0072 130.787C61.2999 130.787 61.5615 130.849 61.7921 130.973C62.0226 131.097 62.2 131.277 62.3241 131.512C62.435 131.29 62.6079 131.115 62.8429 130.986C63.0779 130.853 63.3307 130.787 63.6012 130.787ZM65.8231 132.662C65.8231 132.294 65.8984 131.969 66.0492 131.685C66.2044 131.401 66.4128 131.181 66.6744 131.026C66.9405 130.867 67.2331 130.787 67.5524 130.787C67.8406 130.787 68.0911 130.844 68.3039 130.96C68.5212 131.071 68.6941 131.21 68.8227 131.379V130.847H69.5876V134.511H68.8227V133.966C68.6941 134.139 68.519 134.283 68.2973 134.398C68.0756 134.514 67.8228 134.571 67.5391 134.571C67.2242 134.571 66.936 134.492 66.6744 134.332C66.4128 134.168 66.2044 133.942 66.0492 133.653C65.8984 133.361 65.8231 133.03 65.8231 132.662ZM68.8227 132.676C68.8227 132.423 68.7695 132.204 68.6631 132.017C68.5611 131.831 68.4259 131.689 68.2574 131.592C68.0889 131.494 67.9071 131.445 67.712 131.445C67.5169 131.445 67.3351 131.494 67.1666 131.592C66.9981 131.685 66.8606 131.824 66.7542 132.011C66.6522 132.192 66.6012 132.41 66.6012 132.662C66.6012 132.915 66.6522 133.137 66.7542 133.328C66.8606 133.518 66.9981 133.665 67.1666 133.767C67.3395 133.864 67.5213 133.913 67.712 133.913C67.9071 133.913 68.0889 133.864 68.2574 133.767C68.4259 133.669 68.5611 133.527 68.6631 133.341C68.7695 133.15 68.8227 132.929 68.8227 132.676ZM72.4325 130.787C72.7208 130.787 72.9779 130.847 73.2041 130.966C73.4346 131.086 73.6142 131.263 73.7428 131.499C73.8714 131.734 73.9357 132.017 73.9357 132.35V134.511H73.1841V132.463C73.1841 132.135 73.1021 131.884 72.938 131.711C72.774 131.534 72.55 131.445 72.2663 131.445C71.9825 131.445 71.7563 131.534 71.5878 131.711C71.4238 131.884 71.3417 132.135 71.3417 132.463V134.511H70.5835V130.847H71.3417V131.266C71.4659 131.115 71.6233 130.997 71.814 130.913C72.0091 130.829 72.2153 130.787 72.4325 130.787ZM74.6501 132.662C74.6501 132.294 74.7255 131.969 74.8763 131.685C75.0315 131.401 75.2399 131.181 75.5015 131.026C75.7675 130.867 76.0602 130.787 76.3794 130.787C76.6676 130.787 76.9182 130.844 77.131 130.96C77.3483 131.071 77.5212 131.21 77.6498 131.379V130.847H78.4147V134.511H77.6498V133.966C77.5212 134.139 77.3461 134.283 77.1243 134.398C76.9026 134.514 76.6499 134.571 76.3661 134.571C76.0513 134.571 75.7631 134.492 75.5015 134.332C75.2399 134.168 75.0315 133.942 74.8763 133.653C74.7255 133.361 74.6501 133.03 74.6501 132.662ZM77.6498 132.676C77.6498 132.423 77.5966 132.204 77.4902 132.017C77.3882 131.831 77.2529 131.689 77.0844 131.592C76.9159 131.494 76.7341 131.445 76.539 131.445C76.3439 131.445 76.1621 131.494 75.9937 131.592C75.8252 131.685 75.6877 131.824 75.5813 132.011C75.4793 132.192 75.4283 132.41 75.4283 132.662C75.4283 132.915 75.4793 133.137 75.5813 133.328C75.6877 133.518 75.8252 133.665 75.9937 133.767C76.1666 133.864 76.3484 133.913 76.539 133.913C76.7341 133.913 76.9159 133.864 77.0844 133.767C77.2529 133.669 77.3882 133.527 77.4902 133.341C77.5966 133.15 77.6498 132.929 77.6498 132.676ZM80.8871 130.787C81.1709 130.787 81.4214 130.844 81.6387 130.96C81.8604 131.071 82.0333 131.21 82.1575 131.379V130.847H82.9224V134.571C82.9224 134.908 82.8514 135.208 82.7095 135.469C82.5677 135.735 82.3615 135.944 82.091 136.094C81.8249 136.245 81.5057 136.321 81.1332 136.321C80.6366 136.321 80.2242 136.203 79.8961 135.968C79.568 135.738 79.3818 135.423 79.3374 135.024H80.089C80.1466 135.214 80.2686 135.367 80.4548 135.483C80.6455 135.602 80.8716 135.662 81.1332 135.662C81.4392 135.662 81.6853 135.569 81.8715 135.383C82.0622 135.197 82.1575 134.926 82.1575 134.571V133.959C82.0289 134.132 81.8538 134.279 81.6321 134.398C81.4148 134.514 81.1665 134.571 80.8871 134.571C80.5679 134.571 80.2752 134.492 80.0092 134.332C79.7476 134.168 79.5392 133.942 79.384 133.653C79.2332 133.361 79.1578 133.03 79.1578 132.662C79.1578 132.294 79.2332 131.969 79.384 131.685C79.5392 131.401 79.7476 131.181 80.0092 131.026C80.2752 130.867 80.5679 130.787 80.8871 130.787ZM82.1575 132.676C82.1575 132.423 82.1043 132.204 81.9979 132.017C81.8959 131.831 81.7606 131.689 81.5921 131.592C81.4237 131.494 81.2419 131.445 81.0468 131.445C80.8517 131.445 80.6699 131.494 80.5014 131.592C80.3329 131.685 80.1954 131.824 80.089 132.011C79.987 132.192 79.936 132.41 79.936 132.662C79.936 132.915 79.987 133.137 80.089 133.328C80.1954 133.518 80.3329 133.665 80.5014 133.767C80.6743 133.864 80.8561 133.913 81.0468 133.913C81.2419 133.913 81.4237 133.864 81.5921 133.767C81.7606 133.669 81.8959 133.527 81.9979 133.341C82.1043 133.15 82.1575 132.929 82.1575 132.676ZM87.2771 132.589C87.2771 132.727 87.2682 132.851 87.2505 132.962H84.4504C84.4725 133.254 84.5812 133.489 84.7763 133.667C84.9714 133.844 85.2108 133.933 85.4946 133.933C85.9025 133.933 86.1908 133.762 86.3593 133.421H87.1773C87.0665 133.758 86.8647 134.035 86.5721 134.252C86.2839 134.465 85.9247 134.571 85.4946 134.571C85.1443 134.571 84.8295 134.494 84.5501 134.339C84.2752 134.179 84.058 133.957 83.8983 133.673C83.7431 133.385 83.6655 133.053 83.6655 132.676C83.6655 132.299 83.7409 131.969 83.8917 131.685C84.0469 131.397 84.2619 131.175 84.5368 131.02C84.8162 130.864 85.1354 130.787 85.4946 130.787C85.8405 130.787 86.1486 130.862 86.4191 131.013C86.6896 131.164 86.9002 131.377 87.051 131.651C87.2017 131.922 87.2771 132.235 87.2771 132.589ZM86.4856 132.35C86.4812 132.071 86.3814 131.847 86.1863 131.678C85.9912 131.51 85.7496 131.425 85.4613 131.425C85.1997 131.425 84.9758 131.51 84.7896 131.678C84.6034 131.842 84.4925 132.066 84.457 132.35H86.4856ZM88.7815 131.379C88.8924 131.193 89.0387 131.048 89.2205 130.946C89.4067 130.84 89.6262 130.787 89.879 130.787V131.572H89.6861C89.389 131.572 89.1628 131.647 89.0077 131.798C88.8569 131.949 88.7815 132.21 88.7815 132.583V134.511H88.0233V130.847H88.7815V131.379Z" fill="#5AF77A"/>
<path d="M96.006 69.6003L95.2012 71.436H94.709L95.1812 69.6003H96.006ZM84.6068 79.6003L83.802 81.436H83.3098L83.782 79.6003H84.6068ZM99.4549 90.6003L98.6502 92.436H98.158L98.6302 90.6003H99.4549ZM120.402 101.6L119.597 103.436H119.105L119.577 101.6H120.402ZM89.2184 112.6L88.4136 114.436H87.9214L88.3937 112.6H89.2184ZM107.106 122.6L106.302 124.436H105.809L106.282 122.6H107.106Z" fill="white"/>
<path d="M29.4492 54.7307V54.039H30.8326V58.8877H30.0677V54.7307H29.4492ZM29.2112 68.8568C29.6369 68.4887 29.9717 68.1872 30.2156 67.9522C30.4639 67.7128 30.6701 67.4645 30.8341 67.2073C30.9982 66.9501 31.0802 66.6929 31.0802 66.4358C31.0802 66.1697 31.0159 65.9613 30.8873 65.8105C30.7632 65.6598 30.5659 65.5844 30.2954 65.5844C30.0338 65.5844 29.8298 65.6687 29.6835 65.8371C29.5416 66.0012 29.4662 66.2229 29.4573 66.5023H28.7257C28.739 65.9968 28.8898 65.611 29.178 65.345C29.4706 65.0745 29.8409 64.9392 30.2887 64.9392C30.772 64.9392 31.1489 65.0723 31.4194 65.3383C31.6943 65.6044 31.8318 65.9591 31.8318 66.4025C31.8318 66.7218 31.7498 67.0299 31.5857 67.327C31.4261 67.6197 31.2332 67.8835 31.0071 68.1185C30.7853 68.3491 30.5016 68.6173 30.1557 68.9233L29.8564 69.1893H31.9648V69.8212H28.7324V69.2691L29.2112 68.8568ZM28.7237 77.2362C28.7503 76.8238 28.9077 76.5024 29.1959 76.2718C29.4886 76.0412 29.8611 75.9259 30.3133 75.9259C30.6237 75.9259 30.892 75.9814 31.1181 76.0922C31.3443 76.2031 31.515 76.3538 31.6303 76.5445C31.7455 76.7352 31.8032 76.9502 31.8032 77.1897C31.8032 77.4646 31.73 77.6996 31.5837 77.8947C31.4374 78.0898 31.2622 78.2206 31.0583 78.2871V78.3137C31.3199 78.3935 31.5238 78.5398 31.6702 78.7527C31.8165 78.9611 31.8897 79.2293 31.8897 79.5575C31.8897 79.8191 31.8298 80.0519 31.7101 80.2558C31.5904 80.4598 31.413 80.6216 31.178 80.7414C30.943 80.8567 30.6614 80.9143 30.3333 80.9143C29.8544 80.9143 29.4598 80.7924 29.1494 80.5485C28.8434 80.3002 28.6794 79.9454 28.6572 79.4843H29.3888C29.4066 79.7193 29.4975 79.9122 29.6615 80.063C29.8256 80.2093 30.0473 80.2824 30.3266 80.2824C30.5971 80.2824 30.8055 80.2093 30.9518 80.063C31.0982 79.9122 31.1713 79.7193 31.1713 79.4843C31.1713 79.1739 31.0716 78.9544 30.872 78.8258C30.6769 78.6928 30.3754 78.6263 29.9675 78.6263H29.7945V78.0011H29.9741C30.3333 77.9967 30.606 77.9368 30.7922 77.8215C30.9829 77.7062 31.0782 77.5244 31.0782 77.2761C31.0782 77.0633 31.0095 76.8948 30.872 76.7706C30.7346 76.642 30.5395 76.5778 30.2867 76.5778C30.0384 76.5778 29.8455 76.642 29.7081 76.7706C29.5706 76.8948 29.4886 77.05 29.462 77.2362H28.7237ZM28.4653 90.8767V90.3047L30.7001 87.0989H31.6179V90.2183H32.2365V90.8767H31.6179V91.8877H30.873V90.8767H28.4653ZM30.9062 87.8704L29.3366 90.2183H30.9062V87.8704ZM31.7137 98.6908H29.4855V100.014C29.5786 99.8902 29.7161 99.786 29.8979 99.7018C30.0841 99.6175 30.2814 99.5754 30.4898 99.5754C30.8623 99.5754 31.1638 99.6552 31.3944 99.8149C31.6294 99.9745 31.7957 100.176 31.8932 100.42C31.9952 100.664 32.0462 100.921 32.0462 101.192C32.0462 101.52 31.9819 101.812 31.8533 102.07C31.7292 102.322 31.5407 102.522 31.288 102.668C31.0397 102.815 30.7337 102.888 30.3701 102.888C29.8868 102.888 29.4988 102.768 29.2062 102.529C28.9135 102.289 28.7384 101.972 28.6807 101.577H29.419C29.4678 101.786 29.5764 101.952 29.7449 102.076C29.9134 102.196 30.124 102.256 30.3768 102.256C30.6916 102.256 30.9266 102.161 31.0818 101.97C31.2414 101.779 31.3212 101.526 31.3212 101.212C31.3212 100.892 31.2414 100.648 31.0818 100.48C30.9222 100.307 30.6872 100.221 30.3768 100.221C30.1595 100.221 29.9755 100.276 29.8247 100.387C29.6784 100.493 29.572 100.64 29.5055 100.826H28.7872V98.0257H31.7137V98.6908ZM31.1851 110.163C31.1364 109.959 31.0477 109.806 30.9191 109.704C30.7905 109.602 30.6109 109.551 30.3803 109.551C30.03 109.551 29.7684 109.686 29.5955 109.957C29.4226 110.223 29.3317 110.666 29.3228 111.287C29.4381 111.092 29.6066 110.941 29.8283 110.835C30.05 110.728 30.2894 110.675 30.5466 110.675C30.8393 110.675 31.0964 110.739 31.3181 110.868C31.5443 110.992 31.7194 111.174 31.8436 111.413C31.9722 111.653 32.0365 111.939 32.0365 112.271C32.0365 112.582 31.9744 112.859 31.8502 113.103C31.7305 113.347 31.5509 113.54 31.3115 113.682C31.0721 113.819 30.7838 113.888 30.4468 113.888C29.9901 113.888 29.631 113.788 29.3694 113.588C29.1122 113.384 28.9304 113.098 28.824 112.73C28.722 112.362 28.671 111.903 28.671 111.354C28.671 109.731 29.243 108.919 30.387 108.919C30.8304 108.919 31.1785 109.039 31.4312 109.278C31.6884 109.518 31.8392 109.813 31.8835 110.163H31.1851ZM30.3803 111.314C30.1099 111.314 29.8793 111.396 29.6886 111.56C29.5024 111.719 29.4093 111.952 29.4093 112.258C29.4093 112.564 29.4957 112.808 29.6687 112.99C29.846 113.167 30.0921 113.256 30.4069 113.256C30.6863 113.256 30.9058 113.169 31.0654 112.996C31.2295 112.824 31.3115 112.593 31.3115 112.305C31.3115 112.003 31.2317 111.764 31.0721 111.586C30.9169 111.405 30.6863 111.314 30.3803 111.314ZM31.9235 120.624L30.0745 124.888H29.3096L31.1786 120.704H28.7177V120.059H31.9235V120.624ZM29.409 133.354C28.9478 133.123 28.7172 132.759 28.7172 132.263C28.7172 132.023 28.7771 131.804 28.8968 131.604C29.0165 131.405 29.1961 131.247 29.4356 131.132C29.675 131.012 29.9677 130.953 30.3135 130.953C30.6549 130.953 30.9454 131.012 31.1848 131.132C31.4287 131.247 31.6105 131.405 31.7302 131.604C31.8499 131.804 31.9098 132.023 31.9098 132.263C31.9098 132.511 31.8455 132.731 31.7169 132.921C31.5928 133.108 31.4265 133.252 31.2181 133.354C31.4708 133.447 31.6703 133.6 31.8167 133.813C31.963 134.021 32.0362 134.267 32.0362 134.551C32.0362 134.839 31.963 135.094 31.8167 135.316C31.6703 135.537 31.4664 135.708 31.2048 135.828C30.9432 135.948 30.6461 136.007 30.3135 136.007C29.981 136.007 29.6839 135.948 29.4223 135.828C29.1651 135.708 28.9633 135.537 28.817 135.316C28.6707 135.094 28.5975 134.839 28.5975 134.551C28.5975 134.263 28.6707 134.014 28.817 133.806C28.9633 133.597 29.1606 133.447 29.409 133.354ZM31.1848 132.356C31.1848 132.108 31.1072 131.917 30.952 131.784C30.7968 131.651 30.584 131.584 30.3135 131.584C30.0475 131.584 29.8368 131.651 29.6817 131.784C29.5265 131.917 29.4489 132.11 29.4489 132.363C29.4489 132.584 29.5287 132.766 29.6883 132.908C29.8524 133.045 30.0608 133.114 30.3135 133.114C30.5663 133.114 30.7747 133.043 30.9387 132.901C31.1028 132.759 31.1848 132.578 31.1848 132.356ZM30.3135 133.686C30.0209 133.686 29.7814 133.759 29.5952 133.906C29.4134 134.048 29.3225 134.254 29.3225 134.524C29.3225 134.777 29.4112 134.983 29.5885 135.143C29.7659 135.298 30.0076 135.376 30.3135 135.376C30.615 135.376 30.8523 135.296 31.0252 135.136C31.2025 134.976 31.2912 134.773 31.2912 134.524C31.2912 134.258 31.2003 134.052 31.0185 133.906C30.8412 133.759 30.6062 133.686 30.3135 133.686ZM29.5451 145.571C29.5894 145.792 29.6847 145.961 29.8311 146.076C29.9774 146.192 30.1747 146.249 30.423 146.249C30.7378 146.249 30.9684 146.125 31.1147 145.877C31.2611 145.628 31.3342 145.205 31.3342 144.606C31.2278 144.757 31.0771 144.875 30.882 144.959C30.6913 145.039 30.4829 145.079 30.2567 145.079C29.9685 145.079 29.7069 145.021 29.4719 144.906C29.2369 144.786 29.0507 144.611 28.9132 144.38C28.7802 144.145 28.7137 143.861 28.7137 143.529C28.7137 143.041 28.8556 142.653 29.1394 142.365C29.4276 142.072 29.8222 141.926 30.3233 141.926C30.9263 141.926 31.3542 142.128 31.6069 142.531C31.8641 142.93 31.9927 143.544 31.9927 144.374C31.9927 144.946 31.9439 145.413 31.8464 145.777C31.7533 146.141 31.5892 146.415 31.3542 146.602C31.1192 146.788 30.7933 146.881 30.3765 146.881C29.902 146.881 29.5362 146.757 29.279 146.509C29.0218 146.26 28.8777 145.948 28.8467 145.571H29.5451ZM30.3898 144.44C30.6558 144.44 30.8642 144.358 31.015 144.194C31.1702 144.025 31.2478 143.804 31.2478 143.529C31.2478 143.223 31.1657 142.986 31.0017 142.817C30.842 142.644 30.6226 142.558 30.3432 142.558C30.0639 142.558 29.8422 142.646 29.6781 142.824C29.5185 142.997 29.4387 143.225 29.4387 143.509C29.4387 143.779 29.5163 144.003 29.6714 144.181C29.8311 144.354 30.0705 144.44 30.3898 144.44Z" fill="white" fill-opacity="0.17"/>
</g>
<defs>
<filter id="filter0_f_3582_17023" x="-16.1648" y="-21.6516" width="238.032" height="247.327" filterUnits="userSpaceOnUse" color-interpolation-filters="sRGB">
<feFlood flood-opacity="0" result="BackgroundImageFix"/>
<feBlend mode="normal" in="SourceGraphic" in2="BackgroundImageFix" result="shape"/>
<feGaussianBlur stdDeviation="21.6976" result="effect1_foregroundBlur_3582_17023"/>
</filter>
<radialGradient id="paint0_radial_3582_17023" cx="0" cy="0" r="1" gradientUnits="userSpaceOnUse" gradientTransform="translate(204 32.7682) rotate(161.325) scale(215.337 98.1006)">
<stop stop-color="#4E5968"/>
<stop offset="0.884788" stop-color="#313F54"/>
</radialGradient>
<linearGradient id="paint1_linear_3582_17023" x1="193.701" y1="83.7948" x2="17.7777" y2="83.7948" gradientUnits="userSpaceOnUse">
<stop offset="0.357695" stop-color="#2087E7"/>
<stop offset="0.678238" stop-color="#DF57F5"/>
</linearGradient>
<linearGradient id="paint2_linear_3582_17023" x1="102.499" y1="39.9705" x2="102.499" y2="164.053" gradientUnits="userSpaceOnUse">
<stop stop-color="#172438"/>
<stop offset="1" stop-color="#172438" stop-opacity="0.57"/>
</linearGradient>
<clipPath id="clip0_3582_17023">
<rect width="204" height="204" fill="white" transform="translate(0.5 0.0117188)"/>
</clipPath>
</defs>
</svg>
