<svg width="292" height="291" viewBox="0 0 292 291" fill="none" xmlns="http://www.w3.org/2000/svg">
<g clip-path="url(#clip0_3079_2595)">
<mask id="path-1-inside-1_3079_2595" fill="white">
<path d="M0 0H292V291H0V0Z"/>
</mask>
<path d="M0 0H292V291H0V0Z" fill="#0038FF"/>
<path d="M0 0H292V291H0V0Z" fill="url(#paint0_radial_3079_2595)" fill-opacity="0.9"/>
<path d="M100.844 64.4573C96.7026 64.4573 93.3449 67.608 93.3449 71.4946C93.3449 74.7083 95.6405 77.4188 98.7768 78.2611L98.8741 78.2866L91.3105 90.9239H110.215L102.673 78.3214L102.785 78.2941C105.986 77.4916 108.344 74.7515 108.344 71.4946C108.344 67.608 104.986 64.4573 100.844 64.4573Z" fill="#212F43"/>
<path d="M191.588 64.4573C187.446 64.4573 184.088 67.608 184.088 71.4946C184.088 74.7083 186.384 77.4188 189.52 78.2611L189.617 78.2866L182.054 90.9239H200.958L193.416 78.3214L193.528 78.2941C196.729 77.4916 199.087 74.7515 199.087 71.4946C199.087 67.608 195.729 64.4573 191.588 64.4573Z" fill="#212F43"/>
<path d="M55.4723 64.457C51.3305 64.457 47.9728 67.6078 47.9728 71.4944C47.9728 74.708 50.2684 77.4186 53.4048 78.2609L53.5021 78.2864L45.9385 90.9236H64.8432L57.3004 78.3212L57.4131 78.2938C60.6142 77.4913 62.9718 74.7512 62.9718 71.4944C62.9718 67.6078 59.6142 64.457 55.4723 64.457Z" fill="#212F43"/>
<path d="M146.216 64.457C142.074 64.457 138.716 67.6078 138.716 71.4944C138.716 74.708 141.012 77.4186 144.148 78.2609L144.245 78.2864L136.682 90.9236H155.586L148.044 78.3212L148.156 78.2938C151.357 77.4913 153.715 74.7512 153.715 71.4944C153.715 67.6078 150.357 64.457 146.216 64.457Z" fill="#212F43"/>
<path d="M236.958 64.4573C232.816 64.4573 229.458 67.608 229.458 71.4946C229.458 74.7083 231.754 77.4188 234.89 78.2611L234.987 78.2866L227.424 90.9239H246.329L238.786 78.3214L238.898 78.2941C242.1 77.4916 244.457 74.7515 244.457 71.4946C244.457 67.608 241.1 64.4573 236.958 64.4573Z" fill="#212F43"/>
<path d="M236.958 109.829C232.816 109.829 229.458 112.979 229.458 116.866C229.458 120.08 231.754 122.79 234.89 123.632L234.987 123.658L227.424 136.295H246.329L238.786 123.693L238.898 123.665C242.1 122.863 244.457 120.123 244.457 116.866C244.457 112.979 241.1 109.829 236.958 109.829Z" fill="#212F43"/>
<path d="M100.844 155.199C96.7026 155.199 93.3449 158.35 93.3449 162.237C93.3449 165.45 95.6405 168.161 98.7768 169.003L98.8741 169.029L91.3105 181.666H110.215L102.673 169.063L102.785 169.036C105.986 168.234 108.344 165.493 108.344 162.237C108.344 158.35 104.986 155.199 100.844 155.199Z" fill="#212F43"/>
<path d="M191.588 155.199C187.446 155.199 184.088 158.35 184.088 162.237C184.088 165.45 186.384 168.161 189.52 169.003L189.617 169.029L182.054 181.666H200.958L193.416 169.063L193.528 169.036C196.729 168.234 199.087 165.493 199.087 162.237C199.087 158.35 195.729 155.199 191.588 155.199Z" fill="#212F43"/>
<path d="M55.4723 155.199C51.3305 155.199 47.9728 158.35 47.9728 162.236C47.9728 165.45 50.2684 168.161 53.4048 169.003L53.5021 169.028L45.9385 181.666H64.8432L57.3004 169.063L57.4131 169.036C60.6142 168.233 62.9718 165.493 62.9718 162.236C62.9718 158.35 59.6142 155.199 55.4723 155.199Z" fill="#212F43"/>
<path d="M146.216 155.199C142.074 155.199 138.716 158.35 138.716 162.236C138.716 165.45 141.012 168.161 144.148 169.003L144.245 169.028L136.682 181.666H155.586L148.044 169.063L148.156 169.036C151.357 168.233 153.715 165.493 153.715 162.236C153.715 158.35 150.357 155.199 146.216 155.199Z" fill="#212F43"/>
<path d="M236.958 155.199C232.816 155.199 229.458 158.35 229.458 162.237C229.458 165.45 231.754 168.161 234.89 169.003L234.987 169.029L227.424 181.666H246.329L238.786 169.063L238.898 169.036C242.1 168.234 244.457 165.493 244.457 162.237C244.457 158.35 241.1 155.199 236.958 155.199Z" fill="#212F43"/>
<path d="M100.844 109.829C96.7026 109.829 93.3449 112.979 93.3449 116.866C93.3449 120.08 95.6405 122.79 98.7768 123.632L98.8741 123.658L91.3105 136.295H110.215L102.673 123.693L102.785 123.665C105.986 122.863 108.344 120.123 108.344 116.866C108.344 112.979 104.986 109.829 100.844 109.829Z" fill="#212F43"/>
<path d="M191.588 109.829C187.446 109.829 184.088 112.979 184.088 116.866C184.088 120.08 186.384 122.79 189.52 123.632L189.617 123.658L182.054 136.295H200.958L193.416 123.693L193.528 123.665C196.729 122.863 199.087 120.123 199.087 116.866C199.087 112.979 195.729 109.829 191.588 109.829Z" fill="#212F43"/>
<path d="M55.4723 109.829C51.3305 109.829 47.9728 112.979 47.9728 116.866C47.9728 120.08 50.2684 122.79 53.4048 123.632L53.5021 123.658L45.9385 136.295H64.8432L57.3004 123.693L57.4131 123.665C60.6142 122.863 62.9718 120.123 62.9718 116.866C62.9718 112.979 59.6142 109.829 55.4723 109.829Z" fill="#212F43"/>
<path d="M146.216 109.829C142.074 109.829 138.716 112.979 138.716 116.866C138.716 120.08 141.012 122.79 144.148 123.632L144.245 123.658L136.682 136.295H155.586L148.044 123.693L148.156 123.665C151.357 122.863 153.715 120.123 153.715 116.866C153.715 112.979 150.357 109.829 146.216 109.829Z" fill="#212F43"/>
<path d="M100.844 200.571C96.7026 200.571 93.3449 203.721 93.3449 207.608C93.3449 210.822 95.6405 213.532 98.7768 214.374L98.8741 214.4L91.3105 227.037H110.215L102.673 214.435L102.785 214.407C105.986 213.605 108.344 210.865 108.344 207.608C108.344 203.721 104.986 200.571 100.844 200.571Z" fill="#212F43"/>
<path d="M191.588 200.571C187.446 200.571 184.088 203.721 184.088 207.608C184.088 210.822 186.384 213.532 189.52 214.374L189.617 214.4L182.054 227.037H200.958L193.416 214.435L193.528 214.407C196.729 213.605 199.087 210.865 199.087 207.608C199.087 203.721 195.729 200.571 191.588 200.571Z" fill="#212F43"/>
<path d="M55.4723 200.571C51.3305 200.571 47.9728 203.721 47.9728 207.608C47.9728 210.822 50.2684 213.532 53.4048 214.374L53.5021 214.4L45.9385 227.037H64.8432L57.3004 214.435L57.4131 214.407C60.6142 213.605 62.9718 210.865 62.9718 207.608C62.9718 203.721 59.6142 200.571 55.4723 200.571Z" fill="#212F43"/>
<path d="M146.216 200.571C142.074 200.571 138.716 203.721 138.716 207.608C138.716 210.822 141.012 213.532 144.148 214.374L144.245 214.4L136.682 227.037H155.586L148.044 214.435L148.156 214.407C151.357 213.605 153.715 210.865 153.715 207.608C153.715 203.721 150.357 200.571 146.216 200.571Z" fill="#212F43"/>
<path d="M236.958 200.571C232.816 200.571 229.458 203.721 229.458 207.608C229.458 210.822 231.754 213.532 234.89 214.374L234.987 214.4L227.424 227.037H246.329L238.786 214.435L238.898 214.407C242.1 213.605 244.457 210.865 244.457 207.608C244.457 203.721 241.1 200.571 236.958 200.571Z" fill="#212F43"/>
<g filter="url(#filter0_f_3079_2595)">
<path d="M60 53H123.162V109.703L233 171.933V237H169.838V171.933L60 109.703V53Z" fill="url(#paint1_linear_3079_2595)" fill-opacity="0.6"/>
</g>
<g filter="url(#filter1_d_3079_2595)">
<mask id="mask0_3079_2595" style="mask-type:alpha" maskUnits="userSpaceOnUse" x="69" y="72" width="69" height="146">
<mask id="path-24-inside-2_3079_2595" fill="white">
<path fill-rule="evenodd" clip-rule="evenodd" d="M69.417 85.386C69.417 82.7614 71.2179 80.4797 73.7706 79.8698L102.128 73.0956C102.994 72.8887 103.897 72.8887 104.763 73.0956L133.12 79.8698C135.673 80.4797 137.474 82.7614 137.474 85.386V114.173C137.474 116.742 135.747 118.991 133.264 119.653L116.678 124.076V150.92C116.678 151.616 116.113 152.18 115.417 152.18C114.025 152.18 112.897 153.309 112.897 154.701V210.115C112.897 212.264 111.683 214.227 109.762 215.188L105.981 217.079C104.384 217.877 102.505 217.877 100.908 217.079L97.127 215.188C95.2056 214.227 93.9919 212.264 93.9919 210.115V154.701C93.9919 153.309 92.8634 152.18 91.4713 152.18C90.7752 152.18 90.2109 151.616 90.2109 150.92V124.075L73.6271 119.653C71.1444 118.991 69.417 116.742 69.417 114.173V85.386ZM92.5535 81.3348C91.1999 81.5753 90.2139 82.7521 90.2139 84.1268V89.7968C90.2139 91.3629 91.4835 92.6325 93.0496 92.6325H103.447H113.845C115.411 92.6325 116.68 91.3629 116.68 89.7968V84.1268C116.68 82.7521 115.694 81.5753 114.341 81.3348L103.943 79.4873C103.615 79.429 103.279 79.429 102.951 79.4873L92.5535 81.3348Z"/>
</mask>
<path fill-rule="evenodd" clip-rule="evenodd" d="M69.417 85.386C69.417 82.7614 71.2179 80.4797 73.7706 79.8698L102.128 73.0956C102.994 72.8887 103.897 72.8887 104.763 73.0956L133.12 79.8698C135.673 80.4797 137.474 82.7614 137.474 85.386V114.173C137.474 116.742 135.747 118.991 133.264 119.653L116.678 124.076V150.92C116.678 151.616 116.113 152.18 115.417 152.18C114.025 152.18 112.897 153.309 112.897 154.701V210.115C112.897 212.264 111.683 214.227 109.762 215.188L105.981 217.079C104.384 217.877 102.505 217.877 100.908 217.079L97.127 215.188C95.2056 214.227 93.9919 212.264 93.9919 210.115V154.701C93.9919 153.309 92.8634 152.18 91.4713 152.18C90.7752 152.18 90.2109 151.616 90.2109 150.92V124.075L73.6271 119.653C71.1444 118.991 69.417 116.742 69.417 114.173V85.386ZM92.5535 81.3348C91.1999 81.5753 90.2139 82.7521 90.2139 84.1268V89.7968C90.2139 91.3629 91.4835 92.6325 93.0496 92.6325H103.447H113.845C115.411 92.6325 116.68 91.3629 116.68 89.7968V84.1268C116.68 82.7521 115.694 81.5753 114.341 81.3348L103.943 79.4873C103.615 79.429 103.279 79.429 102.951 79.4873L92.5535 81.3348Z" fill="#D9D9D9"/>
<path d="M73.7706 79.8698L73.9463 80.6053L73.7706 79.8698ZM102.128 73.0956L101.952 72.3602L102.128 73.0956ZM104.763 73.0956L104.588 73.8311V73.8311L104.763 73.0956ZM133.12 79.8698L132.945 80.6053L133.12 79.8698ZM133.264 119.653L133.069 118.922L133.264 119.653ZM116.678 124.076L116.483 123.345L115.921 123.495V124.076H116.678ZM109.762 215.188L110.1 215.865L109.762 215.188ZM105.981 217.079L106.319 217.755L105.981 217.079ZM100.908 217.079L100.57 217.755H100.57L100.908 217.079ZM97.127 215.188L96.7888 215.865L97.127 215.188ZM90.2109 124.075H90.9671V123.494L90.4058 123.345L90.2109 124.075ZM73.6271 119.653L73.4323 120.384L73.6271 119.653ZM92.5535 81.3348L92.6858 82.0794V82.0794L92.5535 81.3348ZM114.341 81.3348L114.473 80.5903L114.341 81.3348ZM103.943 79.4873L103.811 80.2318L103.943 79.4873ZM102.951 79.4873L103.083 80.2318L102.951 79.4873ZM73.5949 79.1343C70.7018 79.8255 68.6608 82.4115 68.6608 85.386H70.1732C70.1732 83.1114 71.7339 81.1338 73.9463 80.6053L73.5949 79.1343ZM101.952 72.3602L73.5949 79.1343L73.9463 80.6053L102.303 73.8311L101.952 72.3602ZM104.939 72.3602C103.957 72.1256 102.934 72.1256 101.952 72.3602L102.303 73.8311C103.054 73.6518 103.837 73.6518 104.588 73.8311L104.939 72.3602ZM133.296 79.1343L104.939 72.3602L104.588 73.8311L132.945 80.6053L133.296 79.1343ZM138.23 85.386C138.23 82.4115 136.189 79.8255 133.296 79.1343L132.945 80.6053C135.157 81.1338 136.718 83.1114 136.718 85.386H138.23ZM138.23 114.173V85.386H136.718V114.173H138.23ZM133.459 120.384C136.272 119.633 138.23 117.085 138.23 114.173H136.718C136.718 116.4 135.221 118.348 133.069 118.922L133.459 120.384ZM116.872 124.807L133.459 120.384L133.069 118.922L116.483 123.345L116.872 124.807ZM117.434 150.92V124.076H115.921V150.92H117.434ZM115.417 152.937C116.531 152.937 117.434 152.034 117.434 150.92H115.921C115.921 151.198 115.696 151.424 115.417 151.424V152.937ZM113.653 154.701C113.653 153.726 114.443 152.937 115.417 152.937V151.424C113.607 151.424 112.14 152.891 112.14 154.701H113.653ZM113.653 210.115V154.701H112.14V210.115H113.653ZM110.1 215.865C112.277 214.776 113.653 212.55 113.653 210.115H112.14C112.14 211.977 111.089 213.679 109.423 214.512L110.1 215.865ZM106.319 217.755L110.1 215.865L109.423 214.512L105.642 216.402L106.319 217.755ZM100.57 217.755C102.379 218.66 104.509 218.66 106.319 217.755L105.642 216.402C104.259 217.094 102.63 217.094 101.246 216.402L100.57 217.755ZM96.7888 215.865L100.57 217.755L101.246 216.402L97.4651 214.512L96.7888 215.865ZM93.2357 210.115C93.2357 212.55 94.6112 214.776 96.7888 215.865L97.4651 214.512C95.7999 213.679 94.7481 211.977 94.7481 210.115H93.2357ZM93.2357 154.701V210.115H94.7481V154.701H93.2357ZM91.4713 152.937C92.4457 152.937 93.2357 153.726 93.2357 154.701H94.7481C94.7481 152.891 93.281 151.424 91.4713 151.424V152.937ZM89.4548 150.92C89.4548 152.034 90.3576 152.937 91.4713 152.937V151.424C91.1928 151.424 90.9671 151.198 90.9671 150.92H89.4548ZM89.4548 124.075V150.92H90.9671V124.075H89.4548ZM73.4323 120.384L90.0161 124.806L90.4058 123.345L73.8219 118.922L73.4323 120.384ZM68.6608 114.173C68.6608 117.085 70.6185 119.633 73.4323 120.384L73.8219 118.922C71.6703 118.348 70.1732 116.4 70.1732 114.173H68.6608ZM68.6608 85.386V114.173H70.1732V85.386H68.6608ZM90.9701 84.1268C90.9701 83.1187 91.6932 82.2557 92.6858 82.0794L92.4212 80.5903C90.7067 80.8949 89.4577 82.3855 89.4577 84.1268H90.9701ZM90.9701 89.7968V84.1268H89.4577V89.7968H90.9701ZM93.0496 91.8763C91.9011 91.8763 90.9701 90.9452 90.9701 89.7968H89.4577C89.4577 91.7805 91.0658 93.3887 93.0496 93.3887V91.8763ZM103.447 91.8763H93.0496V93.3887H103.447V91.8763ZM113.845 91.8763H103.447V93.3887H113.845V91.8763ZM115.924 89.7968C115.924 90.9452 114.993 91.8763 113.845 91.8763V93.3887C115.828 93.3887 117.437 91.7805 117.437 89.7968H115.924ZM115.924 84.1268V89.7968H117.437V84.1268H115.924ZM114.209 82.0794C115.201 82.2557 115.924 83.1187 115.924 84.1268H117.437C117.437 82.3855 116.188 80.8949 114.473 80.5903L114.209 82.0794ZM103.811 80.2318L114.209 82.0794L114.473 80.5903L104.076 78.7428L103.811 80.2318ZM103.083 80.2318C103.324 80.1891 103.57 80.1891 103.811 80.2318L104.076 78.7428C103.66 78.6689 103.234 78.6689 102.819 78.7428L103.083 80.2318ZM92.6858 82.0794L103.083 80.2318L102.819 78.7428L92.4212 80.5903L92.6858 82.0794Z" fill="white" mask="url(#path-24-inside-2_3079_2595)"/>
</mask>
<g mask="url(#mask0_3079_2595)">
<g filter="url(#filter2_d_3079_2595)">
<rect x="98.7227" y="140.053" width="1.89047" height="79.3998" fill="#E6B422"/>
<rect x="99.1008" y="140.431" width="1.13428" height="78.6436" stroke="#E6B422" stroke-width="0.756188"/>
</g>
<g filter="url(#filter3_d_3079_2595)">
<rect x="103.448" y="140.053" width="3.78094" height="79.3998" fill="#E6B422"/>
<rect x="103.826" y="140.431" width="3.02475" height="78.6436" stroke="#E6B422" stroke-width="0.756188"/>
</g>
</g>
<mask id="path-30-inside-3_3079_2595" fill="white">
<path fill-rule="evenodd" clip-rule="evenodd" d="M69.417 85.3858C69.417 82.7612 71.2179 80.4794 73.7706 79.8696L102.128 73.0954C102.994 72.8884 103.897 72.8884 104.763 73.0954L133.12 79.8696C135.673 80.4794 137.474 82.7612 137.474 85.3858V114.173C137.474 116.742 135.747 118.991 133.264 119.653L116.678 124.076V150.92C116.678 151.616 116.113 152.18 115.417 152.18C114.025 152.18 112.897 153.309 112.897 154.701V210.115C112.897 212.263 111.683 214.227 109.762 215.188L105.981 217.078C104.384 217.877 102.505 217.877 100.908 217.078L97.127 215.188C95.2056 214.227 93.9919 212.263 93.9919 210.115V154.701C93.9919 153.309 92.8634 152.18 91.4713 152.18C90.7752 152.18 90.2109 151.616 90.2109 150.92V124.075L73.6271 119.653C71.1444 118.991 69.417 116.742 69.417 114.173V85.3858ZM92.5535 81.3343C91.1999 81.5748 90.2139 82.7516 90.2139 84.1263V89.7963C90.2139 91.3624 91.4835 92.632 93.0496 92.632H103.447H113.845C115.411 92.632 116.68 91.3624 116.68 89.7963V84.1263C116.68 82.7516 115.694 81.5748 114.341 81.3343L103.943 79.4868C103.615 79.4285 103.279 79.4285 102.951 79.4868L92.5535 81.3343Z"/>
</mask>
<path fill-rule="evenodd" clip-rule="evenodd" d="M69.417 85.3858C69.417 82.7612 71.2179 80.4794 73.7706 79.8696L102.128 73.0954C102.994 72.8884 103.897 72.8884 104.763 73.0954L133.12 79.8696C135.673 80.4794 137.474 82.7612 137.474 85.3858V114.173C137.474 116.742 135.747 118.991 133.264 119.653L116.678 124.076V150.92C116.678 151.616 116.113 152.18 115.417 152.18C114.025 152.18 112.897 153.309 112.897 154.701V210.115C112.897 212.263 111.683 214.227 109.762 215.188L105.981 217.078C104.384 217.877 102.505 217.877 100.908 217.078L97.127 215.188C95.2056 214.227 93.9919 212.263 93.9919 210.115V154.701C93.9919 153.309 92.8634 152.18 91.4713 152.18C90.7752 152.18 90.2109 151.616 90.2109 150.92V124.075L73.6271 119.653C71.1444 118.991 69.417 116.742 69.417 114.173V85.3858ZM92.5535 81.3343C91.1999 81.5748 90.2139 82.7516 90.2139 84.1263V89.7963C90.2139 91.3624 91.4835 92.632 93.0496 92.632H103.447H113.845C115.411 92.632 116.68 91.3624 116.68 89.7963V84.1263C116.68 82.7516 115.694 81.5748 114.341 81.3343L103.943 79.4868C103.615 79.4285 103.279 79.4285 102.951 79.4868L92.5535 81.3343Z" fill="url(#paint2_linear_3079_2595)" fill-opacity="0.2"/>
<path d="M73.7706 79.8696L73.9463 80.6051L73.7706 79.8696ZM102.128 73.0954L101.952 72.3599L102.128 73.0954ZM104.763 73.0954L104.588 73.8309V73.8309L104.763 73.0954ZM133.12 79.8696L132.945 80.6051L133.12 79.8696ZM133.264 119.653L133.069 118.922L133.264 119.653ZM116.678 124.076L116.483 123.345L115.921 123.495V124.076H116.678ZM109.762 215.188L110.1 215.864L109.762 215.188ZM105.981 217.078L106.319 217.755L105.981 217.078ZM100.908 217.078L100.57 217.755H100.57L100.908 217.078ZM97.127 215.188L96.7888 215.864L97.127 215.188ZM90.2109 124.075H90.9671V123.494L90.4058 123.344L90.2109 124.075ZM73.6271 119.653L73.4323 120.383L73.6271 119.653ZM92.5535 81.3343L92.6858 82.0789V82.0789L92.5535 81.3343ZM114.341 81.3343L114.473 80.5898L114.341 81.3343ZM103.943 79.4868L103.811 80.2314L103.943 79.4868ZM102.951 79.4868L103.083 80.2314L102.951 79.4868ZM73.5949 79.1341C70.7018 79.8252 68.6608 82.4112 68.6608 85.3858H70.1732C70.1732 83.1111 71.7339 81.1336 73.9463 80.6051L73.5949 79.1341ZM101.952 72.3599L73.5949 79.1341L73.9463 80.6051L102.303 73.8309L101.952 72.3599ZM104.939 72.3599C103.957 72.1254 102.934 72.1254 101.952 72.3599L102.303 73.8309C103.054 73.6515 103.837 73.6515 104.588 73.8309L104.939 72.3599ZM133.296 79.1341L104.939 72.3599L104.588 73.8309L132.945 80.6051L133.296 79.1341ZM138.23 85.3858C138.23 82.4112 136.189 79.8252 133.296 79.1341L132.945 80.6051C135.157 81.1336 136.718 83.1111 136.718 85.3858H138.23ZM138.23 114.173V85.3858H136.718V114.173H138.23ZM133.459 120.383C136.272 119.633 138.23 117.085 138.23 114.173H136.718C136.718 116.4 135.221 118.348 133.069 118.922L133.459 120.383ZM116.872 124.806L133.459 120.383L133.069 118.922L116.483 123.345L116.872 124.806ZM117.434 150.92V124.076H115.921V150.92H117.434ZM115.417 152.936C116.531 152.936 117.434 152.033 117.434 150.92H115.921C115.921 151.198 115.696 151.424 115.417 151.424V152.936ZM113.653 154.701C113.653 153.726 114.443 152.936 115.417 152.936V151.424C113.607 151.424 112.14 152.891 112.14 154.701H113.653ZM113.653 210.115V154.701H112.14V210.115H113.653ZM110.1 215.864C112.277 214.775 113.653 212.55 113.653 210.115H112.14C112.14 211.977 111.089 213.679 109.423 214.512L110.1 215.864ZM106.319 217.755L110.1 215.864L109.423 214.512L105.642 216.402L106.319 217.755ZM100.57 217.755C102.379 218.66 104.509 218.66 106.319 217.755L105.642 216.402C104.259 217.094 102.63 217.094 101.246 216.402L100.57 217.755ZM96.7888 215.864L100.57 217.755L101.246 216.402L97.4651 214.512L96.7888 215.864ZM93.2357 210.115C93.2357 212.55 94.6112 214.775 96.7888 215.864L97.4651 214.512C95.7999 213.679 94.7481 211.977 94.7481 210.115H93.2357ZM93.2357 154.701V210.115H94.7481V154.701H93.2357ZM91.4713 152.936C92.4457 152.936 93.2357 153.726 93.2357 154.701H94.7481C94.7481 152.891 93.281 151.424 91.4713 151.424V152.936ZM89.4548 150.92C89.4548 152.033 90.3576 152.936 91.4713 152.936V151.424C91.1928 151.424 90.9671 151.198 90.9671 150.92H89.4548ZM89.4548 124.075V150.92H90.9671V124.075H89.4548ZM73.4323 120.383L90.0161 124.806L90.4058 123.344L73.8219 118.922L73.4323 120.383ZM68.6608 114.173C68.6608 117.085 70.6185 119.633 73.4323 120.383L73.8219 118.922C71.6703 118.348 70.1732 116.4 70.1732 114.173H68.6608ZM68.6608 85.3858V114.173H70.1732V85.3858H68.6608ZM90.9701 84.1263C90.9701 83.1182 91.6932 82.2552 92.6858 82.0789L92.4212 80.5898C90.7067 80.8944 89.4577 82.385 89.4577 84.1263H90.9701ZM90.9701 89.7963V84.1263H89.4577V89.7963H90.9701ZM93.0496 91.8758C91.9011 91.8758 90.9701 90.9448 90.9701 89.7963H89.4577C89.4577 91.78 91.0658 93.3882 93.0496 93.3882V91.8758ZM103.447 91.8758H93.0496V93.3882H103.447V91.8758ZM113.845 91.8758H103.447V93.3882H113.845V91.8758ZM115.924 89.7963C115.924 90.9448 114.993 91.8758 113.845 91.8758V93.3882C115.828 93.3882 117.437 91.78 117.437 89.7963H115.924ZM115.924 84.1263V89.7963H117.437V84.1263H115.924ZM114.209 82.0789C115.201 82.2552 115.924 83.1182 115.924 84.1263H117.437C117.437 82.385 116.188 80.8945 114.473 80.5898L114.209 82.0789ZM103.811 80.2314L114.209 82.0789L114.473 80.5898L104.076 78.7423L103.811 80.2314ZM103.083 80.2314C103.324 80.1886 103.57 80.1886 103.811 80.2314L104.076 78.7423C103.66 78.6684 103.234 78.6684 102.819 78.7423L103.083 80.2314ZM92.6858 82.0789L103.083 80.2314L102.819 78.7423L92.4212 80.5898L92.6858 82.0789Z" fill="url(#paint3_linear_3079_2595)" mask="url(#path-30-inside-3_3079_2595)"/>
</g>
<g filter="url(#filter4_d_3079_2595)">
<mask id="mask1_3079_2595" style="mask-type:alpha" maskUnits="userSpaceOnUse" x="156" y="72" width="67" height="146">
<mask id="path-32-inside-4_3079_2595" fill="white">
<path fill-rule="evenodd" clip-rule="evenodd" d="M190.601 75.2264C191.671 73.7884 193.358 72.9409 195.151 72.9409H196.083C199.215 72.9409 201.754 75.4801 201.754 78.6123V153.752C213.942 158.63 222.551 170.549 222.551 184.479C222.551 202.751 207.739 217.562 189.468 217.562C171.197 217.562 156.385 202.751 156.385 184.479C156.385 170.551 164.992 158.633 177.178 153.754V138.162C177.178 136.935 177.576 135.741 178.312 134.759L183.019 128.484C184.584 126.396 184.524 123.509 182.871 121.49L178.46 116.098C177.631 115.085 177.178 113.816 177.178 112.507V107.65C177.178 106.296 177.662 104.987 178.543 103.959L180.149 102.085C181.673 100.308 181.571 97.6565 179.915 96.001C178.343 94.4288 178.162 91.9414 179.489 90.1577L190.601 75.2264ZM199.866 205.275C205.609 205.275 210.264 200.62 210.264 194.877C210.264 189.135 205.609 184.48 199.866 184.48C194.124 184.48 189.469 189.135 189.469 194.877C189.469 200.62 194.124 205.275 199.866 205.275Z"/>
</mask>
<path fill-rule="evenodd" clip-rule="evenodd" d="M190.601 75.2264C191.671 73.7884 193.358 72.9409 195.151 72.9409H196.083C199.215 72.9409 201.754 75.4801 201.754 78.6123V153.752C213.942 158.63 222.551 170.549 222.551 184.479C222.551 202.751 207.739 217.562 189.468 217.562C171.197 217.562 156.385 202.751 156.385 184.479C156.385 170.551 164.992 158.633 177.178 153.754V138.162C177.178 136.935 177.576 135.741 178.312 134.759L183.019 128.484C184.584 126.396 184.524 123.509 182.871 121.49L178.46 116.098C177.631 115.085 177.178 113.816 177.178 112.507V107.65C177.178 106.296 177.662 104.987 178.543 103.959L180.149 102.085C181.673 100.308 181.571 97.6565 179.915 96.001C178.343 94.4288 178.162 91.9414 179.489 90.1577L190.601 75.2264ZM199.866 205.275C205.609 205.275 210.264 200.62 210.264 194.877C210.264 189.135 205.609 184.48 199.866 184.48C194.124 184.48 189.469 189.135 189.469 194.877C189.469 200.62 194.124 205.275 199.866 205.275Z" fill="#D9D9D9"/>
<path d="M190.601 75.2264L189.994 74.775V74.775L190.601 75.2264ZM201.754 153.752H200.998V154.264L201.473 154.454L201.754 153.752ZM177.178 153.754L177.459 154.456L177.934 154.266V153.754H177.178ZM178.312 134.759L177.707 134.306L178.312 134.759ZM183.019 128.484L182.414 128.03L183.019 128.484ZM182.871 121.49L183.456 121.011H183.456L182.871 121.49ZM178.46 116.098L177.875 116.577H177.875L178.46 116.098ZM178.543 103.959L177.969 103.467L178.543 103.959ZM180.149 102.085L180.723 102.577L180.149 102.085ZM179.489 90.1577L178.882 89.7063L179.489 90.1577ZM195.151 72.1847C193.119 72.1847 191.207 73.1452 189.994 74.775L191.207 75.6779C192.135 74.4316 193.597 73.6971 195.151 73.6971V72.1847ZM196.083 72.1847H195.151V73.6971H196.083V72.1847ZM202.51 78.6123C202.51 75.0625 199.632 72.1847 196.083 72.1847V73.6971C198.797 73.6971 200.998 75.8977 200.998 78.6123H202.51ZM202.51 153.752V78.6123H200.998V153.752H202.51ZM223.307 184.479C223.307 170.23 214.5 158.039 202.035 153.05L201.473 154.454C213.384 159.221 221.795 170.869 221.795 184.479H223.307ZM189.468 218.319C208.157 218.319 223.307 203.168 223.307 184.479H221.795C221.795 202.333 207.322 216.806 189.468 216.806V218.319ZM155.629 184.479C155.629 203.168 170.779 218.319 189.468 218.319V216.806C171.614 216.806 157.141 202.333 157.141 184.479H155.629ZM176.897 153.052C164.434 158.042 155.629 170.231 155.629 184.479H157.141C157.141 170.87 165.55 159.224 177.459 154.456L176.897 153.052ZM176.422 138.162V153.754H177.934V138.162H176.422ZM177.707 134.306C176.873 135.418 176.422 136.771 176.422 138.162H177.934C177.934 137.099 178.279 136.064 178.917 135.213L177.707 134.306ZM182.414 128.03L177.707 134.306L178.917 135.213L183.624 128.938L182.414 128.03ZM182.286 121.968C183.718 123.719 183.771 126.221 182.414 128.03L183.624 128.938C185.398 126.571 185.329 123.3 183.456 121.011L182.286 121.968ZM177.875 116.577L182.286 121.968L183.456 121.011L179.045 115.619L177.875 116.577ZM176.422 112.507C176.422 113.991 176.935 115.429 177.875 116.577L179.045 115.619C178.327 114.741 177.934 113.641 177.934 112.507H176.422ZM176.422 107.65V112.507H177.934V107.65H176.422ZM177.969 103.467C176.97 104.631 176.422 106.115 176.422 107.65H177.934C177.934 106.476 178.354 105.342 179.117 104.451L177.969 103.467ZM179.575 101.593L177.969 103.467L179.117 104.451L180.723 102.577L179.575 101.593ZM179.381 96.5357C180.757 97.9118 180.841 100.115 179.575 101.593L180.723 102.577C182.504 100.5 182.385 97.4012 180.45 95.4663L179.381 96.5357ZM178.882 89.7063C177.331 91.791 177.543 94.6981 179.381 96.5357L180.45 95.4663C179.143 94.1594 178.992 92.0918 180.096 90.6092L178.882 89.7063ZM189.994 74.775L178.882 89.7063L180.096 90.6092L191.207 75.6779L189.994 74.775ZM209.508 194.877C209.508 200.202 205.191 204.519 199.866 204.519V206.031C206.027 206.031 211.02 201.037 211.02 194.877H209.508ZM199.866 185.236C205.191 185.236 209.508 189.552 209.508 194.877H211.02C211.02 188.717 206.027 183.723 199.866 183.723V185.236ZM190.225 194.877C190.225 189.552 194.542 185.236 199.866 185.236V183.723C193.706 183.723 188.713 188.717 188.713 194.877H190.225ZM199.866 204.519C194.542 204.519 190.225 200.202 190.225 194.877H188.713C188.713 201.037 193.706 206.031 199.866 206.031V204.519Z" fill="white" mask="url(#path-32-inside-4_3079_2595)"/>
</mask>
<g mask="url(#mask1_3079_2595)">
<g filter="url(#filter5_d_3079_2595)">
<rect x="197.029" y="153.286" width="1.89048" height="81.2902" transform="rotate(-180 197.029 153.286)" fill="#5AF77A"/>
<rect x="196.651" y="152.908" width="1.13429" height="80.534" transform="rotate(-180 196.651 152.908)" stroke="#5AF77A" stroke-width="0.756188"/>
</g>
<g filter="url(#filter6_d_3079_2595)">
<rect x="192.303" y="153.286" width="3.78095" height="81.2902" transform="rotate(-180 192.303 153.286)" fill="#5AF77A"/>
<rect x="191.925" y="152.908" width="3.02476" height="80.534" transform="rotate(-180 191.925 152.908)" stroke="#5AF77A" stroke-width="0.756188"/>
</g>
</g>
<mask id="path-38-inside-5_3079_2595" fill="white">
<path fill-rule="evenodd" clip-rule="evenodd" d="M190.601 75.2262C191.671 73.7881 193.358 72.9407 195.15 72.9407H196.082C199.215 72.9407 201.754 75.4799 201.754 78.6121V153.753C213.941 158.63 222.55 170.549 222.55 184.479C222.55 202.75 207.738 217.562 189.467 217.562C171.196 217.562 156.384 202.75 156.384 184.479C156.384 170.55 164.992 158.632 177.178 153.754V138.162C177.178 136.935 177.576 135.741 178.312 134.759L183.019 128.484C184.584 126.396 184.523 123.509 182.871 121.489L178.46 116.098C177.631 115.085 177.178 113.816 177.178 112.507V107.649C177.178 106.295 177.662 104.986 178.543 103.958L180.149 102.085C181.673 100.307 181.571 97.6563 179.915 96.0007C178.343 94.4285 178.162 91.9412 179.489 90.1575L190.601 75.2262ZM199.866 205.275C205.608 205.275 210.263 200.619 210.263 194.877C210.263 189.135 205.608 184.479 199.866 184.479C194.123 184.479 189.468 189.135 189.468 194.877C189.468 200.619 194.123 205.275 199.866 205.275Z"/>
</mask>
<path fill-rule="evenodd" clip-rule="evenodd" d="M190.601 75.2262C191.671 73.7881 193.358 72.9407 195.15 72.9407H196.082C199.215 72.9407 201.754 75.4799 201.754 78.6121V153.753C213.941 158.63 222.55 170.549 222.55 184.479C222.55 202.75 207.738 217.562 189.467 217.562C171.196 217.562 156.384 202.75 156.384 184.479C156.384 170.55 164.992 158.632 177.178 153.754V138.162C177.178 136.935 177.576 135.741 178.312 134.759L183.019 128.484C184.584 126.396 184.523 123.509 182.871 121.489L178.46 116.098C177.631 115.085 177.178 113.816 177.178 112.507V107.649C177.178 106.295 177.662 104.986 178.543 103.958L180.149 102.085C181.673 100.307 181.571 97.6563 179.915 96.0007C178.343 94.4285 178.162 91.9412 179.489 90.1575L190.601 75.2262ZM199.866 205.275C205.608 205.275 210.263 200.619 210.263 194.877C210.263 189.135 205.608 184.479 199.866 184.479C194.123 184.479 189.468 189.135 189.468 194.877C189.468 200.619 194.123 205.275 199.866 205.275Z" fill="url(#paint4_linear_3079_2595)" fill-opacity="0.2"/>
<path d="M190.601 75.2262L189.994 74.7747V74.7747L190.601 75.2262ZM201.754 153.753H200.998V154.264L201.473 154.455L201.754 153.753ZM177.178 153.754L177.459 154.456L177.934 154.265V153.754H177.178ZM178.312 134.759L177.707 134.305L178.312 134.759ZM183.019 128.484L182.414 128.03L183.019 128.484ZM182.871 121.489L183.456 121.011H183.456L182.871 121.489ZM178.46 116.098L177.874 116.577H177.874L178.46 116.098ZM178.543 103.958L177.969 103.466L178.543 103.958ZM180.149 102.085L180.723 102.577L180.149 102.085ZM179.489 90.1575L178.882 89.706L179.489 90.1575ZM195.15 72.1845C193.119 72.1845 191.207 73.1449 189.994 74.7747L191.207 75.6776C192.135 74.4313 193.597 73.6969 195.15 73.6969V72.1845ZM196.082 72.1845H195.15V73.6969H196.082V72.1845ZM202.51 78.6121C202.51 75.0622 199.632 72.1845 196.082 72.1845V73.6969C198.797 73.6969 200.998 75.8975 200.998 78.6121H202.51ZM202.51 153.753V78.6121H200.998V153.753H202.51ZM223.306 184.479C223.306 170.23 214.5 158.039 202.035 153.05L201.473 154.455C213.383 159.222 221.794 170.869 221.794 184.479H223.306ZM189.467 218.318C208.156 218.318 223.306 203.168 223.306 184.479H221.794C221.794 202.333 207.321 216.806 189.467 216.806V218.318ZM155.628 184.479C155.628 203.168 170.778 218.318 189.467 218.318V216.806C171.613 216.806 157.14 202.333 157.14 184.479H155.628ZM176.897 153.052C164.433 158.041 155.628 170.231 155.628 184.479H157.14C157.14 170.87 165.55 159.223 177.459 154.456L176.897 153.052ZM176.422 138.162V153.754H177.934V138.162H176.422ZM177.707 134.305C176.873 135.418 176.422 136.771 176.422 138.162H177.934C177.934 137.098 178.279 136.064 178.917 135.213L177.707 134.305ZM182.414 128.03L177.707 134.305L178.917 135.213L183.624 128.937L182.414 128.03ZM182.286 121.968C183.718 123.719 183.771 126.221 182.414 128.03L183.624 128.937C185.398 126.571 185.329 123.3 183.456 121.011L182.286 121.968ZM177.874 116.577L182.286 121.968L183.456 121.011L179.045 115.619L177.874 116.577ZM176.422 112.507C176.422 113.99 176.935 115.428 177.874 116.577L179.045 115.619C178.326 114.741 177.934 113.641 177.934 112.507H176.422ZM176.422 107.649V112.507H177.934V107.649H176.422ZM177.969 103.466C176.97 104.631 176.422 106.115 176.422 107.649H177.934C177.934 106.476 178.354 105.341 179.117 104.451L177.969 103.466ZM179.575 101.593L177.969 103.466L179.117 104.451L180.723 102.577L179.575 101.593ZM179.38 96.5354C180.757 97.9116 180.841 100.115 179.575 101.593L180.723 102.577C182.504 100.499 182.385 97.401 180.45 95.466L179.38 96.5354ZM178.882 89.706C177.331 91.7908 177.543 94.6979 179.38 96.5354L180.45 95.466C179.143 94.1592 178.992 92.0916 180.096 90.6089L178.882 89.706ZM189.994 74.7747L178.882 89.706L180.096 90.6089L191.207 75.6776L189.994 74.7747ZM209.507 194.877C209.507 200.202 205.19 204.518 199.866 204.518V206.031C206.026 206.031 211.019 201.037 211.019 194.877H209.507ZM199.866 185.236C205.19 185.236 209.507 189.552 209.507 194.877H211.019C211.019 188.717 206.026 183.723 199.866 183.723V185.236ZM190.224 194.877C190.224 189.552 194.541 185.236 199.866 185.236V183.723C193.706 183.723 188.712 188.717 188.712 194.877H190.224ZM199.866 204.518C194.541 204.518 190.224 200.202 190.224 194.877H188.712C188.712 201.037 193.706 206.031 199.866 206.031V204.518Z" fill="url(#paint5_linear_3079_2595)" mask="url(#path-38-inside-5_3079_2595)"/>
</g>
</g>
<path d="M292 291V292H293V291H292ZM291 0V291H293V0H291ZM292 290H0V292H292V290Z" fill="white" fill-opacity="0.12" mask="url(#path-1-inside-1_3079_2595)"/>
<defs>
<filter id="filter0_f_3079_2595" x="3.28588" y="-3.71412" width="286.428" height="297.428" filterUnits="userSpaceOnUse" color-interpolation-filters="sRGB">
<feFlood flood-opacity="0" result="BackgroundImageFix"/>
<feBlend mode="normal" in="SourceGraphic" in2="BackgroundImageFix" result="shape"/>
<feGaussianBlur stdDeviation="28.3571" result="effect1_foregroundBlur_3079_2595"/>
</filter>
<filter id="filter1_d_3079_2595" x="46.7313" y="44.5831" width="113.428" height="190.109" filterUnits="userSpaceOnUse" color-interpolation-filters="sRGB">
<feFlood flood-opacity="0" result="BackgroundImageFix"/>
<feColorMatrix in="SourceAlpha" type="matrix" values="0 0 0 0 0 0 0 0 0 0 0 0 0 0 0 0 0 0 127 0" result="hardAlpha"/>
<feOffset dy="-5.67141"/>
<feGaussianBlur stdDeviation="11.3428"/>
<feComposite in2="hardAlpha" operator="int"/>
<feColorMatrix type="matrix" values="0 0 0 0 0.909804 0 0 0 0 0.686275 0 0 0 0 0.12549 0 0 0 0.2 0"/>
<feBlend mode="normal" in2="BackgroundImageFix" result="effect1_dropShadow_3079_2595"/>
<feBlend mode="normal" in="SourceGraphic" in2="effect1_dropShadow_3079_2595" result="shape"/>
</filter>
<filter id="filter2_d_3079_2595" x="93.9965" y="135.327" width="11.343" height="88.852" filterUnits="userSpaceOnUse" color-interpolation-filters="sRGB">
<feFlood flood-opacity="0" result="BackgroundImageFix"/>
<feColorMatrix in="SourceAlpha" type="matrix" values="0 0 0 0 0 0 0 0 0 0 0 0 0 0 0 0 0 0 127 0" result="hardAlpha"/>
<feOffset/>
<feGaussianBlur stdDeviation="2.36309"/>
<feComposite in2="hardAlpha" operator="int"/>
<feColorMatrix type="matrix" values="0 0 0 0 0.901961 0 0 0 0 0.705882 0 0 0 0 0.133333 0 0 0 1 0"/>
<feBlend mode="normal" in2="BackgroundImageFix" result="effect1_dropShadow_3079_2595"/>
<feBlend mode="normal" in="SourceGraphic" in2="effect1_dropShadow_3079_2595" result="shape"/>
</filter>
<filter id="filter3_d_3079_2595" x="98.7221" y="135.327" width="13.2336" height="88.852" filterUnits="userSpaceOnUse" color-interpolation-filters="sRGB">
<feFlood flood-opacity="0" result="BackgroundImageFix"/>
<feColorMatrix in="SourceAlpha" type="matrix" values="0 0 0 0 0 0 0 0 0 0 0 0 0 0 0 0 0 0 127 0" result="hardAlpha"/>
<feOffset/>
<feGaussianBlur stdDeviation="2.36309"/>
<feComposite in2="hardAlpha" operator="int"/>
<feColorMatrix type="matrix" values="0 0 0 0 0.901961 0 0 0 0 0.705882 0 0 0 0 0.133333 0 0 0 1 0"/>
<feBlend mode="normal" in2="BackgroundImageFix" result="effect1_dropShadow_3079_2595"/>
<feBlend mode="normal" in="SourceGraphic" in2="effect1_dropShadow_3079_2595" result="shape"/>
</filter>
<filter id="filter4_d_3079_2595" x="133.698" y="55.9264" width="111.537" height="189.993" filterUnits="userSpaceOnUse" color-interpolation-filters="sRGB">
<feFlood flood-opacity="0" result="BackgroundImageFix"/>
<feColorMatrix in="SourceAlpha" type="matrix" values="0 0 0 0 0 0 0 0 0 0 0 0 0 0 0 0 0 0 127 0" result="hardAlpha"/>
<feOffset dy="5.67141"/>
<feGaussianBlur stdDeviation="11.3428"/>
<feComposite in2="hardAlpha" operator="int"/>
<feColorMatrix type="matrix" values="0 0 0 0 0.341176 0 0 0 0 0.960784 0 0 0 0 0.494118 0 0 0 0.16 0"/>
<feBlend mode="normal" in2="BackgroundImageFix" result="effect1_dropShadow_3079_2595"/>
<feBlend mode="normal" in="SourceGraphic" in2="effect1_dropShadow_3079_2595" result="shape"/>
</filter>
<filter id="filter5_d_3079_2595" x="190.412" y="67.2692" width="11.343" height="90.7426" filterUnits="userSpaceOnUse" color-interpolation-filters="sRGB">
<feFlood flood-opacity="0" result="BackgroundImageFix"/>
<feColorMatrix in="SourceAlpha" type="matrix" values="0 0 0 0 0 0 0 0 0 0 0 0 0 0 0 0 0 0 127 0" result="hardAlpha"/>
<feOffset/>
<feGaussianBlur stdDeviation="2.36309"/>
<feComposite in2="hardAlpha" operator="int"/>
<feColorMatrix type="matrix" values="0 0 0 0 0.352941 0 0 0 0 0.968627 0 0 0 0 0.478431 0 0 0 1 0"/>
<feBlend mode="normal" in2="BackgroundImageFix" result="effect1_dropShadow_3079_2595"/>
<feBlend mode="normal" in="SourceGraphic" in2="effect1_dropShadow_3079_2595" result="shape"/>
</filter>
<filter id="filter6_d_3079_2595" x="183.795" y="67.2692" width="13.2336" height="90.7426" filterUnits="userSpaceOnUse" color-interpolation-filters="sRGB">
<feFlood flood-opacity="0" result="BackgroundImageFix"/>
<feColorMatrix in="SourceAlpha" type="matrix" values="0 0 0 0 0 0 0 0 0 0 0 0 0 0 0 0 0 0 127 0" result="hardAlpha"/>
<feOffset/>
<feGaussianBlur stdDeviation="2.36309"/>
<feComposite in2="hardAlpha" operator="int"/>
<feColorMatrix type="matrix" values="0 0 0 0 0.352941 0 0 0 0 0.968627 0 0 0 0 0.478431 0 0 0 1 0"/>
<feBlend mode="normal" in2="BackgroundImageFix" result="effect1_dropShadow_3079_2595"/>
<feBlend mode="normal" in="SourceGraphic" in2="effect1_dropShadow_3079_2595" result="shape"/>
</filter>
<radialGradient id="paint0_radial_3079_2595" cx="0" cy="0" r="1" gradientUnits="userSpaceOnUse" gradientTransform="translate(292 46.7428) rotate(161.385) scale(308.12 139.987)">
<stop stop-color="#4E5968"/>
<stop offset="0.884788" stop-color="#313F54"/>
</radialGradient>
<linearGradient id="paint1_linear_3079_2595" x1="42.5799" y1="124.121" x2="243.812" y2="124.121" gradientUnits="userSpaceOnUse">
<stop offset="0.357695" stop-color="#E7AE20"/>
<stop offset="0.678238" stop-color="#57F57F"/>
</linearGradient>
<linearGradient id="paint2_linear_3079_2595" x1="103.445" y1="72.9402" x2="103.445" y2="217.677" gradientUnits="userSpaceOnUse">
<stop stop-color="#E6B422"/>
<stop offset="1" stop-color="#FF5C00" stop-opacity="0.2"/>
</linearGradient>
<linearGradient id="paint3_linear_3079_2595" x1="103.445" y1="72.9402" x2="103.445" y2="217.677" gradientUnits="userSpaceOnUse">
<stop stop-color="#E6B422"/>
<stop offset="1" stop-color="#E6B422" stop-opacity="0"/>
</linearGradient>
<linearGradient id="paint4_linear_3079_2595" x1="189.467" y1="217.562" x2="189.467" y2="72.9407" gradientUnits="userSpaceOnUse">
<stop stop-color="#5AF77A"/>
<stop offset="1" stop-color="#28CFCF" stop-opacity="0.2"/>
</linearGradient>
<linearGradient id="paint5_linear_3079_2595" x1="189.467" y1="217.562" x2="189.467" y2="72.9407" gradientUnits="userSpaceOnUse">
<stop stop-color="#5AF77A"/>
<stop offset="1" stop-color="#5AF77A" stop-opacity="0"/>
</linearGradient>
<clipPath id="clip0_3079_2595">
<path d="M0 0H292V291H0V0Z" fill="white"/>
</clipPath>
</defs>
</svg>
