<svg width="205" height="204" viewBox="0 0 205 204" fill="none" xmlns="http://www.w3.org/2000/svg">
<g clip-path="url(#clip0_3582_17044)">
<rect width="204" height="203" transform="translate(0.5 0.0117188)" fill="#0038FF"/>
<rect width="204" height="203" transform="translate(0.5 0.0117188)" fill="url(#paint0_radial_3582_17044)" fill-opacity="0.9"/>
<g clip-path="url(#clip1_3582_17044)">
<path d="M82.6314 46.4304C76.5567 46.4304 71.6322 51.0515 71.6322 56.7519C71.6322 61.4652 74.999 65.4407 79.599 66.6761L79.7417 66.7134L68.6484 85.2481H96.3753L85.3127 66.7645L85.4779 66.7244C90.1728 65.5474 93.6307 61.5286 93.6307 56.7519C93.6307 51.0515 88.7062 46.4304 82.6314 46.4304Z" fill="#212F43"/>
</g>
<g clip-path="url(#clip2_3582_17044)">
<path d="M146.028 46.4304C139.953 46.4304 135.029 51.0515 135.029 56.7519C135.029 61.4652 138.395 65.4407 142.995 66.6761L143.138 66.7134L132.045 85.2481H159.772L148.709 66.7645L148.874 66.7244C153.569 65.5474 157.027 61.5286 157.027 56.7519C157.027 51.0515 152.103 46.4304 146.028 46.4304Z" fill="#212F43"/>
</g>
<g clip-path="url(#clip3_3582_17044)">
<path d="M50.9332 46.4304C44.8585 46.4304 39.9339 51.0515 39.9339 56.7519C39.9339 61.4652 43.3007 65.4407 47.9007 66.6761L48.0434 66.7134L36.9502 85.2481H64.6771L53.6144 66.7645L53.7796 66.7244C58.4746 65.5474 61.9325 61.5286 61.9325 56.7519C61.9325 51.0515 57.0079 46.4304 50.9332 46.4304Z" fill="#212F43"/>
</g>
<g clip-path="url(#clip4_3582_17044)">
<path d="M114.331 46.4304C108.256 46.4304 103.331 51.0515 103.331 56.7519C103.331 61.4652 106.698 65.4407 111.298 66.6761L111.441 66.7134L100.348 85.2481H128.075L117.012 66.7645L117.177 66.7244C121.872 65.5474 125.33 61.5286 125.33 56.7519C125.33 51.0515 120.405 46.4304 114.331 46.4304Z" fill="#212F43"/>
</g>
<g clip-path="url(#clip5_3582_17044)">
<path d="M177.725 46.4304C171.65 46.4304 166.726 51.0515 166.726 56.7519C166.726 61.4652 170.093 65.4407 174.693 66.6761L174.835 66.7134L163.742 85.2481H191.469L180.406 66.7645L180.572 66.7244C185.267 65.5474 188.724 61.5286 188.724 56.7519C188.724 51.0515 183.8 46.4304 177.725 46.4304Z" fill="#212F43"/>
</g>
<g clip-path="url(#clip6_3582_17044)">
<path d="M177.725 78.0811C171.65 78.0811 166.726 82.7021 166.726 88.4025C166.726 93.1159 170.093 97.0913 174.693 98.3267L174.835 98.3641L163.742 116.899H191.469L180.406 98.4151L180.572 98.375C185.267 97.198 188.724 93.1792 188.724 88.4025C188.724 82.7021 183.8 78.0811 177.725 78.0811Z" fill="#212F43"/>
</g>
<g clip-path="url(#clip7_3582_17044)">
<path d="M82.6314 109.731C76.5567 109.731 71.6322 114.353 71.6322 120.053C71.6322 124.766 74.999 128.742 79.599 129.977L79.7417 130.014L68.6484 148.549H96.3753L85.3127 130.066L85.4779 130.025C90.1728 128.848 93.6307 124.83 93.6307 120.053C93.6307 114.353 88.7062 109.731 82.6314 109.731Z" fill="#212F43"/>
</g>
<g clip-path="url(#clip8_3582_17044)">
<path d="M146.028 109.731C139.953 109.731 135.029 114.353 135.029 120.053C135.029 124.766 138.395 128.742 142.995 129.977L143.138 130.014L132.045 148.549H159.772L148.709 130.066L148.874 130.025C153.569 128.848 157.027 124.83 157.027 120.053C157.027 114.353 152.103 109.731 146.028 109.731Z" fill="#212F43"/>
</g>
<g clip-path="url(#clip9_3582_17044)">
<path d="M50.9332 109.731C44.8585 109.731 39.9339 114.353 39.9339 120.053C39.9339 124.766 43.3007 128.742 47.9007 129.977L48.0434 130.014L36.9502 148.549H64.6771L53.6144 130.066L53.7796 130.025C58.4746 128.848 61.9325 124.83 61.9325 120.053C61.9325 114.353 57.0079 109.731 50.9332 109.731Z" fill="#212F43"/>
</g>
<g clip-path="url(#clip10_3582_17044)">
<path d="M114.331 109.731C108.256 109.731 103.331 114.353 103.331 120.053C103.331 124.766 106.698 128.742 111.298 129.977L111.441 130.014L100.348 148.549H128.075L117.012 130.066L117.177 130.025C121.872 128.848 125.33 124.83 125.33 120.053C125.33 114.353 120.405 109.731 114.331 109.731Z" fill="#212F43"/>
</g>
<g clip-path="url(#clip11_3582_17044)">
<path d="M177.725 109.731C171.65 109.731 166.726 114.353 166.726 120.053C166.726 124.766 170.093 128.742 174.693 129.977L174.835 130.014L163.742 148.549H191.469L180.406 130.066L180.572 130.025C185.267 128.848 188.724 124.83 188.724 120.053C188.724 114.353 183.8 109.731 177.725 109.731Z" fill="#212F43"/>
</g>
<g clip-path="url(#clip12_3582_17044)">
<path d="M82.6314 78.0811C76.5567 78.0811 71.6322 82.7021 71.6322 88.4025C71.6322 93.1159 74.999 97.0913 79.599 98.3267L79.7417 98.3641L68.6484 116.899H96.3753L85.3127 98.4151L85.4779 98.375C90.1728 97.198 93.6307 93.1792 93.6307 88.4025C93.6307 82.7021 88.7062 78.0811 82.6314 78.0811Z" fill="#212F43"/>
</g>
<g clip-path="url(#clip13_3582_17044)">
<path d="M146.028 78.0811C139.953 78.0811 135.029 82.7021 135.029 88.4025C135.029 93.1159 138.395 97.0913 142.995 98.3267L143.138 98.3641L132.045 116.899H159.772L148.709 98.4151L148.874 98.375C153.569 97.198 157.027 93.1792 157.027 88.4025C157.027 82.7021 152.103 78.0811 146.028 78.0811Z" fill="#212F43"/>
</g>
<g clip-path="url(#clip14_3582_17044)">
<path d="M50.9332 78.0811C44.8585 78.0811 39.9339 82.7021 39.9339 88.4025C39.9339 93.1159 43.3007 97.0913 47.9007 98.3267L48.0434 98.3641L36.9502 116.899H64.6771L53.6144 98.4151L53.7796 98.375C58.4746 97.198 61.9325 93.1792 61.9325 88.4025C61.9325 82.7021 57.0079 78.0811 50.9332 78.0811Z" fill="#212F43"/>
</g>
<g clip-path="url(#clip15_3582_17044)">
<path d="M114.331 78.0811C108.256 78.0811 103.331 82.7021 103.331 88.4025C103.331 93.1159 106.698 97.0913 111.298 98.3267L111.441 98.3641L100.348 116.899H128.075L117.012 98.4151L117.177 98.375C121.872 97.198 125.33 93.1792 125.33 88.4025C125.33 82.7021 120.405 78.0811 114.331 78.0811Z" fill="#212F43"/>
</g>
<g clip-path="url(#clip16_3582_17044)">
<path d="M82.6314 141.383C76.5567 141.383 71.6322 146.004 71.6322 151.704C71.6322 156.417 74.999 160.393 79.599 161.628L79.7417 161.666L68.6484 180.2H96.3753L85.3127 161.717L85.4779 161.677C90.1728 160.5 93.6307 156.481 93.6307 151.704C93.6307 146.004 88.7062 141.383 82.6314 141.383Z" fill="#212F43"/>
</g>
<g clip-path="url(#clip17_3582_17044)">
<path d="M146.028 141.383C139.953 141.383 135.029 146.004 135.029 151.704C135.029 156.417 138.395 160.393 142.995 161.628L143.138 161.666L132.045 180.2H159.772L148.709 161.717L148.874 161.677C153.569 160.5 157.027 156.481 157.027 151.704C157.027 146.004 152.103 141.383 146.028 141.383Z" fill="#212F43"/>
</g>
<g clip-path="url(#clip18_3582_17044)">
<path d="M50.9332 141.383C44.8585 141.383 39.9339 146.004 39.9339 151.704C39.9339 156.417 43.3007 160.393 47.9007 161.628L48.0434 161.666L36.9502 180.2H64.6771L53.6144 161.717L53.7796 161.677C58.4746 160.5 61.9325 156.481 61.9325 151.704C61.9325 146.004 57.0079 141.383 50.9332 141.383Z" fill="#212F43"/>
</g>
<g clip-path="url(#clip19_3582_17044)">
<path d="M114.331 141.383C108.256 141.383 103.331 146.004 103.331 151.704C103.331 156.417 106.698 160.393 111.298 161.628L111.441 161.666L100.348 180.2H128.075L117.012 161.717L117.177 161.677C121.872 160.5 125.33 156.481 125.33 151.704C125.33 146.004 120.405 141.383 114.331 141.383Z" fill="#212F43"/>
</g>
<g clip-path="url(#clip20_3582_17044)">
<path d="M177.725 141.383C171.65 141.383 166.726 146.004 166.726 151.704C166.726 156.417 170.093 160.393 174.693 161.628L174.835 161.666L163.742 180.2H191.469L180.406 161.717L180.572 161.677C185.267 160.5 188.724 156.481 188.724 151.704C188.724 146.004 183.8 141.383 177.725 141.383Z" fill="#212F43"/>
</g>
<g filter="url(#filter0_f_3582_17044)">
<path d="M42.4189 36.9841H86.546V76.5396L163.282 119.951V165.342H119.155V119.951L42.4189 76.5396V36.9841Z" fill="url(#paint1_linear_3582_17044)" fill-opacity="0.6"/>
</g>
<g filter="url(#filter1_d_3582_17044)">
<mask id="mask0_3582_17044" style="mask-type:alpha" maskUnits="userSpaceOnUse" x="48" y="51" width="49" height="101">
<mask id="path-22-inside-1_3582_17044" fill="white">
<path fill-rule="evenodd" clip-rule="evenodd" d="M48.9961 63.0213C48.9961 59.1708 51.6388 55.8236 55.3842 54.9302L70.8394 51.2436C72.1083 50.9409 73.4305 50.9409 74.6994 51.2436L90.1547 54.9302C93.9001 55.8236 96.5427 59.1708 96.5427 63.0213V76.3047C96.5427 80.0744 94.0077 83.3728 90.3649 84.3427L82.0142 86.5663V105.291C82.0142 105.778 81.62 106.172 81.1337 106.172C80.1611 106.172 79.3727 106.96 79.3727 107.933V144.948C79.3727 147.451 77.9579 149.739 75.7188 150.857C73.8616 151.784 71.6765 151.784 69.8193 150.857C67.5801 149.739 66.1653 147.451 66.1653 144.948V107.933C66.1653 106.96 65.3769 106.172 64.4043 106.172C63.918 106.172 63.5238 105.778 63.5238 105.291V86.5661L55.1739 84.3427C51.5311 83.3728 48.9961 80.0744 48.9961 76.3047V63.0213ZM66.935 56.4358C64.9633 56.7856 63.5267 58.4996 63.5267 60.502C63.5267 62.7828 65.3756 64.6317 67.6564 64.6317H72.7719H77.8874C80.1681 64.6317 82.0171 62.7828 82.0171 60.502C82.0171 58.4996 80.5805 56.7856 78.6088 56.4358L73.4984 55.5291C73.0178 55.4439 72.5259 55.4439 72.0453 55.5291L66.935 56.4358Z"/>
</mask>
<path fill-rule="evenodd" clip-rule="evenodd" d="M48.9961 63.0213C48.9961 59.1708 51.6388 55.8236 55.3842 54.9302L70.8394 51.2436C72.1083 50.9409 73.4305 50.9409 74.6994 51.2436L90.1547 54.9302C93.9001 55.8236 96.5427 59.1708 96.5427 63.0213V76.3047C96.5427 80.0744 94.0077 83.3728 90.3649 84.3427L82.0142 86.5663V105.291C82.0142 105.778 81.62 106.172 81.1337 106.172C80.1611 106.172 79.3727 106.96 79.3727 107.933V144.948C79.3727 147.451 77.9579 149.739 75.7188 150.857C73.8616 151.784 71.6765 151.784 69.8193 150.857C67.5801 149.739 66.1653 147.451 66.1653 144.948V107.933C66.1653 106.96 65.3769 106.172 64.4043 106.172C63.918 106.172 63.5238 105.778 63.5238 105.291V86.5661L55.1739 84.3427C51.5311 83.3728 48.9961 80.0744 48.9961 76.3047V63.0213ZM66.935 56.4358C64.9633 56.7856 63.5267 58.4996 63.5267 60.502C63.5267 62.7828 65.3756 64.6317 67.6564 64.6317H72.7719H77.8874C80.1681 64.6317 82.0171 62.7828 82.0171 60.502C82.0171 58.4996 80.5805 56.7856 78.6088 56.4358L73.4984 55.5291C73.0178 55.4439 72.5259 55.4439 72.0453 55.5291L66.935 56.4358Z" fill="#D9D9D9"/>
<path d="M55.3842 54.9302L55.1268 53.8514L55.1268 53.8514L55.3842 54.9302ZM70.8394 51.2436L71.0967 52.3224V52.3224L70.8394 51.2436ZM74.6994 51.2436L74.9567 50.1648L74.6994 51.2436ZM90.1547 54.9302L89.8973 56.009L90.1547 54.9302ZM90.3649 84.3427L90.6503 85.4145L90.3649 84.3427ZM82.0142 86.5663L81.7288 85.4946L80.9051 85.7139V86.5663H82.0142ZM75.7188 150.857L75.2234 149.864L75.7188 150.857ZM69.8193 150.857L70.3147 149.864L69.8193 150.857ZM63.5238 86.5661H64.6329V85.7137L63.8092 85.4943L63.5238 86.5661ZM55.1739 84.3427L55.4592 83.271H55.4592L55.1739 84.3427ZM66.935 56.4358L67.1287 57.5278H67.1287L66.935 56.4358ZM78.6088 56.4358L78.4151 57.5278H78.4151L78.6088 56.4358ZM73.4984 55.5291L73.6922 54.4371L73.6922 54.4371L73.4984 55.5291ZM72.0453 55.5291L71.8516 54.4371L71.8516 54.4371L72.0453 55.5291ZM55.1268 53.8514C50.882 54.8639 47.887 58.6574 47.887 63.0213H50.1052C50.1052 59.6842 52.3955 56.7833 55.6415 56.009L55.1268 53.8514ZM70.5821 50.1648L55.1268 53.8514L55.6415 56.009L71.0967 52.3224L70.5821 50.1648ZM74.9567 50.1648C73.5187 49.8218 72.0201 49.8218 70.5821 50.1648L71.0967 52.3224C72.1964 52.0601 73.3424 52.0601 74.4421 52.3224L74.9567 50.1648ZM90.412 53.8514L74.9567 50.1648L74.4421 52.3224L89.8973 56.009L90.412 53.8514ZM97.6518 63.0213C97.6518 58.6574 94.6568 54.8639 90.412 53.8514L89.8973 56.009C93.1433 56.7833 95.4337 59.6842 95.4337 63.0213H97.6518ZM97.6518 76.3047V63.0213H95.4337V76.3047H97.6518ZM90.6503 85.4145C94.7787 84.3152 97.6518 80.577 97.6518 76.3047H95.4337C95.4337 79.5718 93.2366 82.4304 90.0796 83.271L90.6503 85.4145ZM82.2996 87.638L90.6503 85.4145L90.0796 83.271L81.7288 85.4946L82.2996 87.638ZM83.1233 105.291V86.5663H80.9051V105.291H83.1233ZM81.1337 107.281C82.2325 107.281 83.1233 106.39 83.1233 105.291H80.9051C80.9051 105.165 81.0075 105.063 81.1337 105.063V107.281ZM80.4818 107.933C80.4818 107.573 80.7737 107.281 81.1337 107.281V105.063C79.5486 105.063 78.2636 106.348 78.2636 107.933H80.4818ZM80.4818 144.948V107.933H78.2636V144.948H80.4818ZM76.2142 151.849C78.8294 150.543 80.4818 147.871 80.4818 144.948H78.2636C78.2636 147.031 77.0865 148.934 75.2234 149.864L76.2142 151.849ZM69.3238 151.849C71.493 152.932 74.0451 152.932 76.2142 151.849L75.2234 149.864C73.6781 150.636 71.8599 150.636 70.3147 149.864L69.3238 151.849ZM65.0562 144.948C65.0562 147.871 66.7086 150.543 69.3238 151.849L70.3147 149.864C68.4516 148.934 67.2744 147.031 67.2744 144.948H65.0562ZM65.0562 107.933V144.948H67.2744V107.933H65.0562ZM64.4043 107.281C64.7644 107.281 65.0562 107.573 65.0562 107.933H67.2744C67.2744 106.348 65.9894 105.063 64.4043 105.063V107.281ZM62.4148 105.291C62.4148 106.39 63.3055 107.281 64.4043 107.281V105.063C64.5306 105.063 64.6329 105.165 64.6329 105.291H62.4148ZM62.4148 86.5661V105.291H64.6329V86.5661H62.4148ZM54.8885 85.4145L63.2385 87.6378L63.8092 85.4943L55.4592 83.271L54.8885 85.4145ZM47.887 76.3047C47.887 80.577 50.7601 84.3152 54.8885 85.4145L55.4592 83.271C52.3022 82.4304 50.1052 79.5718 50.1052 76.3047H47.887ZM47.887 63.0213V76.3047H50.1052V63.0213H47.887ZM64.6358 60.502C64.6358 59.0373 65.6866 57.7837 67.1287 57.5278L66.7412 55.3438C64.24 55.7876 62.4176 57.9618 62.4176 60.502H64.6358ZM67.6564 63.5226C65.9881 63.5226 64.6358 62.1702 64.6358 60.502H62.4176C62.4176 63.3953 64.7631 65.7408 67.6564 65.7408V63.5226ZM72.7719 63.5226H67.6564V65.7408H72.7719V63.5226ZM77.8874 63.5226H72.7719V65.7408H77.8874V63.5226ZM80.908 60.502C80.908 62.1702 79.5556 63.5226 77.8874 63.5226V65.7408C80.7807 65.7408 83.1261 63.3953 83.1261 60.502H80.908ZM78.4151 57.5278C79.8572 57.7837 80.908 59.0373 80.908 60.502H83.1261C83.1261 57.9618 81.3037 55.7876 78.8025 55.3438L78.4151 57.5278ZM73.3047 56.6212L78.4151 57.5278L78.8026 55.3438L73.6922 54.4371L73.3047 56.6212ZM72.2391 56.6212C72.5915 56.5586 72.9522 56.5586 73.3047 56.6212L73.6922 54.4371C73.0834 54.3291 72.4604 54.3291 71.8516 54.4371L72.2391 56.6212ZM67.1287 57.5278L72.2391 56.6212L71.8516 54.4371L66.7412 55.3438L67.1287 57.5278Z" fill="white" mask="url(#path-22-inside-1_3582_17044)"/>
</mask>
<g mask="url(#mask0_3582_17044)">
<g filter="url(#filter2_d_3582_17044)">
<rect x="69.4707" y="97.7122" width="1.32074" height="55.3888" fill="#E6B422"/>
<rect x="69.8009" y="98.0423" width="0.66037" height="54.7285" stroke="#E6B422" stroke-width="0.66037"/>
</g>
<g filter="url(#filter3_d_3582_17044)">
<rect x="72.7725" y="97.7122" width="2.64148" height="55.3888" fill="#E6B422"/>
<rect x="73.327" y="98.2667" width="1.5324" height="54.2798" stroke="#E6B422" stroke-width="1.10908"/>
</g>
</g>
<mask id="path-28-inside-2_3582_17044" fill="white">
<path fill-rule="evenodd" clip-rule="evenodd" d="M48.9961 63.0213C48.9961 59.1708 51.6388 55.8236 55.3842 54.9302L70.8394 51.2436C72.1083 50.9409 73.4305 50.9409 74.6994 51.2436L90.1547 54.9302C93.9001 55.8236 96.5427 59.1708 96.5427 63.0213V76.3047C96.5427 80.0744 94.0077 83.3728 90.3649 84.3427L82.0142 86.5663V105.291C82.0142 105.777 81.62 106.172 81.1337 106.172C80.1611 106.172 79.3727 106.96 79.3727 107.933V144.948C79.3727 147.451 77.9579 149.738 75.7188 150.856C73.8616 151.783 71.6765 151.783 69.8193 150.856C67.5801 149.738 66.1653 147.451 66.1653 144.948V107.933C66.1653 106.96 65.3769 106.172 64.4043 106.172C63.918 106.172 63.5238 105.777 63.5238 105.291V86.5661L55.1739 84.3427C51.5311 83.3728 48.9961 80.0744 48.9961 76.3047V63.0213ZM66.935 56.4355C64.9633 56.7853 63.5267 58.4992 63.5267 60.5016C63.5267 62.7824 65.3756 64.6313 67.6564 64.6313H72.7719H77.8874C80.1681 64.6313 82.0171 62.7824 82.0171 60.5016C82.0171 58.4992 80.5805 56.7853 78.6088 56.4355L73.4984 55.5288C73.0178 55.4435 72.5259 55.4435 72.0453 55.5288L66.935 56.4355Z"/>
</mask>
<path fill-rule="evenodd" clip-rule="evenodd" d="M48.9961 63.0213C48.9961 59.1708 51.6388 55.8236 55.3842 54.9302L70.8394 51.2436C72.1083 50.9409 73.4305 50.9409 74.6994 51.2436L90.1547 54.9302C93.9001 55.8236 96.5427 59.1708 96.5427 63.0213V76.3047C96.5427 80.0744 94.0077 83.3728 90.3649 84.3427L82.0142 86.5663V105.291C82.0142 105.777 81.62 106.172 81.1337 106.172C80.1611 106.172 79.3727 106.96 79.3727 107.933V144.948C79.3727 147.451 77.9579 149.738 75.7188 150.856C73.8616 151.783 71.6765 151.783 69.8193 150.856C67.5801 149.738 66.1653 147.451 66.1653 144.948V107.933C66.1653 106.96 65.3769 106.172 64.4043 106.172C63.918 106.172 63.5238 105.777 63.5238 105.291V86.5661L55.1739 84.3427C51.5311 83.3728 48.9961 80.0744 48.9961 76.3047V63.0213ZM66.935 56.4355C64.9633 56.7853 63.5267 58.4992 63.5267 60.5016C63.5267 62.7824 65.3756 64.6313 67.6564 64.6313H72.7719H77.8874C80.1681 64.6313 82.0171 62.7824 82.0171 60.5016C82.0171 58.4992 80.5805 56.7853 78.6088 56.4355L73.4984 55.5288C73.0178 55.4435 72.5259 55.4435 72.0453 55.5288L66.935 56.4355Z" fill="url(#paint2_linear_3582_17044)" fill-opacity="0.2"/>
<path d="M55.3842 54.9302L55.1268 53.8514L55.1268 53.8514L55.3842 54.9302ZM70.8394 51.2436L71.0967 52.3224V52.3224L70.8394 51.2436ZM74.6994 51.2436L74.9567 50.1648L74.6994 51.2436ZM90.1547 54.9302L89.8973 56.009L90.1547 54.9302ZM90.3649 84.3427L90.6503 85.4145L90.3649 84.3427ZM82.0142 86.5663L81.7288 85.4946L80.9051 85.7139V86.5663H82.0142ZM75.7188 150.856L75.2234 149.864L75.7188 150.856ZM69.8193 150.856L70.3147 149.864L69.8193 150.856ZM63.5238 86.5661H64.6329V85.7137L63.8092 85.4943L63.5238 86.5661ZM55.1739 84.3427L55.4592 83.271H55.4592L55.1739 84.3427ZM66.935 56.4355L67.1287 57.5275H67.1287L66.935 56.4355ZM78.6088 56.4355L78.4151 57.5275H78.4151L78.6088 56.4355ZM73.4984 55.5288L73.6922 54.4367L73.6922 54.4367L73.4984 55.5288ZM72.0453 55.5288L71.8516 54.4367L71.8516 54.4367L72.0453 55.5288ZM55.1268 53.8514C50.882 54.8639 47.887 58.6574 47.887 63.0213H50.1052C50.1052 59.6842 52.3955 56.7833 55.6415 56.009L55.1268 53.8514ZM70.5821 50.1648L55.1268 53.8514L55.6415 56.009L71.0967 52.3224L70.5821 50.1648ZM74.9567 50.1648C73.5187 49.8218 72.0201 49.8218 70.5821 50.1648L71.0967 52.3224C72.1964 52.0601 73.3424 52.0601 74.4421 52.3224L74.9567 50.1648ZM90.412 53.8514L74.9567 50.1648L74.4421 52.3224L89.8973 56.009L90.412 53.8514ZM97.6518 63.0213C97.6518 58.6574 94.6568 54.8639 90.412 53.8514L89.8973 56.009C93.1433 56.7833 95.4337 59.6842 95.4337 63.0213H97.6518ZM97.6518 76.3047V63.0213H95.4337V76.3047H97.6518ZM90.6503 85.4145C94.7787 84.3152 97.6518 80.577 97.6518 76.3047H95.4337C95.4337 79.5718 93.2366 82.4304 90.0796 83.271L90.6503 85.4145ZM82.2996 87.638L90.6503 85.4145L90.0796 83.271L81.7288 85.4946L82.2996 87.638ZM83.1233 105.291V86.5663H80.9051V105.291H83.1233ZM81.1337 107.281C82.2325 107.281 83.1233 106.39 83.1233 105.291H80.9051C80.9051 105.165 81.0075 105.062 81.1337 105.062V107.281ZM80.4818 107.933C80.4818 107.572 80.7737 107.281 81.1337 107.281V105.062C79.5486 105.062 78.2636 106.347 78.2636 107.933H80.4818ZM80.4818 144.948V107.933H78.2636V144.948H80.4818ZM76.2142 151.849C78.8294 150.543 80.4818 147.871 80.4818 144.948H78.2636C78.2636 147.03 77.0865 148.934 75.2234 149.864L76.2142 151.849ZM69.3238 151.849C71.493 152.931 74.0451 152.931 76.2142 151.849L75.2234 149.864C73.6781 150.635 71.8599 150.635 70.3147 149.864L69.3238 151.849ZM65.0562 144.948C65.0562 147.871 66.7086 150.543 69.3238 151.849L70.3147 149.864C68.4516 148.934 67.2744 147.03 67.2744 144.948H65.0562ZM65.0562 107.933V144.948H67.2744V107.933H65.0562ZM64.4043 107.281C64.7644 107.281 65.0562 107.572 65.0562 107.933H67.2744C67.2744 106.347 65.9894 105.062 64.4043 105.062V107.281ZM62.4148 105.291C62.4148 106.39 63.3055 107.281 64.4043 107.281V105.062C64.5306 105.062 64.6329 105.165 64.6329 105.291H62.4148ZM62.4148 86.5661V105.291H64.6329V86.5661H62.4148ZM54.8885 85.4145L63.2385 87.6378L63.8092 85.4943L55.4592 83.271L54.8885 85.4145ZM47.887 76.3047C47.887 80.577 50.7601 84.3152 54.8885 85.4145L55.4592 83.271C52.3022 82.4304 50.1052 79.5718 50.1052 76.3047H47.887ZM47.887 63.0213V76.3047H50.1052V63.0213H47.887ZM64.6358 60.5016C64.6358 59.037 65.6866 57.7834 67.1287 57.5275L66.7412 55.3434C64.24 55.7872 62.4176 57.9614 62.4176 60.5016H64.6358ZM67.6564 63.5223C65.9881 63.5223 64.6358 62.1699 64.6358 60.5016H62.4176C62.4176 63.3949 64.7631 65.7404 67.6564 65.7404V63.5223ZM72.7719 63.5223H67.6564V65.7404H72.7719V63.5223ZM77.8874 63.5223H72.7719V65.7404H77.8874V63.5223ZM80.908 60.5016C80.908 62.1699 79.5556 63.5223 77.8874 63.5223V65.7404C80.7807 65.7404 83.1261 63.3949 83.1261 60.5016H80.908ZM78.4151 57.5275C79.8572 57.7834 80.908 59.037 80.908 60.5016H83.1261C83.1261 57.9614 81.3037 55.7872 78.8025 55.3434L78.4151 57.5275ZM73.3047 56.6208L78.4151 57.5275L78.8026 55.3434L73.6922 54.4367L73.3047 56.6208ZM72.2391 56.6208C72.5915 56.5583 72.9522 56.5583 73.3047 56.6208L73.6922 54.4367C73.0834 54.3287 72.4604 54.3287 71.8516 54.4367L72.2391 56.6208ZM67.1287 57.5275L72.2391 56.6208L71.8516 54.4367L66.7412 55.3434L67.1287 57.5275Z" fill="url(#paint3_linear_3582_17044)" mask="url(#path-28-inside-2_3582_17044)"/>
</g>
<g filter="url(#filter4_d_3582_17044)">
<mask id="mask1_3582_17044" style="mask-type:alpha" maskUnits="userSpaceOnUse" x="109" y="50" width="47" height="102">
<mask id="path-30-inside-3_3582_17044" fill="white">
<path fill-rule="evenodd" clip-rule="evenodd" d="M133.529 52.6644C134.359 51.551 135.666 50.895 137.055 50.895C139.483 50.895 141.452 52.8636 141.452 55.2919V107.268C149.967 110.671 155.982 118.986 155.982 128.703C155.982 141.449 145.634 151.782 132.869 151.782C120.104 151.782 109.756 141.449 109.756 128.703C109.756 118.987 115.769 110.673 124.282 107.27V97.8502C124.282 96.0484 124.867 94.2953 125.949 92.8546L126.356 92.3131C128.628 89.2887 128.539 85.1037 126.142 82.1779C124.939 80.7102 124.282 78.8713 124.282 76.9739V75.38C124.282 74.2598 124.683 73.1767 125.413 72.3268L126.358 71.2262C127.422 69.9864 127.351 68.136 126.195 66.9816C125.097 65.8852 124.97 64.149 125.897 62.9049L133.529 52.6644ZM140.133 143.21C144.145 143.21 147.397 139.963 147.397 135.957C147.397 131.951 144.145 128.704 140.133 128.704C136.121 128.704 132.869 131.951 132.869 135.957C132.869 139.963 136.121 143.21 140.133 143.21Z"/>
</mask>
<path fill-rule="evenodd" clip-rule="evenodd" d="M133.529 52.6644C134.359 51.551 135.666 50.895 137.055 50.895C139.483 50.895 141.452 52.8636 141.452 55.2919V107.268C149.967 110.671 155.982 118.986 155.982 128.703C155.982 141.449 145.634 151.782 132.869 151.782C120.104 151.782 109.756 141.449 109.756 128.703C109.756 118.987 115.769 110.673 124.282 107.27V97.8502C124.282 96.0484 124.867 94.2953 125.949 92.8546L126.356 92.3131C128.628 89.2887 128.539 85.1037 126.142 82.1779C124.939 80.7102 124.282 78.8713 124.282 76.9739V75.38C124.282 74.2598 124.683 73.1767 125.413 72.3268L126.358 71.2262C127.422 69.9864 127.351 68.136 126.195 66.9816C125.097 65.8852 124.97 64.149 125.897 62.9049L133.529 52.6644ZM140.133 143.21C144.145 143.21 147.397 139.963 147.397 135.957C147.397 131.951 144.145 128.704 140.133 128.704C136.121 128.704 132.869 131.951 132.869 135.957C132.869 139.963 136.121 143.21 140.133 143.21Z" fill="#D9D9D9"/>
<path d="M133.529 52.6644L134.419 53.3272L133.529 52.6644ZM141.452 107.268H140.343V108.02L141.04 108.298L141.452 107.268ZM124.282 107.27L124.694 108.3L125.391 108.021V107.27H124.282ZM125.949 92.8546L125.063 92.1885L125.063 92.1885L125.949 92.8546ZM126.356 92.3131L127.243 92.9792H127.243L126.356 92.3131ZM126.142 82.1779L125.284 82.8809L125.284 82.8809L126.142 82.1779ZM125.413 72.3268L124.571 71.6044L124.571 71.6044L125.413 72.3268ZM126.358 71.2262L127.199 71.9486L127.199 71.9486L126.358 71.2262ZM126.195 66.9816L126.978 66.1968L126.195 66.9816ZM125.897 62.9049L125.008 62.2422V62.2422L125.897 62.9049ZM137.055 49.7859C135.316 49.7859 133.679 50.6074 132.64 52.0017L134.419 53.3272C135.039 52.4946 136.016 52.0041 137.055 52.0041V49.7859ZM142.561 55.2919C142.561 52.2511 140.096 49.7859 137.055 49.7859V52.0041C138.871 52.0041 140.343 53.4761 140.343 55.2919H142.561ZM142.561 107.268V55.2919H140.343V107.268H142.561ZM157.091 128.703C157.091 118.516 150.785 109.803 141.863 106.238L141.04 108.298C149.149 111.539 154.873 119.455 154.873 128.703H157.091ZM132.869 152.891C146.245 152.891 157.091 142.063 157.091 128.703H154.873C154.873 140.835 145.023 150.673 132.869 150.673V152.891ZM108.647 128.703C108.647 142.063 119.493 152.891 132.869 152.891V150.673C120.715 150.673 110.865 140.835 110.865 128.703H108.647ZM123.87 106.24C114.951 109.806 108.647 118.517 108.647 128.703H110.865C110.865 119.457 116.587 111.541 124.694 108.3L123.87 106.24ZM123.173 97.8502V107.27H125.391V97.8502H123.173ZM125.063 92.1885C123.836 93.8213 123.173 95.8081 123.173 97.8502H125.391C125.391 96.2886 125.898 94.7693 126.836 93.5207L125.063 92.1885ZM125.469 91.6471L125.063 92.1885L126.836 93.5207L127.243 92.9792L125.469 91.6471ZM125.284 82.8809C127.358 85.4114 127.434 89.0312 125.469 91.6471L127.243 92.9792C129.821 89.5463 129.721 84.796 127 81.475L125.284 82.8809ZM123.173 76.9739C123.173 79.1276 123.919 81.2149 125.284 82.8809L127 81.475C125.96 80.2056 125.391 78.615 125.391 76.9739H123.173ZM123.173 75.38V76.9739H125.391V75.38H123.173ZM124.571 71.6044C123.669 72.6554 123.173 73.9948 123.173 75.38H125.391C125.391 74.5249 125.697 73.698 126.254 73.0492L124.571 71.6044ZM125.516 70.5038L124.571 71.6044L126.254 73.0492L127.199 71.9486L125.516 70.5038ZM125.411 67.7664C126.157 68.5109 126.202 69.7043 125.516 70.5038L127.199 71.9486C128.641 70.2686 128.545 67.7611 126.978 66.1968L125.411 67.7664ZM125.008 62.2422C123.751 63.9281 123.923 66.2807 125.411 67.7664L126.978 66.1968C126.27 65.4897 126.188 64.37 126.786 63.5677L125.008 62.2422ZM132.64 52.0017L125.008 62.2422L126.786 63.5677L134.419 53.3272L132.64 52.0017ZM146.288 135.957C146.288 139.349 143.534 142.101 140.133 142.101V144.319C144.756 144.319 148.506 140.577 148.506 135.957H146.288ZM140.133 129.813C143.534 129.813 146.288 132.565 146.288 135.957H148.506C148.506 131.337 144.756 127.594 140.133 127.594V129.813ZM133.978 135.957C133.978 132.565 136.732 129.813 140.133 129.813V127.594C135.51 127.594 131.76 131.337 131.76 135.957H133.978ZM140.133 142.101C136.732 142.101 133.978 139.349 133.978 135.957H131.76C131.76 140.577 135.51 144.319 140.133 144.319V142.101Z" fill="white" mask="url(#path-30-inside-3_3582_17044)"/>
</mask>
<g mask="url(#mask1_3582_17044)">
<g filter="url(#filter5_d_3582_17044)">
<rect x="138.151" y="106.943" width="1.32074" height="56.7076" transform="rotate(-180 138.151 106.943)" fill="#5AF77A"/>
<rect x="137.821" y="106.613" width="0.660368" height="56.0473" transform="rotate(-180 137.821 106.613)" stroke="#5AF77A" stroke-width="0.660368"/>
</g>
<g filter="url(#filter6_d_3582_17044)">
<rect x="134.849" y="106.943" width="2.64149" height="56.7076" transform="rotate(-180 134.849 106.943)" fill="#5AF77A"/>
<rect x="134.294" y="106.389" width="1.53241" height="55.5985" transform="rotate(-180 134.294 106.389)" stroke="#5AF77A" stroke-width="1.10908"/>
</g>
</g>
<mask id="path-36-inside-4_3582_17044" fill="white">
<path fill-rule="evenodd" clip-rule="evenodd" d="M133.531 52.6639C134.361 51.5505 135.668 50.8945 137.056 50.8945C139.485 50.8945 141.453 52.8631 141.453 55.2915V107.269C149.968 110.672 155.982 118.986 155.982 128.703C155.982 141.449 145.634 151.782 132.869 151.782C120.104 151.782 109.756 141.449 109.756 128.703C109.756 118.986 115.77 110.672 124.284 107.269V97.8497C124.284 96.0479 124.869 94.2948 125.951 92.8541L126.357 92.3126C128.629 89.2882 128.541 85.1032 126.143 82.1774C124.941 80.7098 124.284 78.8709 124.284 76.9734V75.3795C124.284 74.2593 124.685 73.1762 125.414 72.3263L126.359 71.2257C127.423 69.986 127.352 68.1355 126.196 66.9811C125.098 65.8847 124.971 64.1485 125.899 62.9044L133.531 52.6639ZM140.134 143.21C144.146 143.21 147.398 139.963 147.398 135.957C147.398 131.951 144.146 128.703 140.134 128.703C136.122 128.703 132.87 131.951 132.87 135.957C132.87 139.963 136.122 143.21 140.134 143.21Z"/>
</mask>
<path fill-rule="evenodd" clip-rule="evenodd" d="M133.531 52.6639C134.361 51.5505 135.668 50.8945 137.056 50.8945C139.485 50.8945 141.453 52.8631 141.453 55.2915V107.269C149.968 110.672 155.982 118.986 155.982 128.703C155.982 141.449 145.634 151.782 132.869 151.782C120.104 151.782 109.756 141.449 109.756 128.703C109.756 118.986 115.77 110.672 124.284 107.269V97.8497C124.284 96.0479 124.869 94.2948 125.951 92.8541L126.357 92.3126C128.629 89.2882 128.541 85.1032 126.143 82.1774C124.941 80.7098 124.284 78.8709 124.284 76.9734V75.3795C124.284 74.2593 124.685 73.1762 125.414 72.3263L126.359 71.2257C127.423 69.986 127.352 68.1355 126.196 66.9811C125.098 65.8847 124.971 64.1485 125.899 62.9044L133.531 52.6639ZM140.134 143.21C144.146 143.21 147.398 139.963 147.398 135.957C147.398 131.951 144.146 128.703 140.134 128.703C136.122 128.703 132.87 131.951 132.87 135.957C132.87 139.963 136.122 143.21 140.134 143.21Z" fill="url(#paint4_linear_3582_17044)" fill-opacity="0.2"/>
<path d="M133.531 52.6639L132.642 52.0012L132.642 52.0012L133.531 52.6639ZM141.453 107.269H140.344V108.02L141.042 108.299L141.453 107.269ZM124.284 107.269L124.695 108.299L125.393 108.02V107.269H124.284ZM125.951 92.8541L125.064 92.1881L125.064 92.1881L125.951 92.8541ZM126.357 92.3126L127.244 92.9787H127.244L126.357 92.3126ZM126.143 82.1774L125.286 82.8804L125.286 82.8804L126.143 82.1774ZM125.414 72.3263L124.573 71.6039L124.573 71.6039L125.414 72.3263ZM126.359 71.2257L127.201 71.9481L126.359 71.2257ZM126.196 66.9811L126.98 66.1963L126.196 66.9811ZM125.899 62.9044L125.009 62.2417V62.2417L125.899 62.9044ZM137.056 49.7855C135.317 49.7855 133.681 50.6069 132.642 52.0012L134.42 53.3267C135.041 52.4941 136.018 52.0036 137.056 52.0036V49.7855ZM142.562 55.2915C142.562 52.2506 140.097 49.7855 137.056 49.7855V52.0036C138.872 52.0036 140.344 53.4756 140.344 55.2915H142.562ZM142.562 107.269V55.2915H140.344V107.269H142.562ZM157.091 128.703C157.091 118.516 150.785 109.804 141.865 106.239L141.042 108.299C149.15 111.539 154.873 119.456 154.873 128.703H157.091ZM132.869 152.891C146.245 152.891 157.091 142.063 157.091 128.703H154.873C154.873 140.835 145.023 150.673 132.869 150.673V152.891ZM108.647 128.703C108.647 142.063 119.493 152.891 132.869 152.891V150.673C120.715 150.673 110.865 140.835 110.865 128.703H108.647ZM123.872 106.239C114.952 109.805 108.647 118.517 108.647 128.703H110.865C110.865 119.456 116.587 111.54 124.695 108.299L123.872 106.239ZM123.175 97.8497V107.269H125.393V97.8497H123.175ZM125.064 92.1881C123.838 93.8208 123.175 95.8077 123.175 97.8497H125.393C125.393 96.2881 125.9 94.7688 126.838 93.5202L125.064 92.1881ZM125.471 91.6466L125.064 92.1881L126.838 93.5202L127.244 92.9787L125.471 91.6466ZM125.286 82.8804C127.359 85.411 127.436 89.0307 125.471 91.6466L127.244 92.9787C129.823 89.5458 129.722 84.7955 127.001 81.4745L125.286 82.8804ZM123.175 76.9734C123.175 79.1272 123.92 81.2144 125.286 82.8804L127.001 81.4745C125.961 80.2051 125.393 78.6146 125.393 76.9734H123.175ZM123.175 75.3795V76.9734H125.393V75.3795H123.175ZM124.573 71.6039C123.671 72.655 123.175 73.9943 123.175 75.3795H125.393C125.393 74.5244 125.699 73.6975 126.256 73.0487L124.573 71.6039ZM125.518 70.5033L124.573 71.6039L126.256 73.0487L127.201 71.9481L125.518 70.5033ZM125.412 67.7659C126.158 68.5104 126.204 69.7038 125.518 70.5033L127.201 71.9481C128.643 70.2681 128.546 67.7606 126.98 66.1963L125.412 67.7659ZM125.009 62.2417C123.753 63.9276 123.925 66.2802 125.412 67.7659L126.98 66.1963C126.272 65.4892 126.19 64.3695 126.788 63.5672L125.009 62.2417ZM132.642 52.0012L125.009 62.2417L126.788 63.5672L134.42 53.3267L132.642 52.0012ZM146.289 135.957C146.289 139.349 143.535 142.101 140.134 142.101V144.319C144.757 144.319 148.507 140.577 148.507 135.957H146.289ZM140.134 129.812C143.535 129.812 146.289 132.565 146.289 135.957H148.507C148.507 131.337 144.757 127.594 140.134 127.594V129.812ZM133.979 135.957C133.979 132.565 136.733 129.812 140.134 129.812V127.594C135.511 127.594 131.761 131.337 131.761 135.957H133.979ZM140.134 142.101C136.733 142.101 133.979 139.349 133.979 135.957H131.761C131.761 140.577 135.511 144.319 140.134 144.319V142.101Z" fill="url(#paint5_linear_3582_17044)" mask="url(#path-36-inside-4_3582_17044)"/>
</g>
</g>
<defs>
<filter id="filter0_f_3582_17044" x="-40.7618" y="-46.1966" width="287.225" height="294.719" filterUnits="userSpaceOnUse" color-interpolation-filters="sRGB">
<feFlood flood-opacity="0" result="BackgroundImageFix"/>
<feBlend mode="normal" in="SourceGraphic" in2="BackgroundImageFix" result="shape"/>
<feGaussianBlur stdDeviation="41.5904" result="effect1_foregroundBlur_3582_17044"/>
</filter>
<filter id="filter1_d_3582_17044" x="15.7238" y="9.42624" width="114.091" height="167.08" filterUnits="userSpaceOnUse" color-interpolation-filters="sRGB">
<feFlood flood-opacity="0" result="BackgroundImageFix"/>
<feColorMatrix in="SourceAlpha" type="matrix" values="0 0 0 0 0 0 0 0 0 0 0 0 0 0 0 0 0 0 127 0" result="hardAlpha"/>
<feOffset dy="-8.31807"/>
<feGaussianBlur stdDeviation="16.6361"/>
<feComposite in2="hardAlpha" operator="int"/>
<feColorMatrix type="matrix" values="0 0 0 0 0.909804 0 0 0 0 0.686275 0 0 0 0 0.12549 0 0 0 0.2 0"/>
<feBlend mode="normal" in2="BackgroundImageFix" result="effect1_dropShadow_3582_17044"/>
<feBlend mode="normal" in="SourceGraphic" in2="effect1_dropShadow_3582_17044" result="shape"/>
</filter>
<filter id="filter2_d_3582_17044" x="62.539" y="90.7804" width="15.1838" height="69.2524" filterUnits="userSpaceOnUse" color-interpolation-filters="sRGB">
<feFlood flood-opacity="0" result="BackgroundImageFix"/>
<feColorMatrix in="SourceAlpha" type="matrix" values="0 0 0 0 0 0 0 0 0 0 0 0 0 0 0 0 0 0 127 0" result="hardAlpha"/>
<feOffset/>
<feGaussianBlur stdDeviation="3.46586"/>
<feComposite in2="hardAlpha" operator="int"/>
<feColorMatrix type="matrix" values="0 0 0 0 0.901961 0 0 0 0 0.705882 0 0 0 0 0.133333 0 0 0 1 0"/>
<feBlend mode="normal" in2="BackgroundImageFix" result="effect1_dropShadow_3582_17044"/>
<feBlend mode="normal" in="SourceGraphic" in2="effect1_dropShadow_3582_17044" result="shape"/>
</filter>
<filter id="filter3_d_3582_17044" x="65.8407" y="90.7804" width="16.5051" height="69.2524" filterUnits="userSpaceOnUse" color-interpolation-filters="sRGB">
<feFlood flood-opacity="0" result="BackgroundImageFix"/>
<feColorMatrix in="SourceAlpha" type="matrix" values="0 0 0 0 0 0 0 0 0 0 0 0 0 0 0 0 0 0 127 0" result="hardAlpha"/>
<feOffset/>
<feGaussianBlur stdDeviation="3.46586"/>
<feComposite in2="hardAlpha" operator="int"/>
<feColorMatrix type="matrix" values="0 0 0 0 0.901961 0 0 0 0 0.705882 0 0 0 0 0.133333 0 0 0 1 0"/>
<feBlend mode="normal" in2="BackgroundImageFix" result="effect1_dropShadow_3582_17044"/>
<feBlend mode="normal" in="SourceGraphic" in2="effect1_dropShadow_3582_17044" result="shape"/>
</filter>
<filter id="filter4_d_3582_17044" x="76.4836" y="25.9403" width="112.77" height="167.432" filterUnits="userSpaceOnUse" color-interpolation-filters="sRGB">
<feFlood flood-opacity="0" result="BackgroundImageFix"/>
<feColorMatrix in="SourceAlpha" type="matrix" values="0 0 0 0 0 0 0 0 0 0 0 0 0 0 0 0 0 0 127 0" result="hardAlpha"/>
<feOffset dy="8.31807"/>
<feGaussianBlur stdDeviation="16.6361"/>
<feComposite in2="hardAlpha" operator="int"/>
<feColorMatrix type="matrix" values="0 0 0 0 0.341176 0 0 0 0 0.960784 0 0 0 0 0.494118 0 0 0 0.16 0"/>
<feBlend mode="normal" in2="BackgroundImageFix" result="effect1_dropShadow_3582_17044"/>
<feBlend mode="normal" in="SourceGraphic" in2="effect1_dropShadow_3582_17044" result="shape"/>
</filter>
<filter id="filter5_d_3582_17044" x="129.899" y="43.3039" width="15.1838" height="70.571" filterUnits="userSpaceOnUse" color-interpolation-filters="sRGB">
<feFlood flood-opacity="0" result="BackgroundImageFix"/>
<feColorMatrix in="SourceAlpha" type="matrix" values="0 0 0 0 0 0 0 0 0 0 0 0 0 0 0 0 0 0 127 0" result="hardAlpha"/>
<feOffset/>
<feGaussianBlur stdDeviation="3.46586"/>
<feComposite in2="hardAlpha" operator="int"/>
<feColorMatrix type="matrix" values="0 0 0 0 0.352941 0 0 0 0 0.968627 0 0 0 0 0.478431 0 0 0 1 0"/>
<feBlend mode="normal" in2="BackgroundImageFix" result="effect1_dropShadow_3582_17044"/>
<feBlend mode="normal" in="SourceGraphic" in2="effect1_dropShadow_3582_17044" result="shape"/>
</filter>
<filter id="filter6_d_3582_17044" x="125.275" y="43.3039" width="16.5051" height="70.571" filterUnits="userSpaceOnUse" color-interpolation-filters="sRGB">
<feFlood flood-opacity="0" result="BackgroundImageFix"/>
<feColorMatrix in="SourceAlpha" type="matrix" values="0 0 0 0 0 0 0 0 0 0 0 0 0 0 0 0 0 0 127 0" result="hardAlpha"/>
<feOffset/>
<feGaussianBlur stdDeviation="3.46586"/>
<feComposite in2="hardAlpha" operator="int"/>
<feColorMatrix type="matrix" values="0 0 0 0 0.352941 0 0 0 0 0.968627 0 0 0 0 0.478431 0 0 0 1 0"/>
<feBlend mode="normal" in2="BackgroundImageFix" result="effect1_dropShadow_3582_17044"/>
<feBlend mode="normal" in="SourceGraphic" in2="effect1_dropShadow_3582_17044" result="shape"/>
</filter>
<radialGradient id="paint0_radial_3582_17044" cx="0" cy="0" r="1" gradientUnits="userSpaceOnUse" gradientTransform="translate(204 32.6076) rotate(161.411) scale(215.229 97.6687)">
<stop stop-color="#4E5968"/>
<stop offset="0.884788" stop-color="#313F54"/>
</radialGradient>
<linearGradient id="paint1_linear_3582_17044" x1="30.2487" y1="86.5974" x2="170.836" y2="86.5975" gradientUnits="userSpaceOnUse">
<stop offset="0.357695" stop-color="#E7AE20"/>
<stop offset="0.678238" stop-color="#57F57F"/>
</linearGradient>
<linearGradient id="paint2_linear_3582_17044" x1="72.7694" y1="51.0166" x2="72.7694" y2="151.552" gradientUnits="userSpaceOnUse">
<stop stop-color="#E6B422"/>
<stop offset="1" stop-color="#FF5C00" stop-opacity="0.2"/>
</linearGradient>
<linearGradient id="paint3_linear_3582_17044" x1="72.7694" y1="51.0166" x2="72.7694" y2="151.552" gradientUnits="userSpaceOnUse">
<stop stop-color="#E6B422"/>
<stop offset="1" stop-color="#E6B422" stop-opacity="0"/>
</linearGradient>
<linearGradient id="paint4_linear_3582_17044" x1="132.869" y1="151.782" x2="132.869" y2="50.8945" gradientUnits="userSpaceOnUse">
<stop stop-color="#5AF77A"/>
<stop offset="1" stop-color="#28CFCF" stop-opacity="0.2"/>
</linearGradient>
<linearGradient id="paint5_linear_3582_17044" x1="132.869" y1="151.782" x2="132.869" y2="50.8945" gradientUnits="userSpaceOnUse">
<stop stop-color="#5AF77A"/>
<stop offset="1" stop-color="#5AF77A" stop-opacity="0"/>
</linearGradient>
<clipPath id="clip0_3582_17044">
<rect width="204" height="203" fill="white" transform="translate(0.5 0.0117188)"/>
</clipPath>
<clipPath id="clip1_3582_17044">
<rect width="21.1318" height="21.1005" fill="white" transform="translate(60.3301 43.658)"/>
</clipPath>
<clipPath id="clip2_3582_17044">
<rect width="21.1318" height="21.1005" fill="white" transform="translate(123.726 43.658)"/>
</clipPath>
<clipPath id="clip3_3582_17044">
<rect width="21.1318" height="21.1005" fill="white" transform="translate(28.6318 43.658)"/>
</clipPath>
<clipPath id="clip4_3582_17044">
<rect width="21.1318" height="21.1005" fill="white" transform="translate(92.0283 43.658)"/>
</clipPath>
<clipPath id="clip5_3582_17044">
<rect width="21.1318" height="21.1005" fill="white" transform="translate(155.424 43.658)"/>
</clipPath>
<clipPath id="clip6_3582_17044">
<rect width="21.1318" height="21.1005" fill="white" transform="translate(155.424 75.3086)"/>
</clipPath>
<clipPath id="clip7_3582_17044">
<rect width="21.1318" height="21.1005" fill="white" transform="translate(60.3301 106.959)"/>
</clipPath>
<clipPath id="clip8_3582_17044">
<rect width="21.1318" height="21.1005" fill="white" transform="translate(123.726 106.959)"/>
</clipPath>
<clipPath id="clip9_3582_17044">
<rect width="21.1318" height="21.1005" fill="white" transform="translate(28.6318 106.959)"/>
</clipPath>
<clipPath id="clip10_3582_17044">
<rect width="21.1318" height="21.1005" fill="white" transform="translate(92.0283 106.959)"/>
</clipPath>
<clipPath id="clip11_3582_17044">
<rect width="21.1318" height="21.1005" fill="white" transform="translate(155.424 106.959)"/>
</clipPath>
<clipPath id="clip12_3582_17044">
<rect width="21.1318" height="21.1005" fill="white" transform="translate(60.3301 75.3086)"/>
</clipPath>
<clipPath id="clip13_3582_17044">
<rect width="21.1318" height="21.1005" fill="white" transform="translate(123.726 75.3086)"/>
</clipPath>
<clipPath id="clip14_3582_17044">
<rect width="21.1318" height="21.1005" fill="white" transform="translate(28.6318 75.3086)"/>
</clipPath>
<clipPath id="clip15_3582_17044">
<rect width="21.1318" height="21.1005" fill="white" transform="translate(92.0283 75.3086)"/>
</clipPath>
<clipPath id="clip16_3582_17044">
<rect width="21.1318" height="21.1005" fill="white" transform="translate(60.3301 138.61)"/>
</clipPath>
<clipPath id="clip17_3582_17044">
<rect width="21.1318" height="21.1005" fill="white" transform="translate(123.726 138.61)"/>
</clipPath>
<clipPath id="clip18_3582_17044">
<rect width="21.1318" height="21.1005" fill="white" transform="translate(28.6318 138.61)"/>
</clipPath>
<clipPath id="clip19_3582_17044">
<rect width="21.1318" height="21.1005" fill="white" transform="translate(92.0283 138.61)"/>
</clipPath>
<clipPath id="clip20_3582_17044">
<rect width="21.1318" height="21.1005" fill="white" transform="translate(155.424 138.61)"/>
</clipPath>
</defs>
</svg>
