<svg width="36" height="36" viewBox="0 0 36 36" fill="none" xmlns="http://www.w3.org/2000/svg">
<path d="M24.3505 24.3504L23.5033 25.2L25.2001 26.8968L26.0497 26.0496L24.3505 24.3504ZM32.4001 18L33.2497 18.8496L34.0969 18L33.2497 17.1504L32.4001 18ZM26.0497 9.9504L25.2001 9.1032L23.5033 10.8L24.3505 11.6496L26.0497 9.9504ZM9.95052 26.0496L10.8001 26.8968L12.4969 25.2L11.6497 24.3504L9.95052 26.0496ZM3.60012 18L2.75052 17.1504L1.90332 18L2.75052 18.8496L3.60012 18ZM11.6497 11.6496L12.4969 10.8L10.8001 9.1032L9.95052 9.9504L11.6497 11.6496ZM26.0497 26.0496L33.2497 18.8496L31.5505 17.1504L24.3505 24.3504L26.0497 26.0496ZM33.2497 17.1504L26.0497 9.9504L24.3505 11.6496L31.5505 18.8496L33.2497 17.1504ZM11.6497 24.3504L4.44972 17.1504L2.75052 18.8496L9.95052 26.0496L11.6497 24.3504ZM4.44972 18.8496L11.6497 11.6496L9.95052 9.9504L2.75052 17.1504L4.44972 18.8496ZM19.2169 3.4032L14.4169 32.2032L16.7833 32.5968L21.5833 3.7968L19.2169 3.4032Z" fill="white"/>
</svg>
