<svg width="24" height="24" viewBox="0 0 24 24" fill="none" xmlns="http://www.w3.org/2000/svg">
<path d="M12 1C9.82441 1 7.69767 1.64514 5.88873 2.85383C4.07979 4.06253 2.66989 5.78049 1.83733 7.79048C1.00477 9.80047 0.786929 12.0122 1.21137 14.146C1.6358 16.2798 2.68345 18.2398 4.22183 19.7782C5.76021 21.3165 7.72022 22.3642 9.85401 22.7886C11.9878 23.2131 14.1995 22.9952 16.2095 22.1627C18.2195 21.3301 19.9375 19.9202 21.1462 18.1113C22.3549 16.3023 23 14.1756 23 12C22.9969 9.08356 21.837 6.28746 19.7748 4.22523C17.7125 2.16299 14.9164 1.00308 12 1ZM12 21.3077C10.1591 21.3077 8.35957 20.7618 6.82893 19.7391C5.29829 18.7163 4.10529 17.2627 3.40082 15.5619C2.69634 13.8611 2.51202 11.9897 2.87116 10.1842C3.2303 8.37864 4.11677 6.72017 5.41847 5.41847C6.72018 4.11676 8.37865 3.23029 10.1842 2.87115C11.9897 2.51201 13.8611 2.69634 15.5619 3.40081C17.2627 4.10529 18.7163 5.29828 19.7391 6.82892C20.7618 8.35956 21.3077 10.1591 21.3077 12C21.3049 14.4677 20.3234 16.8335 18.5784 18.5784C16.8335 20.3234 14.4677 21.3049 12 21.3077ZM16.6983 6.16577L9.92904 9.55038C9.76538 9.63259 9.6326 9.76538 9.55039 9.92904L6.16577 16.6983C6.1012 16.8273 6.0707 16.9707 6.07717 17.1149C6.08365 17.2591 6.12689 17.3992 6.20278 17.5219C6.27867 17.6447 6.38469 17.7459 6.51077 17.8162C6.63684 17.8864 6.77877 17.9232 6.92308 17.9231C7.05444 17.9229 7.184 17.8925 7.30173 17.8342L14.071 14.4496C14.2346 14.3674 14.3674 14.2346 14.4496 14.071L17.8342 7.30173C17.9141 7.14279 17.9418 6.96273 17.9135 6.78713C17.8852 6.61152 17.8022 6.44931 17.6765 6.32354C17.5507 6.19777 17.3885 6.11483 17.2129 6.0865C17.0373 6.05818 16.8572 6.08592 16.6983 6.16577ZM13.0577 13.0577L8.81529 15.1847L10.9423 10.9423L15.1889 8.81952L13.0577 13.0577Z" fill="#0085FF"/>
</svg>
