<svg width="53" height="52" viewBox="0 0 53 52" fill="none" xmlns="http://www.w3.org/2000/svg">
<g clip-path="url(#clip0_3079_2494)">
<path d="M40.0625 0H12.4375C5.70653 0 0.25 5.45653 0.25 12.1875V39.8125C0.25 46.5435 5.70653 52 12.4375 52H40.0625C46.7935 52 52.25 46.5435 52.25 39.8125V12.1875C52.25 5.45653 46.7935 0 40.0625 0Z" fill="#5865F2"/>
<mask id="mask0_3079_2494" style="mask-type:luminance" maskUnits="userSpaceOnUse" x="5" y="10" width="42" height="32">
<path d="M5.9375 10.3594H46.5625V41.8295H5.9375V10.3594Z" fill="white"/>
</mask>
<g mask="url(#mask0_3079_2494)">
<path d="M40.1747 14.1697C37.5696 13.0622 34.8204 12.2725 31.9958 11.8203C31.9702 11.8159 31.9437 11.8191 31.9201 11.8294C31.8965 11.8398 31.877 11.8568 31.8644 11.878C31.5112 12.4596 31.1199 13.2187 30.846 13.8152C27.7574 13.3869 24.6849 13.3869 21.6598 13.8152C21.3858 13.2053 20.9804 12.4596 20.6256 11.878C20.6124 11.8572 20.5928 11.8406 20.5694 11.8303C20.5459 11.82 20.5196 11.8165 20.494 11.8203C17.6692 12.2716 14.9198 13.0613 12.3151 14.1697C12.2928 14.1784 12.274 14.1934 12.2613 14.2124C7.0521 21.4197 5.62524 28.4497 6.32521 35.3927C6.32716 35.4097 6.33279 35.4262 6.34176 35.4412C6.35074 35.4561 6.36287 35.4693 6.37745 35.4798C9.81421 37.8173 13.1435 39.2363 16.4109 40.1769C16.4363 40.1839 16.4634 40.1836 16.4886 40.1759C16.5138 40.1683 16.5359 40.1537 16.5519 40.1341C17.3248 39.1565 18.0137 38.1259 18.6046 37.0421C18.6127 37.0273 18.6174 37.011 18.6182 36.9944C18.6191 36.9778 18.6161 36.9612 18.6095 36.9457C18.6029 36.9302 18.5929 36.9162 18.58 36.9045C18.5672 36.8929 18.5518 36.8839 18.5349 36.8782C17.4419 36.4942 16.4014 36.0263 15.4005 35.4947C15.3823 35.4847 15.367 35.4708 15.3559 35.4541C15.3449 35.4374 15.3385 35.4184 15.3372 35.3988C15.336 35.3793 15.3399 35.3597 15.3487 35.3419C15.3576 35.3241 15.371 35.3086 15.3878 35.2967C15.599 35.1505 15.8065 34.9999 16.0103 34.845C16.0281 34.8313 16.0497 34.8225 16.0726 34.8196C16.0956 34.8167 16.1189 34.8198 16.14 34.8286C22.7162 37.6091 29.8354 37.6091 36.3339 34.8286C36.3551 34.8193 36.3787 34.8157 36.402 34.8184C36.4253 34.821 36.4473 34.8297 36.4655 34.8435C36.6694 34.9993 36.8775 35.1504 37.0895 35.2967C37.1064 35.3085 37.1199 35.3239 37.1289 35.3416C37.1379 35.3594 37.142 35.3789 37.1409 35.3984C37.1398 35.418 37.1335 35.437 37.1226 35.4538C37.1117 35.4706 37.0966 35.4846 37.0784 35.4947C36.0769 36.0362 35.0279 36.4986 33.9424 36.8767C33.9256 36.8827 33.9103 36.8919 33.8975 36.9037C33.8848 36.9155 33.8749 36.9297 33.8684 36.9453C33.862 36.9609 33.8592 36.9776 33.8602 36.9943C33.8612 37.011 33.866 37.0273 33.8743 37.0421C34.4755 38.1173 35.1609 39.1503 35.9252 40.1326C35.9408 40.1527 35.9628 40.1678 35.9881 40.1757C36.0134 40.1837 36.0407 40.1841 36.0663 40.1769C39.3495 39.2363 42.6788 37.8173 46.1158 35.4798C46.1305 35.4698 46.1428 35.4569 46.1518 35.4422C46.1608 35.4274 46.1663 35.4111 46.168 35.3942C47.0058 27.3674 44.7646 20.3948 40.2269 14.2139C40.2158 14.1939 40.1972 14.1781 40.1747 14.1697ZM19.5866 31.1653C17.6067 31.1653 15.9753 29.482 15.9753 27.4147C15.9753 25.3474 17.5751 23.6641 19.5866 23.6641C21.6138 23.6641 23.2293 25.3623 23.1976 27.4147C23.1976 29.482 21.5982 31.1653 19.5866 31.1653ZM32.9383 31.1653C30.9583 31.1653 29.3271 29.482 29.3271 27.4147C29.3271 25.3474 30.9268 23.6641 32.9383 23.6641C34.9655 23.6641 36.581 25.3623 36.5494 27.4147C36.5494 29.482 34.9655 31.1653 32.9383 31.1653Z" fill="white"/>
</g>
</g>
<defs>
<clipPath id="clip0_3079_2494">
<rect x="0.25" width="52" height="52" rx="26" fill="white"/>
</clipPath>
</defs>
</svg>
