<svg width="57" height="56" viewBox="0 0 57 56" fill="none" xmlns="http://www.w3.org/2000/svg">
<rect x="0.5" width="56" height="56" rx="12" fill="#232D3D"/>
<g clip-path="url(#clip0_4014_13546)">
<circle cx="28.5" cy="28" r="20" fill="#FFCB5A"/>
<circle cx="28.5" cy="28" r="16" fill="#E6A71E"/>
<g clip-path="url(#clip1_4014_13546)">
<path d="M31.7 35.2H32.6V37H20V35.2H20.9V20.8C20.9 19.81 21.71 19 22.7 19H29.9C30.3774 19 30.8352 19.1896 31.1728 19.5272C31.5104 19.8648 31.7 20.3226 31.7 20.8V35.2ZM22.7 20.8V26.2H29.9V20.8H22.7ZM31.7 28H32.6C33.0774 28 33.5352 28.1896 33.8728 28.5272C34.2104 28.8648 34.4 29.3226 34.4 29.8V32.5C34.4 32.7387 34.4948 32.9676 34.6636 33.1364C34.8324 33.3052 35.0613 33.4 35.3 33.4C35.5387 33.4 35.7676 33.3052 35.9364 33.1364C36.1052 32.9676 36.2 32.7387 36.2 32.5V28L34.4 26.2V24.4L32.6 22.6L33.5 21.7L38 26.2V32.5C38 33.2161 37.7155 33.9028 37.2092 34.4092C36.7028 34.9155 36.0161 35.2 35.3 35.2C34.5839 35.2 33.8972 34.9155 33.3908 34.4092C32.8845 33.9028 32.6 33.2161 32.6 32.5V29.8H31.7V28Z" fill="white"/>
</g>
</g>
<defs>
<clipPath id="clip0_4014_13546">
<rect width="40" height="40" fill="white" transform="translate(8.5 8)"/>
</clipPath>
<clipPath id="clip1_4014_13546">
<rect width="18" height="18" fill="white" transform="translate(20 19)"/>
</clipPath>
</defs>
</svg>
