<svg width="57" height="56" viewBox="0 0 57 56" fill="none" xmlns="http://www.w3.org/2000/svg">
<rect x="0.5" width="56" height="56" rx="12" fill="#232D3D"/>
<g clip-path="url(#clip0_4014_13545)">
<path d="M47.9662 27.734C47.9662 26.0749 47.8315 24.8642 47.5402 23.6086H28.5947V31.0971H39.7153C39.4912 32.958 38.2804 35.7606 35.5899 37.6439L35.5522 37.8946L41.5424 42.5351L41.9574 42.5765C45.7689 39.0564 47.9662 33.8772 47.9662 27.734Z" fill="#4285F4"/>
<path d="M28.5956 47.4647C34.0437 47.4647 38.6175 45.6709 41.9583 42.577L35.5908 37.6443C33.8868 38.8326 31.5999 39.6622 28.5956 39.6622C23.2595 39.6622 18.7306 36.1422 17.1161 31.277L16.8795 31.2971L10.6508 36.1175L10.5693 36.344C13.8876 42.9356 20.7035 47.4647 28.5956 47.4647Z" fill="#34A853"/>
<path d="M17.6991 32.147C17.2731 30.8914 17.0266 29.5461 17.0266 28.1561C17.0266 26.7659 17.2731 25.4207 17.6767 24.1652L17.6654 23.8978L11.3587 18.9999L11.1523 19.098C9.78473 21.8334 9 24.9051 9 28.1561C9 31.407 9.78473 34.4786 11.1523 37.2139L17.6991 32.147Z" fill="#FBBC05"/>
<path d="M28.5956 14.9089C32.3846 14.9089 34.9405 16.5456 36.3979 17.9134L42.0927 12.353C38.5952 9.10201 34.0437 7.10657 28.5956 7.10657C20.7035 7.10657 13.8876 11.6355 10.5693 18.2271L17.0937 23.2943C18.7306 18.429 23.2595 14.9089 28.5956 14.9089Z" fill="#EB4335"/>
</g>
<defs>
<clipPath id="clip0_4014_13545">
<rect x="8.5" y="8" width="40" height="40" rx="20" fill="white"/>
</clipPath>
</defs>
</svg>
