<svg width="90" height="95" viewBox="0 0 90 95" fill="none" xmlns="http://www.w3.org/2000/svg">
<g filter="url(#filter0_d_3118_3187)">
<path d="M16 37.7692V23.6237C16 22.3078 16.8576 21.1455 18.1149 20.7572L39.1149 14.2733C39.6916 14.0952 40.3084 14.0952 40.8851 14.2733L61.8851 20.7572C63.1424 21.1455 64 22.3078 64 23.6237V37.7692C64 57.5 45 69 40 69C35 69 16 57.5 16 37.7692Z" fill="#904FDB"/>
</g>
<path d="M40.5 8.64929C38.425 7.69566 36.6531 6.7687 35.5 6L35.1379 5.75863C34.4519 5.30124 33.5554 5.3118 32.8802 5.78524L32.574 6C28.9776 8.64829 17.3136 13.1748 11.4822 14.1998C10.3943 14.391 9.5 15.3057 9.5 16.4103V30.7692C9.5 32.8145 9.78338 34.91 10.2997 37M50 12.407C52.4466 13.2296 54.7435 13.878 56.5147 14.1959C57.6019 14.3911 58.5 15.3057 58.5 16.4103V30.7692C58.5 52.5 38.5 62 34 62C29.5 62 19.5253 55.4306 14.5 46.9963" stroke="white" stroke-width="3" stroke-linecap="round" stroke-linejoin="round"/>
<path d="M34 22C29.0294 22 25 26.0294 25 31C25 34.1204 26.588 36.8699 29 38.4845V42C29 44.7614 31.2386 47 34 47C36.7614 47 39 44.7614 39 42V38.4845C41.412 36.8699 43 34.1204 43 31C43 26.0294 38.9706 22 34 22Z" stroke="white" stroke-width="3"/>
<defs>
<filter id="filter0_d_3118_3187" x="8" y="6.13977" width="82" height="88.8602" filterUnits="userSpaceOnUse" color-interpolation-filters="sRGB">
<feFlood flood-opacity="0" result="BackgroundImageFix"/>
<feColorMatrix in="SourceAlpha" type="matrix" values="0 0 0 0 0 0 0 0 0 0 0 0 0 0 0 0 0 0 127 0" result="hardAlpha"/>
<feOffset dx="9" dy="9"/>
<feGaussianBlur stdDeviation="8.5"/>
<feComposite in2="hardAlpha" operator="out"/>
<feColorMatrix type="matrix" values="0 0 0 0 0.564706 0 0 0 0 0.309804 0 0 0 0 0.858824 0 0 0 0.25 0"/>
<feBlend mode="normal" in2="BackgroundImageFix" result="effect1_dropShadow_3118_3187"/>
<feBlend mode="normal" in="SourceGraphic" in2="effect1_dropShadow_3118_3187" result="shape"/>
</filter>
</defs>
</svg>
