<svg width="225" height="176" viewBox="0 0 225 176" fill="none" xmlns="http://www.w3.org/2000/svg">
<rect width="225" height="176" rx="16" fill="#34342B"/>
<g filter="url(#filter0_f_4021_13629)">
<path d="M112.078 135.289C138.195 135.289 159.367 114.117 159.367 87.9999C159.367 82.7557 158.513 77.7109 156.937 72.9968C156.712 72.3227 156.074 71.8787 155.364 71.8787H127.691C125.965 71.8787 125.094 74.5619 126.218 75.8712C129.016 79.1303 130.707 83.3677 130.707 87.9999C130.707 91.8467 129.541 95.4212 127.543 98.3892L107.291 132.693C106.674 133.738 107.328 135.069 108.537 135.158C109.706 135.245 110.887 135.289 112.078 135.289Z" fill="url(#paint0_angular_4021_13629)"/>
<path d="M64.7891 87.9999C64.7891 77.3864 68.2856 67.5894 74.1897 59.6983L76.2018 57.1905C84.8743 47.1011 97.7299 40.7111 112.078 40.7111C130.67 40.7111 146.756 51.4401 154.482 67.0443C155.02 68.1311 154.206 69.371 152.994 69.371H112.078C104.138 69.371 97.359 74.3377 94.6772 81.3336C94.0854 82.8775 91.6113 83.3545 90.7722 81.9298L76.2018 57.1905L74.1897 59.6983L96.86 98.7474C100.234 103.516 105.792 106.629 112.078 106.629C113.002 106.629 113.91 106.562 114.798 106.432C116.437 106.192 118.07 108.125 117.235 109.556L103.371 133.33C103.007 133.953 102.286 134.279 101.583 134.12C80.5167 129.346 64.7891 110.51 64.7891 87.9999Z" fill="url(#paint1_angular_4021_13629)"/>
<path d="M65.2113 87.9999C65.2113 77.7105 68.5266 68.1966 74.1475 60.4666L96.4948 98.9594L96.5044 98.9758L96.5153 98.9913C99.9648 103.867 105.65 107.051 112.078 107.051C113.023 107.051 113.951 106.982 114.859 106.849C115.496 106.756 116.176 107.087 116.615 107.632C117.053 108.176 117.172 108.826 116.871 109.343L103.006 133.117C102.733 133.587 102.194 133.826 101.676 133.708C80.7982 128.977 65.2113 110.308 65.2113 87.9999ZM76.7195 57.2375C85.3122 47.3694 97.9666 41.1333 112.078 41.1333C130.503 41.1333 146.446 51.7657 154.104 67.2316C154.494 68.0211 153.912 68.9488 152.994 68.9488H112.078C103.958 68.9488 97.0253 74.0287 94.283 81.1825C94.0528 81.7831 93.4344 82.213 92.7474 82.3286C92.0618 82.4439 91.4392 82.2303 91.136 81.7156L76.7195 57.2375ZM158.945 87.9999C158.945 113.884 137.962 134.867 112.078 134.867C110.897 134.867 109.727 134.823 108.568 134.737C107.69 134.672 107.187 133.699 107.654 132.908L127.9 98.6145C129.939 95.5811 131.129 91.9288 131.129 87.9999C131.129 83.263 129.4 78.9289 126.538 75.5962C126.104 75.0896 126.025 74.2635 126.284 73.5239C126.545 72.7824 127.076 72.301 127.691 72.301H155.364C155.899 72.301 156.371 72.6348 156.537 73.1307C158.099 77.8022 158.945 82.8018 158.945 87.9999Z" stroke="white" stroke-opacity="0.1" stroke-width="0.844444"/>
</g>
<g filter="url(#filter1_bdi_4021_13629)">
<circle cx="112" cy="88" r="17" fill="white" fill-opacity="0.05" shape-rendering="crispEdges"/>
<circle cx="112" cy="88" r="17" fill="url(#paint2_radial_4021_13629)" shape-rendering="crispEdges"/>
<circle cx="112" cy="88" r="16.5778" stroke="white" stroke-opacity="0.1" stroke-width="0.844444" shape-rendering="crispEdges"/>
</g>
<g filter="url(#filter2_bddi_4021_13629)">
<path d="M112.078 143.733C142.859 143.733 167.811 118.781 167.811 88.0001C167.811 81.745 166.781 75.7307 164.881 70.1175C164.653 69.4443 164.016 69.0001 163.305 69.0001H129.359C127.633 69.0001 126.803 71.624 127.992 72.8746C131.736 76.8123 134.034 82.1379 134.034 88.0001C134.034 92.5338 132.659 96.7465 130.305 100.244L106.203 141.069C105.587 142.113 106.24 143.444 107.449 143.544C108.975 143.669 110.519 143.733 112.078 143.733Z" fill="url(#paint3_angular_4021_13629)"/>
<path d="M112.078 143.733C142.859 143.733 167.811 118.781 167.811 88.0001C167.811 81.745 166.781 75.7307 164.881 70.1175C164.653 69.4443 164.016 69.0001 163.305 69.0001H129.359C127.633 69.0001 126.803 71.624 127.992 72.8746C131.736 76.8123 134.034 82.1379 134.034 88.0001C134.034 92.5338 132.659 96.7465 130.305 100.244L106.203 141.069C105.587 142.113 106.24 143.444 107.449 143.544C108.975 143.669 110.519 143.733 112.078 143.733Z" fill="url(#paint4_radial_4021_13629)"/>
<path d="M65.941 56.7241C59.884 65.6417 56.3447 76.4075 56.3447 88.0001C56.3447 114.604 74.9855 136.855 99.9186 142.403C100.623 142.56 101.344 142.234 101.708 141.611L118.643 112.571C119.477 111.14 117.862 109.251 116.236 109.562C114.89 109.82 113.5 109.956 112.078 109.956C104.67 109.956 98.1188 106.287 94.1426 100.667L68.7066 56.8537C68.0987 55.8066 66.6212 55.7225 65.941 56.7241Z" fill="url(#paint5_angular_4021_13629)"/>
<path d="M65.941 56.7241C59.884 65.6417 56.3447 76.4075 56.3447 88.0001C56.3447 114.604 74.9855 136.855 99.9186 142.403C100.623 142.56 101.344 142.234 101.708 141.611L118.643 112.571C119.477 111.14 117.862 109.251 116.236 109.562C114.89 109.82 113.5 109.956 112.078 109.956C104.67 109.956 98.1188 106.287 94.1426 100.667L68.7066 56.8537C68.0987 55.8066 66.6212 55.7225 65.941 56.7241Z" fill="url(#paint6_radial_4021_13629)"/>
<path d="M112.078 32.2667C95.6024 32.2667 80.7965 39.4157 70.5932 50.7809C70.1103 51.3187 70.042 52.1076 70.4088 52.7304L87.4554 81.674C88.2945 83.0988 90.7228 82.6164 91.246 81.0479C94.1541 72.3296 102.382 66.0445 112.078 66.0445H160.758C161.971 66.0445 162.785 64.8046 162.256 63.7133C153.23 45.1003 134.153 32.2667 112.078 32.2667Z" fill="url(#paint7_angular_4021_13629)"/>
<path d="M112.078 32.2667C95.6024 32.2667 80.7965 39.4157 70.5932 50.7809C70.1103 51.3187 70.042 52.1076 70.4088 52.7304L87.4554 81.674C88.2945 83.0988 90.7228 82.6164 91.246 81.0479C94.1541 72.3296 102.382 66.0445 112.078 66.0445H160.758C161.971 66.0445 162.785 64.8046 162.256 63.7133C153.23 45.1003 134.153 32.2667 112.078 32.2667Z" fill="url(#paint8_radial_4021_13629)"/>
<path d="M93.7774 100.879L93.787 100.895L93.7979 100.911C97.8499 106.638 104.527 110.378 112.078 110.378C113.527 110.378 114.943 110.24 116.316 109.977C116.944 109.857 117.608 110.16 118.036 110.681C118.462 111.201 118.581 111.839 118.278 112.358L101.343 141.398C101.07 141.867 100.53 142.107 100.01 141.991C75.2662 136.485 56.7669 114.402 56.7669 88.0001C56.7669 76.4948 60.2793 65.8111 66.2902 56.9613C66.7869 56.2301 67.8817 56.2738 68.3414 57.0657L93.7774 100.879ZM167.389 88.0001C167.389 118.548 142.626 143.311 112.078 143.311C110.531 143.311 108.998 143.248 107.483 143.123C106.601 143.051 106.1 142.073 106.567 141.283L130.662 100.47C133.058 96.9064 134.456 92.6158 134.456 88.0001C134.456 82.0253 132.114 76.5967 128.298 72.5837C127.842 72.1034 127.743 71.3136 127.983 70.6035C128.223 69.8934 128.741 69.4223 129.359 69.4223H163.305C163.84 69.4223 164.312 69.7561 164.481 70.2529C166.366 75.823 167.389 81.7917 167.389 88.0001ZM70.9074 51.063C81.034 39.7832 95.7273 32.6889 112.078 32.6889C133.985 32.6889 152.918 45.4245 161.876 63.8976C162.262 64.6942 161.675 65.6223 160.758 65.6223H112.078C102.195 65.6223 93.8094 72.0288 90.8455 80.9143C90.6434 81.5201 90.0562 81.9499 89.3951 82.0677C88.7363 82.1852 88.1238 81.9769 87.8192 81.4598L70.7726 52.5161C70.4965 52.0473 70.551 51.4599 70.9074 51.063Z" stroke="white" stroke-opacity="0.1" stroke-width="0.844444"/>
</g>
<defs>
<filter id="filter0_f_4021_13629" x="37.7668" y="13.6888" width="148.623" height="148.622" filterUnits="userSpaceOnUse" color-interpolation-filters="sRGB">
<feFlood flood-opacity="0" result="BackgroundImageFix"/>
<feBlend mode="normal" in="SourceGraphic" in2="BackgroundImageFix" result="shape"/>
<feGaussianBlur stdDeviation="13.5111" result="effect1_foregroundBlur_4021_13629"/>
</filter>
<filter id="filter1_bdi_4021_13629" x="86.5556" y="62.5556" width="50.8889" height="50.8889" filterUnits="userSpaceOnUse" color-interpolation-filters="sRGB">
<feFlood flood-opacity="0" result="BackgroundImageFix"/>
<feGaussianBlur in="BackgroundImageFix" stdDeviation="4.22222"/>
<feComposite in2="SourceAlpha" operator="in" result="effect1_backgroundBlur_4021_13629"/>
<feColorMatrix in="SourceAlpha" type="matrix" values="0 0 0 0 0 0 0 0 0 0 0 0 0 0 0 0 0 0 127 0" result="hardAlpha"/>
<feOffset dx="-0.844444" dy="-0.844444"/>
<feComposite in2="hardAlpha" operator="int"/>
<feColorMatrix type="matrix" values="0 0 0 0 0 0 0 0 0 0.521569 0 0 0 0 1 0 0 0 0.07 0"/>
<feBlend mode="normal" in2="effect1_backgroundBlur_4021_13629" result="effect2_dropShadow_4021_13629"/>
<feBlend mode="normal" in="SourceGraphic" in2="effect2_dropShadow_4021_13629" result="shape"/>
<feColorMatrix in="SourceAlpha" type="matrix" values="0 0 0 0 0 0 0 0 0 0 0 0 0 0 0 0 0 0 127 0" result="hardAlpha"/>
<feOffset dx="0.844444" dy="0.844444"/>
<feGaussianBlur stdDeviation="0.844444"/>
<feComposite in2="hardAlpha" operator="arithmetic" k2="-1" k3="1"/>
<feColorMatrix type="matrix" values="0 0 0 0 1 0 0 0 0 1 0 0 0 0 1 0 0 0 0.5 0"/>
<feBlend mode="normal" in2="shape" result="effect3_innerShadow_4021_13629"/>
</filter>
<filter id="filter2_bddi_4021_13629" x="44.3447" y="20.2667" width="135.467" height="135.467" filterUnits="userSpaceOnUse" color-interpolation-filters="sRGB">
<feFlood flood-opacity="0" result="BackgroundImageFix"/>
<feGaussianBlur in="BackgroundImageFix" stdDeviation="4.22222"/>
<feComposite in2="SourceAlpha" operator="in" result="effect1_backgroundBlur_4021_13629"/>
<feColorMatrix in="SourceAlpha" type="matrix" values="0 0 0 0 0 0 0 0 0 0 0 0 0 0 0 0 0 0 127 0" result="hardAlpha"/>
<feOffset dy="1.68889"/>
<feComposite in2="hardAlpha" operator="int"/>
<feColorMatrix type="matrix" values="0 0 0 0 0 0 0 0 0 0.521569 0 0 0 0 1 0 0 0 0.07 0"/>
<feBlend mode="normal" in2="effect1_backgroundBlur_4021_13629" result="effect2_dropShadow_4021_13629"/>
<feColorMatrix in="SourceAlpha" type="matrix" values="0 0 0 0 0 0 0 0 0 0 0 0 0 0 0 0 0 0 127 0" result="hardAlpha"/>
<feOffset/>
<feGaussianBlur stdDeviation="6"/>
<feComposite in2="hardAlpha" operator="int"/>
<feColorMatrix type="matrix" values="0 0 0 0 0 0 0 0 0 0 0 0 0 0 0 0 0 0 0.25 0"/>
<feBlend mode="normal" in2="effect2_dropShadow_4021_13629" result="effect3_dropShadow_4021_13629"/>
<feBlend mode="normal" in="SourceGraphic" in2="effect3_dropShadow_4021_13629" result="shape"/>
<feColorMatrix in="SourceAlpha" type="matrix" values="0 0 0 0 0 0 0 0 0 0 0 0 0 0 0 0 0 0 127 0" result="hardAlpha"/>
<feOffset dy="-1.68889"/>
<feGaussianBlur stdDeviation="0.844444"/>
<feComposite in2="hardAlpha" operator="arithmetic" k2="-1" k3="1"/>
<feColorMatrix type="matrix" values="0 0 0 0 1 0 0 0 0 1 0 0 0 0 1 0 0 0 0.25 0"/>
<feBlend mode="normal" in2="shape" result="effect4_innerShadow_4021_13629"/>
</filter>
<radialGradient id="paint0_angular_4021_13629" cx="0" cy="0" r="1" gradientUnits="userSpaceOnUse" gradientTransform="translate(112.546 88.4041) rotate(90) scale(46.8847)">
<stop offset="0.181252" stop-color="#EA4435"/>
<stop offset="0.509914" stop-color="#FFBA00"/>
<stop offset="0.835024" stop-color="#00AC47"/>
<stop offset="0.840052" stop-color="#00AC47"/>
</radialGradient>
<radialGradient id="paint1_angular_4021_13629" cx="0" cy="0" r="1" gradientUnits="userSpaceOnUse" gradientTransform="translate(112.546 88.4041) rotate(90) scale(46.8847)">
<stop offset="0.181252" stop-color="#EA4435"/>
<stop offset="0.509914" stop-color="#FFBA00"/>
<stop offset="0.835024" stop-color="#00AC47"/>
<stop offset="0.840052" stop-color="#00AC47"/>
</radialGradient>
<radialGradient id="paint2_radial_4021_13629" cx="0" cy="0" r="1" gradientUnits="userSpaceOnUse" gradientTransform="translate(112.168 88.1453) rotate(90) scale(16.8547 19.7031)">
<stop offset="0.143502" stop-color="#70B2FF"/>
<stop offset="0.806667" stop-color="#339DFF" stop-opacity="0.19"/>
</radialGradient>
<radialGradient id="paint3_angular_4021_13629" cx="0" cy="0" r="1" gradientUnits="userSpaceOnUse" gradientTransform="translate(112.63 88.4764) rotate(90) scale(55.257)">
<stop offset="0.181252" stop-color="#EA4435"/>
<stop offset="0.509914" stop-color="#FFBA00"/>
<stop offset="0.835024" stop-color="#00AC47"/>
<stop offset="0.840052" stop-color="#00AC47"/>
</radialGradient>
<radialGradient id="paint4_radial_4021_13629" cx="0" cy="0" r="1" gradientUnits="userSpaceOnUse" gradientTransform="translate(112.078 88.0001) rotate(90) scale(55.7333)">
<stop offset="0.488433" stop-color="white" stop-opacity="0"/>
<stop offset="0.91126" stop-color="#3D4652" stop-opacity="0.75"/>
</radialGradient>
<radialGradient id="paint5_angular_4021_13629" cx="0" cy="0" r="1" gradientUnits="userSpaceOnUse" gradientTransform="translate(112.63 88.4764) rotate(90) scale(55.257)">
<stop offset="0.181252" stop-color="#EA4435"/>
<stop offset="0.509914" stop-color="#FFBA00"/>
<stop offset="0.835024" stop-color="#00AC47"/>
<stop offset="0.840052" stop-color="#00AC47"/>
</radialGradient>
<radialGradient id="paint6_radial_4021_13629" cx="0" cy="0" r="1" gradientUnits="userSpaceOnUse" gradientTransform="translate(112.078 88.0001) rotate(90) scale(55.7333)">
<stop offset="0.488433" stop-color="white" stop-opacity="0"/>
<stop offset="0.91126" stop-color="#3D4652" stop-opacity="0.75"/>
</radialGradient>
<radialGradient id="paint7_angular_4021_13629" cx="0" cy="0" r="1" gradientUnits="userSpaceOnUse" gradientTransform="translate(112.63 88.4764) rotate(90) scale(55.257)">
<stop offset="0.181252" stop-color="#EA4435"/>
<stop offset="0.509914" stop-color="#FFBA00"/>
<stop offset="0.835024" stop-color="#00AC47"/>
<stop offset="0.840052" stop-color="#00AC47"/>
</radialGradient>
<radialGradient id="paint8_radial_4021_13629" cx="0" cy="0" r="1" gradientUnits="userSpaceOnUse" gradientTransform="translate(112.078 88.0001) rotate(90) scale(55.7333)">
<stop offset="0.488433" stop-color="white" stop-opacity="0"/>
<stop offset="0.91126" stop-color="#3D4652" stop-opacity="0.75"/>
</radialGradient>
</defs>
</svg>
