<svg width="24" height="24" viewBox="0 0 24 24" fill="none" xmlns="http://www.w3.org/2000/svg">
<g clip-path="url(#clip0_3079_2116)">
<path d="M2.802 8.069L6.746 14.9C7.36589 16.0239 8.32998 16.9194 9.49656 17.4547C10.6631 17.99 11.9707 18.137 13.227 17.874L10.881 21.938C5.885 21.382 2 17.145 2 12C2 10.604 2.286 9.276 2.802 8.069ZM21.168 8C21.7186 9.26157 22.0019 10.6235 22 12C22 17.118 18.155 21.338 13.195 21.93L17.145 15.09C17.688 14.188 18 13.13 18 12C18.002 10.5237 17.4578 9.09893 16.472 8H21.168ZM12 8C13.0609 8 14.0783 8.42143 14.8284 9.17157C15.5786 9.92172 16 10.9391 16 12C16 13.0609 15.5786 14.0783 14.8284 14.8284C14.0783 15.5786 13.0609 16 12 16C10.9391 16 9.92172 15.5786 9.17157 14.8284C8.42143 14.0783 8 13.0609 8 12C8 10.9391 8.42143 9.92172 9.17157 9.17157C9.92172 8.42143 10.9391 8 12 8ZM12 2C13.5527 1.99883 15.0842 2.35977 16.4729 3.05414C17.8617 3.74851 19.0693 4.75717 20 6H12C10.7365 6.00014 9.50533 6.39893 8.48171 7.13958C7.4581 7.88022 6.69427 8.92495 6.299 10.125L3.953 6.062C4.88191 4.80144 6.09424 3.77699 7.49209 3.07137C8.88995 2.36576 10.4341 1.99875 12 2Z" fill="white"/>
</g>
<defs>
<clipPath id="clip0_3079_2116">
<rect width="24" height="24" fill="white"/>
</clipPath>
</defs>
</svg>
