<svg width="20" height="21" viewBox="0 0 20 21" fill="none" xmlns="http://www.w3.org/2000/svg">
  <path
    d="M10 20.9502H15V18.9502H10C5.66 18.9502 2 15.2902 2 10.9502C2 6.6102 5.66 2.9502 10 2.9502C14.34 2.9502 18 6.6102 18 10.9502V12.3802C18 13.1702 17.29 13.9502 16.5 13.9502C15.71 13.9502 15 13.1702 15 12.3802V10.9502C15 8.1902 12.76 5.9502 10 5.9502C7.24 5.9502 5 8.1902 5 10.9502C5 13.7102 7.24 15.9502 10 15.9502C11.38 15.9502 12.64 15.3902 13.54 14.4802C14.19 15.3702 15.31 15.9502 16.5 15.9502C18.47 15.9502 20 14.3502 20 12.3802V10.9502C20 5.4302 15.52 0.950195 10 0.950195C4.48 0.950195 0 5.4302 0 10.9502C0 16.4702 4.48 20.9502 10 20.9502ZM10 13.9502C8.34 13.9502 7 12.6102 7 10.9502C7 9.2902 8.34 7.9502 10 7.9502C11.66 7.9502 13 9.2902 13 10.9502C13 12.6102 11.66 13.9502 10 13.9502Z"
    fill="white"/>
</svg>
