<svg width="80" height="80" viewBox="0 0 80 80" fill="none" xmlns="http://www.w3.org/2000/svg">
  <g clip-path="url(#clip0_5542_33413)">
    <circle cx="40" cy="40" r="40" fill="#292929"/>
    <path
      d="M13.0857 37.8428C13.0304 37.2912 12.9865 37.1346 13.0038 36.985C13.6968 30.9941 13.6976 30.9908 19.6325 30.995C26.0546 30.9996 32.4769 30.9872 38.8987 31.0355C40.6936 31.049 42.1585 30.6642 43.3974 29.1854C45.1051 27.1468 45.7707 27.149 47.406 29.1539C48.6162 30.6378 50.0052 31.0903 51.8552 31.0314C55.5656 30.9132 59.2881 31.1197 62.994 30.9454C65.0571 30.8484 65.9915 31.6128 66.2499 33.5655C66.4112 34.7851 66.7004 35.9877 67 37.5521C66.0679 37.6616 65.2977 37.8272 64.5268 37.8305C59.2653 37.8537 54.0022 37.7714 48.7428 37.879C46.7256 37.9203 45.1311 37.5029 43.9573 35.7517C42.8684 34.1273 41.5304 34.1052 40.4181 35.6738C39.0907 37.5458 37.3544 37.9195 35.1901 37.8827C28.6923 37.7722 22.1915 37.8429 15.6919 37.8428L13.0857 37.8428Z"
      fill="white"/>
    <path
      d="M13.2031 45.0337C18.6254 45.0337 23.6448 44.9542 28.6598 45.0698C30.9024 45.1215 32.7516 44.7274 34.1287 42.785C35.1786 41.3042 36.4737 41.2672 37.5047 42.79C38.8567 44.7868 40.7152 45.1018 42.9458 45.0698C49.8346 44.971 56.7258 45.0338 63.616 45.0338C64.4548 45.0338 65.2935 45.0338 66.7002 45.0338C65.9387 47.3008 65.3945 49.2653 64.5794 51.1095C64.3705 51.582 63.3072 51.9028 62.6339 51.907C54.3505 51.9597 46.065 52.0183 37.7846 51.8508C36.6287 51.8274 35.2843 50.8056 34.4031 49.8847C33.0226 48.442 31.8799 48.1363 30.6349 49.8272C29.2969 51.6445 27.5364 52.1104 25.3667 51.9797C22.8156 51.827 20.2577 51.8279 17.7067 51.9825C15.9014 52.0917 14.9746 51.3832 14.5466 49.7145C14.1836 48.2996 13.7439 46.9045 13.2031 45.0337Z"
      fill="white"/>
    <path
      d="M18.3457 23.8326C29.249 9.09638 51.5348 9.74553 61.2195 23.6473C58.234 23.8562 55.3526 24.6425 53.3222 21.5256C52.3507 20.0342 51.0789 20.2717 50.1183 21.605C48.7424 23.5146 46.9308 23.9099 44.6803 23.8769C36.8707 23.7622 29.0583 23.8326 21.247 23.8326L18.3457 23.8326Z"
      fill="white"/>
    <path
      d="M59.3912 58.492C50.543 69.2945 30.7986 70.6565 20.6543 58.8565C21.6012 57.978 22.6295 57.1754 23.4697 56.2085C24.6744 54.8223 25.8587 54.7308 26.8818 56.2123C28.2437 58.1843 30.062 58.5577 32.3075 58.5304C40.3546 58.4325 48.4037 58.492 56.452 58.492H59.3912Z"
      fill="white"/>
  </g>
  <defs>
    <clipPath id="clip0_5542_33413">
      <rect width="80" height="80" fill="white"/>
    </clipPath>
  </defs>
</svg>
