<svg width="80" height="80" viewBox="0 0 80 80" fill="none" xmlns="http://www.w3.org/2000/svg">
  <path
    d="M40 80C62.3009 80 80 61.9469 80 40C80 17.6991 61.9469 0 40 0C17.6991 0 0 18.0531 0 40C0 61.9469 18.0531 80 40 80Z"
    fill="#2C374B"/>
  <path fill-rule="evenodd" clip-rule="evenodd"
        d="M61.9499 25.4882C61.5959 25.1342 44.2508 14.8687 42.1269 14.1608C41.4189 13.8068 39.649 13.4528 38.5871 13.8068C37.5251 14.1608 19.118 24.7802 18.4101 25.4882C18.0561 25.8422 17.7021 26.5501 17.3481 26.9041C16.9941 27.6121 16.9941 27.9661 16.9941 40.3555V53.0988L19.472 54.5147C20.8879 55.2227 21.9499 55.9307 21.9499 55.9307C22.3039 55.9307 38.941 29.382 38.941 29.028C38.941 28.674 35.0472 28.674 33.9853 29.028C32.5694 29.382 31.5074 30.09 30.7994 30.7979C30.4455 31.1519 28.3216 34.6917 25.4897 38.5855C23.0118 42.4794 20.8879 46.0192 20.8879 46.0192C20.8879 46.0192 20.8879 42.4793 20.8879 37.5236V28.674L21.2419 28.3201C21.9499 27.6121 40.003 17.3466 40.711 17.3466C41.0649 17.3466 41.4189 17.3466 45.6667 19.8245C47.0826 20.5324 50.9764 22.6563 54.1623 24.7802C57.3481 26.5501 60.18 28.3201 60.534 28.674L60.8879 29.028V47.4351L52.0384 33.6298C51.6844 32.9218 51.3304 32.2139 50.9764 31.8599C50.9764 31.8599 50.6225 32.5678 48.4986 36.1077C48.1446 36.4616 47.7906 37.1696 47.7906 37.5236L47.4366 38.2316L47.7906 38.5855L48.1446 38.9395C48.1446 38.9395 48.1446 39.2935 48.4986 39.2935L49.2065 40.3555C49.2065 40.3555 49.2065 40.7094 49.5605 40.7094C49.9145 41.0634 50.2685 41.7714 50.2685 42.1254C50.2685 42.1254 50.2685 42.1254 50.2685 42.4793L57.7021 54.5147L56.9941 54.8687C56.6402 55.2227 56.2862 55.2227 55.9322 55.2227L46.7287 41.0634L46.3747 40.7094L45.6667 42.1254L42.1269 47.7891L49.2065 59.1165C48.1446 59.8245 42.1269 64.0723 41.7729 64.0723C41.4189 64.0723 33.2773 58.7625 33.6313 58.4085C33.6313 58.4085 36.1092 54.1608 38.941 49.205C41.4189 44.9572 44.6048 39.6475 46.7287 36.1077C49.2065 31.8599 50.2685 29.736 50.2685 29.736C50.2685 29.736 48.4986 29.736 46.3747 29.736H42.8349L34.6933 43.1873C31.8614 48.1431 29.0295 52.7448 27.6136 55.2227C25.1357 55.5767 24.4278 56.2847 24.4278 56.2847L24.0738 56.9926L30.4455 60.5324C33.9853 62.6563 37.1711 64.4263 37.8791 64.7802C38.941 65.4882 40.711 65.4882 41.4189 65.4882C42.1269 65.1342 60.534 54.5147 61.5959 53.8068C61.9499 53.4528 62.3039 53.0988 62.6579 52.3909L63.0118 51.3289V39.6475V27.9661L62.6579 27.2581C62.6579 26.5501 61.9499 25.8422 61.9499 25.4882Z"
        fill="white"/>
  <path d="M60.1793 47.0801L49.5598 30.7969L45.666 37.1686L55.9315 53.8057L60.5333 51.6818L60.1793 47.0801Z"
        fill="#24A2EE"/>
  <path d="M55.2232 55.9297L44.6037 39.6465L40.002 46.7261L48.4975 60.1775L53.8073 58.0536L55.2232 55.9297Z"
        fill="#24A2EE"/>
  <path fill-rule="evenodd" clip-rule="evenodd"
        d="M20.5325 28.6738L40.0015 17.3463L59.4705 28.6738V51.3286L40.0015 62.6561L25.4882 54.5145L23.7183 57.7003L39.6475 66.9038C40.0015 67.2578 40.3555 67.2578 40.7095 66.9038L63.0104 54.1605C63.3643 53.8065 63.7183 53.4525 63.7183 53.0985V27.6118C63.7183 27.2578 63.3643 26.9038 63.0104 26.5499L40.7095 13.8065C40.3555 13.4525 40.0015 13.4525 39.6475 13.8065L17.3466 26.1959C16.9927 26.5499 16.6387 26.9038 16.6387 27.2578V52.7446C16.6387 53.0985 16.9927 53.4525 17.3466 53.8065L21.9484 56.2844L24.0723 53.0985L20.8865 51.3286V28.6738H20.5325Z"
        fill="#98BCDC"/>
  <path d="M48.4956 28.6738H41.0619L23.7168 56.9924L29.7345 60.5322L48.4956 28.6738Z" fill="white"/>
  <path
    d="M29.736 31.5058C31.5059 28.674 36.4617 28.674 38.5856 29.028L21.5944 56.2846C20.8865 55.9306 19.4705 55.2227 18.4086 54.5147C16.9927 53.8067 16.6387 53.8067 16.6387 52.7448V51.3288C20.5325 45.6651 27.9661 34.3377 29.736 31.5058Z"
    fill="white"/>
</svg>
