<svg width="80" height="80" viewBox="0 0 80 80" fill="none" xmlns="http://www.w3.org/2000/svg">
  <rect width="80" height="80" rx="40" fill="#E84142"/>
  <path
    d="M51.4174 42.0319C52.4914 40.1375 54.2244 40.1375 55.2984 42.0319L61.9865 54.0215C63.0605 55.9159 62.1817 57.4614 60.0337 57.4614H46.56C44.4364 57.4614 43.5577 55.9159 44.6073 54.0215L51.4174 42.0319ZM38.4806 18.9501C39.5546 17.0557 41.2633 17.0557 42.3373 18.9501L43.8262 21.692L47.3411 27.9984C48.1954 29.7931 48.1954 31.9118 47.3411 33.7065L35.5516 54.5699C34.4776 56.2649 32.6957 57.3367 30.7186 57.4614H20.9306C18.7826 57.4614 17.9039 55.9409 18.9779 54.0215L38.4806 18.9501Z"
    fill="white"/>
</svg>
