<svg width="80" height="80" viewBox="0 0 80 80" fill="none" xmlns="http://www.w3.org/2000/svg">
  <rect width="80" height="80" rx="40" fill="#F3BA2F"/>
  <g clip-path="url(#clip0_5542_33378)">
    <path
      d="M30.2895 36.0104L39.9999 26.3L49.7149 36.0146L55.3648 30.3646L39.9999 15L24.64 30.36L30.2897 36.01L30.2895 36.0104ZM15 40L20.6502 34.349L26.3 39.9988L20.6498 45.649L15 40ZM30.2895 43.9902L39.9999 53.7L49.7147 43.9856L55.3676 49.6326L55.3648 49.6356L39.9999 65L24.64 49.64L24.632 49.632L30.2901 43.9896L30.2895 43.9902ZM53.6998 40.0024L59.35 34.3522L64.9998 40.002L59.3498 45.6522L53.6998 40.0024Z"
      fill="white"/>
    <path
      d="M45.7302 39.9968H45.7326L39.9998 34.2637L35.7625 38.4999L35.2757 38.9869L34.2717 39.991L34.2637 39.9988L34.2717 40.007L39.9998 45.736L45.733 40.0028L45.7358 39.9996L45.7306 39.9968"
      fill="white"/>
  </g>
  <defs>
    <clipPath id="clip0_5542_33378">
      <rect width="50" height="50" fill="white" transform="translate(15 15)"/>
    </clipPath>
  </defs>
</svg>
