<svg width="34" height="35" viewBox="0 0 34 35" fill="none" xmlns="http://www.w3.org/2000/svg">
<path d="M23.9634 15.5895C24.2547 13.488 22.7721 12.3583 20.7449 11.6047L21.4025 8.75801L19.7969 8.32622L19.1567 11.098C18.7345 10.9844 18.301 10.8773 17.8702 10.7712L18.515 7.98111L16.9103 7.54932L16.2523 10.3951C15.903 10.3093 15.5599 10.2244 15.227 10.1351L15.2289 10.1261L13.0146 9.52936L12.5875 11.3802C12.5875 11.3802 13.7788 11.6749 13.7537 11.693C14.4039 11.8682 14.5215 12.3327 14.5019 12.7009L13.7528 15.944C13.7976 15.9562 13.8557 15.974 13.9197 16.0018C13.8662 15.9874 13.8092 15.9717 13.75 15.9565L12.7 20.4995C12.6205 20.7127 12.4188 21.0327 11.9642 20.9112C11.9803 20.9363 10.7972 20.5969 10.7972 20.5969L10 22.5805L12.0895 23.1426C12.4783 23.2478 12.8592 23.3579 13.2343 23.4614L12.5699 26.3408L14.1737 26.7726L14.8317 23.9238C15.2699 24.0521 15.6951 24.1705 16.1113 24.2822L15.4556 27.1175L17.0613 27.5493L17.7257 24.6754C20.4637 25.2346 22.5225 25.0091 23.3891 22.3364C24.0874 20.1845 23.3543 18.9433 21.9139 18.1339C22.963 17.8728 23.7533 17.1281 23.964 15.5897L23.9635 15.5893L23.9634 15.5895ZM20.2948 21.1414C19.7986 23.2932 16.4414 22.13 15.353 21.8383L16.2347 18.0236C17.3231 18.3169 20.8134 18.8972 20.2949 21.1414H20.2948ZM20.7914 15.5583C20.3387 17.5157 17.5445 16.5212 16.6381 16.2774L17.4375 12.8177C18.3439 13.0616 21.2629 13.5167 20.7915 15.5583H20.7914Z" fill="#7D7D7D"/>
<rect x="0.5" y="1.04932" width="33" height="33" rx="16.5" stroke="#7D7D7D"/>
</svg>
