<svg width="80" height="80" viewBox="0 0 80 80" fill="none" xmlns="http://www.w3.org/2000/svg">
  <rect width="80" height="80" rx="40" fill="#F7931A"/>
  <path
    d="M57.086 35.376C57.7921 30.3409 54.1978 27.6343 49.2829 25.8288L50.8773 19.0082L46.9844 17.9737L45.4323 24.6146C44.4088 24.3424 43.3578 24.0859 42.3132 23.8316L43.8766 17.1468L39.9862 16.1123L38.3909 22.9306C37.5439 22.7249 36.7121 22.5217 35.9051 22.3075L35.9096 22.2861L30.5412 20.8563L29.5056 25.2908C29.5056 25.2908 32.3939 25.9969 32.333 26.0403C33.9094 26.4599 34.1945 27.5729 34.1471 28.4551L32.3309 36.2252C32.4395 36.2546 32.5803 36.2972 32.7356 36.3637C32.6058 36.3293 32.4676 36.2918 32.3242 36.2552L29.7784 47.1401C29.5858 47.6509 29.0968 48.4174 27.9946 48.1263C28.0336 48.1866 25.1652 47.3733 25.1652 47.3733L23.2324 52.1258L28.2984 53.4727C29.2409 53.7248 30.1644 53.9885 31.0739 54.2365L29.463 61.1352L33.3514 62.1698L34.9467 55.3443C36.009 55.6518 37.0399 55.9355 38.0491 56.2029L36.4591 62.9963L40.3522 64.0308L41.963 57.145C48.6012 58.4849 53.5926 57.9447 55.6936 51.541C57.3865 46.3853 55.6093 43.4115 52.117 41.4723C54.6606 40.8466 56.5766 39.0623 57.0874 35.3765L57.0862 35.3756L57.086 35.376ZM48.1916 48.6778C46.9886 53.8335 38.8493 51.0465 36.2105 50.3476L38.3482 41.208C40.9869 41.9106 49.449 43.3009 48.1918 48.6778H48.1916ZM49.3956 35.3013C48.2981 39.9909 41.5237 37.6084 39.3262 37.0241L41.2643 28.7351C43.4619 29.3193 50.5388 30.4097 49.3959 35.3013H49.3956Z"
    fill="white"/>
</svg>
