<svg width="80" height="80" viewBox="0 0 80 80" fill="none" xmlns="http://www.w3.org/2000/svg">
  <rect width="80" height="80" rx="40" fill="#051221"/>
  <path fill-rule="evenodd" clip-rule="evenodd"
        d="M51.7162 20.6623L63 27.1276V40.2606V53.3938L51.6344 59.9061L40.2687 66.4186H40H39.7313L28.3656 59.9061L17 53.3938V40.2603V27.1269L28.4568 20.5634L39.9135 14L40.1729 14.0985L40.4323 14.1972L51.7162 20.6623ZM31.9177 26.5844L24.0947 31.0789L24.0944 40.2601L24.094 49.4413L31.9011 53.9032L39.7079 58.3651H40.01H40.3123L48.1084 53.9032L55.9046 49.4413V40.2601V31.0789L48.1109 26.617L40.3173 22.1551L40.0289 22.1225L39.7406 22.0897L31.9177 26.5844ZM45.4297 30.9931L50.7064 33.9963L50.6639 34.1459L50.6212 34.2958L48.4273 35.5672L46.2333 36.8389L43.234 35.1173L40.2348 33.3957H40.0028H39.7705L36.859 35.0622L33.9474 36.7287V40.2601V43.7915L36.859 45.458L39.7705 47.1245H40.0028H40.2348L43.234 45.4029L46.2333 43.6813L48.4273 44.953L50.6212 46.2244L50.6632 46.3743L50.7052 46.5239L45.3526 49.574L40 52.624L34.6467 49.574L29.2934 46.5239V40.2601V33.9963L34.6035 30.9596L39.9135 27.923L40.0334 27.9564L40.153 27.9899L45.4297 30.9931Z"
        fill="white"/>
</svg>
