<svg width="24" height="24" viewBox="0 0 24 24" fill="none" xmlns="http://www.w3.org/2000/svg">
  <path
    d="M1 20C0.716667 20 0.479333 19.904 0.288 19.712C0.096 19.5207 0 19.2833 0 19C0 18.7167 0.096 18.4793 0.288 18.288C0.479333 18.096 0.716667 18 1 18H2V5C2 4.45 2.196 3.979 2.588 3.587C2.97933 3.19567 3.45 3 4 3H20C20.55 3 21.021 3.19567 21.413 3.587C21.8043 3.979 22 4.45 22 5V18H23C23.2833 18 23.5207 18.096 23.712 18.288C23.904 18.4793 24 18.7167 24 19C24 19.2833 23.904 19.5207 23.712 19.712C23.5207 19.904 23.2833 20 23 20H1ZM10.5 18H13.5C13.6333 18 13.75 17.95 13.85 17.85C13.95 17.75 14 17.6333 14 17.5C14 17.3667 13.95 17.25 13.85 17.15C13.75 17.05 13.6333 17 13.5 17H10.5C10.3667 17 10.25 17.05 10.15 17.15C10.05 17.25 10 17.3667 10 17.5C10 17.6333 10.05 17.75 10.15 17.85C10.25 17.95 10.3667 18 10.5 18ZM4 15H20V5H4V15Z"
    fill="#2C3542"/>
</svg>
