<svg width="80" height="80" viewBox="0 0 80 80" fill="none" xmlns="http://www.w3.org/2000/svg">
  <path
    d="M40 80C62.0914 80 80 62.0914 80 40C80 17.9086 62.0914 0 40 0C17.9086 0 0 17.9086 0 40C0 62.0914 17.9086 80 40 80Z"
    fill="#13B5EC"/>
  <path fill-rule="evenodd" clip-rule="evenodd"
        d="M43 32.25L52 27V37.5L43 32.25ZM52 54.75L40 61.75L28 54.75V42.5L40 49.5L52 42.5V54.75ZM28 27L37 32.25L28 37.5V27ZM41.5 34.75L50.5 40L41.5 45.25V34.75ZM38.5 45.25L29.5 40L38.5 34.75V45.25ZM50.5 24.5L40 30.5L29.5 24.5L40 18.25L50.5 24.5ZM25 23.5V56.25L40 64.75L55 56.25V23.5L40 15L25 23.5Z"
        fill="white"/>
</svg>
