<svg width="64" height="64" viewBox="0 0 64 64" fill="none" xmlns="http://www.w3.org/2000/svg">
  <g clip-path="url(#clip0_6343_59062)">
    <rect width="64" height="64" rx="32" fill="#133629"/>
    <path
      d="M10.5346 28.118C10.5346 26.1816 11.172 24.4208 12.2739 23.0246L23.9379 34.6832C22.5173 35.785 20.7538 36.4224 18.8418 36.4224C14.2345 36.4197 10.5104 32.6983 10.5346 28.118ZM45.2295 36.3953C49.8127 36.4197 53.5367 32.6954 53.5367 28.0909C53.5367 26.1816 52.8993 24.4181 51.7976 22.9976L40.1335 34.6562C41.5296 35.7579 43.2932 36.3953 45.2295 36.3953ZM54.2469 20.5967C55.9618 22.6546 56.9908 25.2499 56.9908 28.1395C56.9908 34.6291 51.722 39.8953 45.2295 39.8953C42.3643 39.8953 39.7419 38.8664 37.684 37.1517L32.0236 42.8095L26.363 37.1517C24.3051 38.8664 21.7071 39.8953 18.8175 39.8953C12.3252 39.8953 7.05624 34.6291 7.05624 28.1395C7.05624 25.2742 8.08519 22.6519 9.80007 20.5967L7.15347 17.9528L4.63109 15.4304C1.6901 20.278 -0.000488281 25.9358 -0.000488281 32.0123C-0.000488281 49.6958 14.3317 64.0012 31.9991 64.0012C49.664 64.0012 63.999 49.6717 63.999 32.0123C64.0476 25.9142 62.3571 20.2564 59.4159 15.4304L54.2469 20.5967ZM31.9991 37.913L6.61335 12.538C7.3236 11.6306 8.08249 10.7502 8.86838 9.91842C14.699 3.82042 22.9089 -0.000976562 32.0236 -0.000976562C41.1381 -0.000976562 49.3696 3.82042 55.1787 9.91842C55.9863 10.7259 56.7479 11.6333 57.385 12.5137L31.9991 37.913ZM12.3468 12.3193L32.021 31.9879L51.6949 12.3193C46.4773 7.05305 39.5176 4.16338 32.021 4.16338C24.5239 4.16338 17.5914 7.05305 12.3468 12.3193Z"
      fill="#F0EBDE"/>
  </g>
  <defs>
    <clipPath id="clip0_6343_59062">
      <rect width="64" height="64" rx="32" fill="white"/>
    </clipPath>
  </defs>
</svg>
