<svg width="64" height="64" viewBox="0 0 64 64" fill="none" xmlns="http://www.w3.org/2000/svg">
  <rect width="64" height="64" rx="32" fill="#161931"/>
  <path
    d="M31.6122 11.041C29.5518 11.041 27.5116 11.4468 25.608 12.2353C23.7045 13.0238 21.9749 14.1795 20.518 15.6365C19.0611 17.0934 17.9054 18.823 17.117 20.7266C16.3286 22.6302 15.9228 24.6704 15.9229 26.7308C15.9232 27.722 16.0163 28.7111 16.201 29.6849L18.2277 28.2967C21.791 25.853 27.5713 25.853 31.1337 28.2967L33.2604 29.7533L34.4131 30.5455C37.6248 32.7461 42.8278 32.7461 46.0365 30.5455L46.9822 29.898C47.4493 27.6177 47.4036 25.2621 46.8483 23.0017C46.293 20.7413 45.242 18.6326 43.7714 16.8284C42.3008 15.0242 40.4475 13.5695 38.3455 12.5697C36.2435 11.57 33.9455 11.0501 31.6179 11.0478L31.6122 11.041Z"
    fill="#F2B705"/>
  <path
    d="M40.4292 36.1548C38.0653 36.1548 35.805 35.5134 34.103 34.3469L30.8262 32.1012C29.2575 31.0228 27.1508 30.429 24.8998 30.429C22.6488 30.429 20.5415 31.0184 18.9728 32.1012L16.8541 33.5519C16.7544 33.6211 16.642 33.6699 16.5233 33.6956C16.4047 33.7212 16.2822 33.7231 16.1628 33.7011C16.0434 33.6792 15.9295 33.6339 15.8278 33.5678C15.726 33.5017 15.6383 33.4161 15.5697 33.3159C15.5011 33.2158 15.453 33.1031 15.4282 32.9843C15.4033 32.8654 15.4022 32.7429 15.425 32.6237C15.4477 32.5044 15.4937 32.3909 15.5605 32.2895C15.6273 32.1882 15.7135 32.101 15.8141 32.0331L17.9317 30.5824C19.805 29.2973 22.2779 28.5908 24.8989 28.5908C27.52 28.5908 29.9925 29.2973 31.8658 30.5824L35.1426 32.8282C36.7337 33.8019 38.5629 34.3173 40.4284 34.3173C42.2938 34.3173 44.1231 33.8019 45.7142 32.8282L46.9585 31.9768C47.0582 31.9063 47.1708 31.8564 47.2899 31.8299C47.409 31.8034 47.5322 31.8008 47.6522 31.8224C47.7723 31.8439 47.8869 31.8891 47.9894 31.9554C48.0919 32.0216 48.1801 32.1076 48.2491 32.2082C48.318 32.3089 48.3662 32.4223 48.3909 32.5418C48.4156 32.6612 48.4163 32.7844 48.393 32.9042C48.3696 33.024 48.3227 33.1379 48.2549 33.2393C48.1871 33.3408 48.0998 33.4277 47.9981 33.4951L46.7538 34.3465C45.0442 35.5169 42.7932 36.1548 40.4292 36.1548Z"
    fill="#53CBC8"/>
  <path
    d="M24.831 42.7439V33.8791C24.8241 33.6926 24.832 33.5059 24.8546 33.3207C24.8822 33.0768 24.9986 32.8516 25.1817 32.6881C25.3649 32.5246 25.6018 32.4344 25.8473 32.4346C26.0851 32.441 26.3122 32.535 26.4851 32.6985C26.6579 32.862 26.7644 33.0836 26.784 33.3207C26.8216 33.6284 26.8325 33.9389 26.8163 34.2485V51.9229C26.7633 52.5779 26.3529 53.0103 25.8001 52.9985C25.2474 52.9867 24.8483 52.5377 24.8459 51.8729V45.9819L24.831 42.7439Z"
    fill="#53CBC8"/>
  <path
    d="M22.9668 38.2826V42.6878C22.9668 43.4416 22.5647 43.9407 21.9949 43.9228C21.4252 43.9049 20.9933 43.3971 20.9907 42.6784V33.8717C20.9907 33.1002 21.44 32.5797 22.0248 32.6096C22.6097 32.6395 22.9588 33.1061 22.9616 33.8769C22.9697 35.3457 22.9668 36.814 22.9668 38.2826Z"
    fill="#53CBC8"/>
  <path
    d="M28.6902 38.2762V35.1797C28.6902 34.4617 29.0712 33.998 29.6386 33.998C30.206 33.998 30.6428 34.4766 30.6493 35.1529C30.6707 37.2607 30.6707 39.3675 30.6493 41.4733C30.6493 42.1911 30.2265 42.6223 29.6451 42.6168C29.0638 42.6114 28.6913 42.17 28.6846 41.4349V38.2732L28.6902 38.2762Z"
    fill="#53CBC8"/>
  <path
    d="M17.149 38.9202V35.8231C17.149 35.1055 17.5302 34.6416 18.0973 34.6416C18.6645 34.6416 19.1016 35.1201 19.1083 35.7964C19.1277 37.9043 19.1277 40.0111 19.1083 42.1169C19.1083 42.8347 18.6824 43.2659 18.1041 43.2602C17.5258 43.2545 17.1499 42.8133 17.1436 42.0783V38.9174L17.149 38.9202Z"
    fill="#53CBC8"/>
  <path
    d="M33.5004 36.2852H33.5032C33.7611 36.2853 34.0084 36.3878 34.1907 36.5702C34.373 36.7525 34.4754 36.9999 34.4754 37.2577V38.9417C34.4753 39.1996 34.3729 39.4468 34.1906 39.6291C34.0083 39.8114 33.761 39.9138 33.5032 39.9139H33.5004C33.2425 39.9139 32.9952 39.8115 32.8128 39.6292C32.6305 39.4469 32.5279 39.1996 32.5278 38.9417V37.2577C32.5279 36.9998 32.6304 36.7525 32.8128 36.5701C32.9951 36.3877 33.2425 36.2852 33.5004 36.2852Z"
    fill="#53CBC8"/>
  <path
    d="M37.3537 37.7598H37.3566C37.6144 37.7599 37.8617 37.8624 38.044 38.0448C38.2263 38.2272 38.3287 38.4745 38.3287 38.7323V48.1779C38.3287 48.3055 38.3036 48.4319 38.2547 48.5498C38.2058 48.6678 38.1342 48.7749 38.044 48.8652C37.9537 48.9554 37.8465 49.027 37.7286 49.0758C37.6106 49.1247 37.4842 49.1498 37.3566 49.1498H37.3537C37.2261 49.1498 37.0997 49.1247 36.9818 49.0758C36.8638 49.027 36.7567 48.9554 36.6664 48.8652C36.5762 48.7749 36.5046 48.6677 36.4558 48.5498C36.4069 48.4319 36.3818 48.3055 36.3818 48.1779V38.7323C36.3818 38.4745 36.4841 38.2272 36.6664 38.0448C36.8487 37.8624 37.0959 37.7599 37.3537 37.7598Z"
    fill="#53CBC8"/>
  <path
    d="M41.1799 38.126H41.1828C41.4406 38.126 41.6879 38.2284 41.8703 38.4107C42.0527 38.593 42.1552 38.8402 42.1553 39.0981V47.1259C42.1553 47.2536 42.1301 47.38 42.0812 47.4979C42.0322 47.6158 41.9606 47.723 41.8703 47.8132C41.78 47.9034 41.6728 47.975 41.5548 48.0238C41.4368 48.0726 41.3104 48.0977 41.1828 48.0976H41.1799C41.0523 48.0977 40.9259 48.0726 40.808 48.0238C40.69 47.975 40.5829 47.9034 40.4926 47.8132C40.4024 47.7229 40.3308 47.6158 40.2819 47.4979C40.2331 47.38 40.208 47.2536 40.208 47.1259V39.0983C40.208 38.9707 40.233 38.8442 40.2819 38.7263C40.3307 38.6083 40.4023 38.5011 40.4925 38.4108C40.5828 38.3205 40.6899 38.2489 40.8079 38.2C40.9258 38.1511 41.0522 38.126 41.1799 38.126Z"
    fill="#53CBC8"/>
  <path
    d="M45.0588 37.21H45.0617C45.3195 37.21 45.5667 37.3124 45.7491 37.4947C45.9314 37.677 46.0338 37.9243 46.0338 38.1821V41.6447C46.0337 41.9025 45.9313 42.1497 45.749 42.332C45.5667 42.5143 45.3195 42.6167 45.0617 42.6168H45.0588C44.9312 42.6168 44.8048 42.5916 44.6868 42.5428C44.5689 42.4939 44.4618 42.4223 44.3715 42.332C44.2812 42.2418 44.2097 42.1346 44.1608 42.0167C44.112 41.8987 44.0869 41.7723 44.0869 41.6447V38.1823C44.0869 38.0546 44.1119 37.9282 44.1608 37.8102C44.2096 37.6923 44.2812 37.5851 44.3714 37.4948C44.4617 37.4045 44.5688 37.3328 44.6868 37.284C44.8047 37.2351 44.9312 37.21 45.0588 37.21Z"
    fill="#53CBC8"/>
</svg>
