<svg width="64" height="64" viewBox="0 0 64 64" fill="none" xmlns="http://www.w3.org/2000/svg">
  <rect width="64" height="64" rx="32" fill="#171E43"/>
  <path
    d="M41.3199 14.1496C46.5999 16.3896 50.1199 21.9097 49.7199 27.5097C40.2799 27.5097 30.8399 27.5897 21.3999 27.4297C21.3999 23.6697 22.6799 19.8296 25.3999 17.1896C29.3999 13.1096 36.0399 11.8296 41.3199 14.1496Z"
    fill="#5FC0C1"/>
  <path
    d="M40.9202 50.1504C41.4802 50.1504 41.9602 50.4704 41.9602 50.8704C41.9602 51.2704 41.4802 51.5904 40.9202 51.5904H25.7202C25.1602 51.5904 24.6802 51.2704 24.6802 50.8704C24.6802 50.4704 25.1602 50.1504 25.7202 50.1504H40.9202Z"
    fill="#E1177C"/>
  <path
    d="M22.4399 51.5898C23.0143 51.5898 23.4799 51.1241 23.4799 50.5498C23.4799 49.9754 23.0143 49.5098 22.4399 49.5098C21.8655 49.5098 21.3999 49.9754 21.3999 50.5498C21.3999 51.1241 21.8655 51.5898 22.4399 51.5898Z"
    fill="#E1177C"/>
  <path
    d="M31.5605 47.7499C32.1349 47.7499 32.6005 47.2843 32.6005 46.7099C32.6005 46.1355 32.1349 45.6699 31.5605 45.6699C30.9861 45.6699 30.5205 46.1355 30.5205 46.7099C30.5205 47.2843 30.9861 47.7499 31.5605 47.7499Z"
    fill="#E1177C"/>
  <path
    d="M49.4 45.6699C49.96 45.6699 50.44 46.1499 50.44 46.7099C50.44 47.2699 49.96 47.7499 49.4 47.7499H34.52C33.96 47.7499 33.48 47.2699 33.48 46.7099C33.48 46.1499 33.96 45.6699 34.52 45.6699H49.4Z"
    fill="#E1177C"/>
  <path
    d="M12.04 43.9101C12.6144 43.9101 13.08 43.4445 13.08 42.8701C13.08 42.2957 12.6144 41.8301 12.04 41.8301C11.4656 41.8301 11 42.2957 11 42.8701C11 43.4445 11.4656 43.9101 12.04 43.9101Z"
    fill="#E1177C"/>
  <path
    d="M26.8401 41.8301C27.4001 41.8301 27.8801 42.3101 27.8801 42.8701C27.8801 43.4301 27.4001 43.9101 26.8401 43.9101H14.6001C14.0401 43.9101 13.5601 43.4301 13.5601 42.8701C13.5601 42.3101 14.0401 41.8301 14.6001 41.8301H26.8401Z"
    fill="#E1177C"/>
  <path
    d="M54.2804 41.8301C54.8404 41.8301 55.3204 42.3101 55.3204 42.8701C55.3204 43.4301 54.8404 43.9101 54.2804 43.9101H29.9604C29.4004 43.9101 28.9204 43.4301 28.9204 42.8701C28.9204 42.3101 29.4004 41.8301 29.9604 41.8301H54.2804Z"
    fill="#E1177C"/>
  <path
    d="M49.7203 37.9902C50.2803 37.9902 50.7603 38.4702 50.7603 39.0302C50.7603 39.5902 50.2803 40.0702 49.7203 40.0702H19.8803C19.3203 40.0702 18.8403 39.5902 18.8403 39.0302C18.8403 38.4702 19.3203 37.9902 19.8803 37.9902H49.7203Z"
    fill="#E1177C"/>
  <path
    d="M16.6001 40.0702C17.1744 40.0702 17.6401 39.6046 17.6401 39.0302C17.6401 38.4559 17.1744 37.9902 16.6001 37.9902C16.0257 37.9902 15.5601 38.4559 15.5601 39.0302C15.5601 39.6046 16.0257 40.0702 16.6001 40.0702Z"
    fill="#E1177C"/>
  <path
    d="M43.4801 34.2295C44.0401 34.2295 44.5201 34.7095 44.5201 35.2695C44.5201 35.8295 44.0401 36.3095 43.4801 36.3095H13.6401C13.0801 36.3095 12.6001 35.8295 12.6001 35.2695C12.6001 34.7095 13.0801 34.2295 13.6401 34.2295H43.4801Z"
    fill="#E1177C"/>
  <path
    d="M10.04 36.3095C10.6144 36.3095 11.08 35.8439 11.08 35.2695C11.08 34.6951 10.6144 34.2295 10.04 34.2295C9.46563 34.2295 9 34.6951 9 35.2695C9 35.8439 9.46563 36.3095 10.04 36.3095Z"
    fill="#E1177C"/>
  <path
    d="M16.6001 32.4697C17.1744 32.4697 17.6401 32.004 17.6401 31.4297C17.6401 30.8553 17.1744 30.3896 16.6001 30.3896C16.0257 30.3896 15.5601 30.8553 15.5601 31.4297C15.5601 32.004 16.0257 32.4697 16.6001 32.4697Z"
    fill="#E1177C"/>
  <path
    d="M52.6001 30.3896C53.1601 30.3896 53.6401 30.8697 53.6401 31.4297C53.6401 31.9897 53.1601 32.4697 52.6001 32.4697H20.1201C19.5601 32.4697 19.0801 31.9897 19.0801 31.4297C19.0801 30.8697 19.5601 30.3896 20.1201 30.3896H52.6001Z"
    fill="#E1177C"/>
</svg>
