<svg width="80" height="80" viewBox="0 0 80 80" fill="none" xmlns="http://www.w3.org/2000/svg">
  <g clip-path="url(#clip0_5542_33466)">
    <path
      d="M40 80C62.0914 80 80 62.0914 80 40C80 17.9086 62.0914 0 40 0C17.9086 0 0 17.9086 0 40C0 62.0914 17.9086 80 40 80Z"
      fill="#FF0420"/>
    <path
      d="M28.3347 50.6238C25.9507 50.6238 23.9987 50.0638 22.4787 48.9438C20.9747 47.8078 20.2227 46.1758 20.2227 44.0798C20.2227 43.6318 20.2707 43.1038 20.3667 42.4638C20.6227 41.0238 20.9907 39.2958 21.4707 37.2638C22.8307 31.7598 26.3507 29.0078 32.0147 29.0078C33.5507 29.0078 34.9427 29.2638 36.1587 29.7918C37.3747 30.2878 38.3347 31.0558 39.0387 32.0798C39.7427 33.0878 40.0947 34.2878 40.0947 35.6798C40.0947 36.0958 40.0467 36.6238 39.9507 37.2638C39.6467 39.0398 39.2947 40.7838 38.8627 42.4638C38.1587 45.1998 36.9587 47.2638 35.2307 48.6238C33.5187 49.9678 31.2147 50.6238 28.3347 50.6238ZM28.7667 46.3038C29.8867 46.3038 30.8307 45.9678 31.6147 45.3118C32.4147 44.6558 32.9907 43.6478 33.3267 42.2718C33.7907 40.3838 34.1427 38.7518 34.3827 37.3438C34.4627 36.9278 34.5107 36.4958 34.5107 36.0478C34.5107 34.2238 33.5667 33.3118 31.6627 33.3118C30.5427 33.3118 29.5827 33.6478 28.7827 34.3038C27.9987 34.9598 27.4387 35.9678 27.1027 37.3438C26.7347 38.6878 26.3827 40.3198 26.0147 42.2718C25.9347 42.6718 25.8867 43.0878 25.8867 43.5358C25.8707 45.3918 26.8467 46.3038 28.7667 46.3038Z"
      fill="white"/>
    <path
      d="M41.4872 50.3365C41.2632 50.3365 41.1032 50.2725 40.9752 50.1285C40.8792 49.9685 40.8472 49.7925 40.8792 49.5845L45.0232 30.0645C45.0552 29.8405 45.1672 29.6645 45.3592 29.5205C45.5352 29.3765 45.7272 29.3125 45.9352 29.3125H53.9192C56.1432 29.3125 57.9192 29.7765 59.2632 30.6885C60.6232 31.6165 61.3112 32.9445 61.3112 34.6885C61.3112 35.1845 61.2472 35.7125 61.1352 36.2565C60.6392 38.5605 59.6312 40.2565 58.0952 41.3605C56.5912 42.4645 54.5272 43.0085 51.9032 43.0085H47.8552L46.4792 49.5845C46.4312 49.8085 46.3352 49.9845 46.1432 50.1285C45.9672 50.2725 45.7752 50.3365 45.5672 50.3365H41.4872ZM52.1112 38.8645C52.9592 38.8645 53.6792 38.6405 54.3032 38.1765C54.9432 37.7125 55.3592 37.0565 55.5672 36.1925C55.6312 35.8565 55.6632 35.5525 55.6632 35.2965C55.6632 34.7205 55.4872 34.2725 55.1512 33.9685C54.8152 33.6485 54.2232 33.4885 53.4072 33.4885H49.8072L48.6712 38.8645H52.1112Z"
      fill="white"/>
  </g>
  <defs>
    <clipPath id="clip0_5542_33466">
      <rect width="80" height="80" fill="white"/>
    </clipPath>
  </defs>
</svg>
