<svg width="32" height="32" viewBox="0 0 32 32" fill="none" xmlns="http://www.w3.org/2000/svg">
<rect width="32" height="32" rx="16" fill="white"/>
<path d="M9.1755 17.1158H22.5922C24.1795 17.1158 25.5939 16.3698 26.5 15.2088V21.3164C26.5 21.8088 26.2377 22.2657 25.8086 22.5152L16.7044 27.8102C16.2693 28.0633 15.7307 28.0633 15.2956 27.8102L6.19139 22.5152C5.76235 22.2657 5.5 21.8088 5.5 21.3164V19.8219H6.45833C6.45833 18.3302 7.67204 17.1158 9.1755 17.1158ZM26.5 12.1781H25.5417C25.5417 13.7977 24.2239 15.1158 22.5922 15.1158H9.1755C7.69097 15.1158 6.36513 15.8005 5.5 16.8718V10.6836C5.5 10.1912 5.76235 9.7343 6.19139 9.48477L15.2956 4.18982C15.7307 3.93673 16.2693 3.93673 16.7044 4.18982L25.8086 9.48477C26.2377 9.7343 26.5 10.1912 26.5 10.6836V12.1781ZM12.1667 11.2671H13.125C13.3694 11.2671 13.5625 11.4639 13.5625 11.7003V13.6113H15.5625V11.7003C15.5625 10.3537 14.4684 9.26713 13.125 9.26713H12.1667C10.8233 9.26713 9.72917 10.3537 9.72917 11.7003V13.6113H11.7292V11.7003C11.7292 11.4639 11.9222 11.2671 12.1667 11.2671ZM12.1667 22.7329H13.125C14.4684 22.7329 15.5625 21.6463 15.5625 20.2997V18.3887H13.5625V20.2997C13.5625 20.5361 13.3694 20.7329 13.125 20.7329H12.1667C11.9222 20.7329 11.7292 20.5361 11.7292 20.2997V18.3887H9.72917V20.2997C9.72917 21.6463 10.8233 22.7329 12.1667 22.7329ZM19.3542 11.2671H20.3125C20.5569 11.2671 20.75 11.4639 20.75 11.7003V13.6113H22.75V11.7003C22.75 10.3537 21.6559 9.26713 20.3125 9.26713H19.3542C18.0108 9.26713 16.9167 10.3537 16.9167 11.7003V13.6113H18.9167V11.7003C18.9167 11.4639 19.1097 11.2671 19.3542 11.2671ZM19.3542 22.7329H20.3125C21.6559 22.7329 22.75 21.6463 22.75 20.2997V18.3887H20.75V20.2997C20.75 20.5361 20.5569 20.7329 20.3125 20.7329H19.3542C19.1097 20.7329 18.9167 20.5361 18.9167 20.2997V18.3887H16.9167V20.2997C16.9167 21.6463 18.0108 22.7329 19.3542 22.7329Z" stroke="#7B3BE7" stroke-width="2"/>
</svg>
