<svg width="80" height="80" viewBox="0 0 80 80" fill="none" xmlns="http://www.w3.org/2000/svg">
  <rect width="80" height="80" rx="40" fill="#8247E5"/>
  <g clip-path="url(#clip0_5542_33442)">
    <path
      d="M52.4583 31.1753C51.5542 30.6586 50.3917 30.6586 49.3583 31.1753L42.125 35.4378L37.2167 38.1503L30.1125 42.4128C29.2083 42.9294 28.0458 42.9294 27.0125 42.4128L21.4583 39.0544C20.5542 38.5378 19.9083 37.5044 19.9083 36.3419V29.8836C19.9083 28.8503 20.425 27.8169 21.4583 27.1711L27.0125 23.9419C27.9167 23.4253 29.0792 23.4253 30.1125 23.9419L35.6667 27.3003C36.5708 27.8169 37.2167 28.8503 37.2167 30.0128V34.2753L42.125 31.4336V27.0419C42.125 26.0086 41.6083 24.9753 40.575 24.3294L30.2417 18.2586C29.3375 17.7419 28.175 17.7419 27.1417 18.2586L16.55 24.4586C15.5167 24.9753 15 26.0086 15 27.0419V39.1836C15 40.2169 15.5167 41.2503 16.55 41.8961L27.0125 47.9669C27.9167 48.4836 29.0792 48.4836 30.1125 47.9669L37.2167 43.8336L42.125 40.9919L49.2292 36.8586C50.1333 36.3419 51.2958 36.3419 52.3292 36.8586L57.8833 40.0878C58.7875 40.6044 59.4333 41.6378 59.4333 42.8003V49.2586C59.4333 50.2919 58.9167 51.3253 57.8833 51.9711L52.4583 55.2003C51.5542 55.7169 50.3917 55.7169 49.3583 55.2003L43.8042 51.9711C42.9 51.4544 42.2542 50.4211 42.2542 49.2586V45.1253L37.3458 47.9669V52.2294C37.3458 53.2628 37.8625 54.2961 38.8958 54.9419L49.3583 61.0128C50.2625 61.5294 51.425 61.5294 52.4583 61.0128L62.9208 54.9419C63.825 54.4253 64.4708 53.3919 64.4708 52.2294V39.9586C64.4708 38.9253 63.9542 37.8919 62.9208 37.2461L52.4583 31.1753Z"
      fill="white"/>
  </g>
  <defs>
    <clipPath id="clip0_5542_33442">
      <rect width="49.6" height="43.2708" fill="white" transform="translate(15 18)"/>
    </clipPath>
  </defs>
</svg>
