<svg width="32" height="32" viewBox="0 0 32 32" fill="none" xmlns="http://www.w3.org/2000/svg">
<rect width="32" height="32" rx="16" fill="white"/>
<g clip-path="url(#clip0_12402_26592)">
<path d="M24.6143 19.6651V7.75731C24.5984 6.76094 23.8235 5.95898 22.8509 5.95898H10.7208C8.10339 5.99949 6 8.19474 6 10.8841C6 11.7914 6.23723 12.569 6.60097 13.2495C6.90936 13.8165 7.39172 14.3512 7.86617 14.7481C8.00059 14.8615 7.93734 14.8129 8.34853 15.0721C8.91787 15.4285 9.56628 15.6067 9.56628 15.6067L9.55837 22.7271C9.57419 23.0673 9.60582 23.3913 9.6928 23.6911C9.96165 24.6956 10.6417 25.4651 11.5669 25.8377C11.9543 25.9916 12.3893 26.0969 12.8558 26.1051L22.5425 26.1374C24.4719 26.1374 26.0376 24.5336 26.0376 22.5489C26.0455 21.3743 25.4762 20.3213 24.6143 19.6651Z" fill="#FFEEDA"/>
<path d="M24.8514 22.6385C24.8119 23.9103 23.7918 24.9309 22.5425 24.9309L15.8765 24.9066C16.4062 24.2748 16.7304 23.4566 16.7304 22.5655C16.7304 21.1642 15.916 20.2002 15.916 20.2002H22.5503C23.8235 20.2002 24.8593 21.2613 24.8593 22.5655L24.8514 22.6385Z" fill="#EBC28E"/>
<path d="M8.49877 13.7443C7.73174 12.999 7.19403 12.0351 7.19403 10.8929V10.7714C7.25729 8.81916 8.82297 7.24766 10.7287 7.19095H22.8588C23.1751 7.20715 23.4282 7.43397 23.4282 7.76609V18.2806C23.7049 18.3292 23.8393 18.3697 24.1082 18.467C24.3217 18.548 24.6143 18.718 24.6143 18.718V7.76609C24.5984 6.76972 23.8235 5.96777 22.8509 5.96777H10.7208C8.10339 6.00828 6 8.20352 6 10.8929C6 12.4563 6.69586 13.7929 7.83454 14.7325C7.91361 14.7974 7.98478 14.8784 8.19038 14.8784C8.54622 14.8784 8.79926 14.5867 8.78344 14.2708C8.77553 14.0035 8.66483 13.9063 8.49877 13.7443Z" fill="#101010"/>
<path d="M22.5425 18.9689H13.0298C12.3893 18.977 11.8753 19.5036 11.8753 20.1597V21.561C11.8911 22.2091 12.4288 22.7599 13.0693 22.7599H13.7731V21.561H13.0693V20.1921C13.0693 20.1921 13.2433 20.1921 13.4568 20.1921C14.6587 20.1921 15.5444 21.3342 15.5444 22.5574C15.5444 23.6429 14.5797 25.0281 12.9665 24.9147C11.5353 24.8175 10.7603 23.5133 10.7603 22.5574V10.682C10.7603 10.1474 10.3333 9.70996 9.81145 9.70996H8.86255V10.925H9.56632V22.5655C9.52678 24.9309 11.2111 26.1217 12.9665 26.1217L22.5505 26.1541C24.4799 26.1541 26.0456 24.5502 26.0456 22.5655C26.0456 20.5809 24.472 18.9689 22.5425 18.9689ZM24.8515 22.6384C24.8119 23.9102 23.7919 24.9309 22.5425 24.9309L15.8765 24.9066C16.4063 24.2747 16.7305 23.4565 16.7305 22.5655C16.7305 21.1642 15.916 20.2002 15.916 20.2002H22.5505C23.8235 20.2002 24.8594 21.2614 24.8594 22.5655L24.8515 22.6384Z" fill="#101010"/>
<path d="M19.9802 11.1438H12.8081V9.92871H19.9802C20.3044 9.92871 20.5733 10.196 20.5733 10.5363C20.5733 10.8684 20.3124 11.1438 19.9802 11.1438Z" fill="#101010"/>
<path d="M19.9802 16.8626H12.8081V15.6475H19.9802C20.3044 15.6475 20.5733 15.9148 20.5733 16.2551C20.5733 16.5872 20.3124 16.8626 19.9802 16.8626Z" fill="#101010"/>
<path d="M21.2454 14.0032H12.8081V12.7881H21.2375C21.5617 12.7881 21.8306 13.0554 21.8306 13.3956C21.8384 13.7277 21.5696 14.0032 21.2454 14.0032Z" fill="#101010"/>
</g>
<defs>
<clipPath id="clip0_12402_26592">
<rect width="20.5" height="21" fill="white" transform="translate(6 5.5)"/>
</clipPath>
</defs>
</svg>
