<svg width="32" height="32" viewBox="0 0 32 32" fill="none" xmlns="http://www.w3.org/2000/svg">
<rect width="32" height="32" rx="16" fill="black"/>
<path d="M9.4515 20.5036L6.72574 25.5H25.2777L22.5519 20.5036H9.4515Z" fill="white"/>
<path d="M16.0022 8.49638L13.2765 3.5L4 20.5029L9.4515 20.5036L16.0022 8.49638Z" fill="white"/>
<path d="M22.5511 20.502H28L18.727 3.5L16.0013 8.49638L22.5511 20.502Z" fill="white"/>
<path d="M18.9522 16.5164C18.9534 17.1344 18.7813 17.7388 18.4578 18.2532C18.1342 18.7676 17.6737 19.1689 17.1346 19.4062C16.5954 19.6435 16.0019 19.7062 15.429 19.5864C14.8561 19.4665 14.3298 19.1695 13.9164 18.7329C13.5032 18.2964 13.2216 17.7399 13.1074 17.1338C12.9931 16.5279 13.0513 15.8995 13.2746 15.3286C13.4979 14.7576 13.8762 14.2696 14.3618 13.9263C14.8474 13.5829 15.4182 13.3998 16.0021 13.4C16.7836 13.4002 17.533 13.7285 18.0861 14.3126C18.6391 14.8969 18.9507 15.6895 18.9522 16.5164Z" fill="white"/>
</svg>
