<svg width="35" height="35" viewBox="0 0 35 35" fill="none" xmlns="http://www.w3.org/2000/svg">
<path d="M10.9515 22.0529L8.22574 27.0493H26.7777L24.0519 22.0529H10.9515Z" fill="#7D7D7D"/>
<path d="M17.5022 10.0457L14.7765 5.04932L5.5 22.0522L10.9515 22.0529L17.5022 10.0457Z" fill="#7D7D7D"/>
<path d="M24.0511 22.0513H29.5L20.227 5.04932L17.5013 10.0457L24.0511 22.0513Z" fill="#7D7D7D"/>
<path d="M20.4522 18.0657C20.4534 18.6837 20.2813 19.2881 19.9578 19.8025C19.6342 20.3169 19.1737 20.7182 18.6346 20.9555C18.0954 21.1928 17.5019 21.2555 16.929 21.1357C16.3561 21.0158 15.8298 20.7188 15.4164 20.2823C15.0032 19.8457 14.7216 19.2892 14.6074 18.6832C14.4931 18.0772 14.5513 17.4489 14.7746 16.8779C14.9979 16.307 15.3762 15.8189 15.8618 15.4756C16.3474 15.1323 16.9182 14.9491 17.5021 14.9493C18.2836 14.9495 19.033 15.2778 19.5861 15.862C20.1391 16.4462 20.4507 17.2388 20.4522 18.0657Z" fill="#7D7D7D"/>
<rect x="1" y="1.04932" width="33" height="33" rx="16.5" stroke="#7D7D7D"/>
</svg>
