<svg width="35" height="35" viewBox="0 0 35 35" fill="none" xmlns="http://www.w3.org/2000/svg">
<path d="M11.1197 21.6506C11.2356 21.5336 11.3949 21.4653 11.5639 21.4653H26.8872C27.1672 21.4653 27.3072 21.8067 27.1092 22.0066L24.0822 25.0642C23.9664 25.1812 23.8071 25.2495 23.6381 25.2495H8.31478C8.03477 25.2495 7.89476 24.9081 8.0927 24.7082L11.1197 21.6506Z" fill="#7D7D7D"/>
<path d="M11.1197 10.2346C11.2404 10.1176 11.3997 10.0493 11.5639 10.0493H26.8872C27.1672 10.0493 27.3072 10.3907 27.1092 10.5906L24.0822 13.6482C23.9664 13.7652 23.8071 13.8335 23.6381 13.8335H8.31478C8.03477 13.8335 7.89476 13.4921 8.0927 13.2922L11.1197 10.2346Z" fill="#7D7D7D"/>
<path d="M24.0822 15.906C23.9664 15.789 23.8071 15.7207 23.6381 15.7207H8.31478C8.03477 15.7207 7.89476 16.0621 8.0927 16.262L11.1197 19.3195C11.2356 19.4366 11.3949 19.5049 11.5639 19.5049H26.8872C27.1672 19.5049 27.3072 19.1635 27.1092 18.9636L24.0822 15.906Z" fill="#7D7D7D"/>
<rect x="1" y="1.04932" width="33" height="33" rx="16.5" stroke="#7D7D7D"/>
</svg>
