<svg width="35" height="35" viewBox="0 0 35 35" fill="none" xmlns="http://www.w3.org/2000/svg">
<path fill-rule="evenodd" clip-rule="evenodd" d="M11.0151 24.4027C12.3686 26.6863 14.793 28.0493 17.5 28.0493C20.207 28.0493 22.6309 26.6863 23.9849 24.4027C25.3384 22.1196 25.3384 19.3935 23.9849 17.11L18.2813 7.48864C17.934 6.90287 17.0659 6.90288 16.7187 7.48864L11.0151 17.11C9.66163 19.393 9.66163 22.1192 11.0151 24.4027ZM15.8933 12.0659L17.1093 10.0145C17.283 9.72162 17.717 9.72162 17.8907 10.0145L22.5689 17.9065C23.4284 19.3564 23.5897 21.0344 23.0529 22.57C22.997 22.3194 22.9189 22.0631 22.8135 21.8042C22.1673 20.2159 20.7062 18.9903 18.4699 18.1611C16.9324 17.5931 15.951 16.7577 15.5522 15.678C15.0386 14.2863 15.5751 12.7688 15.8933 12.0659ZM13.8197 15.564L12.4311 17.9065C11.373 19.6914 11.373 21.8222 12.4311 23.6071C13.4892 25.392 15.3838 26.4572 17.5 26.4572C18.9055 26.4572 20.2137 25.9868 21.2437 25.148C21.3781 24.8186 21.7941 23.6128 21.2801 22.37C20.8054 21.2225 19.6631 20.3064 17.8846 19.6465C15.8742 18.9038 14.5681 17.7443 14.0033 16.2012C13.9255 15.9888 13.8651 15.7758 13.8197 15.564Z" fill="#7D7D7D"/>
<rect x="1" y="1.04932" width="33" height="33" rx="16.5" stroke="#7D7D7D"/>
</svg>
