<svg width="80" height="80" viewBox="0 0 80 80" fill="none" xmlns="http://www.w3.org/2000/svg">
  <g clip-path="url(#clip0_5542_33421)">
    <path
      d="M40 80C62.0914 80 80 62.0914 80 40C80 17.9086 62.0914 0 40 0C17.9086 0 0 17.9086 0 40C0 62.0914 17.9086 80 40 80Z"
      fill="#6FBCF0"/>
    <path fill-rule="evenodd" clip-rule="evenodd"
          d="M24.4363 56.8742C27.6848 62.5013 33.5033 65.8602 40.0002 65.8602C46.4972 65.8602 52.3146 62.5013 55.5642 56.8742C58.8127 51.2481 58.8127 44.5303 55.5642 38.9032L41.8754 15.1939C41.042 13.7505 38.9585 13.7505 38.1251 15.1939L24.4363 38.9032C21.1879 44.5291 21.1879 51.2471 24.4363 56.8742ZM36.1441 26.4735L39.0626 21.4183C39.4794 20.6965 40.5211 20.6965 40.9379 21.4183L52.1657 40.866C54.2286 44.4388 54.6158 48.5739 53.3273 52.3578C53.1932 51.7405 53.0057 51.1089 52.7529 50.4708C51.2021 46.5569 47.6952 43.5366 42.3281 41.4933C38.6381 40.0936 36.2827 38.035 35.3256 35.3743C34.0928 31.945 35.3804 28.2053 36.1441 26.4735ZM31.1674 35.0934L27.8347 40.866C25.2952 45.2644 25.2952 50.515 27.8347 54.9135C30.3741 59.3119 34.9213 61.9367 40.0002 61.9367C43.3736 61.9367 46.5132 60.7778 48.9854 58.7106C49.3079 57.8989 50.3062 54.9276 49.0727 51.8652C47.9335 49.0373 45.1918 46.7798 40.9233 45.1538C36.0983 43.3236 32.9636 40.4663 31.6081 36.6637C31.4214 36.1402 31.2764 35.6155 31.1674 35.0934Z"
          fill="white"/>
  </g>
  <defs>
    <clipPath id="clip0_5542_33421">
      <rect width="80" height="80" fill="white"/>
    </clipPath>
  </defs>
</svg>
