<svg width="80" height="80" viewBox="0 0 80 80" fill="none" xmlns="http://www.w3.org/2000/svg">
  <rect width="80" height="80" rx="40" fill="#FF060A"/>
  <g clip-path="url(#clip0_5542_33408)">
    <path
      d="M63.2383 32.8571C61.082 30.8662 58.0992 27.8259 55.6698 25.6696L55.5261 25.569C55.2869 25.3769 55.0172 25.2263 54.7283 25.1234C48.8705 24.0309 21.6083 18.9349 21.0764 18.9996C20.9274 19.0205 20.7849 19.0745 20.6595 19.1578L20.523 19.2656C20.3548 19.4363 20.2271 19.6427 20.1492 19.8693L20.1133 19.9628V20.4731V20.5521C23.1823 29.0981 35.3005 57.0934 37.6867 63.6628C37.8305 64.1084 38.1036 64.9565 38.6139 64.9996H38.7289C39.002 64.9996 40.1664 63.4615 40.1664 63.4615C40.1664 63.4615 60.9814 38.219 63.0873 35.5309C63.3599 35.1998 63.6006 34.8436 63.8061 34.4671C63.8585 34.1726 63.8338 33.8695 63.7343 33.5873C63.6348 33.3052 63.4639 33.0536 63.2383 32.8571ZM45.5067 35.7968L54.3905 28.4296L59.6014 33.2309L45.5067 35.7968ZM42.0567 35.3153L26.7617 22.7803L51.5083 27.3443L42.0567 35.3153ZM43.4367 38.5999L59.0911 36.0771L41.1942 57.6396L43.4367 38.5999ZM24.6845 24.0309L40.7773 37.6871L38.4486 57.654L24.6845 24.0309Z"
      fill="white"/>
  </g>
  <defs>
    <clipPath id="clip0_5542_33408">
      <rect width="46" height="46" fill="white" transform="translate(19 19)"/>
    </clipPath>
  </defs>
</svg>
