<svg width="91" height="24" viewBox="0 0 91 24" fill="none" xmlns="http://www.w3.org/2000/svg">
<path d="M22.4612 6.2782L21.958 5.40174C21.7876 5.10959 21.3899 5.05278 21.1546 5.29624L20.0103 6.4405C19.8399 6.61093 19.8156 6.87873 19.9454 7.08973C20.3674 7.73084 20.7001 8.42065 20.9355 9.1348C21.2439 10.0518 21.4062 11.0257 21.4062 11.9995C21.4062 16.9417 17.381 20.967 12.4387 20.967C10.9536 20.967 9.51721 20.6099 8.23499 19.9201L10.1664 17.9886C10.8887 18.2645 11.6597 18.4025 12.4306 18.4025C15.9608 18.4025 18.8336 15.5297 18.8336 11.9995C18.8336 11.7804 18.8174 11.5613 18.8012 11.3341C18.7281 10.5956 18.5171 9.87329 18.2006 9.20783C18.0464 8.89134 17.6244 8.8183 17.3729 9.06987L16.2124 10.2304C16.0906 10.3521 16.0338 10.5387 16.0744 10.7092L16.1718 11.1231C16.2367 11.4152 16.2773 11.7074 16.2773 11.9995C16.2773 14.1176 14.5568 15.8462 12.4306 15.8462C11.7652 15.8462 11.1078 15.6676 10.5316 15.343L10.0204 15.0509C9.81748 14.9373 9.5659 14.9697 9.40359 15.132L4.68047 19.8551C4.46136 20.0743 4.4857 20.4395 4.72916 20.6261L5.42708 21.1617C7.45592 22.7199 9.87429 23.5395 12.4387 23.5395C18.793 23.5395 23.9706 18.37 23.9706 12.0076C23.9787 9.98691 23.4594 8.00676 22.4612 6.2782Z" fill="white"/>
<path d="M19.4596 2.83775C17.4307 1.27961 15.0123 0.459961 12.4479 0.459961C6.0936 0.459961 0.916016 5.62943 0.916016 11.9918C0.916016 13.9963 1.44351 15.9765 2.43358 17.7132L2.93673 18.5896C3.10716 18.8818 3.50481 18.9386 3.74015 18.6951L4.88441 17.5508C5.05484 17.3804 5.07918 17.1126 4.94934 16.9016C4.53545 16.2605 4.19461 15.5707 3.95927 14.8566C3.65088 13.9395 3.48858 12.9657 3.48858 11.9918C3.48858 7.04961 7.51378 3.0244 12.456 3.0244C13.9411 3.0244 15.3775 3.38148 16.6598 4.07128L14.7283 6.00273C14.006 5.72681 13.2351 5.58885 12.4641 5.58885C8.93396 5.58885 6.06114 8.46168 6.06114 11.9918C6.06114 12.0973 6.0936 12.5843 6.10171 12.6654C6.18287 13.4039 6.38575 14.1181 6.70225 14.7835C6.85644 15.1 7.27844 15.1731 7.53001 14.9215L8.6905 13.761C8.81223 13.6393 8.86904 13.4526 8.82847 13.2822L8.73108 12.8683C8.66616 12.5762 8.62558 12.284 8.62558 11.9918C8.62558 9.87374 10.346 8.14518 12.4722 8.14518C13.1377 8.14518 13.795 8.32372 14.3712 8.64833L14.8825 8.94048C15.0854 9.0541 15.337 9.02164 15.4993 8.85933L20.2224 4.13621C20.4415 3.91709 20.4172 3.5519 20.1737 3.36525L19.4596 2.83775Z" fill="white"/>
<path d="M38.8823 15.1699C38.7119 15.0238 38.4684 15.032 38.2736 15.1861C37.5351 15.7623 36.6749 16.2898 35.417 16.2898C33.1204 16.2898 31.2458 14.3503 31.2458 11.9725C31.2458 9.57845 33.1123 7.63888 35.4008 7.63888C36.399 7.63888 37.4702 8.06088 38.2574 8.75068C38.4035 8.89676 38.5333 8.9211 38.6145 8.91299C38.6956 8.90487 38.8092 8.87241 38.9066 8.74257L39.6532 7.97161C39.7506 7.87423 39.7993 7.74438 39.7993 7.61454C39.7993 7.48469 39.7344 7.35485 39.6289 7.26558C38.3304 6.12943 37.0158 5.61816 35.3765 5.61816C31.8788 5.61816 29.0303 8.48288 29.0303 12.0049C29.0303 15.5108 31.8788 18.3592 35.3765 18.3592C37.0239 18.3592 38.5009 17.7668 39.6532 16.6388C39.7506 16.5414 39.8074 16.3953 39.8074 16.2574C39.8074 16.1356 39.7506 16.0301 39.6695 15.9571L38.8823 15.1699Z" fill="white"/>
<path d="M44.3308 5.7959H43.1946C42.9349 5.7959 42.7158 6.02313 42.7158 6.2747V17.7092C42.7158 17.9689 42.943 18.188 43.1946 18.188H44.3308C44.5905 18.188 44.8096 17.9608 44.8096 17.7092V6.2747C44.8096 6.01501 44.5905 5.7959 44.3308 5.7959Z" fill="white"/>
<path d="M57.7241 9.64257C57.7241 7.51635 55.9793 5.7959 53.8287 5.7959H49.1624C48.8946 5.7959 48.6836 6.01501 48.6836 6.2747V17.7092C48.6836 17.977 48.9027 18.188 49.1624 18.188H50.2742C50.5339 18.188 50.753 17.9608 50.753 17.7092V13.4568H53.0902L55.3301 17.9446C55.3869 18.0582 55.541 18.188 55.7439 18.188H57.083C57.2696 18.188 57.4238 18.1069 57.505 17.9608C57.5942 17.8147 57.5942 17.6199 57.505 17.4576L55.2327 13.2214C56.7827 12.5397 57.7241 11.1845 57.7241 9.64257ZM55.6303 9.67503C55.6303 10.7544 54.7457 11.6633 53.6908 11.6633H50.7936V7.77604H53.6908C54.7457 7.77604 55.6303 8.64438 55.6303 9.67503Z" fill="white"/>
<path d="M69.9233 15.1699C69.7529 15.0238 69.5094 15.032 69.3147 15.1861C68.5762 15.7623 67.7159 16.2898 66.4581 16.2898C64.1614 16.2898 62.2868 14.3503 62.2868 11.9725C62.2868 9.57845 64.1533 7.63888 66.4418 7.63888C67.44 7.63888 68.5112 8.06088 69.2984 8.75068C69.4445 8.89676 69.5743 8.9211 69.6555 8.91299C69.7367 8.90487 69.8503 8.87241 69.9476 8.74257L70.6943 7.97161C70.7916 7.87423 70.8403 7.74438 70.8403 7.61454C70.8403 7.48469 70.7754 7.35485 70.6699 7.26558C69.3715 6.12943 68.0568 5.61816 66.4175 5.61816C62.9198 5.61816 60.0713 8.48288 60.0713 12.0049C60.0713 15.5108 62.9198 18.3592 66.4175 18.3592C68.0649 18.3592 69.5419 17.7668 70.6943 16.6388C70.7916 16.5414 70.8485 16.3953 70.8485 16.2574C70.8485 16.1356 70.7916 16.0301 70.7105 15.9571L69.9233 15.1699Z" fill="white"/>
<path d="M80.3455 16.2728H75.8496V6.2747C75.8496 6.01501 75.6224 5.7959 75.3708 5.7959H74.2347C73.9669 5.7959 73.7559 6.01501 73.7559 6.2747V17.7092C73.7559 17.977 73.975 18.188 74.2347 18.188H80.3455C80.6133 18.188 80.8243 17.9689 80.8243 17.7092V16.7597C80.8324 16.4919 80.6133 16.2728 80.3455 16.2728Z" fill="white"/>
<path d="M90.5211 7.72753C90.7889 7.72753 90.9999 7.50842 90.9999 7.24873V6.283C90.9999 6.0152 90.7808 5.8042 90.5211 5.8042H83.6556C83.3877 5.8042 83.1768 6.02331 83.1768 6.283V17.7175C83.1768 17.9853 83.3959 18.1963 83.6556 18.1963H90.5211C90.7889 18.1963 90.9999 17.9772 90.9999 17.7175V16.768C90.9999 16.5002 90.7808 16.2892 90.5211 16.2892H85.2543V12.8889H89.6852C89.9531 12.8889 90.1641 12.6698 90.1641 12.4101V11.4444C90.1641 11.1847 89.9368 10.9656 89.6852 10.9656H85.2543V7.75188H90.5211V7.72753Z" fill="white"/>
</svg>
