<svg width="131" height="24" viewBox="0 0 131 24" fill="none" xmlns="http://www.w3.org/2000/svg">
<g clip-path="url(#clip0_3079_2730)">
<path d="M122.081 19.6338L117.185 8.41402H120.463L123.807 16.4607L127.671 8.41402H130.895L123.275 23.8683H119.997L122.081 19.6338ZM110.16 17.3108C110.449 17.2451 110.728 17.1413 110.99 17.0021C111.243 16.8677 111.478 16.7022 111.69 16.5094C111.902 16.3161 112.084 16.0937 112.233 15.8488C112.388 15.5915 112.509 15.3147 112.591 15.0257C112.68 14.7103 112.724 14.384 112.721 14.0564C112.724 13.7252 112.681 13.3953 112.591 13.0763C112.509 12.7873 112.388 12.5105 112.233 12.2532C112.084 12.0073 111.901 11.7832 111.69 11.5872C111.481 11.3927 111.245 11.2286 110.99 11.0998C110.726 10.9674 110.447 10.8674 110.16 10.802C109.857 10.7328 109.547 10.6983 109.237 10.6991C108.928 10.6981 108.62 10.7326 108.32 10.802C108.035 10.8675 107.76 10.9675 107.5 11.0998C107.246 11.2304 107.01 11.3943 106.8 11.5872C106.586 11.7821 106.402 12.0064 106.252 12.2532C106.096 12.5099 105.978 12.787 105.899 13.0763C105.813 13.3959 105.771 13.7256 105.774 14.0564C105.772 14.3836 105.814 14.7097 105.899 15.0257C105.978 15.315 106.096 15.5921 106.252 15.8488C106.401 16.0946 106.586 16.3172 106.8 16.5094C107.013 16.7006 107.248 16.866 107.5 17.0021C107.758 17.1412 108.034 17.245 108.32 17.3108C108.62 17.3804 108.928 17.4149 109.237 17.4137C109.547 17.4147 109.857 17.3802 110.16 17.3108ZM106.854 19.8234C106.352 19.6958 105.868 19.5028 105.416 19.2494C104.535 18.7553 103.808 18.0282 103.315 17.1484C103.061 16.6935 102.868 16.2074 102.74 15.7026C102.472 14.6178 102.472 13.4843 102.74 12.3995C102.867 11.8961 103.061 11.4118 103.315 10.9591C103.811 10.0823 104.537 9.35759 105.416 8.86349C105.868 8.61013 106.352 8.41715 106.854 8.2895C107.392 8.1535 107.944 8.08618 108.499 8.08915C108.798 8.08847 109.097 8.10656 109.394 8.1433C109.668 8.17704 109.938 8.23134 110.203 8.30574C110.449 8.37532 110.69 8.46033 110.925 8.56025C111.145 8.65362 111.357 8.76406 111.56 8.89056C111.75 9.00964 111.929 9.14751 112.092 9.3021C112.244 9.44656 112.386 9.60222 112.515 9.76779V8.41402H115.631V19.6988H112.515V18.3451C112.316 18.5944 112.088 18.8197 111.837 19.0165C111.559 19.2344 111.254 19.4163 110.93 19.558C110.57 19.7158 110.193 19.8321 109.807 19.9046C109.376 19.986 108.938 20.0259 108.499 20.0237C107.944 20.0267 107.392 19.9594 106.854 19.8234ZM95.5438 11.2731C95.99 11.2813 96.4354 11.2303 96.8681 11.1215C97.2055 11.0365 97.5203 10.8795 97.7908 10.6612C98.0351 10.458 98.2221 10.1949 98.3336 9.89772C98.4551 9.56102 98.5139 9.20502 98.5073 8.84722C98.5143 8.49117 98.4554 8.13689 98.3336 7.80213C98.2218 7.50818 98.0347 7.24864 97.7908 7.04945C97.519 6.83448 97.2045 6.67945 96.8681 6.59459C96.4353 6.48593 95.99 6.43495 95.5438 6.44297H92.4826V11.2731L95.5438 11.2731ZM89.2586 3.77881H95.8477C96.8827 3.77881 97.78 3.90516 98.5398 4.15786C99.2997 4.41056 99.9256 4.76073 100.418 5.20836C100.907 5.6522 101.285 6.20509 101.52 6.82203C101.766 7.4724 101.889 8.16277 101.883 8.85805C101.891 9.55171 101.768 10.2406 101.52 10.8887C101.281 11.5005 100.904 12.049 100.418 12.4915C99.9257 12.9428 99.2997 13.2948 98.5398 13.5474C97.78 13.8003 96.8826 13.9266 95.8477 13.9265H92.4826V19.6988H89.2586V3.77881ZM75.4145 8.41402H78.5083V9.76777C78.6992 9.50501 78.9257 9.26993 79.1813 9.06923C79.4518 8.85749 79.747 8.6793 80.0606 8.53857C80.406 8.38445 80.7686 8.27175 81.1407 8.20284C81.554 8.12529 81.9739 8.08721 82.3945 8.08913C83.0494 8.07977 83.7006 8.18988 84.3158 8.41402C84.864 8.61549 85.3607 8.93539 85.7704 9.35081C86.1821 9.78133 86.4935 10.2972 86.6823 10.8616C86.9001 11.5106 87.0065 12.1916 86.9971 12.876V19.6988H83.9033V13.6774C83.9108 13.2372 83.8485 12.7986 83.7188 12.3778C83.6115 12.0304 83.4321 11.7093 83.1923 11.4356C82.9618 11.1813 82.6732 10.9862 82.351 10.867C81.9858 10.7352 81.5996 10.671 81.2112 10.6775C80.8212 10.6713 80.4332 10.7355 80.066 10.867C79.7417 10.9852 79.4511 11.1803 79.2193 11.4356C78.9795 11.7093 78.8002 12.0304 78.6928 12.3778C78.5631 12.7986 78.5009 13.2372 78.5083 13.6774V19.6988H75.4145V8.41402ZM67.8015 17.2783C68.0969 17.2071 68.3829 17.1017 68.6537 16.9642C68.9113 16.8328 69.1474 16.663 69.3538 16.4606C69.5582 16.261 69.7352 16.0352 69.8803 15.7892C70.0282 15.5358 70.1379 15.2622 70.206 14.9769C70.2798 14.6683 70.3162 14.352 70.3145 14.0347C70.3164 13.7192 70.28 13.4047 70.206 13.0979C70.0691 12.5326 69.7735 12.0179 69.3538 11.6142C69.1447 11.4136 68.9091 11.2424 68.6537 11.1052C68.3851 10.9615 68.0985 10.854 67.8015 10.7858C67.4793 10.7119 67.1497 10.6756 66.8191 10.6775C66.4922 10.676 66.1661 10.7123 65.8476 10.7858C65.5521 10.8534 65.2673 10.9609 65.0009 11.1052C64.7476 11.2433 64.514 11.4145 64.3061 11.6142C64.1014 11.8109 63.9276 12.0373 63.7905 12.2857C63.6505 12.5409 63.5412 12.8117 63.4649 13.0926C63.3829 13.3999 63.3427 13.7168 63.3455 14.0348C63.3436 14.3527 63.3837 14.6695 63.4649 14.977C63.5391 15.2602 63.6485 15.533 63.7905 15.7892C63.9293 16.0365 64.1029 16.2626 64.3061 16.4607C64.5113 16.6621 64.7454 16.8319 65.0009 16.9643C65.2695 17.1023 65.5538 17.2078 65.8476 17.2784C66.1656 17.3554 66.4919 17.3936 66.8191 17.3921C67.15 17.394 67.4799 17.3558 67.8015 17.2783ZM64.9954 19.8179C64.4372 19.6883 63.8962 19.4939 63.3834 19.2385C62.9011 18.9987 62.4538 18.6944 62.0537 18.3342C61.6659 17.9843 61.3297 17.5814 61.055 17.1375C60.7765 16.6857 60.5627 16.1973 60.4199 15.6863C60.1232 14.6052 60.1232 13.4643 60.4199 12.3832C60.5621 11.8738 60.7759 11.387 61.055 10.9374C61.3317 10.495 61.6677 10.0924 62.0537 9.74072C62.4527 9.37766 62.9002 9.07151 63.3834 8.831C63.8963 8.57577 64.4373 8.38132 64.9954 8.2516C66.203 7.97724 67.4569 7.97724 68.6645 8.2516C69.2195 8.38016 69.7571 8.57468 70.2656 8.831C70.7468 9.07509 71.1938 9.38092 71.5954 9.74072C71.9873 10.0911 72.3289 10.4938 72.6104 10.9374C72.8925 11.386 73.1082 11.873 73.2508 12.3832C73.5475 13.4643 73.5475 14.6052 73.2508 15.6863C73.1076 16.198 72.892 16.6867 72.6104 17.1375C72.3309 17.5826 71.9891 17.9856 71.5954 18.3342C71.1928 18.6912 70.7458 18.9951 70.2656 19.2385C69.7588 19.4944 69.2231 19.6889 68.6699 19.8179C67.4605 20.0923 66.2048 20.0923 64.9954 19.8179ZM52.9232 17.2783C53.2185 17.2071 53.5045 17.1017 53.7753 16.9642C54.033 16.8328 54.2691 16.663 54.4755 16.4606C54.6799 16.261 54.8569 16.0352 55.002 15.7892C55.15 15.5359 55.2597 15.2622 55.3276 14.9769C55.4014 14.6683 55.4379 14.352 55.4362 14.0347C55.4381 13.7192 55.4016 13.4047 55.3276 13.0979C55.1908 12.5326 54.8952 12.0179 54.4755 11.6142C54.2663 11.4136 54.0308 11.2424 53.7753 11.1052C53.5068 10.9615 53.2202 10.854 52.9232 10.7858C52.601 10.7119 52.2713 10.6756 51.9408 10.6775C51.6138 10.676 51.2878 10.7123 50.9692 10.7858C50.6738 10.8534 50.3889 10.9609 50.1225 11.1052C49.8693 11.2434 49.6357 11.4146 49.4278 11.6142C49.223 11.8109 49.0492 12.0373 48.9122 12.2857C48.7723 12.541 48.663 12.8118 48.5865 13.0925C48.5045 13.3998 48.4644 13.7167 48.4671 14.0347C48.4653 14.3527 48.5054 14.6695 48.5865 14.9769C48.6609 15.2601 48.7703 15.5329 48.9122 15.7892C49.0509 16.0365 49.2246 16.2626 49.4278 16.4606C49.633 16.6621 49.8671 16.8318 50.1225 16.9642C50.3912 17.1023 50.6754 17.2077 50.9692 17.2783C51.2873 17.3554 51.6135 17.3936 51.9408 17.392C52.2717 17.394 52.6015 17.3558 52.9232 17.2783ZM50.1171 19.8179C49.5589 19.6884 49.0179 19.4939 48.5051 19.2386C48.0228 18.9987 47.5755 18.6945 47.1753 18.3343C46.7876 17.9843 46.4514 17.5814 46.1767 17.1376C45.8982 16.6858 45.6844 16.1973 45.5416 15.6864C45.2449 14.6052 45.2449 13.4644 45.5416 12.3833C45.6838 11.8738 45.8976 11.3871 46.1767 10.9375C46.4534 10.4951 46.7894 10.0925 47.1753 9.74078C47.5744 9.37775 48.0219 9.0716 48.5051 8.83106C49.0179 8.57583 49.559 8.38137 50.1171 8.25165C51.3247 7.97729 52.5786 7.97729 53.7862 8.25165C54.3412 8.38019 54.8788 8.57471 55.3873 8.83106C55.8685 9.07511 56.3155 9.38095 56.7171 9.74078C57.1091 10.0911 57.4506 10.4938 57.7321 10.9375C58.0143 11.3861 58.23 11.873 58.3725 12.3833C58.6692 13.4644 58.6692 14.6052 58.3725 15.6864C58.2294 16.1981 58.0137 16.6868 57.7321 17.1376C57.4526 17.5827 57.1108 17.9857 56.7171 18.3343C56.3145 18.6913 55.8675 18.9952 55.3873 19.2386C54.8805 19.4944 54.3447 19.6889 53.7916 19.8179C52.5822 20.0923 51.3265 20.0923 50.1171 19.8179ZM25.6992 3.77881H28.9558L34.5245 12.2695L40.115 3.77881H43.3716V19.6988H40.1475V8.78224L35.5232 15.8217H33.5476L28.9232 8.78224V19.6988H25.6992V3.77881Z" fill="white"/>
<path d="M18.2622 6.62931C18.9063 6.62931 19.5359 6.43876 20.0715 6.08176C20.607 5.72476 21.0244 5.21733 21.2709 4.62366C21.5174 4.02999 21.5819 3.37673 21.4562 2.74649C21.3306 2.11624 21.0204 1.53733 20.565 1.08295C20.1095 0.628575 19.5293 0.31914 18.8975 0.193777C18.2658 0.0684147 17.611 0.132755 17.016 0.378663C16.4209 0.624571 15.9123 1.041 15.5545 1.57529C15.1966 2.10958 15.0057 2.73774 15.0057 3.38033C15.0056 3.807 15.0898 4.2295 15.2535 4.62369C15.4171 5.01789 15.657 5.37606 15.9594 5.67777C16.2618 5.97947 16.6208 6.21878 17.016 6.38205C17.4111 6.54532 17.8346 6.62934 18.2622 6.62931ZM8.27677 21.2619C6.7068 21.2619 5.17209 20.7974 3.86671 19.9272C2.56133 19.057 1.54391 17.8202 0.943106 16.3731C0.342306 14.926 0.18511 13.3337 0.491396 11.7975C0.797683 10.2613 1.5537 8.85018 2.66383 7.74263C3.77397 6.63509 5.18837 5.88084 6.72817 5.57527C8.26797 5.2697 9.86402 5.42653 11.3145 6.02594C12.7649 6.62534 14.0047 7.64039 14.8769 8.94274C15.7491 10.2451 16.2147 11.7762 16.2147 13.3425C16.2147 14.3825 16.0094 15.4123 15.6105 16.3732C15.2116 17.334 14.6269 18.207 13.8898 18.9424C13.1527 19.6778 12.2776 20.2612 11.3145 20.6591C10.3514 21.0571 9.31919 21.2619 8.27677 21.2619Z" fill="white"/>
</g>
<defs>
<clipPath id="clip0_3079_2730">
<rect width="130.555" height="23.7373" fill="white" transform="translate(0.337891 0.131348)"/>
</clipPath>
</defs>
</svg>
