<svg width="103" height="24" viewBox="0 0 103 24" fill="none" xmlns="http://www.w3.org/2000/svg">
<g clip-path="url(#clip0_3079_2740)">
<mask id="mask0_3079_2740" style="mask-type:luminance" maskUnits="userSpaceOnUse" x="0" y="0" width="31" height="25">
<path d="M30.121 0.144531H0.0537109V24.6731H30.121V0.144531Z" fill="white"/>
</mask>
<g mask="url(#mask0_3079_2740)">
<path d="M19.8862 0.921387H24.3977L9.40986 16.6334H13.4008H18.151V19.9492H0.858398L19.8862 0.921387Z" fill="white"/>
<path fill-rule="evenodd" clip-rule="evenodd" d="M21.4721 7.27021V21.9419L23.4698 19.4824V1.68521L9.90961 15.9293H12.8231L21.4721 7.27021ZM14.0601 15.9293H17.4655V12.5198L14.0601 15.9293ZM18.3406 11.6436V20.2306H0.928836V22.9936H20.597V9.38472L18.3406 11.6436ZM21.0345 23.8687H0.0537109V19.7931L19.6925 0.131348H24.3449V19.7931L21.0345 23.8687ZM22.9077 1.00647L7.86822 16.8044H17.4655V19.3555H1.72765L20.0553 1.00647H22.9077Z" fill="white"/>
</g>
<path d="M37.3214 18.3877C36.5023 18.3877 35.7489 18.2461 35.0612 17.9629C34.3837 17.6798 33.7922 17.2905 33.2865 16.795C32.791 16.2893 32.4016 15.6927 32.1185 15.005C31.8455 14.3072 31.709 13.5539 31.709 12.7448C31.709 11.9359 31.8455 11.1875 32.1185 10.4999C32.4016 9.80211 32.791 9.20543 33.2865 8.70996C33.7922 8.20435 34.3837 7.80993 35.0612 7.52678C35.7489 7.24363 36.5023 7.10205 37.3214 7.10205C38.1405 7.10205 38.8889 7.24363 39.5664 7.52678C40.254 7.80993 40.8456 8.20435 41.3411 8.70996C41.8468 9.20543 42.2361 9.80211 42.5092 10.4999C42.7923 11.1875 42.9339 11.9359 42.9339 12.7448C42.9339 13.5539 42.7923 14.3072 42.5092 15.005C42.2361 15.6927 41.8468 16.2893 41.3411 16.795C40.8456 17.2905 40.254 17.6798 39.5664 17.9629C38.8889 18.2461 38.1405 18.3877 37.3214 18.3877ZM37.3214 17.2045C37.9484 17.2045 38.5198 17.0882 39.0355 16.8556C39.5614 16.623 40.0114 16.3045 40.3855 15.9C40.7597 15.4955 41.0479 15.0253 41.2501 14.4893C41.4625 13.9432 41.5687 13.3618 41.5687 12.7448C41.5687 12.128 41.4625 11.5516 41.2501 11.0156C41.0479 10.4695 40.7597 9.99423 40.3855 9.58974C40.0114 9.18526 39.5614 8.8667 39.0355 8.63408C38.5198 8.40153 37.9484 8.28522 37.3214 8.28522C36.6945 8.28522 36.118 8.40153 35.5922 8.63408C35.0764 8.8667 34.6314 9.18526 34.2573 9.58974C33.8832 9.99423 33.5899 10.4695 33.3776 11.0156C33.1752 11.5516 33.0741 12.128 33.0741 12.7448C33.0741 13.3618 33.1752 13.9432 33.3776 14.4893C33.5899 15.0253 33.8832 15.4955 34.2573 15.9C34.6314 16.3045 35.0764 16.623 35.5922 16.8556C36.118 17.0882 36.6945 17.2045 37.3214 17.2045Z" fill="white"/>
<path d="M46.0762 7.37256H47.6841L53.9033 16.2918H53.9336V7.37256H55.2079V18.1121H53.6L47.3807 9.19285H47.3504V18.1121H46.0762V7.37256Z" fill="white"/>
<path d="M58.9814 7.375H61.7271C62.2428 7.375 62.7535 7.40534 63.2591 7.46601C63.7748 7.52669 64.2349 7.65815 64.6395 7.8604C65.044 8.06262 65.3726 8.361 65.6254 8.75536C65.8782 9.13967 66.0046 9.66553 66.0046 10.3329C66.0046 11.1217 65.767 11.7588 65.2917 12.2442C64.8164 12.7296 64.1591 13.0381 63.3198 13.1695L66.3687 18.1145H64.8064L61.8939 13.2909H60.2557V18.1145H58.9814V7.375ZM60.2557 12.1077H61.3933C61.7472 12.1077 62.1113 12.0976 62.4855 12.0773C62.8698 12.0571 63.2186 11.9914 63.5321 11.8801C63.8557 11.7689 64.1187 11.597 64.3209 11.3644C64.5333 11.1217 64.6395 10.7779 64.6395 10.3329C64.6395 9.94863 64.5636 9.64021 64.4119 9.40766C64.2602 9.17503 64.058 8.99803 63.8052 8.87674C63.5624 8.74523 63.2844 8.6593 62.9709 8.61887C62.6675 8.57836 62.3591 8.55818 62.0456 8.55818H60.2557V12.1077Z" fill="white"/>
<path d="M81.1299 7.37256H83.0265L86.667 15.7913H86.6971L90.3677 7.37256H92.2184V18.1121H90.9445V9.10178H90.9136L87.061 18.1121H86.2872L82.4346 9.10178H82.4046V18.1121H81.1299V7.37256Z" fill="white"/>
<path d="M95.9854 7.37256H99.1709C99.6662 7.37256 100.137 7.42312 100.582 7.52425C101.037 7.61526 101.436 7.77706 101.78 8.00965C102.134 8.23212 102.412 8.53548 102.614 8.91979C102.826 9.29397 102.933 9.75914 102.933 10.3153C102.933 10.9019 102.822 11.3872 102.599 11.7715C102.377 12.1558 102.088 12.4592 101.735 12.6817C101.39 12.9041 101.011 13.0608 100.597 13.1518C100.182 13.2429 99.7881 13.2884 99.4138 13.2884H97.26V18.1121H95.9854V7.37256ZM97.26 12.1053H99.4138C100.051 12.1053 100.567 11.9636 100.961 11.6805C101.366 11.3872 101.568 10.9372 101.568 10.3305C101.568 9.7237 101.366 9.27878 100.961 8.99559C100.567 8.70236 100.051 8.55574 99.4138 8.55574H97.26V12.1053Z" fill="white"/>
<path d="M72.842 7.37256H74.0404L78.6062 18.1121H77.1197L73.4185 9.01078H73.3881L69.5504 18.1121H68.1094L72.842 7.37256Z" fill="white"/>
</g>
<defs>
<clipPath id="clip0_3079_2740">
<rect width="102.862" height="23.7373" fill="white" transform="translate(0.0546875 0.131348)"/>
</clipPath>
</defs>
</svg>
