<svg width="347" height="290" viewBox="0 0 347 290" fill="none" xmlns="http://www.w3.org/2000/svg">
<g clip-path="url(#clip0_7863_43944)">
<g filter="url(#filter0_f_7863_43944)">
<path d="M174.587 -53.3557C64.4151 44.3274 -113.59 221.699 55.7687 149.72C267.467 59.747 547.752 -35.9714 174.587 -53.3557Z" fill="#4E2BB2"/>
</g>
<g filter="url(#filter1_f_7863_43944)">
<path d="M-90.6896 238.689C-86.9453 232.145 153.63 53.0453 221.517 128.259C289.403 203.472 -85.7117 683.454 -90.6896 238.689Z" fill="#3FEBA6"/>
</g>
<g filter="url(#filter2_f_7863_43944)">
<path d="M189.848 188.851C94.9492 121.026 -3.52907 211.47 -40.9059 265.17L-51.9434 280.303C-190.013 523.347 308.471 273.633 189.848 188.851Z" fill="#4282E7"/>
</g>
<rect x="321.5" y="-18.9082" width="8" height="332" fill="#171D25"/>
<rect x="23.5" y="-18.9082" width="8" height="332" fill="#171D25"/>
<rect x="411.5" y="20.0918" width="8" height="581" transform="rotate(90 411.5 20.0918)" fill="#171D25"/>
<rect x="83.4961" y="267.297" width="8" height="46" fill="#171D25"/>
<rect x="411.5" y="80.0928" width="8" height="581" transform="rotate(90 411.5 80.0928)" fill="#171D25"/>
<rect x="142.496" y="87.2969" width="8" height="53" fill="#171D25"/>
<rect x="411.5" y="140.093" width="8" height="581" transform="rotate(90 411.5 140.093)" fill="#171D25"/>
<rect x="202.5" y="86.2969" width="8" height="227" fill="#171D25"/>
<rect x="411.5" y="199.093" width="8" height="581" transform="rotate(90 411.5 199.093)" fill="#171D25"/>
<rect x="262.5" y="-18.9082" width="8" height="332" fill="#171D25"/>
<rect x="411.5" y="259.093" width="8" height="581" transform="rotate(90 411.5 259.093)" fill="#171D25"/>
<rect x="83.4961" y="-19.7041" width="8" height="46" fill="#171D25"/>
<rect x="142.496" y="-28.7041" width="8" height="53" fill="#171D25"/>
<rect x="202.5" y="-28.7041" width="8" height="53" fill="#171D25"/>
<rect x="142.496" y="263.297" width="8" height="53" fill="#171D25"/>
<rect x="36.4961" y="32.2959" width="187.794" height="44.3262" rx="12" fill="#111720" fill-opacity="0.5"/>
<g clip-path="url(#clip1_7863_43944)">
<path d="M197.772 63.5695L191.93 50.1807H195.842L199.832 59.7829L204.443 50.1807H208.29L199.197 68.6226H195.285L197.772 63.5695ZM183.546 60.7974C183.891 60.719 184.224 60.5951 184.537 60.4291C184.839 60.2687 185.12 60.0711 185.372 59.8411C185.625 59.6104 185.843 59.345 186.02 59.0527C186.206 58.7457 186.35 58.4154 186.448 58.0705C186.554 57.6942 186.606 57.3048 186.603 56.9139C186.607 56.5187 186.554 56.1249 186.448 55.7443C186.349 55.3994 186.206 55.0691 186.02 54.7621C185.842 54.4687 185.624 54.2012 185.372 53.9673C185.123 53.7352 184.841 53.5394 184.537 53.3857C184.222 53.2277 183.889 53.1084 183.546 53.0303C183.185 52.9478 182.815 52.9066 182.445 52.9076C182.076 52.9063 181.709 52.9475 181.35 53.0303C181.011 53.1084 180.682 53.2278 180.372 53.3857C180.069 53.5415 179.788 53.7371 179.537 53.9673C179.282 54.1999 179.062 54.4675 178.883 54.7621C178.697 55.0684 178.556 55.399 178.462 55.7443C178.359 56.1256 178.309 56.5191 178.313 56.9139C178.31 57.3044 178.36 57.6935 178.462 58.0705C178.556 58.4158 178.697 58.7464 178.883 59.0527C179.061 59.3461 179.281 59.6117 179.537 59.8411C179.791 60.0692 180.072 60.2666 180.372 60.4291C180.68 60.595 181.009 60.7189 181.35 60.7974C181.709 60.8804 182.076 60.9216 182.445 60.9202C182.815 60.9214 183.185 60.8802 183.546 60.7974ZM179.602 63.7957C179.002 63.6434 178.425 63.4131 177.885 63.1107C176.834 62.5211 175.967 61.6535 175.379 60.6036C175.075 60.0607 174.845 59.4807 174.692 58.8783C174.373 57.5837 174.373 56.2312 174.692 54.9366C174.844 54.336 175.075 53.758 175.379 53.2178C175.97 52.1715 176.836 51.3067 177.885 50.7171C178.425 50.4147 179.002 50.1844 179.602 50.0321C180.243 49.8698 180.902 49.7895 181.564 49.793C181.921 49.7922 182.278 49.8138 182.633 49.8576C182.959 49.8979 183.281 49.9627 183.598 50.0515C183.891 50.1345 184.179 50.236 184.459 50.3552C184.722 50.4666 184.975 50.5984 185.217 50.7494C185.444 50.8915 185.657 51.056 185.852 51.2405C186.034 51.4128 186.203 51.5986 186.357 51.7962V50.1807H190.075V63.6471H186.357V62.0316C186.119 62.3291 185.847 62.598 185.547 62.8329C185.215 63.0928 184.852 63.3099 184.466 63.4791C184.036 63.6673 183.586 63.8061 183.125 63.8926C182.61 63.9898 182.088 64.0374 181.564 64.0348C180.902 64.0383 180.243 63.958 179.602 63.7957ZM166.105 53.5925C166.637 53.6023 167.169 53.5414 167.685 53.4116C168.088 53.3102 168.463 53.1228 168.786 52.8623C169.078 52.6198 169.301 52.3058 169.434 51.9512C169.579 51.5494 169.649 51.1246 169.641 50.6976C169.649 50.2728 169.579 49.85 169.434 49.4505C169.3 49.0997 169.077 48.79 168.786 48.5523C168.462 48.2958 168.086 48.1108 167.685 48.0095C167.169 47.8799 166.637 47.819 166.105 47.8286H162.452V53.5925L166.105 53.5925ZM158.604 44.6494H166.467C167.702 44.6494 168.773 44.8002 169.68 45.1017C170.587 45.4033 171.334 45.8212 171.921 46.3553C172.505 46.885 172.956 47.5447 173.236 48.2809C173.53 49.057 173.677 49.8809 173.67 50.7106C173.679 51.5383 173.532 52.3604 173.236 53.1337C172.951 53.8638 172.501 54.5184 171.921 55.0464C171.334 55.585 170.587 56.0051 169.68 56.3065C168.773 56.6082 167.702 56.759 166.467 56.7588H162.452V63.6471H158.604V44.6494ZM142.084 50.1807H145.776V51.7961C146.004 51.4826 146.274 51.2021 146.579 50.9626C146.902 50.7099 147.254 50.4973 147.628 50.3293C148.041 50.1454 148.473 50.0109 148.917 49.9287C149.41 49.8362 149.911 49.7907 150.413 49.793C151.195 49.7818 151.972 49.9132 152.706 50.1807C153.36 50.4211 153.953 50.8029 154.442 51.2986C154.933 51.8123 155.305 52.4279 155.53 53.1014C155.79 53.8759 155.917 54.6886 155.906 55.5052V63.6471H152.214V56.4616C152.223 55.9363 152.148 55.4129 151.994 54.9107C151.866 54.4961 151.652 54.1131 151.365 53.7864C151.09 53.4829 150.746 53.2502 150.362 53.1079C149.926 52.9506 149.465 52.874 149.001 52.8817C148.536 52.8744 148.073 52.951 147.635 53.1079C147.248 53.2489 146.901 53.4818 146.624 53.7864C146.338 54.1131 146.124 54.4961 145.996 54.9107C145.841 55.4129 145.767 55.9363 145.776 56.4616V63.6471H142.084V50.1807ZM132.999 60.7586C133.352 60.6737 133.693 60.5479 134.016 60.3838C134.324 60.227 134.605 60.0244 134.852 59.7829C135.096 59.5446 135.307 59.2752 135.48 58.9816C135.656 58.6793 135.787 58.3527 135.869 58.0124C135.957 57.6441 136 57.2666 135.998 56.888C136 56.5115 135.957 56.1361 135.869 55.7701C135.705 55.0955 135.352 54.4813 134.852 53.9996C134.602 53.7602 134.321 53.5559 134.016 53.3922C133.696 53.2206 133.354 53.0924 132.999 53.0109C132.615 52.9229 132.221 52.8795 131.827 52.8817C131.437 52.8799 131.048 52.9233 130.668 53.0109C130.315 53.0917 129.975 53.2199 129.657 53.3922C129.355 53.557 129.076 53.7613 128.828 53.9996C128.584 54.2343 128.376 54.5044 128.213 54.8008C128.046 55.1054 127.915 55.4286 127.824 55.7637C127.726 56.1304 127.678 56.5086 127.682 56.888C127.68 57.2674 127.727 57.6455 127.824 58.0124C127.913 58.3503 128.043 58.6759 128.213 58.9817C128.378 59.2768 128.586 59.5466 128.828 59.7829C129.073 60.0233 129.352 60.2259 129.657 60.3839C129.978 60.5486 130.317 60.6744 130.668 60.7587C131.047 60.8506 131.436 60.8962 131.827 60.8944C132.222 60.8967 132.615 60.8511 132.999 60.7586ZM129.651 63.7892C128.985 63.6346 128.339 63.4025 127.727 63.0978C127.152 62.8115 126.618 62.4485 126.14 62.0187C125.678 61.6011 125.276 61.1203 124.949 60.5906C124.616 60.0515 124.361 59.4686 124.191 58.8589C123.837 57.5687 123.837 56.2074 124.191 54.9172C124.36 54.3093 124.616 53.7284 124.949 53.1919C125.279 52.664 125.68 52.1835 126.14 51.7639C126.616 51.3306 127.15 50.9653 127.727 50.6783C128.339 50.3737 128.985 50.1417 129.651 49.9869C131.092 49.6595 132.588 49.6595 134.029 49.9869C134.691 50.1403 135.333 50.3724 135.94 50.6783C136.514 50.9696 137.047 51.3345 137.527 51.7639C137.994 52.182 138.402 52.6625 138.738 53.1919C139.074 53.7273 139.332 54.3084 139.502 54.9172C139.856 56.2074 139.856 57.5687 139.502 58.8589C139.331 59.4695 139.074 60.0526 138.738 60.5906C138.404 61.1218 137.996 61.6026 137.527 62.0187C137.046 62.4446 136.513 62.8073 135.94 63.0978C135.335 63.4031 134.696 63.6352 134.036 63.7892C132.592 64.1166 131.094 64.1166 129.651 63.7892ZM115.245 60.7586C115.597 60.6737 115.938 60.5479 116.262 60.3838C116.569 60.227 116.851 60.0244 117.097 59.7829C117.341 59.5446 117.552 59.2752 117.725 58.9816C117.902 58.6794 118.033 58.3528 118.114 58.0124C118.202 57.6441 118.246 57.2666 118.243 56.888C118.246 56.5115 118.202 56.1361 118.114 55.7701C117.951 55.0955 117.598 54.4813 117.097 53.9996C116.848 53.7602 116.566 53.5559 116.262 53.3922C115.941 53.2206 115.599 53.0924 115.245 53.0109C114.86 52.9229 114.467 52.8795 114.072 52.8817C113.682 52.88 113.293 52.9233 112.913 53.0109C112.56 53.0917 112.221 53.2199 111.903 53.3922C111.6 53.557 111.322 53.7613 111.074 53.9996C110.829 54.2343 110.622 54.5044 110.458 54.8008C110.291 55.1055 110.161 55.4286 110.07 55.7637C109.972 56.1304 109.924 56.5085 109.927 56.888C109.925 57.2674 109.973 57.6454 110.07 58.0124C110.158 58.3503 110.289 58.6758 110.458 58.9816C110.624 59.2767 110.831 59.5466 111.074 59.7829C111.318 60.0233 111.598 60.2258 111.903 60.3838C112.223 60.5486 112.562 60.6744 112.913 60.7586C113.293 60.8506 113.682 60.8962 114.072 60.8943C114.467 60.8966 114.861 60.8511 115.245 60.7586ZM111.896 63.7892C111.23 63.6346 110.584 63.4025 109.973 63.0979C109.397 62.8116 108.863 62.4485 108.386 62.0187C107.923 61.6011 107.522 61.1203 107.194 60.5907C106.862 60.0516 106.607 59.4687 106.436 58.859C106.082 57.5688 106.082 56.2074 106.436 54.9173C106.606 54.3094 106.861 53.7285 107.194 53.192C107.524 52.6641 107.925 52.1836 108.386 51.7639C108.862 51.3307 109.396 50.9654 109.973 50.6784C110.584 50.3738 111.23 50.1417 111.896 49.9869C113.337 49.6595 114.834 49.6595 116.275 49.9869C116.937 50.1403 117.578 50.3725 118.185 50.6784C118.759 50.9696 119.293 51.3346 119.772 51.7639C120.24 52.182 120.647 52.6626 120.983 53.192C121.32 53.7273 121.577 54.3084 121.747 54.9173C122.102 56.2074 122.102 57.5688 121.747 58.859C121.577 59.4696 121.319 60.0527 120.983 60.5907C120.65 61.1219 120.242 61.6027 119.772 62.0187C119.292 62.4447 118.758 62.8074 118.185 63.0979C117.58 63.4032 116.941 63.6353 116.281 63.7892C114.838 64.1166 113.339 64.1166 111.896 63.7892ZM82.7578 44.6494H86.6439L93.2892 54.7815L99.9604 44.6494H103.847V63.6471H99.9993V50.6201L94.481 59.0204H92.1234L86.6051 50.6201V63.6471H82.7578V44.6494Z" fill="white"/>
<path d="M73.8844 48.05C74.653 48.05 75.4043 47.8227 76.0434 47.3966C76.6825 46.9706 77.1806 46.3651 77.4747 45.6567C77.7688 44.9482 77.8458 44.1687 77.6958 43.4166C77.5459 42.6645 77.1758 41.9737 76.6323 41.4315C76.0888 40.8892 75.3964 40.52 74.6425 40.3704C73.8887 40.2208 73.1073 40.2976 72.3972 40.591C71.6871 40.8845 71.0802 41.3814 70.6532 42.019C70.2262 42.6566 69.9982 43.4062 69.9982 44.173C69.9982 44.6821 70.0987 45.1863 70.294 45.6567C70.4893 46.1271 70.7755 46.5545 71.1364 46.9145C71.4973 47.2746 71.9257 47.5602 72.3972 47.755C72.8687 47.9498 73.374 48.0501 73.8844 48.05ZM61.9685 65.5114C60.0951 65.5114 58.2637 64.9571 56.7059 63.9187C55.1482 62.8803 53.9341 61.4043 53.2171 59.6775C52.5002 57.9507 52.3126 56.0505 52.6781 54.2173C53.0436 52.3841 53.9458 50.7002 55.2705 49.3786C56.5953 48.0569 58.2831 47.1569 60.1206 46.7922C61.958 46.4276 63.8626 46.6147 65.5935 47.33C67.3244 48.0453 68.8037 49.2566 69.8446 50.8107C70.8854 52.3648 71.441 54.1919 71.441 56.061C71.441 57.3021 71.196 58.531 70.72 59.6776C70.244 60.8242 69.5462 61.866 68.6666 62.7435C67.787 63.6211 66.7428 64.3172 65.5935 64.7921C64.4443 65.267 63.2125 65.5114 61.9685 65.5114Z" fill="white"/>
</g>
<rect x="36.4961" y="91.6221" width="102.598" height="45.4157" rx="12" fill="#111720" fill-opacity="0.5"/>
<g clip-path="url(#clip2_7863_43944)">
<path d="M57.4536 111.098C57.4536 110.335 58.0812 110.042 59.1205 110.042C60.6109 110.042 62.4935 110.492 63.9839 111.293V106.699C62.3563 106.054 60.7482 105.8 59.1205 105.8C55.1396 105.8 52.4922 107.872 52.4922 111.332C52.4922 116.728 59.9442 115.868 59.9442 118.194C59.9442 119.093 59.1597 119.386 58.0616 119.386C56.4339 119.386 54.3552 118.722 52.7079 117.823V122.475C54.5317 123.257 56.3751 123.59 58.0616 123.59C62.1405 123.59 64.9448 121.576 64.9448 118.077C64.9252 112.251 57.4536 113.287 57.4536 111.098ZM70.7103 101.89L65.9254 102.906L65.9057 118.565C65.9057 121.459 68.0825 123.59 70.9849 123.59C72.5929 123.59 73.7695 123.296 74.4167 122.944V118.976C73.7892 119.23 70.6907 120.129 70.6907 117.236V110.296H74.4167V106.132H70.6907L70.7103 101.89ZM80.5155 107.579L80.2018 106.132H75.9659V123.238H80.8685V111.645C82.0255 110.14 83.9866 110.413 84.5945 110.628V106.132C83.967 105.897 81.6726 105.467 80.5155 107.579ZM85.7908 106.132H90.713V123.238H85.7908V106.132ZM85.7908 104.646L90.713 103.591V99.6221L85.7908 100.658V104.646ZM100.95 105.8C99.0278 105.8 97.7924 106.699 97.106 107.325L96.8511 106.112H92.5368V128.907L97.4394 127.871L97.459 122.338C98.165 122.847 99.2043 123.57 100.93 123.57C104.44 123.57 107.637 120.755 107.637 114.558C107.617 108.888 104.381 105.8 100.95 105.8ZM99.773 119.269C98.616 119.269 97.9296 118.859 97.459 118.35L97.4394 111.098C97.9492 110.531 98.6552 110.14 99.773 110.14C101.558 110.14 102.793 112.134 102.793 114.695C102.793 117.314 101.577 119.269 99.773 119.269ZM123.09 114.753C123.09 109.749 120.658 105.8 116.01 105.8C111.343 105.8 108.519 109.749 108.519 114.714C108.519 120.599 111.853 123.57 116.638 123.57C118.972 123.57 120.737 123.042 122.07 122.299V118.389C120.737 119.054 119.207 119.465 117.266 119.465C115.363 119.465 113.677 118.8 113.461 116.493H123.051C123.051 116.239 123.09 115.222 123.09 114.753ZM113.402 112.896C113.402 110.687 114.755 109.768 115.991 109.768C117.187 109.768 118.462 110.687 118.462 112.896H113.402Z" fill="white"/>
</g>
<rect x="36.4961" y="152.038" width="154.747" height="44.3262" rx="12" fill="#111720" fill-opacity="0.5"/>
<g clip-path="url(#clip3_7863_43944)">
<mask id="mask0_7863_43944" style="mask-type:luminance" maskUnits="userSpaceOnUse" x="52" y="160" width="37" height="30">
<path d="M88.3721 160.051H52.4922V189.322H88.3721V160.051Z" fill="white"/>
</mask>
<g mask="url(#mask0_7863_43944)">
<path d="M76.1593 160.982H81.543L63.6578 179.731H68.4202H74.0887V183.688H53.4531L76.1593 160.982Z" fill="white"/>
<path fill-rule="evenodd" clip-rule="evenodd" d="M78.0511 168.557V186.065L80.4351 183.13V161.892L64.2534 178.89H67.7302L78.0511 168.557ZM69.2063 178.89H73.27V174.821L69.2063 178.89ZM74.3143 173.775V184.022H53.5365V187.32H77.0068V171.08L74.3143 173.775ZM77.529 188.364H52.4922V183.5L75.9275 160.038H81.4794V183.5L77.529 188.364ZM79.7643 161.082L61.8174 179.934H73.27V182.978H54.4897L76.3604 161.082H79.7643Z" fill="white"/>
</g>
<path d="M96.967 181.822C95.9894 181.822 95.0905 181.653 94.2699 181.315C93.4613 180.978 92.7554 180.513 92.152 179.922C91.5607 179.318 91.0961 178.606 90.7583 177.786C90.4324 176.953 90.2695 176.054 90.2695 175.089C90.2695 174.123 90.4324 173.23 90.7583 172.41C91.0961 171.577 91.5607 170.865 92.152 170.274C92.7554 169.67 93.4613 169.2 94.2699 168.862C95.0905 168.524 95.9894 168.355 96.967 168.355C97.9444 168.355 98.8375 168.524 99.646 168.862C100.467 169.2 101.172 169.67 101.764 170.274C102.367 170.865 102.832 171.577 103.158 172.41C103.496 173.23 103.664 174.123 103.664 175.089C103.664 176.054 103.496 176.953 103.158 177.786C102.832 178.606 102.367 179.318 101.764 179.922C101.172 180.513 100.467 180.978 99.646 181.315C98.8375 181.653 97.9444 181.822 96.967 181.822ZM96.967 180.41C97.7152 180.41 98.397 180.272 99.0124 179.994C99.6399 179.717 100.177 179.336 100.623 178.854C101.07 178.371 101.414 177.81 101.655 177.17C101.909 176.519 102.035 175.825 102.035 175.089C102.035 174.353 101.909 173.665 101.655 173.025C101.414 172.373 101.07 171.806 100.623 171.324C100.177 170.841 99.6399 170.461 99.0124 170.183C98.397 169.906 97.7152 169.767 96.967 169.767C96.2188 169.767 95.5309 169.906 94.9034 170.183C94.288 170.461 93.757 170.841 93.3105 171.324C92.864 171.806 92.514 172.373 92.2607 173.025C92.0192 173.665 91.8986 174.353 91.8986 175.089C91.8986 175.825 92.0192 176.519 92.2607 177.17C92.514 177.81 92.864 178.371 93.3105 178.854C93.757 179.336 94.288 179.717 94.9034 179.994C95.5309 180.272 96.2188 180.41 96.967 180.41Z" fill="white"/>
<path d="M107.414 168.681H109.333L116.754 179.325H116.791V168.681H118.311V181.497H116.392L108.971 170.853H108.935V181.497H107.414V168.681Z" fill="white"/>
<path d="M122.816 168.681H126.093C126.708 168.681 127.318 168.717 127.921 168.79C128.536 168.862 129.085 169.019 129.568 169.26C130.051 169.502 130.443 169.858 130.745 170.328C131.046 170.787 131.197 171.414 131.197 172.211C131.197 173.152 130.914 173.912 130.347 174.492C129.779 175.071 128.995 175.439 127.993 175.596L131.632 181.497H129.767L126.292 175.741H124.337V181.497H122.816V168.681ZM124.337 174.329H125.695C126.117 174.329 126.551 174.317 126.998 174.293C127.456 174.268 127.873 174.19 128.247 174.057C128.633 173.924 128.947 173.719 129.188 173.442C129.442 173.152 129.568 172.742 129.568 172.211C129.568 171.752 129.478 171.384 129.297 171.107C129.116 170.829 128.874 170.618 128.573 170.473C128.283 170.316 127.951 170.214 127.577 170.165C127.215 170.117 126.847 170.093 126.473 170.093H124.337V174.329Z" fill="white"/>
<path d="M149.246 168.681H151.509L155.854 178.727H155.89L160.27 168.681H162.478V181.497H160.958V170.745H160.921L156.324 181.497H155.4L150.803 170.745H150.767V181.497H149.246V168.681Z" fill="white"/>
<path d="M166.973 168.681H170.774C171.365 168.681 171.927 168.741 172.458 168.862C173 168.971 173.477 169.164 173.888 169.441C174.31 169.707 174.641 170.069 174.883 170.527C175.136 170.974 175.264 171.529 175.264 172.193C175.264 172.893 175.131 173.472 174.865 173.931C174.6 174.389 174.255 174.751 173.833 175.017C173.423 175.282 172.97 175.469 172.475 175.578C171.981 175.686 171.511 175.741 171.064 175.741H168.494V181.497H166.973V168.681ZM168.494 174.329H171.064C171.824 174.329 172.44 174.16 172.91 173.822C173.393 173.472 173.634 172.935 173.634 172.211C173.634 171.487 173.393 170.956 172.91 170.618C172.44 170.268 171.824 170.093 171.064 170.093H168.494V174.329Z" fill="white"/>
<path d="M139.355 168.681H140.785L146.233 181.497H144.459L140.042 170.636H140.006L135.427 181.497H133.707L139.355 168.681Z" fill="white"/>
</g>
<rect x="36.4961" y="211.364" width="139.5" height="43.5416" rx="12" fill="#111720" fill-opacity="0.5"/>
<path d="M78.2088 226.308L77.6084 225.262C77.405 224.913 76.9305 224.845 76.6496 225.136L75.2842 226.501C75.0808 226.705 75.0518 227.024 75.2067 227.276C75.7103 228.041 76.1073 228.864 76.3882 229.716C76.7562 230.811 76.9499 231.973 76.9499 233.135C76.9499 239.033 72.1465 243.836 66.2488 243.836C64.4766 243.836 62.7625 243.41 61.2324 242.587L63.5373 240.282C64.3992 240.611 65.3192 240.776 66.2392 240.776C70.4518 240.776 73.88 237.348 73.88 233.135C73.88 232.873 73.8606 232.612 73.8412 232.341C73.7541 231.46 73.5023 230.598 73.1246 229.804C72.9406 229.426 72.437 229.339 72.1368 229.639L70.752 231.024C70.6067 231.169 70.5389 231.392 70.5873 231.595L70.7036 232.089C70.781 232.438 70.8295 232.786 70.8295 233.135C70.8295 235.663 68.7764 237.725 66.2392 237.725C65.445 237.725 64.6606 237.512 63.9731 237.125L63.3629 236.776C63.1208 236.641 62.8206 236.679 62.6269 236.873L56.9908 242.509C56.7293 242.771 56.7583 243.206 57.0489 243.429L57.8817 244.068C60.3027 245.928 63.1886 246.906 66.2488 246.906C73.8315 246.906 80.0101 240.737 80.0101 233.145C80.0197 230.733 79.4 228.37 78.2088 226.308Z" fill="white"/>
<path d="M74.6244 222.202C72.2034 220.342 69.3175 219.364 66.2573 219.364C58.6746 219.364 52.4961 225.533 52.4961 233.125C52.4961 235.517 53.1256 237.88 54.307 239.953L54.9075 240.999C55.1108 241.347 55.5853 241.415 55.8662 241.125L57.2317 239.759C57.435 239.556 57.4641 239.236 57.3091 238.984C56.8152 238.219 56.4085 237.396 56.1277 236.544C55.7597 235.45 55.566 234.288 55.566 233.125C55.566 227.228 60.3693 222.424 66.267 222.424C68.0392 222.424 69.7533 222.851 71.2834 223.674L68.9786 225.979C68.1167 225.649 67.1967 225.485 66.2767 225.485C62.0641 225.485 58.6359 228.913 58.6359 233.125C58.6359 233.251 58.6746 233.832 58.6843 233.929C58.7811 234.811 59.0232 235.663 59.4009 236.457C59.5849 236.835 60.0885 236.922 60.3887 236.621L61.7735 235.237C61.9188 235.091 61.9866 234.869 61.9382 234.665L61.822 234.171C61.7445 233.823 61.6961 233.474 61.6961 233.125C61.6961 230.598 63.7491 228.535 66.2864 228.535C67.0805 228.535 67.8649 228.748 68.5525 229.136L69.1626 229.484C69.4047 229.62 69.7049 229.581 69.8986 229.387L75.5348 223.751C75.7962 223.49 75.7672 223.054 75.4767 222.831L74.6244 222.202Z" fill="white"/>
<path d="M97.8015 236.922C97.5981 236.747 97.3076 236.757 97.0752 236.941C96.1939 237.629 95.1674 238.258 93.6664 238.258C90.9257 238.258 88.6887 235.944 88.6887 233.106C88.6887 230.249 90.9161 227.935 93.647 227.935C94.8382 227.935 96.1165 228.438 97.0558 229.262C97.2301 229.436 97.3851 229.465 97.4819 229.455C97.5788 229.446 97.7144 229.407 97.8306 229.252L98.7215 228.332C98.8377 228.216 98.8958 228.061 98.8958 227.906C98.8958 227.751 98.8184 227.596 98.6925 227.489C97.143 226.134 95.5742 225.523 93.6179 225.523C89.4441 225.523 86.0449 228.942 86.0449 233.145C86.0449 237.328 89.4441 240.728 93.6179 240.728C95.5838 240.728 97.3464 240.021 98.7215 238.675C98.8377 238.558 98.9055 238.384 98.9055 238.219C98.9055 238.074 98.8377 237.948 98.7409 237.861L97.8015 236.922Z" fill="white"/>
<path d="M104.301 225.737H102.945C102.635 225.737 102.374 226.008 102.374 226.308V239.953C102.374 240.263 102.645 240.525 102.945 240.525H104.301C104.611 240.525 104.873 240.253 104.873 239.953V226.308C104.873 225.998 104.611 225.737 104.301 225.737Z" fill="white"/>
<path d="M120.286 230.327C120.286 227.79 118.204 225.737 115.638 225.737H110.069C109.75 225.737 109.498 225.998 109.498 226.308V239.953C109.498 240.273 109.76 240.525 110.069 240.525H111.396C111.706 240.525 111.968 240.253 111.968 239.953V234.879H114.757L117.429 240.234C117.497 240.37 117.681 240.525 117.923 240.525H119.521C119.744 240.525 119.928 240.428 120.025 240.253C120.131 240.079 120.131 239.847 120.025 239.653L117.313 234.598C119.163 233.784 120.286 232.167 120.286 230.327ZM117.788 230.366C117.788 231.654 116.732 232.738 115.473 232.738H112.016V228.1H115.473C116.732 228.1 117.788 229.136 117.788 230.366Z" fill="white"/>
<path d="M134.844 236.922C134.64 236.747 134.35 236.757 134.117 236.941C133.236 237.629 132.209 238.258 130.708 238.258C127.968 238.258 125.731 235.944 125.731 233.106C125.731 230.249 127.958 227.935 130.689 227.935C131.88 227.935 133.158 228.438 134.098 229.262C134.272 229.436 134.427 229.465 134.524 229.455C134.621 229.446 134.756 229.407 134.873 229.252L135.764 228.332C135.88 228.216 135.938 228.061 135.938 227.906C135.938 227.751 135.86 227.596 135.734 227.489C134.185 226.134 132.616 225.523 130.66 225.523C126.486 225.523 123.087 228.942 123.087 233.145C123.087 237.328 126.486 240.728 130.66 240.728C132.626 240.728 134.388 240.021 135.764 238.675C135.88 238.558 135.948 238.384 135.948 238.219C135.948 238.074 135.88 237.948 135.783 237.861L134.844 236.922Z" fill="white"/>
<path d="M147.28 238.239H141.915V226.308C141.915 225.998 141.643 225.737 141.343 225.737H139.987C139.668 225.737 139.416 225.998 139.416 226.308V239.953C139.416 240.273 139.677 240.525 139.987 240.525H147.28C147.599 240.525 147.851 240.263 147.851 239.953V238.82C147.861 238.501 147.599 238.239 147.28 238.239Z" fill="white"/>
<path d="M159.424 228.041C159.744 228.041 159.996 227.78 159.996 227.47V226.317C159.996 225.998 159.734 225.746 159.424 225.746H151.232C150.912 225.746 150.66 226.008 150.66 226.317V239.962C150.66 240.282 150.922 240.534 151.232 240.534H159.424C159.744 240.534 159.996 240.272 159.996 239.962V238.829C159.996 238.51 159.734 238.258 159.424 238.258H153.139V234.2H158.427C158.746 234.2 158.998 233.939 158.998 233.629V232.477C158.998 232.167 158.727 231.905 158.427 231.905H153.139V228.07H159.424V228.041Z" fill="white"/>
</g>
<rect x="1" y="0.5" width="345" height="289" rx="11.5" stroke="#2C3542"/>
<defs>
<filter id="filter0_f_7863_43944" x="-55.4526" y="-94.7226" width="454.077" height="302.559" filterUnits="userSpaceOnUse" color-interpolation-filters="sRGB">
<feFlood flood-opacity="0" result="BackgroundImageFix"/>
<feBlend mode="normal" in="SourceGraphic" in2="BackgroundImageFix" result="shape"/>
<feGaussianBlur stdDeviation="20.6833" result="effect1_foregroundBlur_7863_43944"/>
</filter>
<filter id="filter1_f_7863_43944" x="-114.512" y="86.0239" width="368.064" height="363.124" filterUnits="userSpaceOnUse" color-interpolation-filters="sRGB">
<feFlood flood-opacity="0" result="BackgroundImageFix"/>
<feBlend mode="normal" in="SourceGraphic" in2="BackgroundImageFix" result="shape"/>
<feGaussianBlur stdDeviation="11.9114" result="effect1_foregroundBlur_7863_43944"/>
</filter>
<filter id="filter2_f_7863_43944" x="-154.45" y="86.4889" width="440.833" height="375.494" filterUnits="userSpaceOnUse" color-interpolation-filters="sRGB">
<feFlood flood-opacity="0" result="BackgroundImageFix"/>
<feBlend mode="normal" in="SourceGraphic" in2="BackgroundImageFix" result="shape"/>
<feGaussianBlur stdDeviation="39.0583" result="effect1_foregroundBlur_7863_43944"/>
</filter>
<clipPath id="clip0_7863_43944">
<rect x="0.5" width="346" height="290" rx="12" fill="white"/>
</clipPath>
<clipPath id="clip1_7863_43944">
<rect width="155.794" height="28.3262" fill="white" transform="translate(52.4961 40.2959)"/>
</clipPath>
<clipPath id="clip2_7863_43944">
<rect width="70.5977" height="29.4157" fill="white" transform="translate(52.4961 99.6221)"/>
</clipPath>
<clipPath id="clip3_7863_43944">
<rect width="122.747" height="28.3262" fill="white" transform="translate(52.4961 160.038)"/>
</clipPath>
</defs>
</svg>
