<svg width="61" height="26" viewBox="0 0 61 26" fill="none" xmlns="http://www.w3.org/2000/svg">
<g clip-path="url(#clip0_3079_2735)">
<path d="M5.04734 10.2908C5.04734 9.65184 5.57321 9.40611 6.44419 9.40611C7.69314 9.40611 9.27076 9.7829 10.5197 10.4546V6.60473C9.15572 6.06411 7.80817 5.85114 6.44419 5.85114C3.10818 5.85114 0.889648 7.58767 0.889648 10.4873C0.889648 15.0089 7.1344 14.2881 7.1344 16.2376C7.1344 16.9911 6.47705 17.2369 5.55678 17.2369C4.19279 17.2369 2.45084 16.6799 1.07042 15.9263V19.8253C2.59874 20.4806 4.14349 20.7591 5.55678 20.7591C8.97495 20.7591 11.325 19.0717 11.325 16.1393C11.3085 11.2573 5.04734 12.1256 5.04734 10.2908ZM16.1564 2.57467L12.1466 3.42655L12.1302 16.5488C12.1302 18.9734 13.9543 20.7591 16.3865 20.7591C17.734 20.7591 18.72 20.5133 19.2624 20.2185V16.8928C18.7365 17.1058 16.14 17.8594 16.14 15.4348V9.61908H19.2624V6.12964H16.14L16.1564 2.57467ZM24.3732 7.34193L24.1103 6.12964H20.5606V20.4642H24.669V10.7495C25.6386 9.48802 27.2819 9.71737 27.7914 9.89758V6.12964C27.2655 5.93305 25.3428 5.57264 24.3732 7.34193ZM28.7938 6.12964H32.9186V20.4642H28.7938V6.12964ZM28.7938 4.88458L32.9186 3.99993V0.674316L28.7938 1.54258V4.88458ZM41.4969 5.85114C39.8865 5.85114 38.8511 6.60473 38.276 7.12896L38.0623 6.11326H34.447V25.2151L38.5553 24.3468L38.5718 19.7106C39.1634 20.1366 40.0344 20.7427 41.4805 20.7427C44.4221 20.7427 47.1008 18.3836 47.1008 13.1904C47.0844 8.43955 44.3728 5.85114 41.4969 5.85114ZM40.5109 17.1386C39.5414 17.1386 38.9662 16.7945 38.5718 16.3686L38.5553 10.2908C38.9826 9.81567 39.5742 9.48802 40.5109 9.48802C42.0064 9.48802 43.0417 11.159 43.0417 13.3051C43.0417 15.5003 42.0228 17.1386 40.5109 17.1386ZM60.0504 13.3543C60.0504 9.16037 58.0127 5.85114 54.1179 5.85114C50.2067 5.85114 47.8403 9.16037 47.8403 13.3215C47.8403 18.2526 50.634 20.7427 54.6438 20.7427C56.5994 20.7427 58.0784 20.3004 59.1959 19.6778V16.4014C58.0784 16.9584 56.7966 17.3024 55.1697 17.3024C53.5756 17.3024 52.1623 16.7454 51.9815 14.8123H60.0176C60.0176 14.5993 60.0504 13.7474 60.0504 13.3543ZM51.9322 11.7979C51.9322 9.94673 53.0662 9.17676 54.1015 9.17676C55.1039 9.17676 56.1721 9.94673 56.1721 11.7979H51.9322Z" fill="white"/>
</g>
<defs>
<clipPath id="clip0_3079_2735">
<rect width="59.1608" height="24.6503" fill="white" transform="translate(0.893555 0.674805)"/>
</clipPath>
</defs>
</svg>
