<svg width="87" height="68" viewBox="0 0 87 68" fill="none" xmlns="http://www.w3.org/2000/svg">
  <path fill-rule="evenodd" clip-rule="evenodd"
        d="M16.9541 1.39371C8.58698 10.1244 8.43897 24.1682 16.6435 30.8734C20.7805 34.2544 21.5229 35.1722 20.9693 36.2209C20.3146 37.4607 15.3446 35.7906 10.6169 32.7422C4.19352 28.6005 3.19502 28.3489 1.8058 30.5224C-1.06878 35.0206 -0.421372 41.8271 3.10732 44.2068L4.5519 45.1809L7.75689 44.9392C15.4483 44.3589 17.0423 44.6292 18.0583 46.6873C18.8878 48.367 17.1414 48.8718 9.79643 49.0765C2.34482 49.2841 1.5969 49.7072 3.48318 52.6455C6.81579 57.837 12.1436 58.847 16.5983 55.1315C18.2302 53.7699 18.447 53.7983 19.0379 55.449C23.1033 72.1352 63.2443 72.1352 67.3097 55.7381C68.4195 53.7913 68.7674 53.7202 70.3288 55.1202C74.6238 58.9708 80.933 57.5586 83.7714 52.1114C85.0578 49.6427 84.2513 49.2758 77.1012 49.0765C69.7563 48.8718 68.0099 48.367 68.8394 46.6873C69.8501 44.6402 71.644 44.3291 78.8899 44.9441C85.1976 45.4796 88.3333 40.9351 86.4636 33.9676C84.9211 28.2191 83.5794 27.9548 77.1703 32.1379C67.7654 38.2758 60.9889 38.1281 68.9504 31.9586C75.6736 26.7488 77.4832 21.8504 75.7709 13.4962C74.1815 5.74014 68.844 -1.86379 66.6661 0.524837C64.8133 2.55637 61.5634 13.3614 59.6043 24.0025C58.2836 31.1762 56.5517 32.3143 49.6479 30.545C45.5198 29.487 41.3778 29.487 37.2498 30.545C30.4086 32.2981 28.6415 31.1736 27.3126 24.2214C25.0315 12.2872 22.163 2.71597 20.2071 0.511534C19.4111 -0.385392 18.3951 -0.109839 16.9541 1.39371ZM30.6874 41.9428C33.5912 42.7431 35.5861 47.6944 34.7074 51.92C32.8692 60.7574 24.0586 58.9416 24.1236 49.7384C24.1612 44.371 27.0498 40.9403 30.6874 41.9428ZM59.0367 42.1862C63.2682 44.1145 64.2335 52.3896 60.6541 56.0498C58.4837 58.2693 56.0255 58.2728 54.1165 56.0594C49.3323 50.5127 53.2246 39.5377 59.0367 42.1862Z"
        fill="#D9D9D9"/>
</svg>
