<svg width="36" height="36" viewBox="0 0 36 36" fill="none" xmlns="http://www.w3.org/2000/svg">
<path fill-rule="evenodd" clip-rule="evenodd" d="M8.23597 5.8526C5.15843 9.10522 5.10399 14.3372 8.12173 16.8352C9.64341 18.0948 9.91647 18.4367 9.71285 18.8274C9.47204 19.2893 7.64398 18.6671 5.90507 17.5314C3.54244 15.9885 3.17518 15.8947 2.6642 16.7045C1.60688 18.3803 1.84501 20.916 3.14292 21.8026L3.67426 22.1655L4.85311 22.0754C7.68213 21.8592 8.26844 21.9599 8.64214 22.7267C8.94724 23.3524 8.30488 23.5405 5.60328 23.6168C2.86246 23.6941 2.58736 23.8517 3.28117 24.9464C4.50696 26.8805 6.46663 27.2568 8.10512 25.8726C8.70537 25.3653 8.7851 25.3759 9.00243 25.9908C10.4978 32.2073 25.2623 32.2073 26.7576 26.0986C27.1658 25.3733 27.2938 25.3468 27.8681 25.8684C29.4478 27.3029 31.7684 26.7768 32.8125 24.7474C33.2856 23.8277 32.989 23.691 30.3591 23.6168C27.6575 23.5405 27.0151 23.3524 27.3202 22.7267C27.692 21.964 28.3518 21.8481 31.017 22.0773C33.3371 22.2767 34.4904 20.5837 33.8027 17.988C33.2354 15.8464 32.7418 15.7479 30.3845 17.3063C26.9252 19.593 24.4327 19.538 27.3611 17.2395C29.834 15.2986 30.4996 13.4737 29.8697 10.3614C29.2851 7.47186 27.3219 4.63902 26.5209 5.5289C25.8394 6.28575 24.644 10.3112 23.9234 14.2755C23.4376 16.948 22.8006 17.372 20.2613 16.7129C18.7429 16.3187 17.2194 16.3187 15.7011 16.7129C13.1848 17.366 12.5348 16.9471 12.046 14.357C11.207 9.91097 10.1519 6.34521 9.4325 5.52395C9.13972 5.1898 8.76603 5.29245 8.23597 5.8526ZM13.2873 20.9591C14.3554 21.2573 15.0891 23.1019 14.7659 24.6761C14.0898 27.9685 10.8492 27.292 10.8731 23.8634C10.8869 21.8637 11.9493 20.5856 13.2873 20.9591ZM23.7147 21.0498C25.2711 21.7682 25.6261 24.8511 24.3096 26.2147C23.5113 27.0415 22.6071 27.0428 21.9049 26.2182C20.1452 24.1518 21.5769 20.0631 23.7147 21.0498Z" fill="white"/>
</svg>
