<svg width="25" height="24" viewBox="0 0 25 24" fill="none" xmlns="http://www.w3.org/2000/svg">
<g clip-path="url(#clip0_3079_2706)">
<path d="M20.8644 12.7069C21.0519 12.5193 21.1572 12.265 21.1572 11.9999C21.1572 11.7347 21.0519 11.4804 20.8644 11.2929L15.2074 5.63585C15.1152 5.54034 15.0048 5.46416 14.8828 5.41175C14.7608 5.35934 14.6296 5.33176 14.4968 5.3306C14.3641 5.32945 14.2324 5.35475 14.1095 5.40503C13.9866 5.45531 13.8749 5.52957 13.781 5.62346C13.6872 5.71735 13.6129 5.829 13.5626 5.9519C13.5123 6.0748 13.487 6.20648 13.4882 6.33926C13.4893 6.47203 13.5169 6.60325 13.5693 6.72526C13.6217 6.84726 13.6979 6.95761 13.7934 7.04985L17.7434 10.9999L4.50044 10.9999C4.23522 10.9999 3.98087 11.1052 3.79333 11.2927C3.6058 11.4803 3.50044 11.7346 3.50044 11.9999C3.50044 12.2651 3.6058 12.5194 3.79333 12.707C3.98087 12.8945 4.23522 12.9999 4.50044 12.9999L17.7434 12.9999L13.7934 16.9499C13.6113 17.1385 13.5105 17.3911 13.5128 17.6533C13.515 17.9155 13.6202 18.1663 13.8056 18.3517C13.991 18.5371 14.2418 18.6423 14.504 18.6445C14.7662 18.6468 15.0188 18.546 15.2074 18.3639L20.8644 12.7069Z" fill="black"/>
</g>
<defs>
<clipPath id="clip0_3079_2706">
<rect width="24" height="24" fill="white" transform="translate(24.5) rotate(90)"/>
</clipPath>
</defs>
</svg>
