<svg width="264" height="118" viewBox="0 0 264 118" fill="none" xmlns="http://www.w3.org/2000/svg">
<g filter="url(#filter0_f_3079_2851)">
<rect x="29" y="29" width="206" height="60" rx="16" fill="url(#paint0_linear_3079_2851)"/>
<path d="M79.56 59.4C79.56 58.3013 79.8053 57.32 80.296 56.456C80.7973 55.5813 81.4747 54.904 82.328 54.424C83.192 53.9333 84.1573 53.688 85.224 53.688C86.472 53.688 87.5653 54.008 88.504 54.648C89.4427 55.288 90.0987 56.1733 90.472 57.304H87.896C87.64 56.7707 87.2773 56.3707 86.808 56.104C86.3493 55.8373 85.816 55.704 85.208 55.704C84.5573 55.704 83.976 55.8587 83.464 56.168C82.9627 56.4667 82.568 56.8933 82.28 57.448C82.0027 58.0027 81.864 58.6533 81.864 59.4C81.864 60.136 82.0027 60.7867 82.28 61.352C82.568 61.9067 82.9627 62.3387 83.464 62.648C83.976 62.9467 84.5573 63.096 85.208 63.096C85.816 63.096 86.3493 62.9627 86.808 62.696C87.2773 62.4187 87.64 62.0133 87.896 61.48H90.472C90.0987 62.6213 89.4427 63.512 88.504 64.152C87.576 64.7813 86.4827 65.096 85.224 65.096C84.1573 65.096 83.192 64.856 82.328 64.376C81.4747 63.8853 80.7973 63.208 80.296 62.344C79.8053 61.48 79.56 60.4987 79.56 59.4ZM91.6093 60.536C91.6093 59.64 91.7853 58.8453 92.1373 58.152C92.4999 57.4587 92.9853 56.9253 93.5933 56.552C94.2119 56.1787 94.8999 55.992 95.6573 55.992C96.3186 55.992 96.8946 56.1253 97.3853 56.392C97.8866 56.6587 98.2866 56.9947 98.5853 57.4V56.136H100.841V65H98.5853V63.704C98.2973 64.12 97.8973 64.4667 97.3853 64.744C96.8839 65.0107 96.3026 65.144 95.6413 65.144C94.8946 65.144 94.2119 64.952 93.5933 64.568C92.9853 64.184 92.4999 63.6453 92.1373 62.952C91.7853 62.248 91.6093 61.4427 91.6093 60.536ZM98.5853 60.568C98.5853 60.024 98.4786 59.56 98.2653 59.176C98.0519 58.7813 97.7639 58.4827 97.4013 58.28C97.0386 58.0667 96.6493 57.96 96.2333 57.96C95.8173 57.96 95.4333 58.0613 95.0813 58.264C94.7293 58.4667 94.4413 58.7653 94.2173 59.16C94.0039 59.544 93.8973 60.0027 93.8973 60.536C93.8973 61.0693 94.0039 61.5387 94.2173 61.944C94.4413 62.3387 94.7293 62.6427 95.0813 62.856C95.4439 63.0693 95.8279 63.176 96.2333 63.176C96.6493 63.176 97.0386 63.0747 97.4013 62.872C97.7639 62.6587 98.0519 62.36 98.2653 61.976C98.4786 61.5813 98.5853 61.112 98.5853 60.568ZM105.069 53.16V65H102.829V53.16H105.069ZM109.322 53.16V65H107.082V53.16H109.322ZM117.556 57.976V62.264C117.556 62.5627 117.625 62.7813 117.764 62.92C117.913 63.048 118.158 63.112 118.5 63.112H119.54V65H118.132C116.244 65 115.3 64.0827 115.3 62.248V57.976H114.244V56.136H115.3V53.944H117.556V56.136H119.54V57.976H117.556ZM124.887 65.144C124.034 65.144 123.266 64.9573 122.583 64.584C121.9 64.2 121.362 63.6613 120.967 62.968C120.583 62.2747 120.391 61.4747 120.391 60.568C120.391 59.6613 120.588 58.8613 120.983 58.168C121.388 57.4747 121.938 56.9413 122.631 56.568C123.324 56.184 124.098 55.992 124.951 55.992C125.804 55.992 126.578 56.184 127.271 56.568C127.964 56.9413 128.508 57.4747 128.903 58.168C129.308 58.8613 129.511 59.6613 129.511 60.568C129.511 61.4747 129.303 62.2747 128.887 62.968C128.482 63.6613 127.927 64.2 127.223 64.584C126.53 64.9573 125.751 65.144 124.887 65.144ZM124.887 63.192C125.292 63.192 125.671 63.096 126.023 62.904C126.386 62.7013 126.674 62.4027 126.887 62.008C127.1 61.6133 127.207 61.1333 127.207 60.568C127.207 59.7253 126.983 59.08 126.535 58.632C126.098 58.1733 125.559 57.944 124.919 57.944C124.279 57.944 123.74 58.1733 123.303 58.632C122.876 59.08 122.663 59.7253 122.663 60.568C122.663 61.4107 122.871 62.0613 123.287 62.52C123.714 62.968 124.247 63.192 124.887 63.192ZM133.991 60.536C133.991 59.64 134.167 58.8453 134.519 58.152C134.881 57.4587 135.367 56.9253 135.975 56.552C136.593 56.1787 137.281 55.992 138.039 55.992C138.7 55.992 139.276 56.1253 139.767 56.392C140.268 56.6587 140.668 56.9947 140.967 57.4V56.136H143.223V65H140.967V63.704C140.679 64.12 140.279 64.4667 139.767 64.744C139.265 65.0107 138.684 65.144 138.023 65.144C137.276 65.144 136.593 64.952 135.975 64.568C135.367 64.184 134.881 63.6453 134.519 62.952C134.167 62.248 133.991 61.4427 133.991 60.536ZM140.967 60.568C140.967 60.024 140.86 59.56 140.647 59.176C140.433 58.7813 140.145 58.4827 139.783 58.28C139.42 58.0667 139.031 57.96 138.615 57.96C138.199 57.96 137.815 58.0613 137.463 58.264C137.111 58.4667 136.823 58.7653 136.599 59.16C136.385 59.544 136.279 60.0027 136.279 60.536C136.279 61.0693 136.385 61.5387 136.599 61.944C136.823 62.3387 137.111 62.6427 137.463 62.856C137.825 63.0693 138.209 63.176 138.615 63.176C139.031 63.176 139.42 63.0747 139.783 62.872C140.145 62.6587 140.433 62.36 140.647 61.976C140.86 61.5813 140.967 61.112 140.967 60.568ZM144.634 60.568C144.634 59.6507 144.821 58.8507 145.194 58.168C145.568 57.4747 146.085 56.9413 146.746 56.568C147.408 56.184 148.165 55.992 149.018 55.992C150.117 55.992 151.024 56.2693 151.738 56.824C152.464 57.368 152.949 58.136 153.194 59.128H150.778C150.65 58.744 150.432 58.4453 150.122 58.232C149.824 58.008 149.45 57.896 149.002 57.896C148.362 57.896 147.856 58.1307 147.482 58.6C147.109 59.0587 146.922 59.7147 146.922 60.568C146.922 61.4107 147.109 62.0667 147.482 62.536C147.856 62.9947 148.362 63.224 149.002 63.224C149.909 63.224 150.501 62.8187 150.778 62.008H153.194C152.949 62.968 152.464 63.7307 151.738 64.296C151.013 64.8613 150.106 65.144 149.018 65.144C148.165 65.144 147.408 64.9573 146.746 64.584C146.085 64.2 145.568 63.6667 145.194 62.984C144.821 62.2907 144.634 61.4853 144.634 60.568ZM157.243 57.976V62.264C157.243 62.5627 157.313 62.7813 157.451 62.92C157.601 63.048 157.846 63.112 158.187 63.112H159.227V65H157.819C155.931 65 154.987 64.0827 154.987 62.248V57.976H153.931V56.136H154.987V53.944H157.243V56.136H159.227V57.976H157.243ZM161.774 55.08C161.38 55.08 161.049 54.9573 160.782 54.712C160.526 54.456 160.398 54.1413 160.398 53.768C160.398 53.3947 160.526 53.0853 160.782 52.84C161.049 52.584 161.38 52.456 161.774 52.456C162.169 52.456 162.494 52.584 162.75 52.84C163.017 53.0853 163.15 53.3947 163.15 53.768C163.15 54.1413 163.017 54.456 162.75 54.712C162.494 54.9573 162.169 55.08 161.774 55.08ZM162.878 56.136V65H160.638V56.136H162.878ZM168.827 65.144C167.974 65.144 167.206 64.9573 166.523 64.584C165.841 64.2 165.302 63.6613 164.907 62.968C164.523 62.2747 164.331 61.4747 164.331 60.568C164.331 59.6613 164.529 58.8613 164.923 58.168C165.329 57.4747 165.878 56.9413 166.571 56.568C167.265 56.184 168.038 55.992 168.891 55.992C169.745 55.992 170.518 56.184 171.211 56.568C171.905 56.9413 172.449 57.4747 172.843 58.168C173.249 58.8613 173.451 59.6613 173.451 60.568C173.451 61.4747 173.243 62.2747 172.827 62.968C172.422 63.6613 171.867 64.2 171.163 64.584C170.47 64.9573 169.691 65.144 168.827 65.144ZM168.827 63.192C169.233 63.192 169.611 63.096 169.963 62.904C170.326 62.7013 170.614 62.4027 170.827 62.008C171.041 61.6133 171.147 61.1333 171.147 60.568C171.147 59.7253 170.923 59.08 170.475 58.632C170.038 58.1733 169.499 57.944 168.859 57.944C168.219 57.944 167.681 58.1733 167.243 58.632C166.817 59.08 166.603 59.7253 166.603 60.568C166.603 61.4107 166.811 62.0613 167.227 62.52C167.654 62.968 168.187 63.192 168.827 63.192ZM179.807 56.008C180.863 56.008 181.716 56.344 182.367 57.016C183.017 57.6773 183.343 58.6053 183.343 59.8V65H181.103V60.104C181.103 59.4 180.927 58.8613 180.575 58.488C180.223 58.104 179.743 57.912 179.135 57.912C178.516 57.912 178.025 58.104 177.663 58.488C177.311 58.8613 177.135 59.4 177.135 60.104V65H174.895V56.136H177.135V57.24C177.433 56.856 177.812 56.5573 178.271 56.344C178.74 56.12 179.252 56.008 179.807 56.008Z" fill="#0F0F0F"/>
</g>
<defs>
<filter id="filter0_f_3079_2851" x="0" y="0" width="264" height="118" filterUnits="userSpaceOnUse" color-interpolation-filters="sRGB">
<feFlood flood-opacity="0" result="BackgroundImageFix"/>
<feBlend mode="normal" in="SourceGraphic" in2="BackgroundImageFix" result="shape"/>
<feGaussianBlur stdDeviation="14.5" result="effect1_foregroundBlur_3079_2851"/>
</filter>
<linearGradient id="paint0_linear_3079_2851" x1="29" y1="59" x2="235" y2="59" gradientUnits="userSpaceOnUse">
<stop stop-color="#FF94CF"/>
<stop offset="1" stop-color="#EF9011"/>
</linearGradient>
</defs>
</svg>
