<svg width="24" height="24" viewBox="0 0 24 24" fill="none" xmlns="http://www.w3.org/2000/svg">
<g clip-path="url(#clip0_3627_6113)">
<path d="M20.3644 12.7069C20.5519 12.5193 20.6572 12.265 20.6572 11.9999C20.6572 11.7347 20.5519 11.4804 20.3644 11.2929L14.7074 5.63585C14.6152 5.54034 14.5048 5.46416 14.3828 5.41175C14.2608 5.35934 14.1296 5.33176 13.9968 5.3306C13.8641 5.32945 13.7324 5.35475 13.6095 5.40503C13.4866 5.45531 13.3749 5.52957 13.281 5.62346C13.1872 5.71735 13.1129 5.829 13.0626 5.9519C13.0123 6.0748 12.987 6.20648 12.9882 6.33926C12.9893 6.47203 13.0169 6.60325 13.0693 6.72526C13.1217 6.84726 13.1979 6.95761 13.2934 7.04985L17.2434 10.9999L4.00044 10.9999C3.73522 10.9999 3.48087 11.1052 3.29333 11.2927C3.1058 11.4803 3.00044 11.7346 3.00044 11.9999C3.00044 12.2651 3.1058 12.5194 3.29333 12.707C3.48087 12.8945 3.73522 12.9999 4.00044 12.9999L17.2434 12.9999L13.2934 16.9499C13.1113 17.1385 13.0105 17.3911 13.0128 17.6533C13.015 17.9155 13.1202 18.1663 13.3056 18.3517C13.491 18.5371 13.7418 18.6423 14.004 18.6445C14.2662 18.6468 14.5188 18.546 14.7074 18.3639L20.3644 12.7069Z" fill="white"/>
</g>
<defs>
<clipPath id="clip0_3627_6113">
<rect width="24" height="24" fill="white" transform="translate(24) rotate(90)"/>
</clipPath>
</defs>
</svg>
