<svg width="364" height="151" viewBox="0 0 364 151" fill="none" xmlns="http://www.w3.org/2000/svg">
<g clip-path="url(#clip0_4092_15718)">
<g filter="url(#filter0_f_4092_15718)">
<ellipse cx="791.685" cy="222.706" rx="278.122" ry="86.234" transform="rotate(-18.8713 791.685 222.706)" fill="#1DC981"/>
</g>
<path d="M336.484 3H350.133C356.687 3 362 8.31284 362 14.8666V76V137.133C362 143.687 356.687 149 350.133 149H18.8665C12.3128 149 7 143.687 7 137.133V76" stroke="url(#paint0_angular_4092_15718)" stroke-width="2.22498" stroke-linecap="round"/>
<path d="M39.4817 72.4435C36.599 70.9102 35.1577 68.5028 35.1577 65.2214C35.1577 63.5654 35.587 62.0627 36.4457 60.7134C37.3044 59.3333 38.6077 58.2447 40.3557 57.4473C42.1038 56.6193 44.2505 56.2053 46.7958 56.2053C49.3412 56.2053 51.4726 56.6193 53.1899 57.4473C54.938 58.2447 56.2413 59.3333 57.1 60.7134C57.9587 62.0627 58.388 63.5654 58.388 65.2214C58.388 66.8775 57.9893 68.3188 57.192 69.5455C56.4253 70.7722 55.3826 71.7382 54.064 72.4435C55.72 73.2409 56.9927 74.3449 57.882 75.7556C58.7714 77.1356 59.216 78.761 59.216 80.6317C59.216 82.809 58.664 84.6951 57.56 86.2898C56.456 87.8538 54.9533 89.0498 53.0519 89.8778C51.1812 90.7058 49.0959 91.1198 46.7958 91.1198C44.4958 91.1198 42.3951 90.7058 40.4937 89.8778C38.623 89.0498 37.1357 87.8538 36.0317 86.2898C34.9276 84.6951 34.3756 82.809 34.3756 80.6317C34.3756 78.7303 34.8203 77.0896 35.7097 75.7096C36.599 74.2989 37.8564 73.2102 39.4817 72.4435ZM50.7519 66.4175C50.7519 65.1601 50.3839 64.1941 49.6479 63.5194C48.9425 62.8141 47.9919 62.4614 46.7958 62.4614C45.5998 62.4614 44.6338 62.8141 43.8978 63.5194C43.1924 64.2247 42.8398 65.2061 42.8398 66.4635C42.8398 67.6595 43.2078 68.6102 43.9438 69.3155C44.6798 69.9902 45.6305 70.3275 46.7958 70.3275C47.9612 70.3275 48.9119 69.9748 49.6479 69.2695C50.3839 68.5642 50.7519 67.6135 50.7519 66.4175ZM46.7958 75.8476C45.3545 75.8476 44.1891 76.2463 43.2998 77.0436C42.4104 77.8103 41.9658 78.8836 41.9658 80.2637C41.9658 81.5517 42.3951 82.6097 43.2538 83.4377C44.1431 84.2657 45.3238 84.6797 46.7958 84.6797C48.2679 84.6797 49.4179 84.2657 50.2459 83.4377C51.1046 82.6097 51.5339 81.5517 51.5339 80.2637C51.5339 78.9143 51.0892 77.841 50.1999 77.0436C49.3412 76.2463 48.2065 75.8476 46.7958 75.8476ZM67.1023 90.8438C65.7223 90.8438 64.5876 90.4452 63.6982 89.6478C62.8395 88.8198 62.4102 87.8078 62.4102 86.6118C62.4102 85.3851 62.8395 84.3577 63.6982 83.5297C64.5876 82.7017 65.7223 82.2877 67.1023 82.2877C68.4516 82.2877 69.5557 82.7017 70.4143 83.5297C71.3037 84.3577 71.7484 85.3851 71.7484 86.6118C71.7484 87.8078 71.3037 88.8198 70.4143 89.6478C69.5557 90.4452 68.4516 90.8438 67.1023 90.8438ZM74.1968 84.1737C75.2395 83.3457 75.7148 82.9624 75.6228 83.0237C78.6282 80.5397 80.9896 78.5003 82.7069 76.9056C84.455 75.3109 85.927 73.6396 87.123 71.8915C88.319 70.1435 88.917 68.4415 88.917 66.7855C88.917 65.5281 88.6257 64.5468 88.043 63.8414C87.4604 63.1361 86.5863 62.7834 85.421 62.7834C84.2556 62.7834 83.3356 63.2281 82.6609 64.1174C82.0169 64.9761 81.6949 66.2028 81.6949 67.7975H74.1048C74.1661 65.1908 74.7182 63.0134 75.7608 61.2654C76.8342 59.5173 78.2295 58.2293 79.9469 57.4013C81.6949 56.5733 83.627 56.1593 85.743 56.1593C89.3924 56.1593 92.1371 57.0946 93.9771 58.9653C95.8478 60.836 96.7832 63.2741 96.7832 66.2794C96.7832 69.5608 95.6638 72.6122 93.4251 75.4336C91.1864 78.2243 88.3344 80.9537 84.869 83.6217H97.2892V90.0158H74.1968V84.1737ZM123.247 63.7494H108.895V70.0975C109.508 69.4228 110.367 68.8708 111.471 68.4415C112.575 68.0121 113.771 67.7975 115.059 67.7975C117.359 67.7975 119.26 68.3188 120.763 69.3615C122.296 70.4042 123.416 71.7535 124.121 73.4096C124.826 75.0656 125.179 76.8596 125.179 78.7916C125.179 82.3797 124.167 85.2317 122.143 87.3478C120.119 89.4331 117.267 90.4758 113.587 90.4758C111.133 90.4758 109.002 90.0618 107.193 89.2338C105.383 88.3751 103.988 87.1944 103.007 85.6918C102.025 84.1891 101.489 82.4564 101.397 80.4937H109.079C109.263 81.4444 109.707 82.2417 110.413 82.8857C111.118 83.4991 112.084 83.8057 113.311 83.8057C114.752 83.8057 115.825 83.3457 116.531 82.4257C117.236 81.5057 117.589 80.279 117.589 78.7456C117.589 77.243 117.221 76.0929 116.485 75.2956C115.749 74.4982 114.675 74.0996 113.265 74.0996C112.222 74.0996 111.363 74.3602 110.689 74.8816C110.014 75.3723 109.569 76.0316 109.355 76.8596H101.765V56.8493H123.247V63.7494Z" fill="#1DC981"/>
<circle cx="7.4166" cy="74.8839" r="7.4166" fill="#1DC981"/>
<g filter="url(#filter1_d_4092_15718)">
<g clip-path="url(#clip1_4092_15718)">
<path d="M156.489 13.3258C156.489 6.77205 161.802 1.45923 168.356 1.45923H312.979C319.533 1.45923 324.846 6.77206 324.846 13.3258V150.533H156.489V13.3258Z" fill="url(#paint1_linear_4092_15718)" fill-opacity="0.2" shape-rendering="crispEdges"/>
<rect x="167.614" y="12.5842" width="146.107" height="34.858" rx="5.19162" fill="url(#paint2_linear_4092_15718)"/>
<path fill-rule="evenodd" clip-rule="evenodd" d="M218.917 27.9819C218.917 25.4298 216.85 23.3633 214.298 23.3633C211.746 23.3633 209.68 25.4298 209.68 27.9819V33.9432H218.917V27.9819ZM211.489 27.7057C211.489 27.1724 211.918 26.7439 212.451 26.7439C212.984 26.7439 213.413 27.1724 213.413 27.7057C213.413 28.239 212.984 28.6675 212.451 28.6675C211.918 28.6675 211.489 28.239 211.489 27.7057ZM214.898 27.7057C214.898 27.1724 215.327 26.7439 215.86 26.7439C216.393 26.7439 216.822 27.1724 216.822 27.7057C216.822 28.239 216.393 28.6675 215.86 28.6675C215.327 28.6675 214.898 28.239 214.898 27.7057ZM215.069 29.4293C215.069 29.6579 214.755 29.9721 214.327 29.9721C213.898 29.9721 213.66 29.7531 213.593 29.5341C213.565 29.4579 213.555 29.2484 213.746 29.2484C213.835 29.2484 213.913 29.2629 213.997 29.2785C214.093 29.2961 214.195 29.3151 214.327 29.3151C214.456 29.3151 214.574 29.2957 214.676 29.2789C214.776 29.2624 214.861 29.2485 214.927 29.2579C215.012 29.2674 215.069 29.3436 215.069 29.4293Z" fill="white"/>
<path fill-rule="evenodd" clip-rule="evenodd" d="M218.917 29.5821C218.917 25.573 216.85 23.9827 214.298 23.9827C211.746 23.9827 209.68 25.4587 209.68 27.8966V34.2865H218.917V29.5821ZM211.489 27.7061C211.489 27.1728 211.918 26.7443 212.451 26.7443C212.984 26.7443 213.413 27.1728 213.413 27.7061C213.413 28.2394 212.984 28.6679 212.451 28.6679C211.918 28.6679 211.489 28.2394 211.489 27.7061ZM214.898 27.7061C214.898 27.1728 215.327 26.7443 215.86 26.7443C216.393 26.7443 216.822 27.1728 216.822 27.7061C216.822 28.2394 216.393 28.6679 215.86 28.6679C215.327 28.6679 214.898 28.2394 214.898 27.7061ZM215.069 29.4298C215.069 29.6584 214.755 29.9726 214.327 29.9726C213.898 29.9726 213.66 29.7536 213.593 29.5346C213.565 29.4584 213.555 29.2489 213.746 29.2489C213.835 29.2489 213.913 29.2634 213.997 29.2789C214.093 29.2966 214.195 29.3155 214.327 29.3155C214.456 29.3155 214.574 29.2962 214.676 29.2794C214.776 29.2629 214.861 29.249 214.927 29.2584C215.012 29.2679 215.069 29.3441 215.069 29.4298Z" fill="white"/>
<path fill-rule="evenodd" clip-rule="evenodd" d="M218.916 29.8297C218.916 25.9634 216.85 24.4302 214.298 24.4302C211.746 24.4302 209.679 25.8586 209.717 28.2108V36.3814C209.717 36.6576 209.936 36.8766 210.213 36.8766C210.489 36.8766 210.708 36.6576 210.708 36.3814V34.8863V34.8768C210.708 34.6102 210.946 34.4007 211.231 34.4007H211.241C211.527 34.4102 211.755 34.6197 211.755 34.8863V35.5339C211.755 35.8101 211.974 36.0291 212.25 36.0291C212.527 36.0291 212.746 35.8101 212.746 35.5339V34.8768C212.746 34.6102 212.984 34.4007 213.269 34.4007H213.279C213.565 34.4102 213.793 34.6197 213.793 34.8863V35.0101C213.793 35.2863 214.012 35.5053 214.288 35.5053C214.564 35.5053 214.784 35.2863 214.784 35.0101V34.8768C214.784 34.6102 215.022 34.4007 215.307 34.4007H215.317C215.602 34.4102 215.831 34.6197 215.831 34.8863V35.5339C215.831 35.8101 216.05 36.0291 216.326 36.0291C216.602 36.0291 216.821 35.8101 216.821 35.5339V34.8768C216.821 34.6102 217.059 34.4007 217.345 34.4007H217.355C217.64 34.4102 217.869 34.6197 217.869 34.8863V36.3529C217.869 36.6385 218.097 36.8766 218.393 36.8766C218.678 36.8766 218.916 36.6481 218.916 36.3529V29.8297ZM211.489 27.7061C211.489 27.1728 211.917 26.7442 212.45 26.7442C212.984 26.7442 213.412 27.1728 213.412 27.7061C213.412 28.2393 212.984 28.6679 212.45 28.6679C211.917 28.6679 211.489 28.2393 211.489 27.7061ZM214.898 27.7061C214.898 27.1728 215.326 26.7442 215.86 26.7442C216.393 26.7442 216.821 27.1728 216.821 27.7061C216.821 28.2393 216.393 28.6679 215.86 28.6679C215.326 28.6679 214.898 28.2393 214.898 27.7061ZM215.069 29.4297C215.069 29.6583 214.755 29.9725 214.326 29.9725C213.898 29.9725 213.66 29.7535 213.593 29.5345C213.564 29.4583 213.555 29.2488 213.745 29.2488C213.834 29.2488 213.913 29.2633 213.997 29.2789C214.092 29.2965 214.194 29.3155 214.326 29.3155C214.456 29.3155 214.573 29.2961 214.675 29.2793C214.775 29.2628 214.86 29.2489 214.926 29.2583C215.012 29.2678 215.069 29.344 215.069 29.4297Z" fill="white"/>
<path opacity="0.2563" fill-rule="evenodd" clip-rule="evenodd" d="M210.173 29.0481C210.307 29.0481 210.421 29.1624 210.421 29.2957V30.4099C210.421 30.5432 210.307 30.6575 210.173 30.6575C210.04 30.6575 209.926 30.5432 209.926 30.4099V29.2957C209.926 29.1624 210.031 29.0481 210.173 29.0481Z" fill="white"/>
<path opacity="0.2563" fill-rule="evenodd" clip-rule="evenodd" d="M218.602 30.6587C218.735 30.6587 218.85 30.773 218.85 30.9063V32.9918C218.85 33.1251 218.735 33.2394 218.602 33.2394C218.469 33.2394 218.354 33.1251 218.354 32.9918V30.9063C218.354 30.773 218.469 30.6587 218.602 30.6587Z" fill="white"/>
<path opacity="0.2563" fill-rule="evenodd" clip-rule="evenodd" d="M218.602 29.5818C218.735 29.5818 218.85 29.6961 218.85 29.8294V30.0579C218.85 30.1913 218.735 30.3055 218.602 30.3055C218.469 30.3055 218.354 30.1913 218.354 30.0579V29.8294C218.354 29.6865 218.469 29.5818 218.602 29.5818Z" fill="white"/>
<path fill-rule="evenodd" clip-rule="evenodd" d="M244.104 23.3635C244.618 23.373 245.066 23.6968 245.247 24.1635L245.275 24.2396L249.989 35.6671C250.027 35.7528 250.046 35.8385 250.046 35.9242V35.9909C250.056 36.2195 249.98 36.448 249.818 36.6289C249.656 36.8004 249.427 36.8861 249.189 36.8765C249.018 36.8765 248.847 36.8194 248.704 36.7146C248.58 36.6194 248.485 36.5051 248.408 36.3718L248.37 36.2861L243.885 25.1062L242.228 29.2106H243.028C243.466 29.2106 243.828 29.5534 243.866 29.9915V30.0581V30.0772C243.866 30.5152 243.523 30.8771 243.095 30.9247H243.028H241.542L239.381 36.2861C239.314 36.4575 239.19 36.6004 239.047 36.7146C238.905 36.8194 238.733 36.8765 238.562 36.8765C238.324 36.8861 238.095 36.8004 237.933 36.6289C237.781 36.4575 237.695 36.229 237.705 35.9909C237.705 35.9052 237.714 35.829 237.743 35.7433L237.771 35.6671L239.724 30.9152H238.886C238.448 30.9152 238.086 30.5724 238.048 30.1343V30.0581C238.048 29.6201 238.39 29.2582 238.819 29.2106H238.886H240.457L242.504 24.2301C242.657 23.7444 243.095 23.4016 243.599 23.354H243.685H244.104V23.3635ZM230.02 23.3635C230.534 23.373 230.991 23.6873 231.172 24.1635L231.201 24.2396L235.914 35.6671C235.943 35.7433 235.962 35.829 235.972 35.9052V36.0671C235.962 36.2766 235.886 36.4671 235.743 36.6289C235.581 36.8004 235.353 36.8861 235.114 36.8765C234.943 36.8765 234.772 36.8194 234.629 36.7146C234.505 36.6194 234.41 36.5051 234.334 36.3718L234.296 36.2861L229.81 25.1062L228.172 29.2106H228.972C229.42 29.2106 229.782 29.5534 229.82 29.9915V30.0581V30.0772C229.82 30.5248 229.477 30.8866 229.039 30.9247H228.972H227.477L225.315 36.2861C225.249 36.4575 225.125 36.6004 224.982 36.7146C224.839 36.8194 224.668 36.8765 224.496 36.8765C224.258 36.8861 224.03 36.8004 223.868 36.6289C223.716 36.4575 223.63 36.229 223.639 35.9909C223.639 35.9052 223.649 35.829 223.677 35.7433L223.706 35.6671L225.658 30.9152H224.82C224.382 30.9152 224.02 30.5724 223.982 30.1343V30.0581C223.982 29.6201 224.325 29.2582 224.754 29.2106H224.82H226.372L228.42 24.2301C228.572 23.7444 229.01 23.4016 229.515 23.354H229.601H230.02V23.3635ZM249.723 23.3635C249.894 23.3635 250.065 23.4207 250.208 23.5254C250.351 23.6397 250.475 23.7825 250.542 23.9539L255.027 35.1338L259.512 23.9539C259.588 23.7825 259.703 23.6397 259.845 23.5254C259.988 23.4207 260.16 23.3635 260.331 23.3635C260.56 23.354 260.788 23.4397 260.95 23.6111C261.112 23.7825 261.188 24.0111 261.188 24.2492C261.188 24.3634 261.169 24.4682 261.131 24.5729L256.417 36.0004C256.255 36.5147 255.779 36.867 255.236 36.8765H254.817C254.275 36.867 253.798 36.5147 253.637 36.0004L248.923 24.5729C248.885 24.4682 248.866 24.3634 248.866 24.2492C248.856 24.0111 248.942 23.7921 249.094 23.6111C249.266 23.4397 249.494 23.3445 249.723 23.3635ZM271.463 23.4492C271.682 23.4397 271.892 23.5349 272.044 23.6968C272.206 23.8492 272.292 24.0587 272.292 24.2777C272.301 24.4968 272.206 24.6967 272.044 24.8491C271.892 25.0015 271.682 25.0872 271.463 25.0872H264.693V29.3058H270.778C270.997 29.2963 271.206 29.3915 271.359 29.5534C271.511 29.7058 271.606 29.9153 271.606 30.1343C271.616 30.3533 271.521 30.5533 271.359 30.7057C271.206 30.8581 270.997 30.9438 270.778 30.9438H264.693V35.1815H271.463C271.682 35.1719 271.892 35.2672 272.044 35.4291C272.206 35.5814 272.292 35.7909 272.292 36.01C272.301 36.229 272.206 36.429 272.044 36.5813C271.892 36.7337 271.682 36.8194 271.463 36.8099H263.807C263.578 36.8289 263.35 36.7337 263.198 36.5623C263.036 36.4004 262.95 36.1814 262.95 35.9528V24.3349C262.94 24.0968 263.036 23.8778 263.198 23.7064C263.359 23.5349 263.578 23.4492 263.807 23.4588H271.463V23.4492Z" fill="white"/>
<g filter="url(#filter2_d_4092_15718)">
<path d="M173.166 64.2543H170.251L169.784 65.6338H167.792L170.618 57.8241H172.821L175.646 65.6338H173.633L173.166 64.2543ZM172.676 62.7858L171.708 59.9267L170.751 62.7858H172.676ZM181.368 64.2543H178.453L177.986 65.6338H175.995L178.82 57.8241H181.023L183.849 65.6338H181.835L181.368 64.2543ZM180.879 62.7858L179.911 59.9267L178.954 62.7858H180.879ZM192.04 57.8241L189.27 65.6338H186.889L184.119 57.8241H186.144L188.08 63.7203L190.027 57.8241H192.04ZM194.738 59.3482V60.928H197.285V62.3964H194.738V64.1097H197.619V65.6338H192.835V57.8241H197.619V59.3482H194.738Z" fill="white"/>
</g>
<path d="M172.692 87.4743H169.535L168.954 89.0837H167.957L170.573 81.8882H171.664L174.27 89.0837H173.273L172.692 87.4743ZM172.422 86.706L171.113 83.0511L169.805 86.706H172.422ZM180.249 83.9648C180.249 84.567 180.041 85.0689 179.626 85.4704C179.217 85.8649 178.591 86.0622 177.747 86.0622H176.355V89.0837H175.41V81.8466H177.747C178.563 81.8466 179.183 82.0439 179.605 82.4385C180.034 82.833 180.249 83.3418 180.249 83.9648ZM177.747 85.2835C178.273 85.2835 178.66 85.1693 178.909 84.9408C179.159 84.7124 179.283 84.3871 179.283 83.9648C179.283 83.0718 178.771 82.6254 177.747 82.6254H176.355V85.2835H177.747ZM186.49 81.8466L184.133 86.3529V89.0837H183.188V86.3529L180.821 81.8466H181.87L183.656 85.5119L185.442 81.8466H186.49Z" fill="white"/>
<path d="M252.271 85.2041C252.271 84.0077 252.486 83.0707 252.915 82.3929C253.35 81.7152 254.07 81.3764 255.072 81.3764C256.075 81.3764 256.791 81.7152 257.22 82.3929C257.655 83.0707 257.873 84.0077 257.873 85.2041C257.873 86.4074 257.655 87.3514 257.22 88.036C256.791 88.7207 256.075 89.063 255.072 89.063C254.07 89.063 253.35 88.7207 252.915 88.036C252.486 87.3514 252.271 86.4074 252.271 85.2041ZM256.442 85.2041C256.442 84.6924 256.407 84.2636 256.338 83.9178C256.276 83.5651 256.144 83.2781 255.944 83.0568C255.75 82.8355 255.46 82.7249 255.072 82.7249C254.685 82.7249 254.391 82.8355 254.191 83.0568C253.997 83.2781 253.866 83.5651 253.796 83.9178C253.734 84.2636 253.703 84.6924 253.703 85.2041C253.703 85.7297 253.734 86.1723 253.796 86.5319C253.859 86.8846 253.99 87.1716 254.191 87.3929C254.391 87.6073 254.685 87.7145 255.072 87.7145C255.46 87.7145 255.753 87.6073 255.954 87.3929C256.155 87.1716 256.286 86.8846 256.348 86.5319C256.41 86.1723 256.442 85.7297 256.442 85.2041ZM259.787 89.1564C259.524 89.1564 259.306 89.0768 259.133 88.9178C258.967 88.7518 258.884 88.5478 258.884 88.3057C258.884 88.0637 258.967 87.8631 259.133 87.7041C259.306 87.5381 259.524 87.4551 259.787 87.4551C260.043 87.4551 260.254 87.5381 260.42 87.7041C260.586 87.8631 260.669 88.0637 260.669 88.3057C260.669 88.5478 260.586 88.7518 260.42 88.9178C260.254 89.0768 260.043 89.1564 259.787 89.1564ZM261.496 82.8597V81.5216H263.996V89.0837H262.502V82.8597H261.496ZM266.696 85.0796C266.005 84.72 265.659 84.1633 265.659 83.4095C265.659 83.0361 265.752 82.6972 265.939 82.3929C266.133 82.0817 266.42 81.8362 266.8 81.6564C267.187 81.4697 267.657 81.3764 268.211 81.3764C268.764 81.3764 269.231 81.4697 269.611 81.6564C269.998 81.8362 270.285 82.0817 270.472 82.3929C270.666 82.6972 270.763 83.0361 270.763 83.4095C270.763 83.7899 270.669 84.1253 270.482 84.4157C270.296 84.6993 270.047 84.9206 269.736 85.0796C270.116 85.2456 270.413 85.4877 270.628 85.8058C270.842 86.1239 270.949 86.5008 270.949 86.9365C270.949 87.4067 270.828 87.8182 270.586 88.1709C270.351 88.5167 270.026 88.7829 269.611 88.9696C269.196 89.1564 268.729 89.2497 268.211 89.2497C267.692 89.2497 267.225 89.1564 266.81 88.9696C266.402 88.7829 266.077 88.5167 265.835 88.1709C265.6 87.8182 265.482 87.4067 265.482 86.9365C265.482 86.5008 265.59 86.1239 265.804 85.8058C266.018 85.4807 266.316 85.2387 266.696 85.0796ZM269.352 83.617C269.352 83.2781 269.248 83.0153 269.041 82.8286C268.84 82.6419 268.563 82.5485 268.211 82.5485C267.865 82.5485 267.588 82.6419 267.381 82.8286C267.18 83.0153 267.08 83.2816 267.08 83.6274C267.08 83.9386 267.184 84.1875 267.391 84.3742C267.606 84.561 267.879 84.6543 268.211 84.6543C268.543 84.6543 268.816 84.561 269.03 84.3742C269.245 84.1806 269.352 83.9282 269.352 83.617ZM268.211 85.7124C267.816 85.7124 267.495 85.8127 267.246 86.0132C267.004 86.2138 266.883 86.5008 266.883 86.8742C266.883 87.22 267 87.5035 267.236 87.7248C267.478 87.9392 267.803 88.0464 268.211 88.0464C268.619 88.0464 268.94 87.9358 269.175 87.7145C269.411 87.4932 269.528 87.2131 269.528 86.8742C269.528 86.5077 269.407 86.2242 269.165 86.0236C268.923 85.8161 268.605 85.7124 268.211 85.7124ZM279.153 84.7684V85.9925H274.755V84.7684H279.153ZM288.17 82.7768H284.81V84.5506C284.955 84.3708 285.162 84.2256 285.432 84.1149C285.702 83.9973 285.989 83.9386 286.293 83.9386C286.846 83.9386 287.299 84.0596 287.652 84.3016C288.005 84.5437 288.26 84.8549 288.419 85.2352C288.579 85.6087 288.658 86.0098 288.658 86.4385C288.658 87.2338 288.43 87.8735 287.973 88.3576C287.524 88.8417 286.881 89.0837 286.044 89.0837C285.256 89.0837 284.626 88.8866 284.156 88.4925C283.686 88.0983 283.42 87.5831 283.357 86.9468H284.768C284.83 87.2235 284.969 87.4448 285.183 87.6107C285.404 87.7767 285.684 87.8597 286.023 87.8597C286.431 87.8597 286.739 87.7317 286.946 87.4759C287.154 87.22 287.258 86.8811 287.258 86.4593C287.258 86.0305 287.15 85.7055 286.936 85.4842C286.729 85.256 286.421 85.1419 286.013 85.1419C285.722 85.1419 285.48 85.2145 285.287 85.3597C285.093 85.5049 284.955 85.6986 284.872 85.9406H283.482V81.5008H288.17V82.7768ZM290.572 89.1564C290.31 89.1564 290.092 89.0768 289.919 88.9178C289.753 88.7518 289.67 88.5478 289.67 88.3057C289.67 88.0637 289.753 87.8631 289.919 87.7041C290.092 87.5381 290.31 87.4551 290.572 87.4551C290.828 87.4551 291.039 87.5381 291.205 87.7041C291.371 87.8631 291.454 88.0637 291.454 88.3057C291.454 88.5478 291.371 88.7518 291.205 88.9178C291.039 89.0768 290.828 89.1564 290.572 89.1564ZM293.724 85.0796C293.032 84.72 292.686 84.1633 292.686 83.4095C292.686 83.0361 292.78 82.6972 292.966 82.3929C293.16 82.0817 293.447 81.8362 293.827 81.6564C294.215 81.4697 294.685 81.3764 295.238 81.3764C295.791 81.3764 296.258 81.4697 296.638 81.6564C297.026 81.8362 297.313 82.0817 297.499 82.3929C297.693 82.6972 297.79 83.0361 297.79 83.4095C297.79 83.7899 297.697 84.1253 297.51 84.4157C297.323 84.6993 297.074 84.9206 296.763 85.0796C297.143 85.2456 297.441 85.4877 297.655 85.8058C297.869 86.1239 297.977 86.5008 297.977 86.9365C297.977 87.4067 297.856 87.8182 297.614 88.1709C297.378 88.5167 297.053 88.7829 296.638 88.9696C296.224 89.1564 295.757 89.2497 295.238 89.2497C294.719 89.2497 294.253 89.1564 293.838 88.9696C293.43 88.7829 293.105 88.5167 292.863 88.1709C292.627 87.8182 292.51 87.4067 292.51 86.9365C292.51 86.5008 292.617 86.1239 292.831 85.8058C293.046 85.4807 293.343 85.2387 293.724 85.0796ZM296.379 83.617C296.379 83.2781 296.275 83.0153 296.068 82.8286C295.867 82.6419 295.591 82.5485 295.238 82.5485C294.892 82.5485 294.616 82.6419 294.408 82.8286C294.208 83.0153 294.107 83.2816 294.107 83.6274C294.107 83.9386 294.211 84.1875 294.419 84.3742C294.633 84.561 294.906 84.6543 295.238 84.6543C295.57 84.6543 295.843 84.561 296.058 84.3742C296.272 84.1806 296.379 83.9282 296.379 83.617ZM295.238 85.7124C294.844 85.7124 294.522 85.8127 294.273 86.0132C294.031 86.2138 293.91 86.5008 293.91 86.8742C293.91 87.22 294.028 87.5035 294.263 87.7248C294.505 87.9392 294.83 88.0464 295.238 88.0464C295.646 88.0464 295.968 87.9358 296.203 87.7145C296.438 87.4932 296.555 87.2131 296.555 86.8742C296.555 86.5077 296.434 86.2242 296.192 86.0236C295.95 85.8161 295.632 85.7124 295.238 85.7124ZM299.58 87.4448C300.244 86.8915 300.773 86.4316 301.167 86.0651C301.561 85.6917 301.89 85.3044 302.153 84.9033C302.415 84.5022 302.547 84.108 302.547 83.7207C302.547 83.368 302.464 83.0914 302.298 82.8909C302.132 82.6903 301.876 82.59 301.53 82.59C301.185 82.59 300.918 82.7076 300.732 82.9427C300.545 83.1709 300.448 83.4856 300.441 83.8867H299.03C299.058 83.0568 299.303 82.4275 299.767 81.9988C300.237 81.57 300.832 81.3556 301.551 81.3556C302.339 81.3556 302.945 81.5665 303.366 81.9884C303.788 82.4033 303.999 82.9531 303.999 83.6377C303.999 84.1772 303.854 84.6924 303.563 85.1834C303.273 85.6744 302.941 86.1031 302.568 86.4697C302.194 86.8293 301.707 87.2649 301.105 87.7767H304.165V88.98H299.041V87.9012L299.58 87.4448ZM304.914 83.3784C304.914 82.8528 305.066 82.4413 305.371 82.144C305.682 81.8466 306.08 81.6979 306.564 81.6979C307.048 81.6979 307.442 81.8466 307.746 82.144C308.057 82.4413 308.213 82.8528 308.213 83.3784C308.213 83.9109 308.057 84.3258 307.746 84.6232C307.442 84.9206 307.048 85.0693 306.564 85.0693C306.08 85.0693 305.682 84.9206 305.371 84.6232C305.066 84.3258 304.914 83.9109 304.914 83.3784ZM311.574 81.8224L307.497 89.0837H306.086L310.153 81.8224H311.574ZM306.553 82.5693C306.173 82.5693 305.983 82.839 305.983 83.3784C305.983 83.9247 306.173 84.1979 306.553 84.1979C306.74 84.1979 306.885 84.1322 306.989 84.0008C307.093 83.8625 307.145 83.655 307.145 83.3784C307.145 82.839 306.947 82.5693 306.553 82.5693ZM309.468 87.5174C309.468 86.9849 309.62 86.5734 309.925 86.2829C310.236 85.9856 310.633 85.8369 311.118 85.8369C311.602 85.8369 311.992 85.9856 312.29 86.2829C312.594 86.5734 312.746 86.9849 312.746 87.5174C312.746 88.0499 312.594 88.4648 312.29 88.7622C311.992 89.0595 311.602 89.2082 311.118 89.2082C310.627 89.2082 310.229 89.0595 309.925 88.7622C309.62 88.4648 309.468 88.0499 309.468 87.5174ZM311.107 86.7082C310.713 86.7082 310.516 86.978 310.516 87.5174C310.516 88.0637 310.713 88.3369 311.107 88.3369C311.494 88.3369 311.688 88.0637 311.688 87.5174C311.688 86.978 311.494 86.7082 311.107 86.7082Z" fill="white"/>
<path d="M172.868 102.813V103.582H170.895V110.05H169.95V103.582H167.967V102.813H172.868ZM174.976 105.284C175.142 104.959 175.378 104.706 175.682 104.526C175.994 104.346 176.371 104.256 176.814 104.256V105.232H176.565C175.506 105.232 174.976 105.807 174.976 106.956V110.05H174.031V104.36H174.976V105.284ZM182.951 104.36V110.05H182.006V109.209C181.826 109.5 181.573 109.728 181.248 109.895C180.93 110.054 180.577 110.133 180.189 110.133C179.746 110.133 179.348 110.043 178.995 109.863C178.642 109.676 178.362 109.4 178.154 109.033C177.953 108.666 177.853 108.219 177.853 107.693V104.36H178.787V107.569C178.787 108.129 178.929 108.562 179.213 108.867C179.497 109.164 179.884 109.313 180.376 109.313C180.881 109.313 181.279 109.157 181.57 108.846C181.861 108.534 182.006 108.081 182.006 107.486V104.36H182.951ZM186.561 110.144C186.125 110.144 185.733 110.071 185.387 109.926C185.041 109.773 184.768 109.566 184.567 109.303C184.366 109.033 184.256 108.725 184.235 108.379H185.211C185.239 108.662 185.37 108.894 185.605 109.074C185.848 109.254 186.163 109.344 186.55 109.344C186.91 109.344 187.194 109.265 187.402 109.105C187.609 108.946 187.713 108.745 187.713 108.503C187.713 108.254 187.602 108.071 187.381 107.953C187.159 107.828 186.817 107.707 186.353 107.589C185.931 107.479 185.585 107.368 185.315 107.257C185.052 107.14 184.823 106.97 184.629 106.748C184.442 106.52 184.349 106.222 184.349 105.855C184.349 105.565 184.436 105.298 184.609 105.056C184.782 104.814 185.027 104.623 185.346 104.485C185.664 104.34 186.028 104.267 186.436 104.267C187.066 104.267 187.575 104.426 187.962 104.744C188.35 105.063 188.558 105.499 188.585 106.053H187.641C187.62 105.755 187.499 105.516 187.277 105.336C187.063 105.156 186.772 105.066 186.405 105.066C186.066 105.066 185.796 105.139 185.595 105.284C185.394 105.43 185.294 105.62 185.294 105.855C185.294 106.042 185.353 106.198 185.47 106.323C185.595 106.44 185.747 106.537 185.927 106.613C186.114 106.683 186.37 106.762 186.696 106.852C187.104 106.963 187.436 107.074 187.692 107.185C187.949 107.288 188.167 107.448 188.347 107.662C188.533 107.877 188.63 108.157 188.637 108.503C188.637 108.815 188.551 109.095 188.378 109.344C188.205 109.593 187.959 109.791 187.641 109.936C187.329 110.075 186.969 110.144 186.561 110.144ZM191.124 105.139V108.493C191.124 108.77 191.183 108.967 191.3 109.085C191.418 109.195 191.622 109.251 191.913 109.251H192.608V110.05H191.757C191.231 110.05 190.836 109.929 190.573 109.687C190.31 109.445 190.179 109.047 190.179 108.493V105.139H189.442V104.36H190.179V102.927H191.124V104.36H192.608V105.139H191.124ZM198.536 110.144C198.1 110.144 197.709 110.071 197.363 109.926C197.016 109.773 196.743 109.566 196.542 109.303C196.342 109.033 196.231 108.725 196.21 108.379H197.186C197.214 108.662 197.345 108.894 197.581 109.074C197.823 109.254 198.138 109.344 198.525 109.344C198.885 109.344 199.169 109.265 199.377 109.105C199.585 108.946 199.688 108.745 199.688 108.503C199.688 108.254 199.578 108.071 199.356 107.953C199.135 107.828 198.792 107.707 198.328 107.589C197.906 107.479 197.56 107.368 197.29 107.257C197.027 107.14 196.798 106.97 196.605 106.748C196.418 106.52 196.324 106.222 196.324 105.855C196.324 105.565 196.411 105.298 196.584 105.056C196.757 104.814 197.003 104.623 197.321 104.485C197.639 104.34 198.003 104.267 198.411 104.267C199.041 104.267 199.55 104.426 199.938 104.744C200.325 105.063 200.533 105.499 200.561 106.053H199.616C199.595 105.755 199.474 105.516 199.252 105.336C199.038 105.156 198.747 105.066 198.38 105.066C198.041 105.066 197.771 105.139 197.57 105.284C197.369 105.43 197.269 105.62 197.269 105.855C197.269 106.042 197.328 106.198 197.446 106.323C197.57 106.44 197.722 106.537 197.902 106.613C198.089 106.683 198.345 106.762 198.671 106.852C199.079 106.963 199.412 107.074 199.668 107.185C199.924 107.288 200.142 107.448 200.322 107.662C200.509 107.877 200.606 108.157 200.612 108.503C200.612 108.815 200.526 109.095 200.353 109.344C200.18 109.593 199.934 109.791 199.616 109.936C199.304 110.075 198.944 110.144 198.536 110.144ZM201.593 107.195C201.593 106.607 201.711 106.094 201.946 105.658C202.182 105.215 202.507 104.873 202.922 104.63C203.345 104.388 203.826 104.267 204.366 104.267C205.065 104.267 205.639 104.436 206.089 104.776C206.546 105.115 206.847 105.586 206.993 106.188H205.975C205.878 105.842 205.688 105.568 205.404 105.367C205.127 105.167 204.781 105.066 204.366 105.066C203.826 105.066 203.39 105.253 203.057 105.627C202.725 105.994 202.559 106.517 202.559 107.195C202.559 107.88 202.725 108.41 203.057 108.784C203.39 109.157 203.826 109.344 204.366 109.344C204.781 109.344 205.127 109.247 205.404 109.054C205.681 108.86 205.871 108.583 205.975 108.223H206.993C206.84 108.804 206.536 109.272 206.079 109.625C205.622 109.971 205.051 110.144 204.366 110.144C203.826 110.144 203.345 110.023 202.922 109.78C202.507 109.538 202.182 109.195 201.946 108.752C201.711 108.309 201.593 107.79 201.593 107.195ZM210.735 110.144C210.202 110.144 209.717 110.023 209.281 109.78C208.852 109.538 208.513 109.195 208.264 108.752C208.021 108.302 207.9 107.783 207.9 107.195C207.9 106.613 208.025 106.101 208.274 105.658C208.53 105.208 208.876 104.866 209.312 104.63C209.749 104.388 210.237 104.267 210.776 104.267C211.316 104.267 211.804 104.388 212.241 104.63C212.677 104.866 213.019 105.205 213.268 105.648C213.525 106.091 213.653 106.607 213.653 107.195C213.653 107.783 213.521 108.302 213.258 108.752C213.002 109.195 212.652 109.538 212.209 109.78C211.766 110.023 211.275 110.144 210.735 110.144ZM210.735 109.313C211.074 109.313 211.393 109.233 211.69 109.074C211.988 108.915 212.227 108.676 212.407 108.358C212.594 108.039 212.687 107.652 212.687 107.195C212.687 106.738 212.597 106.35 212.417 106.032C212.237 105.714 212.002 105.478 211.711 105.326C211.42 105.167 211.105 105.087 210.766 105.087C210.42 105.087 210.102 105.167 209.811 105.326C209.527 105.478 209.299 105.714 209.126 106.032C208.952 106.35 208.866 106.738 208.866 107.195C208.866 107.659 208.949 108.05 209.115 108.368C209.288 108.687 209.517 108.925 209.8 109.085C210.084 109.237 210.396 109.313 210.735 109.313ZM215.84 105.284C216.006 104.959 216.241 104.706 216.546 104.526C216.857 104.346 217.235 104.256 217.678 104.256V105.232H217.428C216.369 105.232 215.84 105.807 215.84 106.956V110.05H214.895V104.36H215.84V105.284ZM223.96 106.987C223.96 107.167 223.95 107.358 223.929 107.558H219.381C219.416 108.119 219.606 108.559 219.952 108.877C220.305 109.188 220.731 109.344 221.229 109.344C221.638 109.344 221.977 109.251 222.247 109.064C222.524 108.87 222.717 108.614 222.828 108.296H223.846C223.694 108.842 223.389 109.289 222.932 109.635C222.475 109.974 221.908 110.144 221.229 110.144C220.689 110.144 220.205 110.023 219.776 109.78C219.353 109.538 219.021 109.195 218.779 108.752C218.537 108.302 218.415 107.783 218.415 107.195C218.415 106.607 218.533 106.091 218.768 105.648C219.004 105.205 219.333 104.866 219.755 104.63C220.184 104.388 220.675 104.267 221.229 104.267C221.769 104.267 222.247 104.385 222.662 104.62C223.077 104.855 223.396 105.181 223.617 105.596C223.846 106.004 223.96 106.468 223.96 106.987ZM222.984 106.79C222.984 106.43 222.904 106.122 222.745 105.866C222.586 105.603 222.368 105.406 222.091 105.274C221.821 105.136 221.52 105.066 221.188 105.066C220.71 105.066 220.302 105.219 219.962 105.523C219.63 105.828 219.44 106.25 219.391 106.79H222.984Z" fill="white"/>
<path d="M281.821 107.534L284.788 104.567L287.755 107.534" stroke="#1DC981" stroke-width="1.48332"/>
<path d="M292.929 105.997C292.229 105.633 291.879 105.07 291.879 104.307C291.879 103.929 291.973 103.586 292.162 103.278C292.358 102.963 292.649 102.715 293.034 102.533C293.426 102.344 293.902 102.249 294.462 102.249C295.022 102.249 295.494 102.344 295.879 102.533C296.271 102.715 296.562 102.963 296.751 103.278C296.947 103.586 297.045 103.929 297.045 104.307C297.045 104.692 296.95 105.031 296.761 105.325C296.572 105.612 296.32 105.836 296.005 105.997C296.39 106.165 296.691 106.41 296.908 106.732C297.125 107.054 297.234 107.436 297.234 107.877C297.234 108.353 297.111 108.769 296.866 109.126C296.628 109.476 296.299 109.746 295.879 109.935C295.459 110.124 294.987 110.218 294.462 110.218C293.937 110.218 293.464 110.124 293.044 109.935C292.631 109.746 292.302 109.476 292.057 109.126C291.819 108.769 291.7 108.353 291.7 107.877C291.7 107.436 291.809 107.054 292.026 106.732C292.243 106.403 292.544 106.158 292.929 105.997ZM295.617 104.517C295.617 104.174 295.512 103.908 295.302 103.719C295.099 103.53 294.819 103.436 294.462 103.436C294.112 103.436 293.832 103.53 293.622 103.719C293.419 103.908 293.317 104.178 293.317 104.528C293.317 104.842 293.422 105.094 293.632 105.283C293.849 105.472 294.126 105.567 294.462 105.567C294.798 105.567 295.074 105.472 295.291 105.283C295.508 105.087 295.617 104.832 295.617 104.517ZM294.462 106.638C294.063 106.638 293.737 106.739 293.485 106.942C293.24 107.145 293.118 107.436 293.118 107.814C293.118 108.164 293.237 108.451 293.475 108.675C293.72 108.892 294.049 109 294.462 109C294.875 109 295.2 108.888 295.438 108.664C295.676 108.44 295.795 108.157 295.795 107.814C295.795 107.443 295.673 107.156 295.428 106.953C295.183 106.743 294.861 106.638 294.462 106.638ZM299.214 110.124C298.948 110.124 298.727 110.043 298.552 109.882C298.384 109.714 298.3 109.508 298.3 109.263C298.3 109.018 298.384 108.815 298.552 108.654C298.727 108.486 298.948 108.402 299.214 108.402C299.473 108.402 299.686 108.486 299.854 108.654C300.022 108.815 300.106 109.018 300.106 109.263C300.106 109.508 300.022 109.714 299.854 109.882C299.686 110.043 299.473 110.124 299.214 110.124ZM301.584 108.391C302.256 107.831 302.792 107.366 303.191 106.995C303.59 106.617 303.922 106.225 304.188 105.819C304.454 105.413 304.587 105.014 304.587 104.622C304.587 104.265 304.503 103.985 304.335 103.782C304.167 103.579 303.908 103.478 303.558 103.478C303.208 103.478 302.939 103.597 302.75 103.835C302.561 104.066 302.463 104.384 302.456 104.79H301.028C301.056 103.95 301.304 103.313 301.773 102.879C302.249 102.445 302.851 102.228 303.579 102.228C304.377 102.228 304.99 102.442 305.417 102.869C305.844 103.289 306.057 103.845 306.057 104.538C306.057 105.084 305.91 105.605 305.616 106.102C305.322 106.599 304.986 107.033 304.608 107.404C304.23 107.768 303.737 108.209 303.128 108.727H306.225V109.945H301.038V108.853L301.584 108.391ZM312.296 103.667H308.894V105.462C309.041 105.28 309.251 105.133 309.524 105.021C309.797 104.902 310.088 104.842 310.396 104.842C310.956 104.842 311.414 104.965 311.771 105.21C312.128 105.455 312.387 105.77 312.548 106.155C312.709 106.533 312.79 106.939 312.79 107.373C312.79 108.178 312.559 108.825 312.097 109.315C311.642 109.805 310.991 110.05 310.144 110.05C309.346 110.05 308.709 109.851 308.233 109.452C307.757 109.053 307.487 108.531 307.424 107.887H308.852C308.915 108.167 309.055 108.391 309.272 108.559C309.496 108.727 309.78 108.811 310.123 108.811C310.536 108.811 310.847 108.682 311.057 108.423C311.267 108.164 311.372 107.821 311.372 107.394C311.372 106.96 311.264 106.631 311.047 106.407C310.837 106.176 310.525 106.06 310.112 106.06C309.818 106.06 309.573 106.134 309.377 106.281C309.181 106.428 309.041 106.624 308.957 106.869H307.55V102.375H312.296V103.667Z" fill="#1DC981"/>
<path d="M172.868 123.78V124.548H170.895V131.017H169.95V124.548H167.967V123.78H172.868ZM180.012 123.78L177.281 131.017H176.191L173.46 123.78H174.467L176.741 130.02L179.015 123.78H180.012ZM181.993 130.249H184.526V131.017H181.048V123.78H181.993V130.249Z" fill="white"/>
<path d="M287.603 128.932C287.603 129.292 287.51 129.631 287.323 129.949C287.143 130.26 286.874 130.519 286.514 130.727C286.161 130.927 285.743 131.045 285.259 131.079V131.92H284.595V131.069C283.904 131.007 283.347 130.799 282.925 130.447C282.503 130.087 282.285 129.603 282.271 128.994H283.827C283.869 129.492 284.125 129.793 284.595 129.897V127.915C284.097 127.791 283.696 127.667 283.392 127.542C283.088 127.418 282.825 127.217 282.603 126.94C282.382 126.664 282.271 126.287 282.271 125.81C282.271 125.208 282.486 124.717 282.915 124.337C283.35 123.956 283.91 123.738 284.595 123.683V122.843H285.259V123.683C285.923 123.738 286.452 123.939 286.846 124.285C287.247 124.631 287.472 125.108 287.52 125.716H285.954C285.933 125.516 285.861 125.343 285.736 125.198C285.619 125.046 285.46 124.938 285.259 124.876V126.837C285.778 126.968 286.186 127.096 286.483 127.22C286.787 127.338 287.05 127.535 287.271 127.812C287.493 128.081 287.603 128.455 287.603 128.932ZM283.786 125.737C283.786 125.965 283.855 126.152 283.993 126.297C284.132 126.436 284.332 126.55 284.595 126.64V124.845C284.346 124.88 284.149 124.973 284.004 125.125C283.859 125.277 283.786 125.481 283.786 125.737ZM285.259 129.918C285.522 129.869 285.726 129.762 285.871 129.596C286.023 129.43 286.099 129.229 286.099 128.994C286.099 128.766 286.027 128.583 285.881 128.445C285.736 128.306 285.529 128.192 285.259 128.102V129.918ZM289.515 129.378C290.179 128.825 290.708 128.365 291.102 127.998C291.496 127.625 291.825 127.238 292.088 126.837C292.351 126.436 292.482 126.041 292.482 125.654C292.482 125.301 292.399 125.025 292.233 124.824C292.067 124.624 291.811 124.523 291.465 124.523C291.12 124.523 290.853 124.641 290.667 124.876C290.48 125.104 290.383 125.419 290.376 125.82H288.965C288.993 124.99 289.239 124.361 289.702 123.932C290.172 123.503 290.767 123.289 291.486 123.289C292.274 123.289 292.88 123.5 293.301 123.922C293.723 124.337 293.934 124.886 293.934 125.571C293.934 126.111 293.789 126.626 293.498 127.117C293.208 127.608 292.876 128.036 292.503 128.403C292.129 128.763 291.642 129.198 291.04 129.71H294.1V130.913H288.976V129.835L289.515 129.378ZM295.824 131.09C295.562 131.09 295.344 131.01 295.171 130.851C295.005 130.685 294.922 130.481 294.922 130.239C294.922 129.997 295.005 129.796 295.171 129.637C295.344 129.471 295.562 129.388 295.824 129.388C296.08 129.388 296.291 129.471 296.457 129.637C296.623 129.796 296.706 129.997 296.706 130.239C296.706 130.481 296.623 130.685 296.457 130.851C296.291 131.01 296.08 131.09 295.824 131.09ZM298.166 129.378C298.83 128.825 299.359 128.365 299.753 127.998C300.148 127.625 300.476 127.238 300.739 126.837C301.002 126.436 301.133 126.041 301.133 125.654C301.133 125.301 301.05 125.025 300.884 124.824C300.718 124.624 300.462 124.523 300.117 124.523C299.771 124.523 299.504 124.641 299.318 124.876C299.131 125.104 299.034 125.419 299.027 125.82H297.617C297.644 124.99 297.89 124.361 298.353 123.932C298.823 123.503 299.418 123.289 300.137 123.289C300.926 123.289 301.531 123.5 301.953 123.922C302.374 124.337 302.585 124.886 302.585 125.571C302.585 126.111 302.44 126.626 302.15 127.117C301.859 127.608 301.527 128.036 301.154 128.403C300.78 128.763 300.293 129.198 299.691 129.71H302.751V130.913H297.627V129.835L298.166 129.378ZM303.49 124.793V123.455H305.99V131.017H304.496V124.793H303.49ZM311.699 127.303C312.107 127.38 312.442 127.584 312.705 127.915C312.968 128.247 313.099 128.628 313.099 129.057C313.099 129.444 313.002 129.786 312.809 130.083C312.622 130.374 312.349 130.602 311.989 130.768C311.629 130.934 311.204 131.017 310.713 131.017H307.591V123.777H310.578C311.069 123.777 311.491 123.856 311.844 124.015C312.203 124.174 312.473 124.395 312.653 124.679C312.84 124.963 312.933 125.284 312.933 125.644C312.933 126.066 312.819 126.418 312.591 126.702C312.369 126.985 312.072 127.186 311.699 127.303ZM309.043 126.764H310.371C310.717 126.764 310.983 126.688 311.17 126.536C311.356 126.377 311.45 126.152 311.45 125.862C311.45 125.571 311.356 125.346 311.17 125.187C310.983 125.028 310.717 124.949 310.371 124.949H309.043V126.764ZM310.506 129.835C310.858 129.835 311.132 129.752 311.325 129.586C311.526 129.42 311.626 129.184 311.626 128.88C311.626 128.569 311.522 128.327 311.315 128.154C311.107 127.974 310.827 127.884 310.475 127.884H309.043V129.835H310.506Z" fill="white"/>
<path d="M172.692 150.374H169.535L168.954 151.984H167.957L170.573 144.788H171.664L174.27 151.984H173.273L172.692 150.374ZM172.422 149.606L171.113 145.951L169.805 149.606H172.422ZM177.425 152.077C176.989 152.077 176.597 152.004 176.251 151.859C175.905 151.707 175.632 151.499 175.431 151.236C175.23 150.966 175.12 150.658 175.099 150.312H176.075C176.102 150.596 176.234 150.828 176.469 151.008C176.712 151.188 177.027 151.278 177.414 151.278C177.774 151.278 178.058 151.198 178.266 151.039C178.473 150.88 178.577 150.679 178.577 150.437C178.577 150.187 178.466 150.004 178.245 149.886C178.023 149.762 177.681 149.64 177.217 149.523C176.795 149.412 176.449 149.301 176.179 149.191C175.916 149.073 175.687 148.903 175.493 148.682C175.306 148.453 175.213 148.156 175.213 147.789C175.213 147.498 175.3 147.232 175.473 146.989C175.646 146.747 175.891 146.557 176.21 146.418C176.528 146.273 176.892 146.2 177.3 146.2C177.93 146.2 178.439 146.359 178.826 146.678C179.214 146.996 179.422 147.432 179.449 147.986H178.504C178.484 147.688 178.363 147.45 178.141 147.27C177.926 147.09 177.636 147 177.269 147C176.93 147 176.66 147.072 176.459 147.218C176.258 147.363 176.158 147.553 176.158 147.789C176.158 147.976 176.217 148.131 176.334 148.256C176.459 148.374 176.611 148.471 176.791 148.547C176.978 148.616 177.234 148.696 177.56 148.786C177.968 148.896 178.3 149.007 178.556 149.118C178.813 149.222 179.031 149.381 179.211 149.595C179.397 149.81 179.494 150.09 179.501 150.437C179.501 150.748 179.415 151.028 179.242 151.278C179.069 151.527 178.823 151.724 178.504 151.869C178.193 152.008 177.833 152.077 177.425 152.077ZM182.849 152.077C182.413 152.077 182.022 152.004 181.676 151.859C181.33 151.707 181.057 151.499 180.856 151.236C180.655 150.966 180.544 150.658 180.524 150.312H181.5C181.527 150.596 181.659 150.828 181.894 151.008C182.136 151.188 182.451 151.278 182.839 151.278C183.199 151.278 183.483 151.198 183.691 151.039C183.898 150.88 184.002 150.679 184.002 150.437C184.002 150.187 183.891 150.004 183.67 149.886C183.448 149.762 183.106 149.64 182.642 149.523C182.22 149.412 181.873 149.301 181.603 149.191C181.34 149.073 181.112 148.903 180.918 148.682C180.731 148.453 180.638 148.156 180.638 147.789C180.638 147.498 180.724 147.232 180.897 146.989C181.07 146.747 181.316 146.557 181.635 146.418C181.953 146.273 182.316 146.2 182.725 146.2C183.355 146.2 183.864 146.359 184.251 146.678C184.639 146.996 184.847 147.432 184.874 147.986H183.929C183.909 147.688 183.787 147.45 183.566 147.27C183.351 147.09 183.061 147 182.694 147C182.355 147 182.085 147.072 181.884 147.218C181.683 147.363 181.583 147.553 181.583 147.789C181.583 147.976 181.642 148.131 181.759 148.256C181.884 148.374 182.036 148.471 182.216 148.547C182.403 148.616 182.659 148.696 182.984 148.786C183.393 148.896 183.725 149.007 183.981 149.118C184.237 149.222 184.455 149.381 184.635 149.595C184.822 149.81 184.919 150.09 184.926 150.437C184.926 150.748 184.84 151.028 184.667 151.278C184.493 151.527 184.248 151.724 183.929 151.869C183.618 152.008 183.258 152.077 182.849 152.077ZM191.452 148.921C191.452 149.101 191.441 149.291 191.42 149.492H186.873C186.907 150.052 187.098 150.492 187.444 150.81C187.797 151.122 188.222 151.278 188.721 151.278C189.129 151.278 189.468 151.184 189.738 150.997C190.015 150.803 190.209 150.547 190.32 150.229H191.337C191.185 150.776 190.88 151.222 190.424 151.568C189.967 151.907 189.399 152.077 188.721 152.077C188.181 152.077 187.696 151.956 187.267 151.714C186.845 151.471 186.513 151.129 186.27 150.686C186.028 150.236 185.907 149.717 185.907 149.128C185.907 148.54 186.025 148.024 186.26 147.581C186.495 147.138 186.824 146.799 187.246 146.564C187.676 146.321 188.167 146.2 188.721 146.2C189.261 146.2 189.738 146.318 190.154 146.553C190.569 146.789 190.887 147.114 191.109 147.529C191.337 147.938 191.452 148.401 191.452 148.921ZM190.476 148.723C190.476 148.363 190.396 148.055 190.237 147.799C190.078 147.536 189.859 147.339 189.583 147.207C189.313 147.069 189.012 147 188.679 147C188.202 147 187.793 147.152 187.454 147.457C187.122 147.761 186.931 148.183 186.883 148.723H190.476ZM193.851 147.072V150.426C193.851 150.703 193.91 150.9 194.028 151.018C194.146 151.129 194.35 151.184 194.64 151.184H195.336V151.984H194.485C193.959 151.984 193.564 151.863 193.301 151.62C193.038 151.378 192.906 150.98 192.906 150.426V147.072H192.169V146.294H192.906V144.861H193.851V146.294H195.336V147.072H193.851ZM198.495 152.077C198.059 152.077 197.668 152.004 197.322 151.859C196.976 151.707 196.702 151.499 196.502 151.236C196.301 150.966 196.19 150.658 196.169 150.312H197.145C197.173 150.596 197.305 150.828 197.54 151.008C197.782 151.188 198.097 151.278 198.485 151.278C198.845 151.278 199.129 151.198 199.336 151.039C199.544 150.88 199.648 150.679 199.648 150.437C199.648 150.187 199.537 150.004 199.316 149.886C199.094 149.762 198.751 149.64 198.288 149.523C197.865 149.412 197.519 149.301 197.249 149.191C196.986 149.073 196.758 148.903 196.564 148.682C196.377 148.453 196.284 148.156 196.284 147.789C196.284 147.498 196.37 147.232 196.543 146.989C196.716 146.747 196.962 146.557 197.28 146.418C197.599 146.273 197.962 146.2 198.371 146.2C199.001 146.2 199.509 146.359 199.897 146.678C200.285 146.996 200.492 147.432 200.52 147.986H199.575C199.554 147.688 199.433 147.45 199.212 147.27C198.997 147.09 198.706 147 198.34 147C198 147 197.73 147.072 197.53 147.218C197.329 147.363 197.229 147.553 197.229 147.789C197.229 147.976 197.287 148.131 197.405 148.256C197.53 148.374 197.682 148.471 197.862 148.547C198.049 148.616 198.305 148.696 198.63 148.786C199.039 148.896 199.371 149.007 199.627 149.118C199.883 149.222 200.101 149.381 200.281 149.595C200.468 149.81 200.565 150.09 200.572 150.437C200.572 150.748 200.485 151.028 200.312 151.278C200.139 151.527 199.894 151.724 199.575 151.869C199.264 152.008 198.904 152.077 198.495 152.077Z" fill="white"/>
<path d="M311.193 146.309C311.123 146.019 311.002 145.801 310.83 145.656C310.664 145.511 310.422 145.438 310.103 145.438C309.626 145.438 309.274 145.632 309.045 146.019C308.824 146.399 308.71 147.022 308.703 147.886C308.869 147.61 309.111 147.395 309.429 147.243C309.747 147.084 310.093 147.004 310.466 147.004C310.916 147.004 311.314 147.101 311.659 147.295C312.005 147.489 312.275 147.772 312.469 148.146C312.662 148.512 312.759 148.955 312.759 149.473C312.759 149.964 312.659 150.403 312.458 150.791C312.264 151.171 311.978 151.468 311.597 151.683C311.217 151.897 310.764 152.004 310.238 152.004C309.519 152.004 308.952 151.845 308.537 151.527C308.129 151.209 307.842 150.767 307.676 150.199C307.517 149.625 307.437 148.92 307.437 148.083C307.437 146.818 307.655 145.863 308.091 145.22C308.527 144.57 309.215 144.245 310.155 144.245C310.881 144.245 311.445 144.442 311.846 144.836C312.247 145.231 312.479 145.722 312.541 146.309H311.193ZM310.135 148.197C309.768 148.197 309.46 148.305 309.211 148.519C308.962 148.733 308.838 149.045 308.838 149.453C308.838 149.861 308.952 150.182 309.18 150.417C309.415 150.652 309.744 150.77 310.166 150.77C310.539 150.77 310.833 150.656 311.047 150.428C311.269 150.199 311.379 149.892 311.379 149.504C311.379 149.103 311.272 148.785 311.058 148.55C310.85 148.315 310.543 148.197 310.135 148.197Z" fill="white"/>
</g>
<path d="M156.86 13.3258C156.86 6.97685 162.007 1.83006 168.356 1.83006H312.979C319.328 1.83006 324.475 6.97687 324.475 13.3258V150.162H156.86V13.3258Z" stroke="white" stroke-opacity="0.1" stroke-width="0.74166" shape-rendering="crispEdges"/>
</g>
</g>
<defs>
<filter id="filter0_f_4092_15718" x="230.353" y="-195.41" width="1122.66" height="836.233" filterUnits="userSpaceOnUse" color-interpolation-filters="sRGB">
<feFlood flood-opacity="0" result="BackgroundImageFix"/>
<feBlend mode="normal" in="SourceGraphic" in2="BackgroundImageFix" result="shape"/>
<feGaussianBlur stdDeviation="148.332" result="effect1_foregroundBlur_4092_15718"/>
</filter>
<filter id="filter1_d_4092_15718" x="118.665" y="-34.1404" width="227.689" height="208.406" filterUnits="userSpaceOnUse" color-interpolation-filters="sRGB">
<feFlood flood-opacity="0" result="BackgroundImageFix"/>
<feColorMatrix in="SourceAlpha" type="matrix" values="0 0 0 0 0 0 0 0 0 0 0 0 0 0 0 0 0 0 127 0" result="hardAlpha"/>
<feOffset dx="-8.15825" dy="-5.93328"/>
<feGaussianBlur stdDeviation="14.8332"/>
<feComposite in2="hardAlpha" operator="out"/>
<feColorMatrix type="matrix" values="0 0 0 0 0 0 0 0 0 0 0 0 0 0 0 0 0 0 0.3 0"/>
<feBlend mode="normal" in2="BackgroundImageFix" result="effect1_dropShadow_4092_15718"/>
<feBlend mode="normal" in="SourceGraphic" in2="effect1_dropShadow_4092_15718" result="shape"/>
</filter>
<filter id="filter2_d_4092_15718" x="161.859" y="51.8909" width="41.6937" height="19.6761" filterUnits="userSpaceOnUse" color-interpolation-filters="sRGB">
<feFlood flood-opacity="0" result="BackgroundImageFix"/>
<feColorMatrix in="SourceAlpha" type="matrix" values="0 0 0 0 0 0 0 0 0 0 0 0 0 0 0 0 0 0 127 0" result="hardAlpha"/>
<feOffset/>
<feGaussianBlur stdDeviation="2.96664"/>
<feComposite in2="hardAlpha" operator="out"/>
<feColorMatrix type="matrix" values="0 0 0 0 1 0 0 0 0 1 0 0 0 0 1 0 0 0 0.25 0"/>
<feBlend mode="normal" in2="BackgroundImageFix" result="effect1_dropShadow_4092_15718"/>
<feBlend mode="normal" in="SourceGraphic" in2="effect1_dropShadow_4092_15718" result="shape"/>
</filter>
<radialGradient id="paint0_angular_4092_15718" cx="0" cy="0" r="1" gradientUnits="userSpaceOnUse" gradientTransform="translate(184.5 76) rotate(90) scale(73 177.5)">
<stop offset="0.264473" stop-color="#1DC981"/>
<stop offset="0.503503" stop-color="#1DC981" stop-opacity="0"/>
<stop offset="0.608804" stop-color="#1DC981" stop-opacity="0.629183"/>
<stop offset="0.913576" stop-color="#1DC981" stop-opacity="0.725116"/>
</radialGradient>
<linearGradient id="paint1_linear_4092_15718" x1="240.668" y1="1.45923" x2="240.668" y2="150.533" gradientUnits="userSpaceOnUse">
<stop stop-color="#313F54"/>
<stop offset="1" stop-color="#1DC981"/>
</linearGradient>
<linearGradient id="paint2_linear_4092_15718" x1="313.583" y1="12.5842" x2="174.262" y2="68.2369" gradientUnits="userSpaceOnUse">
<stop stop-color="#B3529F"/>
<stop offset="1" stop-color="#31B8C4"/>
</linearGradient>
<clipPath id="clip0_4092_15718">
<rect y="0.717773" width="364" height="149.62" rx="11.8666" fill="white"/>
</clipPath>
<clipPath id="clip1_4092_15718">
<path d="M156.489 13.3258C156.489 6.77205 161.802 1.45923 168.356 1.45923H312.979C319.533 1.45923 324.846 6.77206 324.846 13.3258V150.533H156.489V13.3258Z" fill="white"/>
</clipPath>
</defs>
</svg>
