<svg width="1096" height="203" viewBox="0 0 1096 203" fill="none" xmlns="http://www.w3.org/2000/svg">
<g clip-path="url(#clip0_13043_14665)">
<g filter="url(#filter0_f_13043_14665)">
<ellipse cx="1067.45" cy="299.313" rx="375" ry="116.272" transform="rotate(-18.8713 1067.45 299.313)" fill="#1DC981"/>
</g>
<path d="M552 2H1078C1086.84 2 1094 9.16344 1094 18V102V186C1094 194.837 1086.84 202 1078 202H26C17.1634 202 10 194.837 10 186V102" stroke="url(#paint0_angular_13043_14665)" stroke-width="3" stroke-linecap="round"/>
<path d="M57.2035 107.727C57.8237 110.993 59.7258 112.627 62.9097 112.627C65.1012 112.627 66.6518 111.655 67.5615 109.712C68.4712 107.768 68.9261 104.605 68.9261 100.222C68.0164 101.504 66.7759 102.496 65.2046 103.199C63.6333 103.902 61.876 104.254 59.9326 104.254C57.2862 104.254 54.9293 103.716 52.8618 102.641C50.7944 101.524 49.1611 99.8911 47.9619 97.741C46.8041 95.5495 46.2253 92.9031 46.2253 89.8019C46.2253 86.7421 46.8455 84.075 48.086 81.8008C49.3678 79.5266 51.1665 77.7692 53.4821 76.5288C55.839 75.2883 58.6094 74.668 61.7933 74.668C67.913 74.668 72.1927 76.5701 74.6323 80.3742C77.0719 84.1784 78.2917 89.7812 78.2917 97.1828C78.2917 102.558 77.7955 107.003 76.8031 110.518C75.8521 113.991 74.2188 116.638 71.9032 118.457C69.629 120.276 66.5071 121.186 62.5376 121.186C59.395 121.186 56.7073 120.566 54.4744 119.325C52.2829 118.085 50.5876 116.452 49.3885 114.425C48.2307 112.399 47.5691 110.166 47.4037 107.727H57.2035ZM62.3515 95.8803C64.0882 95.8803 65.4734 95.3634 66.5071 94.3297C67.5408 93.2546 68.0577 91.8073 68.0577 89.988C68.0577 88.0032 67.5202 86.4733 66.4451 85.3982C65.37 84.3231 63.9228 83.7856 62.1034 83.7856C60.284 83.7856 58.8368 84.3438 57.7617 85.4602C56.728 86.5353 56.2111 88.0239 56.2111 89.926C56.2111 91.704 56.728 93.1512 57.7617 94.2676C58.8368 95.3427 60.3667 95.8803 62.3515 95.8803ZM88.4161 121.496C86.5554 121.496 85.0255 120.959 83.8264 119.884C82.6686 118.767 82.0897 117.403 82.0897 115.79C82.0897 114.136 82.6686 112.751 83.8264 111.634C85.0255 110.518 86.5554 109.96 88.4161 109.96C90.2355 109.96 91.7241 110.518 92.8819 111.634C94.081 112.751 94.6806 114.136 94.6806 115.79C94.6806 117.403 94.081 118.767 92.8819 119.884C91.7241 120.959 90.2355 121.496 88.4161 121.496ZM97.9819 112.503C99.3878 111.386 100.029 110.869 99.9046 110.952C103.957 107.603 107.141 104.853 109.456 102.703C111.813 100.553 113.798 98.2992 115.411 95.9423C117.023 93.5854 117.83 91.2905 117.83 89.0576C117.83 87.3623 117.437 86.0391 116.651 85.0881C115.865 84.137 114.687 83.6615 113.116 83.6615C111.544 83.6615 110.304 84.2611 109.394 85.4602C108.526 86.618 108.092 88.272 108.092 90.4221H97.8578C97.9405 86.9074 98.6848 83.9716 100.091 81.6147C101.538 79.2578 103.419 77.5211 105.735 76.4047C108.092 75.2883 110.697 74.7301 113.55 74.7301C118.471 74.7301 122.171 75.9912 124.652 78.5135C127.175 81.0358 128.436 84.3231 128.436 88.3754C128.436 92.7997 126.926 96.914 123.908 100.718C120.889 104.481 117.044 108.161 112.371 111.758H129.118V120.38H97.9819V112.503ZM164.117 84.964H144.766V93.5233C145.593 92.6137 146.751 91.8694 148.239 91.2905C149.728 90.7116 151.341 90.4221 153.077 90.4221C156.178 90.4221 158.742 91.1251 160.768 92.531C162.836 93.9368 164.345 95.7562 165.296 97.9891C166.247 100.222 166.722 102.641 166.722 105.246C166.722 110.084 165.358 113.929 162.629 116.782C159.9 119.594 156.054 121 151.092 121C147.784 121 144.911 120.442 142.471 119.325C140.031 118.168 138.15 116.576 136.827 114.549C135.504 112.523 134.78 110.187 134.656 107.541H145.014C145.262 108.823 145.862 109.898 146.813 110.766C147.764 111.593 149.066 112.007 150.72 112.007C152.664 112.007 154.111 111.386 155.062 110.146C156.013 108.905 156.488 107.251 156.488 105.184C156.488 103.158 155.992 101.607 155 100.532C154.008 99.457 152.56 98.9194 150.658 98.9194C149.252 98.9194 148.095 99.2709 147.185 99.9738C146.275 100.635 145.676 101.524 145.386 102.641H135.152V75.6604H164.117V84.964Z" fill="#1DC981"/>
<rect x="480.876" y="36.8757" width="43.2002" height="43.2002" rx="13.359" fill="#4E4E69" fill-opacity="0.43"/>
<g clip-path="url(#clip1_13043_14665)">
<mask id="mask0_13043_14665" style="mask-type:luminance" maskUnits="userSpaceOnUse" x="485" y="41" width="35" height="35">
<path d="M519.193 41.7598H485.763V75.19H519.193V41.7598Z" fill="white"/>
</mask>
<g mask="url(#mask0_13043_14665)">
<path d="M502.477 74.6861C511.431 74.6861 518.691 67.427 518.691 58.4725C518.691 49.5179 511.431 42.2588 502.477 42.2588C493.522 42.2588 486.263 49.5179 486.263 58.4725C486.263 67.427 493.522 74.6861 502.477 74.6861Z" fill="url(#paint1_linear_13043_14665)"/>
<path d="M509.572 64.9329L504.089 51.6778C503.78 50.9925 503.32 50.6582 502.714 50.6582H502.23C501.624 50.6582 501.164 50.9925 500.855 51.6778L498.469 57.4529H496.663C496.124 57.4571 495.686 57.8917 495.681 58.4349V58.4475C495.686 58.9865 496.124 59.4253 496.663 59.4295H497.633L495.355 64.9329C495.314 65.0541 495.289 65.1795 495.289 65.309C495.289 65.6182 495.385 65.8606 495.556 66.0487C495.727 66.2367 495.974 66.3286 496.283 66.3286C496.488 66.3245 496.684 66.2618 496.847 66.1406C497.023 66.0194 497.144 65.8439 497.24 65.6433L499.747 59.4253H501.486C502.025 59.4211 502.464 58.9865 502.468 58.4433V58.4182C502.464 57.8791 502.025 57.4404 501.486 57.4362H500.558L502.472 52.6682L507.687 65.6391C507.783 65.8397 507.904 66.0152 508.08 66.1364C508.243 66.2576 508.443 66.3203 508.644 66.3245C508.953 66.3245 509.196 66.2325 509.371 66.0445C509.547 65.8564 509.639 65.6141 509.639 65.3048C509.643 65.1795 509.622 65.0499 509.572 64.9329Z" fill="white"/>
</g>
</g>
<path d="M543.067 46.3221C543.067 46.9332 542.927 47.4943 542.647 48.0053C542.366 48.5063 541.935 48.9121 541.354 49.2227C540.773 49.5332 540.052 49.6885 539.19 49.6885H537.597V53.4758H535.027V42.9255H539.19C540.032 42.9255 540.743 43.0708 541.324 43.3614C541.905 43.6519 542.341 44.0527 542.632 44.5637C542.922 45.0747 543.067 45.6608 543.067 46.3221ZM538.995 47.6446C539.486 47.6446 539.851 47.5294 540.092 47.299C540.332 47.0685 540.452 46.7429 540.452 46.3221C540.452 45.9013 540.332 45.5756 540.092 45.3452C539.851 45.1148 539.486 44.9995 538.995 44.9995H537.597V47.6446H538.995ZM546.725 46.4874C547.025 46.0265 547.401 45.6658 547.852 45.4053C548.303 45.1348 548.804 44.9995 549.355 44.9995V47.7198H548.649C548.007 47.7198 547.526 47.86 547.206 48.1406C546.885 48.4111 546.725 48.892 546.725 49.5833V53.4758H544.155V45.0897H546.725V46.4874ZM554.15 53.5961C553.329 53.5961 552.587 53.4207 551.926 53.07C551.275 52.7194 550.759 52.2184 550.378 51.5672C550.007 50.9159 549.822 50.1544 549.822 49.2828C549.822 48.4211 550.012 47.6647 550.393 47.0134C550.774 46.3521 551.295 45.8462 551.956 45.4955C552.617 45.1448 553.359 44.9695 554.18 44.9695C555.002 44.9695 555.743 45.1448 556.404 45.4955C557.066 45.8462 557.587 46.3521 557.967 47.0134C558.348 47.6647 558.539 48.4211 558.539 49.2828C558.539 50.1444 558.343 50.9059 557.952 51.5672C557.572 52.2184 557.046 52.7194 556.374 53.07C555.713 53.4207 554.972 53.5961 554.15 53.5961ZM554.15 51.3718C554.641 51.3718 555.057 51.1914 555.398 50.8307C555.748 50.47 555.924 49.9541 555.924 49.2828C555.924 48.6115 555.753 48.0955 555.413 47.7348C555.082 47.3741 554.671 47.1937 554.18 47.1937C553.679 47.1937 553.263 47.3741 552.933 47.7348C552.602 48.0855 552.437 48.6015 552.437 49.2828C552.437 49.9541 552.597 50.47 552.918 50.8307C553.248 51.1914 553.659 51.3718 554.15 51.3718ZM563.424 51.0712L565.242 45.0897H567.978L565.002 53.4758H561.831L558.855 45.0897H561.605L563.424 51.0712ZM570.101 44.218C569.65 44.218 569.28 44.0878 568.989 43.8273C568.709 43.5568 568.568 43.2261 568.568 42.8354C568.568 42.4346 568.709 42.104 568.989 41.8435C569.28 41.5729 569.65 41.4377 570.101 41.4377C570.542 41.4377 570.903 41.5729 571.183 41.8435C571.474 42.104 571.619 42.4346 571.619 42.8354C571.619 43.2261 571.474 43.5568 571.183 43.8273C570.903 44.0878 570.542 44.218 570.101 44.218ZM571.379 45.0897V53.4758H568.809V45.0897H571.379ZM572.48 49.2677C572.48 48.4061 572.64 47.6496 572.961 46.9984C573.291 46.3471 573.737 45.8462 574.298 45.4955C574.859 45.1448 575.485 44.9695 576.177 44.9695C576.728 44.9695 577.229 45.0847 577.68 45.3151C578.141 45.5456 578.501 45.8562 578.762 46.2469V42.3544H581.332V53.4758H578.762V52.2735C578.521 52.6743 578.176 52.9949 577.725 53.2354C577.284 53.4758 576.768 53.5961 576.177 53.5961C575.485 53.5961 574.859 53.4207 574.298 53.07C573.737 52.7094 573.291 52.2034 572.961 51.5521C572.64 50.8909 572.48 50.1294 572.48 49.2677ZM578.762 49.2828C578.762 48.6415 578.581 48.1356 578.221 47.7648C577.87 47.3941 577.439 47.2088 576.928 47.2088C576.417 47.2088 575.981 47.3941 575.621 47.7648C575.27 48.1255 575.095 48.6265 575.095 49.2677C575.095 49.909 575.27 50.42 575.621 50.8007C575.981 51.1714 576.417 51.3568 576.928 51.3568C577.439 51.3568 577.87 51.1714 578.221 50.8007C578.581 50.43 578.762 49.924 578.762 49.2828ZM590.846 49.1475C590.846 49.388 590.831 49.6385 590.801 49.899H584.984C585.024 50.42 585.19 50.8207 585.48 51.1013C585.781 51.3718 586.147 51.507 586.577 51.507C587.219 51.507 587.665 51.2365 587.915 50.6955H590.65C590.51 51.2465 590.255 51.7425 589.884 52.1833C589.523 52.6242 589.067 52.9699 588.516 53.2203C587.965 53.4708 587.349 53.5961 586.668 53.5961C585.846 53.5961 585.115 53.4207 584.473 53.07C583.832 52.7194 583.331 52.2184 582.97 51.5672C582.61 50.9159 582.429 50.1544 582.429 49.2828C582.429 48.4111 582.605 47.6496 582.955 46.9984C583.316 46.3471 583.817 45.8462 584.458 45.4955C585.1 45.1448 585.836 44.9695 586.668 44.9695C587.479 44.9695 588.201 45.1398 588.832 45.4805C589.463 45.8211 589.954 46.307 590.305 46.9383C590.665 47.5695 590.846 48.3059 590.846 49.1475ZM588.216 48.4712C588.216 48.0304 588.065 47.6797 587.765 47.4192C587.464 47.1587 587.088 47.0284 586.638 47.0284C586.207 47.0284 585.841 47.1537 585.54 47.4042C585.25 47.6546 585.07 48.0103 584.999 48.4712H588.216ZM594.521 46.4874C594.821 46.0265 595.197 45.6658 595.648 45.4053C596.099 45.1348 596.6 44.9995 597.151 44.9995V47.7198H596.445C595.803 47.7198 595.322 47.86 595.002 48.1406C594.681 48.4111 594.521 48.892 594.521 49.5833V53.4758H591.951V45.0897H594.521V46.4874Z" fill="white"/>
<g clip-path="url(#clip2_13043_14665)">
<path d="M534.882 69.9136L539.113 66.0088L543.343 69.9136" stroke="#1DC981" stroke-width="1.95241"/>
</g>
<path d="M557.935 64.1646V73.4758H556.72V69.2544H551.977V73.4758H550.762V64.1646H551.977V68.2525H556.72V64.1646H557.935ZM560.472 64.9661C560.241 64.9661 560.045 64.886 559.884 64.7257C559.724 64.5654 559.644 64.3694 559.644 64.1379C559.644 63.9063 559.724 63.7104 559.884 63.5501C560.045 63.3898 560.241 63.3096 560.472 63.3096C560.695 63.3096 560.882 63.3898 561.033 63.5501C561.193 63.7104 561.274 63.9063 561.274 64.1379C561.274 64.3694 561.193 64.5654 561.033 64.7257C560.882 64.886 560.695 64.9661 560.472 64.9661ZM561.06 66.1551V73.4758H559.844V66.1551H561.06ZM565.984 66.0349C566.616 66.0349 567.168 66.1729 567.64 66.449C568.121 66.7251 568.478 67.0724 568.709 67.491V66.1551H569.938V73.6361C569.938 74.3041 569.796 74.8963 569.511 75.4129C569.226 75.9383 568.816 76.348 568.282 76.6419C567.756 76.9358 567.142 77.0828 566.438 77.0828C565.476 77.0828 564.675 76.8557 564.034 76.4015C563.392 75.9473 563.014 75.3283 562.898 74.5446H564.1C564.234 74.9899 564.51 75.3461 564.929 75.6133C565.347 75.8894 565.85 76.0274 566.438 76.0274C567.106 76.0274 567.649 75.8181 568.068 75.3995C568.495 74.9809 568.709 74.3931 568.709 73.6361V72.0999C568.469 72.5273 568.112 72.8836 567.64 73.1686C567.168 73.4536 566.616 73.5961 565.984 73.5961C565.334 73.5961 564.742 73.4358 564.207 73.1151C563.682 72.7945 563.268 72.3448 562.965 71.7659C562.662 71.187 562.511 70.5279 562.511 69.7887C562.511 69.0406 562.662 68.386 562.965 67.825C563.268 67.255 563.682 66.8141 564.207 66.5024C564.742 66.1907 565.334 66.0349 565.984 66.0349ZM568.709 69.8021C568.709 69.2499 568.598 68.769 568.375 68.3593C568.153 67.9496 567.85 67.6379 567.467 67.4242C567.093 67.2015 566.679 67.0902 566.224 67.0902C565.77 67.0902 565.356 67.1971 564.982 67.4108C564.608 67.6246 564.31 67.9363 564.087 68.346C563.864 68.7556 563.753 69.2366 563.753 69.7887C563.753 70.3498 563.864 70.8396 564.087 71.2582C564.31 71.6679 564.608 71.9841 564.982 72.2067C565.356 72.4205 565.77 72.5273 566.224 72.5273C566.679 72.5273 567.093 72.4205 567.467 72.2067C567.85 71.9841 568.153 71.6679 568.375 71.2582C568.598 70.8396 568.709 70.3543 568.709 69.8021ZM575.459 66.0215C576.011 66.0215 576.51 66.1417 576.955 66.3822C577.401 66.6137 577.748 66.9655 577.997 67.4376C578.256 67.9096 578.385 68.484 578.385 69.1609V73.4758H577.183V69.3345C577.183 68.6042 577 68.0476 576.635 67.6647C576.27 67.2728 575.771 67.0769 575.139 67.0769C574.497 67.0769 573.985 67.2772 573.602 67.678C573.228 68.0788 573.041 68.6621 573.041 69.428V73.4758H571.826V63.5902H573.041V67.1971C573.282 66.823 573.611 66.5336 574.03 66.3288C574.457 66.1239 574.934 66.0215 575.459 66.0215ZM589.329 64.1646V65.1532H586.791V73.4758H585.575V65.1532H583.024V64.1646H589.329ZM591.874 67.344C592.088 66.9255 592.391 66.6004 592.783 66.3688C593.184 66.1373 593.669 66.0215 594.239 66.0215V67.2772H593.918C592.556 67.2772 591.874 68.0164 591.874 69.4948V73.4758H590.659V66.1551H591.874V67.344ZM601.968 66.1551V73.4758H600.752V72.3937C600.52 72.7678 600.195 73.0617 599.777 73.2754C599.367 73.4803 598.913 73.5827 598.414 73.5827C597.844 73.5827 597.332 73.4669 596.878 73.2354C596.424 72.9949 596.063 72.6387 595.796 72.1666C595.538 71.6946 595.408 71.1202 595.408 70.4433V66.1551H596.611V70.283C596.611 71.0044 596.793 71.561 597.158 71.9529C597.524 72.3359 598.022 72.5273 598.655 72.5273C599.305 72.5273 599.817 72.327 600.191 71.9262C600.565 71.5254 600.752 70.9421 600.752 70.1762V66.1551H601.968ZM606.445 73.5961C605.884 73.5961 605.381 73.5025 604.935 73.3155C604.49 73.1196 604.138 72.8524 603.88 72.514C603.622 72.1666 603.479 71.7703 603.453 71.325H604.708C604.744 71.6902 604.913 71.9885 605.216 72.2201C605.528 72.4516 605.933 72.5674 606.432 72.5674C606.895 72.5674 607.26 72.465 607.527 72.2602C607.794 72.0553 607.928 71.797 607.928 71.4853C607.928 71.1647 607.785 70.9287 607.5 70.7773C607.215 70.617 606.775 70.4611 606.178 70.3097C605.635 70.1672 605.189 70.0247 604.842 69.8823C604.503 69.7308 604.21 69.5127 603.96 69.2277C603.72 68.9338 603.6 68.5508 603.6 68.0788C603.6 67.7047 603.711 67.3618 603.933 67.0501C604.156 66.7384 604.472 66.4935 604.882 66.3154C605.292 66.1284 605.759 66.0349 606.285 66.0349C607.095 66.0349 607.75 66.2397 608.248 66.6494C608.747 67.059 609.014 67.6201 609.05 68.3326H607.834C607.808 67.9496 607.652 67.6424 607.367 67.4108C607.091 67.1793 606.717 67.0635 606.245 67.0635C605.808 67.0635 605.461 67.157 605.203 67.344C604.944 67.5311 604.815 67.776 604.815 68.0788C604.815 68.3192 604.891 68.5196 605.042 68.6799C605.203 68.8313 605.399 68.956 605.63 69.054C605.871 69.1431 606.2 69.2455 606.619 69.3612C607.144 69.5037 607.572 69.6462 607.901 69.7887C608.231 69.9223 608.511 70.1272 608.743 70.4033C608.983 70.6793 609.108 71.04 609.117 71.4853C609.117 71.8861 609.005 72.2468 608.783 72.5674C608.56 72.888 608.244 73.1419 607.834 73.3289C607.434 73.507 606.97 73.5961 606.445 73.5961ZM612.149 67.157V71.472C612.149 71.8282 612.224 72.082 612.376 72.2334C612.527 72.3759 612.79 72.4472 613.164 72.4472H614.059V73.4758H612.964C612.287 73.4758 611.779 73.32 611.441 73.0083C611.102 72.6966 610.933 72.1845 610.933 71.472V67.157H609.985V66.1551H610.933V64.3115H612.149V66.1551H614.059V67.157H612.149ZM621.886 75.9606C621.031 75.1234 620.363 74.0592 619.882 72.7678C619.41 71.4764 619.174 70.0826 619.174 68.5864C619.174 67.0546 619.423 65.6252 619.922 64.2982C620.429 62.9623 621.151 61.8624 622.086 60.9985H623.355V61.1187C622.358 62.0539 621.605 63.1805 621.097 64.4986C620.599 65.8077 620.349 67.1704 620.349 68.5864C620.349 69.9669 620.585 71.2849 621.057 72.5407C621.538 73.7964 622.237 74.8963 623.155 75.8404V75.9606H621.886ZM626.022 70.8842C626.111 71.3918 626.315 71.7837 626.636 72.0598C626.966 72.3359 627.406 72.4739 627.959 72.4739C628.698 72.4739 629.241 72.1845 629.588 71.6056C629.945 71.0267 630.114 70.0515 630.096 68.6799C629.909 69.0807 629.597 69.3969 629.161 69.6284C628.725 69.8511 628.239 69.9624 627.705 69.9624C627.108 69.9624 626.574 69.8422 626.102 69.6017C625.639 69.3523 625.273 68.9917 625.006 68.5196C624.739 68.0476 624.606 67.4776 624.606 66.8097C624.606 65.8567 624.882 65.0908 625.434 64.5119C625.986 63.9241 626.77 63.6302 627.785 63.6302C629.032 63.6302 629.905 64.0355 630.403 64.8459C630.911 65.6563 631.165 66.8631 631.165 68.4662C631.165 69.5884 631.062 70.5146 630.858 71.2449C630.662 71.9752 630.323 72.5318 629.842 72.9148C629.37 73.2977 628.72 73.4892 627.892 73.4892C626.983 73.4892 626.275 73.2443 625.768 72.7544C625.26 72.2646 624.971 71.6412 624.899 70.8842H626.022ZM627.905 68.9338C628.502 68.9338 628.992 68.7512 629.375 68.386C629.758 68.012 629.949 67.5088 629.949 66.8765C629.949 66.2085 629.762 65.6697 629.388 65.26C629.014 64.8504 628.489 64.6455 627.812 64.6455C627.188 64.6455 626.69 64.8414 626.315 65.2333C625.95 65.6252 625.768 66.1417 625.768 66.783C625.768 67.4331 625.95 67.9541 626.315 68.346C626.681 68.7378 627.211 68.9338 627.905 68.9338ZM633.294 73.556C633.062 73.556 632.867 73.4758 632.706 73.3155C632.546 73.1552 632.466 72.9593 632.466 72.7277C632.466 72.4962 632.546 72.3002 632.706 72.1399C632.867 71.9796 633.062 71.8995 633.294 71.8995C633.517 71.8995 633.704 71.9796 633.855 72.1399C634.015 72.3002 634.096 72.4962 634.096 72.7277C634.096 72.9593 634.015 73.1552 633.855 73.3155C633.704 73.4758 633.517 73.556 633.294 73.556ZM635.197 72.5006C636.328 71.5922 637.214 70.8486 637.856 70.2697C638.497 69.6819 639.036 69.0718 639.472 68.4395C639.917 67.7982 640.14 67.1704 640.14 66.5559C640.14 65.977 639.998 65.5228 639.713 65.1932C639.436 64.8548 638.987 64.6856 638.363 64.6856C637.758 64.6856 637.286 64.8771 636.947 65.26C636.618 65.6341 636.44 66.1373 636.413 66.7696H635.237C635.273 65.7721 635.576 65.0018 636.146 64.4585C636.716 63.9152 637.45 63.6436 638.35 63.6436C639.267 63.6436 639.993 63.8974 640.527 64.4051C641.071 64.9127 641.342 65.6118 641.342 66.5024C641.342 67.2416 641.12 67.963 640.674 68.6666C640.238 69.3612 639.739 69.9758 639.178 70.5101C638.617 71.0356 637.9 71.6501 637.027 72.3537H641.623V73.369H635.197V72.5006ZM649.02 64.8726H644.331V67.9185C644.535 67.6335 644.838 67.4019 645.239 67.2238C645.64 67.0368 646.072 66.9433 646.535 66.9433C647.274 66.9433 647.875 67.0991 648.338 67.4108C648.801 67.7136 649.131 68.11 649.327 68.5998C649.532 69.0807 649.634 69.5928 649.634 70.1361C649.634 70.7773 649.514 71.3517 649.273 71.8594C649.033 72.367 648.663 72.7678 648.165 73.0617C647.675 73.3556 647.065 73.5025 646.335 73.5025C645.399 73.5025 644.642 73.2621 644.063 72.7812C643.485 72.3002 643.133 71.659 643.008 70.8575H644.197C644.313 71.3651 644.558 71.7614 644.932 72.0464C645.306 72.3314 645.778 72.4739 646.348 72.4739C647.051 72.4739 647.581 72.2646 647.938 71.846C648.294 71.4185 648.472 70.8575 648.472 70.1628C648.472 69.4681 648.294 68.9338 647.938 68.5597C647.581 68.1767 647.056 67.9853 646.361 67.9853C645.889 67.9853 645.475 68.101 645.119 68.3326C644.772 68.5553 644.518 68.8625 644.357 69.2544H643.208V63.8039H649.02V64.8726ZM650.896 75.9606V75.8404C651.813 74.8963 652.508 73.7964 652.98 72.5407C653.461 71.2849 653.701 69.9669 653.701 68.5864C653.701 67.1704 653.447 65.8077 652.94 64.4986C652.441 63.1805 651.693 62.0539 650.695 61.1187V60.9985H651.964C652.9 61.8624 653.616 62.9623 654.115 64.2982C654.623 65.6252 654.877 67.0546 654.877 68.5864C654.877 70.0826 654.636 71.4764 654.155 72.7678C653.683 74.0592 653.02 75.1234 652.165 75.9606H650.896Z" fill="white"/>
<path d="M480.876 92.0762H1101.88" stroke="url(#paint2_linear_13043_14665)" stroke-opacity="0.16"/>
<path d="M489.455 120.31C489.455 121.227 489.139 121.99 488.507 122.601C487.885 123.201 486.932 123.502 485.647 123.502H483.53V128.099H482.092V117.087H485.647C486.89 117.087 487.833 117.387 488.475 117.988C489.128 118.588 489.455 119.362 489.455 120.31ZM485.647 122.317C486.448 122.317 487.038 122.143 487.417 121.795C487.796 121.448 487.985 120.953 487.985 120.31C487.985 118.952 487.206 118.272 485.647 118.272H483.53V122.317H485.647Z" fill="white"/>
<path d="M492.679 120.847C492.932 120.352 493.29 119.968 493.754 119.694C494.228 119.42 494.802 119.283 495.476 119.283V120.768H495.097C493.485 120.768 492.679 121.643 492.679 123.391V128.099H491.242V119.441H492.679V120.847Z" fill="white"/>
<path d="M500.911 128.241C500.1 128.241 499.363 128.057 498.699 127.688C498.046 127.32 497.53 126.798 497.151 126.124C496.783 125.44 496.598 124.65 496.598 123.754C496.598 122.87 496.788 122.09 497.167 121.416C497.557 120.732 498.083 120.21 498.747 119.852C499.41 119.483 500.153 119.299 500.974 119.299C501.796 119.299 502.539 119.483 503.202 119.852C503.866 120.21 504.387 120.726 504.766 121.4C505.156 122.074 505.351 122.859 505.351 123.754C505.351 124.65 505.151 125.44 504.75 126.124C504.361 126.798 503.829 127.32 503.155 127.688C502.481 128.057 501.733 128.241 500.911 128.241ZM500.911 126.977C501.427 126.977 501.912 126.856 502.365 126.614C502.818 126.372 503.181 126.008 503.455 125.524C503.739 125.039 503.881 124.45 503.881 123.754C503.881 123.059 503.745 122.469 503.471 121.985C503.197 121.5 502.839 121.142 502.396 120.911C501.954 120.668 501.475 120.547 500.959 120.547C500.432 120.547 499.948 120.668 499.505 120.911C499.073 121.142 498.726 121.5 498.462 121.985C498.199 122.469 498.067 123.059 498.067 123.754C498.067 124.46 498.194 125.055 498.447 125.54C498.71 126.024 499.058 126.388 499.489 126.63C499.921 126.862 500.395 126.977 500.911 126.977Z" fill="white"/>
<path d="M510.464 126.772L513.15 119.441H514.682L511.286 128.099H509.611L506.214 119.441H507.762L510.464 126.772Z" fill="white"/>
<path d="M516.84 118.035C516.566 118.035 516.334 117.94 516.144 117.751C515.955 117.561 515.86 117.33 515.86 117.056C515.86 116.782 515.955 116.55 516.144 116.361C516.334 116.171 516.566 116.076 516.84 116.076C517.103 116.076 517.324 116.171 517.503 116.361C517.693 116.55 517.788 116.782 517.788 117.056C517.788 117.33 517.693 117.561 517.503 117.751C517.324 117.94 517.103 118.035 516.84 118.035ZM517.535 119.441V128.099H516.097V119.441H517.535Z" fill="white"/>
<path d="M519.448 123.739C519.448 122.854 519.627 122.08 519.985 121.416C520.343 120.742 520.833 120.221 521.454 119.852C522.086 119.483 522.792 119.299 523.571 119.299C524.246 119.299 524.872 119.457 525.451 119.773C526.031 120.079 526.473 120.484 526.779 120.99V116.408H528.232V128.099H526.779V126.472C526.494 126.988 526.073 127.414 525.515 127.752C524.956 128.078 524.303 128.241 523.556 128.241C522.787 128.241 522.086 128.052 521.454 127.673C520.833 127.293 520.343 126.761 519.985 126.077C519.627 125.392 519.448 124.613 519.448 123.739ZM526.779 123.754C526.779 123.101 526.647 122.533 526.384 122.048C526.12 121.564 525.762 121.195 525.309 120.942C524.867 120.679 524.377 120.547 523.84 120.547C523.303 120.547 522.813 120.674 522.371 120.926C521.928 121.179 521.576 121.548 521.312 122.032C521.049 122.517 520.917 123.086 520.917 123.739C520.917 124.402 521.049 124.981 521.312 125.476C521.576 125.961 521.928 126.335 522.371 126.598C522.813 126.851 523.303 126.977 523.84 126.977C524.377 126.977 524.867 126.851 525.309 126.598C525.762 126.335 526.12 125.961 526.384 125.476C526.647 124.981 526.779 124.407 526.779 123.754Z" fill="white"/>
<path d="M538.561 123.438C538.561 123.712 538.545 124.002 538.514 124.307H531.594C531.646 125.161 531.936 125.829 532.463 126.314C533 126.788 533.648 127.025 534.406 127.025C535.027 127.025 535.544 126.883 535.954 126.598C536.376 126.303 536.671 125.914 536.839 125.429H538.387C538.156 126.261 537.692 126.941 536.997 127.467C536.302 127.983 535.438 128.241 534.406 128.241C533.584 128.241 532.847 128.057 532.194 127.688C531.552 127.32 531.046 126.798 530.677 126.124C530.309 125.44 530.125 124.65 530.125 123.754C530.125 122.859 530.304 122.074 530.662 121.4C531.02 120.726 531.52 120.21 532.163 119.852C532.816 119.483 533.563 119.299 534.406 119.299C535.228 119.299 535.954 119.478 536.586 119.836C537.218 120.194 537.703 120.689 538.04 121.321C538.387 121.943 538.561 122.649 538.561 123.438ZM537.076 123.138C537.076 122.591 536.955 122.122 536.713 121.732C536.47 121.332 536.139 121.032 535.717 120.832C535.307 120.621 534.848 120.516 534.343 120.516C533.616 120.516 532.995 120.747 532.479 121.211C531.973 121.674 531.683 122.317 531.61 123.138H537.076Z" fill="white"/>
<path d="M541.897 120.847C542.149 120.352 542.507 119.968 542.971 119.694C543.445 119.42 544.019 119.283 544.693 119.283V120.768H544.314C542.702 120.768 541.897 121.643 541.897 123.391V128.099H540.459V119.441H541.897V120.847Z" fill="white"/>
<path d="M557.342 117.087V118.256H554.34V128.099H552.903V118.256H549.885V117.087H557.342Z" fill="white"/>
<path d="M566.569 119.441L561.355 132.175H559.87L561.577 128.004L558.085 119.441H559.681L562.398 126.456L565.084 119.441H566.569Z" fill="white"/>
<path d="M569.452 121.037C569.736 120.542 570.158 120.131 570.716 119.805C571.285 119.468 571.943 119.299 572.691 119.299C573.46 119.299 574.155 119.483 574.776 119.852C575.408 120.221 575.903 120.742 576.261 121.416C576.619 122.08 576.798 122.854 576.798 123.739C576.798 124.613 576.619 125.392 576.261 126.077C575.903 126.761 575.408 127.293 574.776 127.673C574.155 128.052 573.46 128.241 572.691 128.241C571.953 128.241 571.3 128.078 570.732 127.752C570.173 127.414 569.747 126.998 569.452 126.503V132.207H568.014V119.441H569.452V121.037ZM575.329 123.739C575.329 123.086 575.197 122.517 574.934 122.032C574.671 121.548 574.313 121.179 573.86 120.926C573.417 120.674 572.928 120.547 572.391 120.547C571.864 120.547 571.374 120.679 570.921 120.942C570.479 121.195 570.121 121.569 569.847 122.064C569.584 122.548 569.452 123.112 569.452 123.754C569.452 124.407 569.584 124.981 569.847 125.476C570.121 125.961 570.479 126.335 570.921 126.598C571.374 126.851 571.864 126.977 572.391 126.977C572.928 126.977 573.417 126.851 573.86 126.598C574.313 126.335 574.671 125.961 574.934 125.476C575.197 124.981 575.329 124.402 575.329 123.739Z" fill="white"/>
<path d="M586.59 123.438C586.59 123.712 586.574 124.002 586.543 124.307H579.623C579.676 125.161 579.965 125.829 580.492 126.314C581.029 126.788 581.677 127.025 582.435 127.025C583.057 127.025 583.573 126.883 583.983 126.598C584.405 126.303 584.7 125.914 584.868 125.429H586.417C586.185 126.261 585.721 126.941 585.026 127.467C584.331 127.983 583.467 128.241 582.435 128.241C581.614 128.241 580.876 128.057 580.223 127.688C579.581 127.32 579.075 126.798 578.707 126.124C578.338 125.44 578.154 124.65 578.154 123.754C578.154 122.859 578.333 122.074 578.691 121.4C579.049 120.726 579.549 120.21 580.192 119.852C580.845 119.483 581.593 119.299 582.435 119.299C583.257 119.299 583.983 119.478 584.615 119.836C585.247 120.194 585.732 120.689 586.069 121.321C586.417 121.943 586.59 122.649 586.59 123.438ZM585.105 123.138C585.105 122.591 584.984 122.122 584.742 121.732C584.5 121.332 584.168 121.032 583.746 120.832C583.336 120.621 582.878 120.516 582.372 120.516C581.645 120.516 581.024 120.747 580.508 121.211C580.002 121.674 579.713 122.317 579.639 123.138H585.105Z" fill="white"/>
<path d="M684.153 117.162C684.153 116.617 684.595 116.175 685.14 116.175C685.685 116.175 686.127 116.617 686.127 117.162V127.036C686.127 127.582 685.685 128.024 685.14 128.024C684.595 128.024 684.153 127.582 684.153 127.036V117.162Z" fill="#FFD15C"/>
<path d="M689.09 117.162C689.09 116.617 689.532 116.175 690.077 116.175C690.623 116.175 691.065 116.617 691.065 117.162V127.036C691.065 127.582 690.623 128.024 690.077 128.024C689.532 128.024 689.09 127.582 689.09 127.036V117.162Z" fill="#FFD15C"/>
<path d="M694.027 117.162C694.027 116.617 694.469 116.175 695.014 116.175C695.56 116.175 696.002 116.617 696.002 117.162V127.036C696.002 127.582 695.56 128.024 695.014 128.024C694.469 128.024 694.027 127.582 694.027 127.036V117.162Z" fill="#FFD15C"/>
<path d="M698.964 117.162C698.964 116.617 699.406 116.175 699.952 116.175C700.497 116.175 700.939 116.617 700.939 117.162V127.036C700.939 127.582 700.497 128.024 699.952 128.024C699.406 128.024 698.964 127.582 698.964 127.036V117.162Z" fill="#FFD15C"/>
<path d="M703.901 117.162C703.901 116.617 704.343 116.175 704.889 116.175C705.434 116.175 705.876 116.617 705.876 117.162V127.036C705.876 127.582 705.434 128.024 704.889 128.024C704.343 128.024 703.901 127.582 703.901 127.036V117.162Z" fill="#2C3542"/>
<path d="M1188.15 117.162C1188.15 116.617 1188.59 116.175 1189.14 116.175C1189.69 116.175 1190.13 116.617 1190.13 117.162V127.036C1190.13 127.582 1189.69 128.024 1189.14 128.024C1188.59 128.024 1188.15 127.582 1188.15 127.036V117.162Z" fill="#1DC981"/>
<path d="M1193.09 117.162C1193.09 116.617 1193.53 116.174 1194.08 116.174C1194.62 116.174 1195.06 116.617 1195.06 117.162V127.036C1195.06 127.582 1194.62 128.024 1194.08 128.024C1193.53 128.024 1193.09 127.582 1193.09 127.036V117.162Z" fill="#1DC981"/>
<path d="M1198.03 117.162C1198.03 116.617 1198.47 116.174 1199.01 116.174C1199.56 116.174 1200 116.617 1200 117.162V127.036C1200 127.582 1199.56 128.024 1199.01 128.024C1198.47 128.024 1198.03 127.582 1198.03 127.036V117.162Z" fill="#1DC981"/>
<path d="M1202.96 117.162C1202.96 116.617 1203.41 116.174 1203.95 116.174C1204.5 116.174 1204.94 116.617 1204.94 117.162V127.036C1204.94 127.582 1204.5 128.024 1203.95 128.024C1203.41 128.024 1202.96 127.582 1202.96 127.036V117.162Z" fill="#1DC981"/>
<path d="M1207.9 117.162C1207.9 116.617 1208.34 116.174 1208.89 116.174C1209.43 116.174 1209.88 116.617 1209.88 117.162V127.036C1209.88 127.582 1209.43 128.024 1208.89 128.024C1208.34 128.024 1207.9 127.582 1207.9 127.036V117.162Z" fill="#1DC981"/>
<path d="M684.153 156.162C684.153 155.617 684.595 155.175 685.14 155.175C685.685 155.175 686.127 155.617 686.127 156.162V166.036C686.127 166.582 685.685 167.024 685.14 167.024C684.595 167.024 684.153 166.582 684.153 166.036V156.162Z" fill="#1DC981"/>
<path d="M689.09 156.162C689.09 155.617 689.532 155.175 690.077 155.175C690.623 155.175 691.065 155.617 691.065 156.162V166.036C691.065 166.582 690.623 167.024 690.077 167.024C689.532 167.024 689.09 166.582 689.09 166.036V156.162Z" fill="#1DC981"/>
<path d="M694.027 156.162C694.027 155.617 694.469 155.175 695.014 155.175C695.56 155.175 696.002 155.617 696.002 156.162V166.036C696.002 166.582 695.56 167.024 695.014 167.024C694.469 167.024 694.027 166.582 694.027 166.036V156.162Z" fill="#1DC981"/>
<path d="M698.964 156.162C698.964 155.617 699.406 155.175 699.952 155.175C700.497 155.175 700.939 155.617 700.939 156.162V166.036C700.939 166.582 700.497 167.024 699.952 167.024C699.406 167.024 698.964 166.582 698.964 166.036V156.162Z" fill="#1DC981"/>
<path d="M703.901 156.162C703.901 155.617 704.343 155.175 704.889 155.175C705.434 155.175 705.876 155.617 705.876 156.162V166.036C705.876 166.582 705.434 167.024 704.889 167.024C704.343 167.024 703.901 166.582 703.901 166.036V156.162Z" fill="#1DC981"/>
<path d="M767.906 120.279C767.601 119.636 767.159 119.141 766.579 118.794C766 118.435 765.326 118.256 764.557 118.256C763.788 118.256 763.093 118.435 762.472 118.794C761.861 119.141 761.376 119.647 761.018 120.31C760.67 120.963 760.497 121.722 760.497 122.585C760.497 123.449 760.67 124.207 761.018 124.86C761.376 125.513 761.861 126.019 762.472 126.377C763.093 126.725 763.788 126.898 764.557 126.898C765.631 126.898 766.516 126.577 767.211 125.935C767.906 125.292 768.312 124.423 768.428 123.328H764.036V122.159H769.96V123.265C769.876 124.17 769.592 125.003 769.107 125.761C768.623 126.509 767.985 127.104 767.195 127.546C766.405 127.978 765.526 128.194 764.557 128.194C763.535 128.194 762.603 127.957 761.761 127.483C760.918 126.998 760.249 126.33 759.754 125.477C759.27 124.623 759.027 123.66 759.027 122.585C759.027 121.511 759.27 120.547 759.754 119.694C760.249 118.83 760.918 118.162 761.761 117.688C762.603 117.203 763.535 116.961 764.557 116.961C765.726 116.961 766.758 117.251 767.654 117.83C768.559 118.409 769.218 119.225 769.628 120.279H767.906Z" fill="white"/>
<path d="M775.637 128.241C774.826 128.241 774.089 128.057 773.425 127.688C772.772 127.32 772.256 126.798 771.877 126.124C771.508 125.44 771.324 124.65 771.324 123.754C771.324 122.87 771.514 122.09 771.893 121.416C772.282 120.732 772.809 120.21 773.473 119.852C774.136 119.483 774.879 119.299 775.7 119.299C776.522 119.299 777.264 119.483 777.928 119.852C778.591 120.21 779.113 120.726 779.492 121.4C779.882 122.074 780.077 122.859 780.077 123.754C780.077 124.65 779.876 125.44 779.476 126.124C779.086 126.798 778.555 127.32 777.88 127.688C777.206 128.057 776.459 128.241 775.637 128.241ZM775.637 126.977C776.153 126.977 776.638 126.856 777.091 126.614C777.543 126.372 777.907 126.008 778.181 125.524C778.465 125.039 778.607 124.45 778.607 123.754C778.607 123.059 778.47 122.469 778.196 121.985C777.923 121.5 777.565 121.142 777.122 120.911C776.68 120.668 776.201 120.547 775.684 120.547C775.158 120.547 774.673 120.668 774.231 120.911C773.799 121.142 773.452 121.5 773.188 121.985C772.925 122.469 772.793 123.059 772.793 123.754C772.793 124.46 772.92 125.055 773.172 125.54C773.436 126.024 773.783 126.388 774.215 126.63C774.647 126.862 775.121 126.977 775.637 126.977Z" fill="white"/>
<path d="M785.19 126.772L787.876 119.441H789.408L786.011 128.099H784.337L780.94 119.441H782.488L785.19 126.772Z" fill="white"/>
<path d="M798.722 123.438C798.722 123.712 798.706 124.002 798.675 124.307H791.755C791.808 125.161 792.097 125.829 792.624 126.314C793.161 126.788 793.809 127.025 794.567 127.025C795.189 127.025 795.705 126.883 796.115 126.598C796.537 126.303 796.832 125.914 797 125.429H798.548C798.317 126.261 797.853 126.941 797.158 127.467C796.463 127.983 795.599 128.241 794.567 128.241C793.746 128.241 793.008 128.057 792.355 127.688C791.713 127.32 791.207 126.798 790.839 126.124C790.47 125.44 790.286 124.65 790.286 123.754C790.286 122.859 790.465 122.074 790.823 121.4C791.181 120.726 791.681 120.21 792.324 119.852C792.977 119.483 793.725 119.299 794.567 119.299C795.389 119.299 796.115 119.478 796.747 119.836C797.379 120.194 797.864 120.689 798.201 121.321C798.549 121.943 798.722 122.649 798.722 123.438ZM797.237 123.138C797.237 122.591 797.116 122.122 796.874 121.732C796.632 121.332 796.3 121.032 795.879 120.832C795.468 120.621 795.01 120.516 794.504 120.516C793.777 120.516 793.156 120.747 792.64 121.211C792.134 121.674 791.845 122.317 791.771 123.138H797.237Z" fill="white"/>
<path d="M802.058 120.847C802.31 120.352 802.669 119.968 803.132 119.694C803.606 119.42 804.18 119.283 804.854 119.283V120.768H804.475C802.863 120.768 802.058 121.643 802.058 123.391V128.099H800.62V119.441H802.058V120.847Z" fill="white"/>
<path d="M810.732 119.283C811.785 119.283 812.638 119.605 813.291 120.247C813.944 120.879 814.271 121.795 814.271 122.996V128.099H812.849V123.201C812.849 122.338 812.633 121.68 812.201 121.227C811.769 120.763 811.18 120.531 810.432 120.531C809.674 120.531 809.068 120.768 808.615 121.242C808.173 121.716 807.951 122.406 807.951 123.312V128.099H806.514V119.441H807.951V120.674C808.236 120.231 808.62 119.889 809.105 119.647C809.6 119.404 810.142 119.283 810.732 119.283Z" fill="white"/>
<path d="M816.082 123.739C816.082 122.854 816.261 122.08 816.619 121.416C816.978 120.742 817.467 120.221 818.089 119.852C818.721 119.483 819.421 119.299 820.19 119.299C820.948 119.299 821.607 119.462 822.165 119.789C822.723 120.115 823.139 120.526 823.413 121.021V119.441H824.866V128.099H823.413V126.488C823.129 126.993 822.702 127.414 822.133 127.752C821.575 128.078 820.922 128.241 820.174 128.241C819.405 128.241 818.71 128.052 818.089 127.673C817.467 127.293 816.978 126.761 816.619 126.077C816.261 125.392 816.082 124.613 816.082 123.739ZM823.413 123.754C823.413 123.101 823.281 122.533 823.018 122.048C822.755 121.564 822.397 121.195 821.944 120.942C821.501 120.679 821.012 120.547 820.474 120.547C819.937 120.547 819.447 120.674 819.005 120.926C818.563 121.179 818.21 121.548 817.947 122.032C817.683 122.517 817.552 123.086 817.552 123.739C817.552 124.402 817.683 124.981 817.947 125.477C818.21 125.961 818.563 126.335 819.005 126.598C819.447 126.851 819.937 126.977 820.474 126.977C821.012 126.977 821.501 126.851 821.944 126.598C822.397 126.335 822.755 125.961 823.018 125.477C823.281 124.981 823.413 124.407 823.413 123.754Z" fill="white"/>
<path d="M831.514 119.283C832.568 119.283 833.421 119.605 834.074 120.247C834.727 120.879 835.053 121.795 835.053 122.996V128.099H833.631V123.201C833.631 122.338 833.415 121.68 832.984 121.227C832.552 120.763 831.962 120.531 831.214 120.531C830.456 120.531 829.85 120.768 829.397 121.242C828.955 121.716 828.734 122.406 828.734 123.312V128.099H827.296V119.441H828.734V120.674C829.018 120.231 829.403 119.889 829.887 119.647C830.382 119.404 830.924 119.283 831.514 119.283Z" fill="white"/>
<path d="M836.865 123.754C836.865 122.859 837.044 122.08 837.402 121.416C837.76 120.742 838.255 120.221 838.887 119.852C839.529 119.483 840.261 119.299 841.083 119.299C842.147 119.299 843.021 119.557 843.706 120.073C844.401 120.589 844.859 121.306 845.08 122.222H843.532C843.384 121.695 843.095 121.279 842.663 120.974C842.241 120.668 841.715 120.516 841.083 120.516C840.261 120.516 839.598 120.8 839.092 121.369C838.587 121.927 838.334 122.722 838.334 123.754C838.334 124.797 838.587 125.603 839.092 126.172C839.598 126.74 840.261 127.025 841.083 127.025C841.715 127.025 842.241 126.877 842.663 126.582C843.084 126.288 843.374 125.866 843.532 125.319H845.08C844.848 126.203 844.385 126.914 843.69 127.451C842.995 127.978 842.126 128.241 841.083 128.241C840.261 128.241 839.529 128.057 838.887 127.688C838.255 127.32 837.76 126.798 837.402 126.124C837.044 125.45 836.865 124.66 836.865 123.754Z" fill="white"/>
<path d="M854.898 123.438C854.898 123.712 854.882 124.002 854.85 124.307H847.93C847.983 125.161 848.273 125.829 848.799 126.314C849.337 126.788 849.984 127.025 850.743 127.025C851.364 127.025 851.88 126.883 852.291 126.598C852.712 126.303 853.007 125.914 853.176 125.429H854.724C854.492 126.261 854.029 126.941 853.334 127.467C852.639 127.983 851.775 128.241 850.743 128.241C849.921 128.241 849.184 128.057 848.531 127.688C847.888 127.32 847.383 126.798 847.014 126.124C846.645 125.44 846.461 124.65 846.461 123.754C846.461 122.859 846.64 122.074 846.998 121.4C847.356 120.726 847.857 120.21 848.499 119.852C849.152 119.483 849.9 119.299 850.743 119.299C851.564 119.299 852.291 119.478 852.923 119.836C853.555 120.194 854.039 120.689 854.376 121.321C854.724 121.943 854.898 122.649 854.898 123.438ZM853.413 123.138C853.413 122.591 853.292 122.122 853.049 121.732C852.807 121.332 852.475 121.032 852.054 120.832C851.643 120.621 851.185 120.516 850.679 120.516C849.953 120.516 849.331 120.747 848.815 121.211C848.31 121.674 848.02 122.317 847.946 123.138H853.413Z" fill="white"/>
<path d="M951.153 117.162C951.153 116.617 951.595 116.175 952.14 116.175C952.685 116.175 953.127 116.617 953.127 117.162V127.036C953.127 127.582 952.685 128.024 952.14 128.024C951.595 128.024 951.153 127.582 951.153 127.036V117.162Z" fill="#1DC981"/>
<path d="M956.09 117.162C956.09 116.617 956.532 116.175 957.077 116.175C957.623 116.175 958.065 116.617 958.065 117.162V127.036C958.065 127.582 957.623 128.024 957.077 128.024C956.532 128.024 956.09 127.582 956.09 127.036V117.162Z" fill="#1DC981"/>
<path d="M961.027 117.162C961.027 116.617 961.469 116.175 962.014 116.175C962.56 116.175 963.002 116.617 963.002 117.162V127.036C963.002 127.582 962.56 128.024 962.014 128.024C961.469 128.024 961.027 127.582 961.027 127.036V117.162Z" fill="#1DC981"/>
<path d="M965.964 117.162C965.964 116.617 966.406 116.175 966.952 116.175C967.497 116.175 967.939 116.617 967.939 117.162V127.036C967.939 127.582 967.497 128.024 966.952 128.024C966.406 128.024 965.964 127.582 965.964 127.036V117.162Z" fill="#1DC981"/>
<path d="M970.901 117.162C970.901 116.617 971.343 116.175 971.889 116.175C972.434 116.175 972.876 116.617 972.876 117.162V127.036C972.876 127.582 972.434 128.024 971.889 128.024C971.343 128.024 970.901 127.582 970.901 127.036V117.162Z" fill="#1DC981"/>
<path d="M766.602 164.65H761.799L760.914 167.099H759.397L763.379 156.15H765.038L769.003 167.099H767.486L766.602 164.65ZM766.191 163.481L764.2 157.92L762.21 163.481H766.191Z" fill="white"/>
<path d="M778.416 158.441V167.099H776.979V165.819C776.705 166.262 776.32 166.609 775.825 166.862C775.341 167.104 774.804 167.226 774.214 167.226C773.54 167.226 772.934 167.089 772.397 166.815C771.86 166.53 771.433 166.109 771.117 165.551C770.812 164.993 770.659 164.313 770.659 163.513V158.441H772.081V163.323C772.081 164.176 772.297 164.835 772.729 165.298C773.161 165.751 773.751 165.977 774.498 165.977C775.267 165.977 775.873 165.74 776.315 165.266C776.758 164.792 776.979 164.103 776.979 163.197V158.441H778.416Z" fill="white"/>
<path d="M780.307 162.739C780.307 161.854 780.486 161.08 780.844 160.416C781.202 159.742 781.692 159.221 782.313 158.852C782.945 158.483 783.651 158.299 784.43 158.299C785.104 158.299 785.731 158.457 786.31 158.773C786.89 159.079 787.332 159.484 787.637 159.99V155.408H789.091V167.099H787.637V165.472C787.353 165.988 786.932 166.414 786.374 166.752C785.815 167.078 785.162 167.241 784.414 167.241C783.646 167.241 782.945 167.052 782.313 166.673C781.692 166.293 781.202 165.761 780.844 165.077C780.486 164.392 780.307 163.613 780.307 162.739ZM787.637 162.754C787.637 162.101 787.506 161.533 787.242 161.048C786.979 160.564 786.621 160.195 786.168 159.942C785.726 159.679 785.236 159.547 784.699 159.547C784.162 159.547 783.672 159.674 783.23 159.926C782.787 160.179 782.434 160.548 782.171 161.032C781.908 161.517 781.776 162.086 781.776 162.739C781.776 163.402 781.908 163.981 782.171 164.477C782.434 164.961 782.787 165.335 783.23 165.598C783.672 165.851 784.162 165.977 784.699 165.977C785.236 165.977 785.726 165.851 786.168 165.598C786.621 165.335 786.979 164.961 787.242 164.477C787.506 163.981 787.637 163.407 787.637 162.754Z" fill="white"/>
<path d="M792.263 157.035C791.989 157.035 791.758 156.94 791.568 156.751C791.378 156.561 791.284 156.33 791.284 156.056C791.284 155.782 791.378 155.55 791.568 155.361C791.758 155.171 791.989 155.076 792.263 155.076C792.526 155.076 792.748 155.171 792.927 155.361C793.116 155.55 793.211 155.782 793.211 156.056C793.211 156.33 793.116 156.561 792.927 156.751C792.748 156.94 792.526 157.035 792.263 157.035ZM792.958 158.441V167.099H791.521V158.441H792.958Z" fill="white"/>
<path d="M797.162 159.626V164.729C797.162 165.151 797.252 165.451 797.431 165.63C797.61 165.798 797.921 165.883 798.363 165.883H799.421V167.099H798.126C797.325 167.099 796.725 166.915 796.325 166.546C795.925 166.178 795.724 165.572 795.724 164.729V159.626H794.603V158.441H795.724V156.261H797.162V158.441H799.421V159.626H797.162Z" fill="white"/>
<path d="M804.228 167.241C803.565 167.241 802.97 167.131 802.443 166.91C801.916 166.678 801.5 166.362 801.195 165.962C800.89 165.551 800.721 165.082 800.689 164.555H802.174C802.217 164.987 802.417 165.34 802.775 165.614C803.143 165.888 803.623 166.025 804.213 166.025C804.76 166.025 805.192 165.904 805.508 165.661C805.824 165.419 805.982 165.114 805.982 164.745C805.982 164.366 805.814 164.087 805.477 163.908C805.139 163.718 804.618 163.534 803.912 163.355C803.27 163.186 802.743 163.018 802.333 162.849C801.932 162.67 801.585 162.412 801.29 162.075C801.005 161.727 800.863 161.275 800.863 160.716C800.863 160.274 800.995 159.868 801.258 159.5C801.521 159.131 801.895 158.842 802.38 158.631C802.864 158.41 803.417 158.299 804.039 158.299C804.997 158.299 805.771 158.541 806.361 159.026C806.951 159.51 807.267 160.174 807.309 161.017H805.871C805.84 160.564 805.656 160.2 805.318 159.926C804.992 159.653 804.55 159.516 803.991 159.516C803.475 159.516 803.065 159.626 802.759 159.847C802.454 160.069 802.301 160.358 802.301 160.716C802.301 161.001 802.39 161.238 802.569 161.427C802.759 161.606 802.991 161.754 803.265 161.87C803.549 161.975 803.939 162.096 804.434 162.233C805.055 162.402 805.561 162.57 805.95 162.739C806.34 162.897 806.672 163.139 806.946 163.465C807.23 163.792 807.378 164.218 807.388 164.745C807.388 165.219 807.256 165.646 806.993 166.025C806.73 166.404 806.356 166.704 805.871 166.925C805.397 167.136 804.85 167.241 804.228 167.241Z" fill="white"/>
<path d="M1188.15 156.162C1188.15 155.617 1188.59 155.175 1189.14 155.175C1189.69 155.175 1190.13 155.617 1190.13 156.162V166.036C1190.13 166.582 1189.69 167.024 1189.14 167.024C1188.59 167.024 1188.15 166.582 1188.15 166.036V156.162Z" fill="#1DC981"/>
<path d="M1193.09 156.162C1193.09 155.617 1193.53 155.175 1194.08 155.175C1194.62 155.175 1195.06 155.617 1195.06 156.162V166.036C1195.06 166.582 1194.62 167.024 1194.08 167.024C1193.53 167.024 1193.09 166.582 1193.09 166.036V156.162Z" fill="#1DC981"/>
<path d="M1198.03 156.162C1198.03 155.617 1198.47 155.175 1199.01 155.175C1199.56 155.175 1200 155.617 1200 156.162V166.036C1200 166.582 1199.56 167.024 1199.01 167.024C1198.47 167.024 1198.03 166.582 1198.03 166.036V156.162Z" fill="#1DC981"/>
<path d="M1202.96 156.162C1202.96 155.617 1203.41 155.175 1203.95 155.175C1204.5 155.175 1204.94 155.617 1204.94 156.162V166.036C1204.94 166.582 1204.5 167.024 1203.95 167.024C1203.41 167.024 1202.96 166.582 1202.96 166.036V156.162Z" fill="#1DC981"/>
<path d="M1207.9 156.162C1207.9 155.617 1208.34 155.175 1208.89 155.175C1209.43 155.175 1209.88 155.617 1209.88 156.162V166.036C1209.88 166.582 1209.43 167.024 1208.89 167.024C1208.34 167.024 1207.9 166.582 1207.9 166.036V156.162Z" fill="#1DC981"/>
<path d="M951.153 157.162C951.153 156.617 951.595 156.175 952.14 156.175C952.685 156.175 953.127 156.617 953.127 157.162V167.036C953.127 167.582 952.685 168.024 952.14 168.024C951.595 168.024 951.153 167.582 951.153 167.036V157.162Z" fill="#1DC981"/>
<path d="M956.09 157.162C956.09 156.617 956.532 156.175 957.077 156.175C957.623 156.175 958.065 156.617 958.065 157.162V167.036C958.065 167.582 957.623 168.024 957.077 168.024C956.532 168.024 956.09 167.582 956.09 167.036V157.162Z" fill="#1DC981"/>
<path d="M961.027 157.162C961.027 156.617 961.469 156.175 962.014 156.175C962.56 156.175 963.002 156.617 963.002 157.162V167.036C963.002 167.582 962.56 168.024 962.014 168.024C961.469 168.024 961.027 167.582 961.027 167.036V157.162Z" fill="#1DC981"/>
<path d="M965.964 157.162C965.964 156.617 966.406 156.175 966.952 156.175C967.497 156.175 967.939 156.617 967.939 157.162V167.036C967.939 167.582 967.497 168.024 966.952 168.024C966.406 168.024 965.964 167.582 965.964 167.036V157.162Z" fill="#1DC981"/>
<path d="M970.901 157.162C970.901 156.617 971.343 156.175 971.889 156.175C972.434 156.175 972.876 156.617 972.876 157.162V167.036C972.876 167.582 972.434 168.024 971.889 168.024C971.343 168.024 970.901 167.582 970.901 167.036V157.162Z" fill="#1DC981"/>
<path d="M490.186 155.567V156.782H487.066V167.014H485.571V156.782H482.435V155.567H490.186Z" fill="white"/>
<path d="M492.592 156.552C492.308 156.552 492.067 156.454 491.87 156.257C491.673 156.06 491.574 155.819 491.574 155.534C491.574 155.25 491.673 155.009 491.87 154.812C492.067 154.615 492.308 154.516 492.592 154.516C492.866 154.516 493.096 154.615 493.282 154.812C493.479 155.009 493.578 155.25 493.578 155.534C493.578 155.819 493.479 156.06 493.282 156.257C493.096 156.454 492.866 156.552 492.592 156.552ZM493.315 158.014V167.014H491.821V158.014H493.315Z" fill="white"/>
<path d="M506.48 157.85C507.18 157.85 507.804 157.998 508.352 158.293C508.899 158.578 509.332 159.01 509.649 159.591C509.967 160.171 510.125 160.877 510.125 161.709V167.014H508.647V161.923C508.647 161.025 508.423 160.341 507.974 159.87C507.536 159.388 506.939 159.147 506.184 159.147C505.407 159.147 504.788 159.399 504.328 159.903C503.868 160.395 503.638 161.113 503.638 162.054V167.014H502.16V161.923C502.16 161.025 501.936 160.341 501.487 159.87C501.049 159.388 500.452 159.147 499.697 159.147C498.92 159.147 498.301 159.399 497.841 159.903C497.381 160.395 497.151 161.113 497.151 162.054V167.014H495.657V158.014H497.151V159.311C497.447 158.841 497.841 158.479 498.334 158.228C498.837 157.976 499.39 157.85 499.993 157.85C500.748 157.85 501.416 158.02 501.996 158.359C502.576 158.698 503.009 159.197 503.294 159.853C503.545 159.218 503.961 158.726 504.542 158.375C505.122 158.025 505.768 157.85 506.48 157.85Z" fill="white"/>
<path d="M520.583 162.169C520.583 162.454 520.567 162.755 520.534 163.072H513.341C513.395 163.959 513.696 164.654 514.244 165.158C514.802 165.651 515.476 165.897 516.264 165.897C516.91 165.897 517.446 165.749 517.873 165.454C518.311 165.147 518.618 164.742 518.793 164.238H520.402C520.162 165.103 519.68 165.809 518.957 166.357C518.235 166.893 517.337 167.162 516.264 167.162C515.41 167.162 514.643 166.97 513.965 166.587C513.297 166.204 512.771 165.662 512.388 164.961C512.005 164.249 511.813 163.428 511.813 162.498C511.813 161.567 511.999 160.751 512.372 160.05C512.744 159.35 513.264 158.813 513.932 158.441C514.611 158.058 515.388 157.866 516.264 157.866C517.118 157.866 517.873 158.052 518.53 158.425C519.187 158.797 519.691 159.311 520.041 159.968C520.402 160.614 520.583 161.348 520.583 162.169ZM519.039 161.857C519.039 161.288 518.913 160.8 518.662 160.395C518.41 159.979 518.065 159.667 517.627 159.459C517.2 159.24 516.724 159.131 516.198 159.131C515.443 159.131 514.797 159.372 514.26 159.853C513.735 160.335 513.434 161.003 513.357 161.857H519.039Z" fill="white"/>
<path d="M530.449 167.162C529.606 167.162 528.839 166.97 528.149 166.587C527.471 166.204 526.934 165.662 526.54 164.961C526.157 164.249 525.965 163.428 525.965 162.498C525.965 161.578 526.162 160.768 526.556 160.067C526.961 159.355 527.509 158.813 528.199 158.441C528.888 158.058 529.66 157.866 530.514 157.866C531.368 157.866 532.14 158.058 532.83 158.441C533.52 158.813 534.062 159.35 534.456 160.05C534.861 160.751 535.063 161.567 535.063 162.498C535.063 163.428 534.855 164.249 534.439 164.961C534.034 165.662 533.481 166.204 532.781 166.587C532.08 166.97 531.303 167.162 530.449 167.162ZM530.449 165.848C530.985 165.848 531.489 165.722 531.96 165.47C532.43 165.218 532.808 164.841 533.093 164.337C533.388 163.833 533.536 163.22 533.536 162.498C533.536 161.775 533.394 161.162 533.109 160.658C532.824 160.155 532.452 159.782 531.992 159.541C531.533 159.29 531.034 159.164 530.498 159.164C529.95 159.164 529.447 159.29 528.987 159.541C528.538 159.782 528.177 160.155 527.903 160.658C527.629 161.162 527.493 161.775 527.493 162.498C527.493 163.231 527.624 163.85 527.887 164.353C528.16 164.857 528.522 165.235 528.971 165.486C529.419 165.727 529.912 165.848 530.449 165.848Z" fill="white"/>
<path d="M541.208 157.85C542.303 157.85 543.19 158.184 543.869 158.852C544.547 159.509 544.887 160.461 544.887 161.709V167.014H543.409V161.923C543.409 161.025 543.184 160.341 542.735 159.87C542.286 159.388 541.673 159.147 540.896 159.147C540.108 159.147 539.478 159.394 539.007 159.886C538.548 160.379 538.318 161.096 538.318 162.038V167.014H536.823V158.014H538.318V159.295C538.613 158.835 539.013 158.479 539.516 158.228C540.031 157.976 540.595 157.85 541.208 157.85Z" fill="white"/>
<path d="M553.119 159.246V164.55C553.119 164.988 553.212 165.3 553.398 165.486C553.584 165.662 553.907 165.749 554.367 165.749H555.467V167.014H554.121C553.288 167.014 552.664 166.822 552.248 166.439C551.832 166.056 551.624 165.426 551.624 164.55V159.246H550.458V158.014H551.624V155.748H553.119V158.014H555.467V159.246H553.119Z" fill="white"/>
<path d="M561.54 157.85C562.218 157.85 562.832 157.998 563.379 158.293C563.926 158.578 564.353 159.01 564.66 159.591C564.978 160.171 565.136 160.877 565.136 161.709V167.014H563.658V161.923C563.658 161.025 563.434 160.341 562.985 159.87C562.536 159.388 561.923 159.147 561.146 159.147C560.357 159.147 559.728 159.394 559.257 159.886C558.797 160.379 558.567 161.096 558.567 162.038V167.014H557.073V154.861H558.567V159.295C558.863 158.835 559.268 158.479 559.782 158.228C560.308 157.976 560.894 157.85 561.54 157.85Z" fill="white"/>
<path d="M575.584 162.169C575.584 162.454 575.567 162.755 575.534 163.072H568.341C568.396 163.959 568.697 164.654 569.244 165.158C569.803 165.651 570.476 165.897 571.264 165.897C571.91 165.897 572.447 165.749 572.874 165.454C573.312 165.147 573.618 164.742 573.794 164.238H575.403C575.162 165.103 574.68 165.809 573.958 166.357C573.235 166.893 572.337 167.162 571.264 167.162C570.41 167.162 569.644 166.97 568.965 166.587C568.297 166.204 567.772 165.662 567.389 164.961C567.005 164.249 566.814 163.428 566.814 162.498C566.814 161.567 567 160.751 567.372 160.05C567.744 159.35 568.265 158.813 568.932 158.441C569.611 158.058 570.389 157.866 571.264 157.866C572.118 157.866 572.874 158.052 573.531 158.425C574.188 158.797 574.691 159.311 575.042 159.968C575.403 160.614 575.584 161.348 575.584 162.169ZM574.04 161.857C574.04 161.288 573.914 160.8 573.662 160.395C573.41 159.979 573.065 159.667 572.628 159.459C572.201 159.24 571.724 159.131 571.199 159.131C570.443 159.131 569.797 159.372 569.261 159.853C568.735 160.335 568.434 161.003 568.358 161.857H574.04Z" fill="white"/>
<path d="M592.347 157.85C593.048 157.85 593.672 157.998 594.219 158.293C594.766 158.578 595.199 159.01 595.516 159.591C595.834 160.171 595.993 160.877 595.993 161.709V167.014H594.515V161.923C594.515 161.025 594.29 160.341 593.841 159.87C593.403 159.388 592.807 159.147 592.051 159.147C591.274 159.147 590.655 159.399 590.195 159.903C589.736 160.395 589.506 161.113 589.506 162.054V167.014H588.028V161.923C588.028 161.025 587.803 160.341 587.354 159.87C586.916 159.388 586.32 159.147 585.564 159.147C584.787 159.147 584.168 159.399 583.708 159.903C583.249 160.395 583.019 161.113 583.019 162.054V167.014H581.524V158.014H583.019V159.311C583.314 158.841 583.708 158.479 584.201 158.228C584.705 157.976 585.258 157.85 585.86 157.85C586.615 157.85 587.283 158.02 587.863 158.359C588.444 158.698 588.876 159.197 589.161 159.853C589.413 159.218 589.829 158.726 590.409 158.375C590.989 158.025 591.635 157.85 592.347 157.85Z" fill="white"/>
<path d="M597.681 162.481C597.681 161.561 597.867 160.757 598.239 160.067C598.611 159.366 599.12 158.824 599.766 158.441C600.423 158.058 601.151 157.866 601.95 157.866C602.739 157.866 603.423 158.036 604.003 158.375C604.584 158.715 605.016 159.142 605.301 159.656V158.014H606.812V167.014H605.301V165.339C605.005 165.864 604.562 166.302 603.97 166.652C603.39 166.992 602.711 167.162 601.934 167.162C601.135 167.162 600.412 166.965 599.766 166.57C599.12 166.176 598.611 165.623 598.239 164.912C597.867 164.2 597.681 163.39 597.681 162.481ZM605.301 162.498C605.301 161.819 605.164 161.227 604.89 160.724C604.616 160.22 604.244 159.837 603.773 159.574C603.314 159.301 602.804 159.164 602.246 159.164C601.688 159.164 601.179 159.295 600.719 159.558C600.259 159.821 599.892 160.204 599.618 160.707C599.345 161.211 599.208 161.802 599.208 162.481C599.208 163.171 599.345 163.773 599.618 164.288C599.892 164.791 600.259 165.18 600.719 165.454C601.179 165.716 601.688 165.848 602.246 165.848C602.804 165.848 603.314 165.716 603.773 165.454C604.244 165.18 604.616 164.791 604.89 164.288C605.164 163.773 605.301 163.176 605.301 162.498Z" fill="white"/>
<path d="M610.626 159.476C610.889 158.961 611.261 158.561 611.743 158.277C612.236 157.992 612.832 157.85 613.533 157.85V159.394H613.139C611.464 159.394 610.626 160.302 610.626 162.12V167.014H609.132V158.014H610.626V159.476Z" fill="white"/>
<path d="M620.078 167.014L616.548 163.039V167.014H615.053V154.861H616.548V162.005L620.013 158.014H622.098L617.861 162.498L622.115 167.014H620.078Z" fill="white"/>
<path d="M631.511 162.169C631.511 162.454 631.495 162.755 631.462 163.072H624.269C624.323 163.959 624.625 164.654 625.172 165.158C625.73 165.651 626.404 165.897 627.192 165.897C627.838 165.897 628.374 165.749 628.801 165.454C629.239 165.147 629.546 164.742 629.721 164.238H631.331C631.09 165.103 630.608 165.809 629.885 166.357C629.163 166.893 628.265 167.162 627.192 167.162C626.338 167.162 625.572 166.97 624.893 166.587C624.225 166.204 623.699 165.662 623.316 164.961C622.933 164.249 622.741 163.428 622.741 162.498C622.741 161.567 622.928 160.751 623.3 160.05C623.672 159.35 624.192 158.813 624.86 158.441C625.539 158.058 626.316 157.866 627.192 157.866C628.046 157.866 628.801 158.052 629.458 158.425C630.115 158.797 630.619 159.311 630.969 159.968C631.331 160.614 631.511 161.348 631.511 162.169ZM629.967 161.857C629.967 161.288 629.842 160.8 629.59 160.395C629.338 159.979 628.993 159.667 628.555 159.459C628.128 159.24 627.652 159.131 627.126 159.131C626.371 159.131 625.725 159.372 625.188 159.853C624.663 160.335 624.362 161.003 624.285 161.857H629.967Z" fill="white"/>
<path d="M635.102 159.246V164.55C635.102 164.988 635.195 165.3 635.381 165.486C635.567 165.662 635.89 165.749 636.35 165.749H637.45V167.014H636.103C635.271 167.014 634.647 166.822 634.231 166.439C633.815 166.056 633.607 165.426 633.607 164.55V159.246H632.441V158.014H633.607V155.748H635.102V158.014H637.45V159.246H635.102Z" fill="white"/>
<circle cx="10" cy="100" r="10" fill="#1DC981"/>
<g filter="url(#filter1_d_13043_14665)">
<g clip-path="url(#clip3_13043_14665)">
<path d="M211 17C211 8.16345 218.163 1 227 1H422C430.837 1 438 8.16344 438 17V202H211V17Z" fill="url(#paint3_linear_13043_14665)" fill-opacity="0.2" shape-rendering="crispEdges"/>
<rect x="223" y="16" width="203" height="47" rx="7" fill="url(#paint4_linear_13043_14665)"/>
<path fill-rule="evenodd" clip-rule="evenodd" d="M295.174 36.7616C295.174 33.3205 292.387 30.5342 288.946 30.5342C285.505 30.5342 282.719 33.3205 282.719 36.7616V44.7994H295.174V36.7616ZM285.158 36.3892C285.158 35.6702 285.736 35.0924 286.455 35.0924C287.174 35.0924 287.752 35.6702 287.752 36.3892C287.752 37.1083 287.174 37.6861 286.455 37.6861C285.736 37.6861 285.158 37.1083 285.158 36.3892ZM289.755 36.3892C289.755 35.6702 290.333 35.0924 291.052 35.0924C291.771 35.0924 292.349 35.6702 292.349 36.3892C292.349 37.1083 291.771 37.6861 291.052 37.6861C290.333 37.6861 289.755 37.1083 289.755 36.3892ZM289.986 38.7132C289.986 39.0214 289.562 39.4451 288.984 39.4451C288.407 39.4451 288.086 39.1498 287.996 38.8544C287.957 38.7517 287.944 38.4692 288.201 38.4692C288.321 38.4692 288.427 38.4889 288.54 38.5098C288.669 38.5336 288.807 38.5591 288.984 38.5591C289.159 38.5591 289.318 38.533 289.455 38.5104C289.59 38.4882 289.704 38.4693 289.793 38.4821C289.909 38.4949 289.986 38.5976 289.986 38.7132Z" fill="white"/>
<path fill-rule="evenodd" clip-rule="evenodd" d="M295.174 38.9191C295.174 33.5134 292.387 31.3691 288.946 31.3691C285.505 31.3691 282.719 33.3593 282.719 36.6464V45.262H295.174V38.9191ZM285.158 36.3896C285.158 35.6705 285.736 35.0927 286.455 35.0927C287.174 35.0927 287.752 35.6705 287.752 36.3896C287.752 37.1086 287.174 37.6864 286.455 37.6864C285.736 37.6864 285.158 37.1086 285.158 36.3896ZM289.755 36.3896C289.755 35.6705 290.333 35.0927 291.052 35.0927C291.771 35.0927 292.349 35.6705 292.349 36.3896C292.349 37.1086 291.771 37.6864 291.052 37.6864C290.333 37.6864 289.755 37.1086 289.755 36.3896ZM289.986 38.7137C289.986 39.0218 289.562 39.4456 288.984 39.4456C288.407 39.4456 288.086 39.1502 287.996 38.8549C287.957 38.7522 287.944 38.4697 288.201 38.4697C288.321 38.4697 288.427 38.4893 288.54 38.5103C288.669 38.5341 288.807 38.5596 288.984 38.5596C289.159 38.5596 289.318 38.5335 289.455 38.5109C289.59 38.4887 289.704 38.4698 289.793 38.4826C289.909 38.4954 289.986 38.5981 289.986 38.7137Z" fill="white"/>
<path fill-rule="evenodd" clip-rule="evenodd" d="M295.174 39.2529C295.174 34.0399 292.387 31.9727 288.946 31.9727C285.505 31.9727 282.719 33.8987 282.77 37.0701V48.0869C282.77 48.4592 283.066 48.7545 283.438 48.7545C283.81 48.7545 284.106 48.4592 284.106 48.0869V46.071V46.0581C284.106 45.6986 284.427 45.4161 284.812 45.4161H284.825C285.21 45.429 285.518 45.7115 285.518 46.071V46.9441C285.518 47.3165 285.813 47.6118 286.186 47.6118C286.558 47.6118 286.853 47.3165 286.853 46.9441V46.0581C286.853 45.6986 287.174 45.4161 287.56 45.4161H287.572C287.958 45.429 288.266 45.7115 288.266 46.071V46.2379C288.266 46.6103 288.561 46.9056 288.933 46.9056C289.306 46.9056 289.601 46.6103 289.601 46.2379V46.0581C289.601 45.6986 289.922 45.4161 290.307 45.4161H290.32C290.705 45.429 291.014 45.7115 291.014 46.071V46.9441C291.014 47.3165 291.309 47.6118 291.681 47.6118C292.054 47.6118 292.349 47.3165 292.349 46.9441V46.0581C292.349 45.6986 292.67 45.4161 293.055 45.4161H293.068C293.453 45.429 293.761 45.7115 293.761 46.071V48.0483C293.761 48.4335 294.069 48.7545 294.467 48.7545C294.853 48.7545 295.174 48.4464 295.174 48.0483V39.2529ZM285.158 36.3896C285.158 35.6706 285.736 35.0928 286.455 35.0928C287.174 35.0928 287.752 35.6706 287.752 36.3896C287.752 37.1087 287.174 37.6865 286.455 37.6865C285.736 37.6865 285.158 37.1087 285.158 36.3896ZM289.755 36.3896C289.755 35.6706 290.333 35.0928 291.052 35.0928C291.771 35.0928 292.349 35.6706 292.349 36.3896C292.349 37.1087 291.771 37.6865 291.052 37.6865C290.333 37.6865 289.755 37.1087 289.755 36.3896ZM289.986 38.7137C289.986 39.0218 289.562 39.4456 288.984 39.4456C288.407 39.4456 288.086 39.1502 287.996 38.8549C287.957 38.7522 287.944 38.4697 288.201 38.4697C288.321 38.4697 288.427 38.4893 288.54 38.5103C288.669 38.5341 288.807 38.5596 288.984 38.5596C289.159 38.5596 289.318 38.5335 289.455 38.5109C289.59 38.4887 289.704 38.4698 289.793 38.4826C289.909 38.4954 289.986 38.5981 289.986 38.7137Z" fill="white"/>
<path opacity="0.2563" fill-rule="evenodd" clip-rule="evenodd" d="M283.385 38.1992C283.564 38.1992 283.718 38.3533 283.718 38.5331V40.0353C283.718 40.2151 283.564 40.3692 283.385 40.3692C283.205 40.3692 283.051 40.2151 283.051 40.0353V38.5331C283.051 38.3533 283.192 38.1992 283.385 38.1992Z" fill="white"/>
<path opacity="0.2563" fill-rule="evenodd" clip-rule="evenodd" d="M294.748 40.3701C294.928 40.3701 295.082 40.5242 295.082 40.704V43.5159C295.082 43.6957 294.928 43.8498 294.748 43.8498C294.568 43.8498 294.414 43.6957 294.414 43.5159V40.704C294.414 40.5242 294.568 40.3701 294.748 40.3701Z" fill="white"/>
<path opacity="0.2563" fill-rule="evenodd" clip-rule="evenodd" d="M294.748 38.9189C294.928 38.9189 295.082 39.073 295.082 39.2528V39.5609C295.082 39.7407 294.928 39.8948 294.748 39.8948C294.568 39.8948 294.414 39.7407 294.414 39.5609V39.2528C294.414 39.0602 294.568 38.9189 294.748 38.9189Z" fill="white"/>
<path fill-rule="evenodd" clip-rule="evenodd" d="M329.133 30.5343C329.827 30.5472 330.43 30.9837 330.674 31.6129L330.713 31.7156L337.068 47.1236C337.12 47.2392 337.145 47.3547 337.145 47.4703V47.5602C337.158 47.8683 337.055 48.1765 336.837 48.4204C336.619 48.6516 336.311 48.7671 335.99 48.7543C335.759 48.7543 335.528 48.6772 335.335 48.536C335.168 48.4076 335.04 48.2535 334.937 48.0738L334.886 47.9582L328.838 32.884L326.604 38.4181H327.682C328.273 38.4181 328.761 38.8803 328.812 39.471V39.5608V39.5865C328.812 40.1772 328.35 40.6651 327.772 40.7293H327.682H325.679L322.765 47.9582C322.675 48.1893 322.508 48.3819 322.315 48.536C322.123 48.6772 321.891 48.7543 321.66 48.7543C321.339 48.7671 321.031 48.6516 320.813 48.4204C320.607 48.1893 320.492 47.8812 320.505 47.5602C320.505 47.4446 320.518 47.3419 320.556 47.2263L320.595 47.1236L323.227 40.7164H322.097C321.506 40.7164 321.018 40.2542 320.967 39.6636V39.5608C320.967 38.9702 321.429 38.4823 322.007 38.4181H322.097H324.215L326.976 31.7028C327.182 31.0479 327.772 30.5857 328.453 30.5215H328.568H329.133V30.5343ZM310.143 30.5343C310.836 30.5472 311.453 30.9709 311.696 31.6129L311.735 31.7156L318.091 47.1236C318.129 47.2263 318.155 47.3419 318.168 47.4446V47.6629C318.155 47.9454 318.052 48.2022 317.86 48.4204C317.641 48.6516 317.333 48.7671 317.012 48.7543C316.781 48.7543 316.55 48.6772 316.357 48.536C316.19 48.4076 316.062 48.2535 315.959 48.0738L315.908 47.9582L309.86 32.884L307.652 38.4181H308.73C309.334 38.4181 309.822 38.8803 309.873 39.471V39.5608V39.5865C309.873 40.19 309.411 40.6779 308.82 40.7293H308.73H306.715L303.8 47.9582C303.71 48.1893 303.543 48.3819 303.35 48.536C303.158 48.6772 302.927 48.7543 302.696 48.7543C302.375 48.7671 302.066 48.6516 301.848 48.4204C301.643 48.1893 301.527 47.8812 301.54 47.5602C301.54 47.4446 301.553 47.3419 301.591 47.2263L301.63 47.1236L304.262 40.7164H303.132C302.542 40.7164 302.054 40.2542 302.002 39.6636V39.5608C302.002 38.9702 302.465 38.4823 303.042 38.4181H303.132H305.225L307.986 31.7028C308.191 31.0479 308.782 30.5857 309.462 30.5215H309.578H310.143V30.5343ZM336.709 30.5343C336.94 30.5343 337.171 30.6114 337.364 30.7526C337.556 30.9067 337.723 31.0993 337.813 31.3304L343.861 46.4046L349.908 31.3304C350.011 31.0993 350.165 30.9067 350.358 30.7526C350.55 30.6114 350.781 30.5343 351.013 30.5343C351.321 30.5215 351.629 30.637 351.847 30.8682C352.065 31.0993 352.168 31.4074 352.168 31.7284C352.168 31.8825 352.142 32.0238 352.091 32.165L345.735 47.573C345.517 48.2664 344.875 48.7414 344.143 48.7543H343.578C342.846 48.7414 342.204 48.2664 341.986 47.573L335.63 32.165C335.579 32.0238 335.553 31.8825 335.553 31.7284C335.54 31.4074 335.656 31.1121 335.861 30.8682C336.092 30.637 336.401 30.5086 336.709 30.5343ZM366.023 30.6499C366.318 30.637 366.6 30.7654 366.806 30.9837C367.024 31.1892 367.14 31.4716 367.14 31.767C367.152 32.0623 367.024 32.3319 366.806 32.5374C366.6 32.7428 366.318 32.8584 366.023 32.8584H356.893V38.5465H365.098C365.393 38.5336 365.676 38.662 365.881 38.8803C366.087 39.0858 366.215 39.3682 366.215 39.6636C366.228 39.9589 366.1 40.2285 365.881 40.434C365.676 40.6394 365.393 40.755 365.098 40.755H356.893V46.4688H366.023C366.318 46.4559 366.6 46.5843 366.806 46.8026C367.024 47.008 367.14 47.2905 367.14 47.5858C367.152 47.8812 367.024 48.1508 366.806 48.3562C366.6 48.5617 366.318 48.6772 366.023 48.6644H355.699C355.391 48.6901 355.083 48.5617 354.877 48.3306C354.659 48.1123 354.544 47.817 354.544 47.5088V31.844C354.531 31.523 354.659 31.2277 354.877 30.9966C355.096 30.7654 355.391 30.6499 355.699 30.6627H366.023V30.6499Z" fill="white"/>
<path d="M230.485 86.14H226.555L225.925 88H223.24L227.05 77.47H230.02L233.83 88H231.115L230.485 86.14ZM229.825 84.16L228.52 80.305L227.23 84.16H229.825ZM241.545 86.14H237.615L236.985 88H234.3L238.11 77.47H241.08L244.89 88H242.175L241.545 86.14ZM240.885 84.16L239.58 80.305L238.29 84.16H240.885ZM255.934 77.47L252.199 88H248.989L245.254 77.47H247.984L250.594 85.42L253.219 77.47H255.934ZM259.571 79.525V81.655H263.006V83.635H259.571V85.945H263.456V88H257.006V77.47H263.456V79.525H259.571Z" fill="white"/>
<path d="M233.976 104.312V114H232.702V106.776L229.482 114H228.586L225.352 106.762V114H224.078V104.312H225.45L229.034 112.32L232.618 104.312H233.976ZM235.661 110.136C235.661 109.352 235.819 108.666 236.137 108.078C236.454 107.481 236.888 107.019 237.439 106.692C237.999 106.365 238.619 106.202 239.301 106.202C239.973 106.202 240.556 106.347 241.051 106.636C241.545 106.925 241.914 107.289 242.157 107.728V106.328H243.445V114H242.157V112.572C241.905 113.02 241.527 113.393 241.023 113.692C240.528 113.981 239.949 114.126 239.287 114.126C238.605 114.126 237.989 113.958 237.439 113.622C236.888 113.286 236.454 112.815 236.137 112.208C235.819 111.601 235.661 110.911 235.661 110.136ZM242.157 110.15C242.157 109.571 242.04 109.067 241.807 108.638C241.573 108.209 241.256 107.882 240.855 107.658C240.463 107.425 240.029 107.308 239.553 107.308C239.077 107.308 238.643 107.42 238.251 107.644C237.859 107.868 237.546 108.195 237.313 108.624C237.079 109.053 236.963 109.557 236.963 110.136C236.963 110.724 237.079 111.237 237.313 111.676C237.546 112.105 237.859 112.437 238.251 112.67C238.643 112.894 239.077 113.006 239.553 113.006C240.029 113.006 240.463 112.894 240.855 112.67C241.256 112.437 241.573 112.105 241.807 111.676C242.04 111.237 242.157 110.729 242.157 110.15ZM249.602 114L247.782 111.144L246.032 114H244.702L247.18 110.192L244.702 106.328H246.144L247.964 109.17L249.7 106.328H251.03L248.566 110.122L251.044 114H249.602ZM261.797 111.83H257.541L256.757 114H255.413L258.941 104.298H260.411L263.925 114H262.581L261.797 111.83ZM261.433 110.794L259.669 105.866L257.905 110.794H261.433ZM271.987 107.098C271.987 107.91 271.707 108.587 271.147 109.128C270.596 109.66 269.751 109.926 268.613 109.926H266.737V114H265.463V104.242H268.613C269.714 104.242 270.549 104.508 271.119 105.04C271.697 105.572 271.987 106.258 271.987 107.098ZM268.613 108.876C269.322 108.876 269.845 108.722 270.181 108.414C270.517 108.106 270.685 107.667 270.685 107.098C270.685 105.894 269.994 105.292 268.613 105.292H266.737V108.876H268.613ZM280.402 104.242L277.224 110.318V114H275.95V110.318L272.758 104.242H274.172L276.58 109.184L278.988 104.242H280.402Z" fill="white" fill-opacity="0.5"/>
<path d="M381.357 111.79C382.252 111.044 382.965 110.424 383.497 109.93C384.028 109.426 384.471 108.904 384.825 108.363C385.18 107.823 385.357 107.291 385.357 106.769C385.357 106.293 385.245 105.92 385.021 105.65C384.797 105.38 384.452 105.244 383.986 105.244C383.52 105.244 383.161 105.403 382.909 105.72C382.657 106.028 382.527 106.452 382.518 106.993H380.615C380.653 105.874 380.984 105.025 381.608 104.447C382.243 103.869 383.044 103.58 384.014 103.58C385.077 103.58 385.893 103.864 386.462 104.433C387.031 104.993 387.315 105.734 387.315 106.657C387.315 107.384 387.119 108.079 386.728 108.741C386.336 109.403 385.888 109.981 385.385 110.475C384.881 110.96 384.224 111.548 383.413 112.238H387.539V113.86H380.629V112.406L381.357 111.79ZM388.535 105.608V103.804H391.906V114H389.892V105.608H388.535ZM394.931 114.098C394.577 114.098 394.283 113.991 394.05 113.776C393.826 113.552 393.714 113.277 393.714 112.951C393.714 112.625 393.826 112.354 394.05 112.14C394.283 111.916 394.577 111.804 394.931 111.804C395.276 111.804 395.56 111.916 395.784 112.14C396.008 112.354 396.12 112.625 396.12 112.951C396.12 113.277 396.008 113.552 395.784 113.776C395.56 113.991 395.276 114.098 394.931 114.098ZM399.18 108.601C398.247 108.116 397.781 107.366 397.781 106.349C397.781 105.846 397.907 105.389 398.159 104.979C398.42 104.559 398.807 104.228 399.32 103.986C399.842 103.734 400.476 103.608 401.222 103.608C401.968 103.608 402.597 103.734 403.11 103.986C403.632 104.228 404.019 104.559 404.271 104.979C404.532 105.389 404.663 105.846 404.663 106.349C404.663 106.862 404.537 107.314 404.285 107.706C404.033 108.088 403.697 108.387 403.278 108.601C403.791 108.825 404.192 109.151 404.481 109.58C404.77 110.009 404.914 110.517 404.914 111.105C404.914 111.739 404.751 112.294 404.425 112.769C404.108 113.235 403.669 113.594 403.11 113.846C402.551 114.098 401.921 114.224 401.222 114.224C400.522 114.224 399.893 114.098 399.334 113.846C398.783 113.594 398.345 113.235 398.019 112.769C397.702 112.294 397.543 111.739 397.543 111.105C397.543 110.517 397.688 110.009 397.977 109.58C398.266 109.142 398.667 108.816 399.18 108.601ZM402.76 106.629C402.76 106.172 402.62 105.818 402.341 105.566C402.07 105.314 401.697 105.188 401.222 105.188C400.756 105.188 400.383 105.314 400.103 105.566C399.832 105.818 399.697 106.177 399.697 106.643C399.697 107.063 399.837 107.398 400.117 107.65C400.406 107.902 400.774 108.028 401.222 108.028C401.669 108.028 402.038 107.902 402.327 107.65C402.616 107.389 402.76 107.049 402.76 106.629ZM401.222 109.454C400.69 109.454 400.257 109.59 399.921 109.86C399.595 110.13 399.432 110.517 399.432 111.021C399.432 111.487 399.59 111.869 399.907 112.168C400.233 112.457 400.672 112.601 401.222 112.601C401.772 112.601 402.206 112.452 402.523 112.154C402.84 111.855 402.998 111.478 402.998 111.021C402.998 110.527 402.835 110.144 402.509 109.874C402.182 109.594 401.753 109.454 401.222 109.454ZM407.076 111.79C407.971 111.044 408.685 110.424 409.216 109.93C409.748 109.426 410.191 108.904 410.545 108.363C410.899 107.823 411.076 107.291 411.076 106.769C411.076 106.293 410.965 105.92 410.741 105.65C410.517 105.38 410.172 105.244 409.706 105.244C409.24 105.244 408.881 105.403 408.629 105.72C408.377 106.028 408.247 106.452 408.237 106.993H406.335C406.372 105.874 406.703 105.025 407.328 104.447C407.962 103.869 408.764 103.58 409.734 103.58C410.797 103.58 411.613 103.864 412.181 104.433C412.75 104.993 413.035 105.734 413.035 106.657C413.035 107.384 412.839 108.079 412.447 108.741C412.056 109.403 411.608 109.981 411.104 110.475C410.601 110.96 409.944 111.548 409.132 112.238H413.258V113.86H406.349V112.406L407.076 111.79ZM414.268 106.307C414.268 105.599 414.474 105.044 414.884 104.643C415.304 104.242 415.84 104.042 416.492 104.042C417.145 104.042 417.677 104.242 418.087 104.643C418.506 105.044 418.716 105.599 418.716 106.307C418.716 107.025 418.506 107.585 418.087 107.986C417.677 108.387 417.145 108.587 416.492 108.587C415.84 108.587 415.304 108.387 414.884 107.986C414.474 107.585 414.268 107.025 414.268 106.307ZM423.248 104.209L417.751 114H415.849L421.332 104.209H423.248ZM416.478 105.216C415.966 105.216 415.709 105.58 415.709 106.307C415.709 107.044 415.966 107.412 416.478 107.412C416.73 107.412 416.926 107.324 417.066 107.147C417.206 106.96 417.276 106.68 417.276 106.307C417.276 105.58 417.01 105.216 416.478 105.216ZM420.409 111.888C420.409 111.17 420.614 110.615 421.024 110.224C421.444 109.823 421.98 109.622 422.633 109.622C423.285 109.622 423.812 109.823 424.213 110.224C424.623 110.615 424.828 111.17 424.828 111.888C424.828 112.606 424.623 113.165 424.213 113.566C423.812 113.967 423.285 114.168 422.633 114.168C421.97 114.168 421.434 113.967 421.024 113.566C420.614 113.165 420.409 112.606 420.409 111.888ZM422.619 110.797C422.087 110.797 421.821 111.161 421.821 111.888C421.821 112.625 422.087 112.993 422.619 112.993C423.141 112.993 423.402 112.625 423.402 111.888C423.402 111.161 423.141 110.797 422.619 110.797Z" fill="white"/>
<path d="M230.084 130.242V131.278H227.424V140H226.15V131.278H223.476V130.242H230.084ZM232.926 133.574C233.15 133.135 233.468 132.795 233.878 132.552C234.298 132.309 234.807 132.188 235.404 132.188V133.504H235.068C233.64 133.504 232.926 134.279 232.926 135.828V140H231.652V132.328H232.926V133.574ZM243.679 132.328V140H242.405V138.866C242.162 139.258 241.822 139.566 241.383 139.79C240.954 140.005 240.478 140.112 239.955 140.112C239.358 140.112 238.821 139.991 238.345 139.748C237.869 139.496 237.491 139.123 237.211 138.628C236.94 138.133 236.805 137.531 236.805 136.822V132.328H238.065V136.654C238.065 137.41 238.256 137.993 238.639 138.404C239.022 138.805 239.544 139.006 240.207 139.006C240.888 139.006 241.425 138.796 241.817 138.376C242.209 137.956 242.405 137.345 242.405 136.542V132.328H243.679ZM248.546 140.126C247.958 140.126 247.431 140.028 246.964 139.832C246.497 139.627 246.129 139.347 245.858 138.992C245.587 138.628 245.438 138.213 245.41 137.746H246.726C246.763 138.129 246.941 138.441 247.258 138.684C247.585 138.927 248.009 139.048 248.532 139.048C249.017 139.048 249.4 138.941 249.68 138.726C249.96 138.511 250.1 138.241 250.1 137.914C250.1 137.578 249.951 137.331 249.652 137.172C249.353 137.004 248.891 136.841 248.266 136.682C247.697 136.533 247.23 136.383 246.866 136.234C246.511 136.075 246.203 135.847 245.942 135.548C245.69 135.24 245.564 134.839 245.564 134.344C245.564 133.952 245.681 133.593 245.914 133.266C246.147 132.939 246.479 132.683 246.908 132.496C247.337 132.3 247.827 132.202 248.378 132.202C249.227 132.202 249.913 132.417 250.436 132.846C250.959 133.275 251.239 133.863 251.276 134.61H250.002C249.974 134.209 249.811 133.887 249.512 133.644C249.223 133.401 248.831 133.28 248.336 133.28C247.879 133.28 247.515 133.378 247.244 133.574C246.973 133.77 246.838 134.027 246.838 134.344C246.838 134.596 246.917 134.806 247.076 134.974C247.244 135.133 247.449 135.263 247.692 135.366C247.944 135.459 248.289 135.567 248.728 135.688C249.279 135.837 249.727 135.987 250.072 136.136C250.417 136.276 250.711 136.491 250.954 136.78C251.206 137.069 251.337 137.447 251.346 137.914C251.346 138.334 251.229 138.712 250.996 139.048C250.763 139.384 250.431 139.65 250.002 139.846C249.582 140.033 249.097 140.126 248.546 140.126ZM254.698 133.378V137.9C254.698 138.273 254.778 138.539 254.936 138.698C255.095 138.847 255.37 138.922 255.762 138.922H256.7V140H255.552C254.843 140 254.311 139.837 253.956 139.51C253.602 139.183 253.424 138.647 253.424 137.9V133.378H252.43V132.328H253.424V130.396H254.698V132.328H256.7V133.378H254.698ZM264.692 140.126C264.104 140.126 263.577 140.028 263.11 139.832C262.644 139.627 262.275 139.347 262.004 138.992C261.734 138.628 261.584 138.213 261.556 137.746H262.872C262.91 138.129 263.087 138.441 263.404 138.684C263.731 138.927 264.156 139.048 264.678 139.048C265.164 139.048 265.546 138.941 265.826 138.726C266.106 138.511 266.246 138.241 266.246 137.914C266.246 137.578 266.097 137.331 265.798 137.172C265.5 137.004 265.038 136.841 264.412 136.682C263.843 136.533 263.376 136.383 263.012 136.234C262.658 136.075 262.35 135.847 262.088 135.548C261.836 135.24 261.71 134.839 261.71 134.344C261.71 133.952 261.827 133.593 262.06 133.266C262.294 132.939 262.625 132.683 263.054 132.496C263.484 132.3 263.974 132.202 264.524 132.202C265.374 132.202 266.06 132.417 266.582 132.846C267.105 133.275 267.385 133.863 267.422 134.61H266.148C266.12 134.209 265.957 133.887 265.658 133.644C265.369 133.401 264.977 133.28 264.482 133.28C264.025 133.28 263.661 133.378 263.39 133.574C263.12 133.77 262.984 134.027 262.984 134.344C262.984 134.596 263.064 134.806 263.222 134.974C263.39 135.133 263.596 135.263 263.838 135.366C264.09 135.459 264.436 135.567 264.874 135.688C265.425 135.837 265.873 135.987 266.218 136.136C266.564 136.276 266.858 136.491 267.1 136.78C267.352 137.069 267.483 137.447 267.492 137.914C267.492 138.334 267.376 138.712 267.142 139.048C266.909 139.384 266.578 139.65 266.148 139.846C265.728 140.033 265.243 140.126 264.692 140.126ZM268.815 136.15C268.815 135.357 268.974 134.666 269.291 134.078C269.608 133.481 270.047 133.019 270.607 132.692C271.176 132.365 271.825 132.202 272.553 132.202C273.496 132.202 274.27 132.431 274.877 132.888C275.493 133.345 275.899 133.98 276.095 134.792H274.723C274.592 134.325 274.336 133.957 273.953 133.686C273.58 133.415 273.113 133.28 272.553 133.28C271.825 133.28 271.237 133.532 270.789 134.036C270.341 134.531 270.117 135.235 270.117 136.15C270.117 137.074 270.341 137.788 270.789 138.292C271.237 138.796 271.825 139.048 272.553 139.048C273.113 139.048 273.58 138.917 273.953 138.656C274.326 138.395 274.583 138.021 274.723 137.536H276.095C275.89 138.32 275.479 138.95 274.863 139.426C274.247 139.893 273.477 140.126 272.553 140.126C271.825 140.126 271.176 139.963 270.607 139.636C270.047 139.309 269.608 138.847 269.291 138.25C268.974 137.653 268.815 136.953 268.815 136.15ZM281.141 140.126C280.422 140.126 279.769 139.963 279.181 139.636C278.602 139.309 278.145 138.847 277.809 138.25C277.482 137.643 277.319 136.943 277.319 136.15C277.319 135.366 277.487 134.675 277.823 134.078C278.168 133.471 278.635 133.009 279.223 132.692C279.811 132.365 280.469 132.202 281.197 132.202C281.925 132.202 282.583 132.365 283.171 132.692C283.759 133.009 284.221 133.467 284.557 134.064C284.902 134.661 285.075 135.357 285.075 136.15C285.075 136.943 284.897 137.643 284.543 138.25C284.197 138.847 283.726 139.309 283.129 139.636C282.531 139.963 281.869 140.126 281.141 140.126ZM281.141 139.006C281.598 139.006 282.027 138.899 282.429 138.684C282.83 138.469 283.152 138.147 283.395 137.718C283.647 137.289 283.773 136.766 283.773 136.15C283.773 135.534 283.651 135.011 283.409 134.582C283.166 134.153 282.849 133.835 282.457 133.63C282.065 133.415 281.64 133.308 281.183 133.308C280.716 133.308 280.287 133.415 279.895 133.63C279.512 133.835 279.204 134.153 278.971 134.582C278.737 135.011 278.621 135.534 278.621 136.15C278.621 136.775 278.733 137.303 278.957 137.732C279.19 138.161 279.498 138.483 279.881 138.698C280.263 138.903 280.683 139.006 281.141 139.006ZM288.024 133.574C288.248 133.135 288.565 132.795 288.976 132.552C289.396 132.309 289.905 132.188 290.502 132.188V133.504H290.166C288.738 133.504 288.024 134.279 288.024 135.828V140H286.75V132.328H288.024V133.574ZM298.973 135.87C298.973 136.113 298.959 136.369 298.931 136.64H292.799C292.845 137.396 293.102 137.989 293.569 138.418C294.045 138.838 294.619 139.048 295.291 139.048C295.841 139.048 296.299 138.922 296.663 138.67C297.036 138.409 297.297 138.063 297.447 137.634H298.819C298.613 138.371 298.203 138.973 297.587 139.44C296.971 139.897 296.205 140.126 295.291 140.126C294.563 140.126 293.909 139.963 293.331 139.636C292.761 139.309 292.313 138.847 291.987 138.25C291.66 137.643 291.497 136.943 291.497 136.15C291.497 135.357 291.655 134.661 291.973 134.064C292.29 133.467 292.733 133.009 293.303 132.692C293.881 132.365 294.544 132.202 295.291 132.202C296.019 132.202 296.663 132.361 297.223 132.678C297.783 132.995 298.212 133.434 298.511 133.994C298.819 134.545 298.973 135.17 298.973 135.87ZM297.657 135.604C297.657 135.119 297.549 134.703 297.335 134.358C297.12 134.003 296.826 133.737 296.453 133.56C296.089 133.373 295.683 133.28 295.235 133.28C294.591 133.28 294.04 133.485 293.583 133.896C293.135 134.307 292.878 134.876 292.813 135.604H297.657Z" fill="white" fill-opacity="0.5"/>
<path d="M384 137L388 133L392 137" stroke="#1DC981" stroke-width="2"/>
<path d="M399.154 137.098C399.23 137.513 399.4 137.834 399.664 138.061C399.937 138.278 400.301 138.386 400.754 138.386C401.339 138.386 401.764 138.145 402.028 137.664C402.292 137.173 402.424 136.352 402.424 135.201C402.207 135.503 401.901 135.739 401.504 135.909C401.117 136.079 400.697 136.163 400.244 136.163C399.64 136.163 399.093 136.041 398.602 135.795C398.121 135.541 397.738 135.168 397.455 134.677C397.172 134.177 397.031 133.573 397.031 132.865C397.031 131.817 397.342 130.987 397.965 130.373C398.588 129.75 399.437 129.439 400.513 129.439C401.853 129.439 402.797 129.868 403.345 130.727C403.901 131.586 404.18 132.879 404.18 134.606C404.18 135.833 404.071 136.838 403.854 137.622C403.647 138.405 403.283 139 402.764 139.405C402.254 139.811 401.556 140.014 400.669 140.014C399.97 140.014 399.376 139.882 398.885 139.618C398.394 139.344 398.017 138.99 397.753 138.556C397.498 138.112 397.351 137.626 397.314 137.098H399.154ZM400.655 134.55C401.146 134.55 401.532 134.399 401.816 134.097C402.099 133.795 402.24 133.389 402.24 132.879C402.24 132.322 402.089 131.893 401.787 131.591C401.495 131.279 401.094 131.124 400.584 131.124C400.074 131.124 399.668 131.284 399.366 131.605C399.074 131.916 398.928 132.332 398.928 132.851C398.928 133.351 399.069 133.762 399.352 134.082C399.645 134.394 400.079 134.55 400.655 134.55ZM406.827 140.099C406.468 140.099 406.171 139.991 405.935 139.773C405.708 139.547 405.595 139.269 405.595 138.938C405.595 138.608 405.708 138.334 405.935 138.117C406.171 137.891 406.468 137.777 406.827 137.777C407.176 137.777 407.464 137.891 407.69 138.117C407.917 138.334 408.03 138.608 408.03 138.938C408.03 139.269 407.917 139.547 407.69 139.773C407.464 139.991 407.176 140.099 406.827 140.099ZM410.023 137.763C410.929 137.008 411.651 136.381 412.189 135.88C412.727 135.371 413.175 134.842 413.534 134.295C413.893 133.747 414.072 133.209 414.072 132.681C414.072 132.2 413.959 131.822 413.732 131.548C413.506 131.275 413.156 131.138 412.684 131.138C412.213 131.138 411.849 131.298 411.594 131.619C411.34 131.931 411.207 132.36 411.198 132.907H409.273C409.31 131.775 409.645 130.916 410.278 130.331C410.92 129.746 411.731 129.453 412.713 129.453C413.789 129.453 414.615 129.741 415.19 130.317C415.766 130.883 416.054 131.633 416.054 132.568C416.054 133.304 415.856 134.007 415.459 134.677C415.063 135.347 414.61 135.932 414.1 136.432C413.59 136.923 412.925 137.518 412.104 138.216H416.28V139.858H409.287V138.386L410.023 137.763ZM424.466 131.393H419.879V133.813C420.077 133.568 420.361 133.37 420.729 133.219C421.097 133.058 421.488 132.978 421.904 132.978C422.659 132.978 423.277 133.143 423.758 133.474C424.24 133.804 424.589 134.229 424.806 134.748C425.023 135.257 425.131 135.805 425.131 136.39C425.131 137.475 424.82 138.348 424.197 139.009C423.584 139.67 422.706 140 421.564 140C420.488 140 419.629 139.731 418.987 139.193C418.346 138.655 417.982 137.952 417.897 137.084H419.823C419.908 137.461 420.096 137.763 420.389 137.99C420.691 138.216 421.073 138.329 421.536 138.329C422.092 138.329 422.512 138.155 422.796 137.806C423.079 137.456 423.22 136.994 423.22 136.418C423.22 135.833 423.074 135.39 422.781 135.088C422.498 134.776 422.078 134.62 421.521 134.62C421.125 134.62 420.795 134.719 420.53 134.918C420.266 135.116 420.077 135.38 419.964 135.71H418.067V129.651H424.466V131.393Z" fill="#1DC981"/>
<path d="M230.084 156.242V157.278H227.424V166H226.15V157.278H223.476V156.242H230.084ZM239.716 156.242L236.034 166H234.564L230.882 156.242H232.24L235.306 164.656L238.372 156.242H239.716ZM242.387 164.964H245.803V166H241.113V156.242H242.387V164.964Z" fill="white" fill-opacity="0.5"/>
<path d="M386.93 163.189C386.93 163.674 386.805 164.13 386.553 164.559C386.31 164.979 385.947 165.329 385.462 165.608C384.986 165.879 384.422 166.037 383.769 166.084V167.217H382.874V166.07C381.942 165.986 381.191 165.706 380.622 165.231C380.054 164.746 379.76 164.093 379.741 163.273H381.839C381.895 163.944 382.24 164.35 382.874 164.489V161.818C382.203 161.65 381.662 161.482 381.252 161.314C380.842 161.147 380.487 160.876 380.189 160.503C379.89 160.13 379.741 159.622 379.741 158.979C379.741 158.167 380.03 157.505 380.608 156.993C381.196 156.48 381.951 156.186 382.874 156.111V154.979H383.769V156.111C384.665 156.186 385.378 156.456 385.909 156.923C386.45 157.389 386.753 158.032 386.819 158.853H384.707C384.679 158.582 384.581 158.349 384.413 158.153C384.254 157.948 384.04 157.804 383.769 157.72V160.363C384.469 160.541 385.019 160.713 385.42 160.881C385.83 161.039 386.184 161.305 386.483 161.678C386.781 162.042 386.93 162.545 386.93 163.189ZM381.783 158.881C381.783 159.189 381.877 159.44 382.063 159.636C382.25 159.823 382.52 159.976 382.874 160.098V157.678C382.539 157.725 382.273 157.85 382.077 158.056C381.881 158.261 381.783 158.536 381.783 158.881ZM383.769 164.517C384.124 164.452 384.399 164.308 384.595 164.084C384.8 163.86 384.902 163.59 384.902 163.273C384.902 162.965 384.804 162.718 384.609 162.531C384.413 162.345 384.133 162.191 383.769 162.07V164.517ZM389.508 163.79C390.403 163.044 391.117 162.424 391.648 161.93C392.18 161.426 392.622 160.904 392.977 160.363C393.331 159.823 393.508 159.291 393.508 158.769C393.508 158.293 393.396 157.92 393.173 157.65C392.949 157.38 392.604 157.244 392.138 157.244C391.671 157.244 391.312 157.403 391.061 157.72C390.809 158.028 390.678 158.452 390.669 158.993H388.767C388.804 157.874 389.135 157.025 389.76 156.447C390.394 155.869 391.196 155.58 392.166 155.58C393.229 155.58 394.044 155.864 394.613 156.433C395.182 156.993 395.466 157.734 395.466 158.657C395.466 159.384 395.271 160.079 394.879 160.741C394.487 161.403 394.04 161.981 393.536 162.475C393.033 162.96 392.375 163.548 391.564 164.238H395.69V165.86H388.781V164.406L389.508 163.79ZM398.015 166.098C397.661 166.098 397.367 165.991 397.134 165.776C396.91 165.552 396.798 165.277 396.798 164.951C396.798 164.625 396.91 164.354 397.134 164.14C397.367 163.916 397.661 163.804 398.015 163.804C398.36 163.804 398.644 163.916 398.868 164.14C399.092 164.354 399.204 164.625 399.204 164.951C399.204 165.277 399.092 165.552 398.868 165.776C398.644 165.991 398.36 166.098 398.015 166.098ZM407.047 157.286L403.327 166H401.341L405.089 157.51H400.306V155.832H407.047V157.286ZM413.507 158.349C413.414 157.958 413.251 157.664 413.017 157.468C412.794 157.272 412.467 157.174 412.038 157.174C411.395 157.174 410.919 157.436 410.612 157.958C410.313 158.471 410.159 159.31 410.15 160.475C410.374 160.102 410.7 159.813 411.129 159.608C411.558 159.394 412.024 159.286 412.528 159.286C413.134 159.286 413.67 159.417 414.136 159.678C414.603 159.939 414.966 160.321 415.227 160.825C415.488 161.319 415.619 161.916 415.619 162.615C415.619 163.277 415.484 163.869 415.213 164.392C414.952 164.904 414.565 165.305 414.052 165.594C413.54 165.883 412.929 166.028 412.22 166.028C411.25 166.028 410.486 165.814 409.926 165.385C409.376 164.956 408.989 164.359 408.765 163.594C408.551 162.82 408.444 161.869 408.444 160.741C408.444 159.035 408.737 157.748 409.325 156.881C409.912 156.004 410.84 155.566 412.108 155.566C413.087 155.566 413.847 155.832 414.388 156.363C414.929 156.895 415.241 157.557 415.325 158.349H413.507ZM412.08 160.895C411.586 160.895 411.171 161.039 410.835 161.328C410.5 161.618 410.332 162.037 410.332 162.587C410.332 163.137 410.486 163.571 410.794 163.888C411.111 164.205 411.553 164.364 412.122 164.364C412.626 164.364 413.022 164.21 413.311 163.902C413.609 163.594 413.759 163.179 413.759 162.657C413.759 162.116 413.614 161.687 413.325 161.37C413.045 161.053 412.63 160.895 412.08 160.895ZM422.929 160.993C423.479 161.095 423.931 161.37 424.286 161.818C424.64 162.266 424.817 162.778 424.817 163.357C424.817 163.879 424.687 164.34 424.426 164.741C424.174 165.133 423.806 165.441 423.321 165.664C422.836 165.888 422.262 166 421.6 166H417.39V156.237H421.418C422.08 156.237 422.649 156.345 423.125 156.559C423.61 156.773 423.973 157.072 424.216 157.454C424.468 157.836 424.593 158.27 424.593 158.755C424.593 159.324 424.44 159.799 424.132 160.182C423.833 160.564 423.433 160.834 422.929 160.993ZM419.348 160.265H421.139C421.605 160.265 421.964 160.163 422.216 159.958C422.467 159.743 422.593 159.44 422.593 159.049C422.593 158.657 422.467 158.354 422.216 158.14C421.964 157.925 421.605 157.818 421.139 157.818H419.348V160.265ZM421.321 164.406C421.796 164.406 422.164 164.294 422.425 164.07C422.696 163.846 422.831 163.529 422.831 163.119C422.831 162.699 422.691 162.373 422.412 162.14C422.132 161.897 421.754 161.776 421.279 161.776H419.348V164.406H421.321Z" fill="white"/>
<path d="M229.846 189.83H225.59L224.806 192H223.462L226.99 182.298H228.46L231.974 192H230.63L229.846 189.83ZM229.482 188.794L227.718 183.866L225.954 188.794H229.482ZM236.228 192.126C235.64 192.126 235.112 192.028 234.646 191.832C234.179 191.627 233.81 191.347 233.54 190.992C233.269 190.628 233.12 190.213 233.092 189.746H234.408C234.445 190.129 234.622 190.441 234.94 190.684C235.266 190.927 235.691 191.048 236.214 191.048C236.699 191.048 237.082 190.941 237.362 190.726C237.642 190.511 237.782 190.241 237.782 189.914C237.782 189.578 237.632 189.331 237.334 189.172C237.035 189.004 236.573 188.841 235.948 188.682C235.378 188.533 234.912 188.383 234.548 188.234C234.193 188.075 233.885 187.847 233.624 187.548C233.372 187.24 233.246 186.839 233.246 186.344C233.246 185.952 233.362 185.593 233.596 185.266C233.829 184.939 234.16 184.683 234.59 184.496C235.019 184.3 235.509 184.202 236.06 184.202C236.909 184.202 237.595 184.417 238.118 184.846C238.64 185.275 238.92 185.863 238.958 186.61H237.684C237.656 186.209 237.492 185.887 237.194 185.644C236.904 185.401 236.512 185.28 236.018 185.28C235.56 185.28 235.196 185.378 234.926 185.574C234.655 185.77 234.52 186.027 234.52 186.344C234.52 186.596 234.599 186.806 234.758 186.974C234.926 187.133 235.131 187.263 235.374 187.366C235.626 187.459 235.971 187.567 236.41 187.688C236.96 187.837 237.408 187.987 237.754 188.136C238.099 188.276 238.393 188.491 238.636 188.78C238.888 189.069 239.018 189.447 239.028 189.914C239.028 190.334 238.911 190.712 238.678 191.048C238.444 191.384 238.113 191.65 237.684 191.846C237.264 192.033 236.778 192.126 236.228 192.126ZM243.542 192.126C242.954 192.126 242.427 192.028 241.96 191.832C241.493 191.627 241.125 191.347 240.854 190.992C240.583 190.628 240.434 190.213 240.406 189.746H241.722C241.759 190.129 241.937 190.441 242.254 190.684C242.581 190.927 243.005 191.048 243.528 191.048C244.013 191.048 244.396 190.941 244.676 190.726C244.956 190.511 245.096 190.241 245.096 189.914C245.096 189.578 244.947 189.331 244.648 189.172C244.349 189.004 243.887 188.841 243.262 188.682C242.693 188.533 242.226 188.383 241.862 188.234C241.507 188.075 241.199 187.847 240.938 187.548C240.686 187.24 240.56 186.839 240.56 186.344C240.56 185.952 240.677 185.593 240.91 185.266C241.143 184.939 241.475 184.683 241.904 184.496C242.333 184.3 242.823 184.202 243.374 184.202C244.223 184.202 244.909 184.417 245.432 184.846C245.955 185.275 246.235 185.863 246.272 186.61H244.998C244.97 186.209 244.807 185.887 244.508 185.644C244.219 185.401 243.827 185.28 243.332 185.28C242.875 185.28 242.511 185.378 242.24 185.574C241.969 185.77 241.834 186.027 241.834 186.344C241.834 186.596 241.913 186.806 242.072 186.974C242.24 187.133 242.445 187.263 242.688 187.366C242.94 187.459 243.285 187.567 243.724 187.688C244.275 187.837 244.723 187.987 245.068 188.136C245.413 188.276 245.707 188.491 245.95 188.78C246.202 189.069 246.333 189.447 246.342 189.914C246.342 190.334 246.225 190.712 245.992 191.048C245.759 191.384 245.427 191.65 244.998 191.846C244.578 192.033 244.093 192.126 243.542 192.126ZM255.141 187.87C255.141 188.113 255.127 188.369 255.099 188.64H248.967C249.013 189.396 249.27 189.989 249.737 190.418C250.213 190.838 250.787 191.048 251.459 191.048C252.009 191.048 252.467 190.922 252.831 190.67C253.204 190.409 253.465 190.063 253.615 189.634H254.987C254.781 190.371 254.371 190.973 253.755 191.44C253.139 191.897 252.373 192.126 251.459 192.126C250.731 192.126 250.077 191.963 249.499 191.636C248.929 191.309 248.481 190.847 248.155 190.25C247.828 189.643 247.665 188.943 247.665 188.15C247.665 187.357 247.823 186.661 248.141 186.064C248.458 185.467 248.901 185.009 249.471 184.692C250.049 184.365 250.712 184.202 251.459 184.202C252.187 184.202 252.831 184.361 253.391 184.678C253.951 184.995 254.38 185.434 254.679 185.994C254.987 186.545 255.141 187.17 255.141 187.87ZM253.825 187.604C253.825 187.119 253.717 186.703 253.503 186.358C253.288 186.003 252.994 185.737 252.621 185.56C252.257 185.373 251.851 185.28 251.403 185.28C250.759 185.28 250.208 185.485 249.751 185.896C249.303 186.307 249.046 186.876 248.981 187.604H253.825ZM258.376 185.378V189.9C258.376 190.273 258.455 190.539 258.614 190.698C258.773 190.847 259.048 190.922 259.44 190.922H260.378V192H259.23C258.521 192 257.989 191.837 257.634 191.51C257.279 191.183 257.102 190.647 257.102 189.9V185.378H256.108V184.328H257.102V182.396H258.376V184.328H260.378V185.378H258.376ZM264.638 192.126C264.05 192.126 263.522 192.028 263.056 191.832C262.589 191.627 262.22 191.347 261.95 190.992C261.679 190.628 261.53 190.213 261.502 189.746H262.818C262.855 190.129 263.032 190.441 263.35 190.684C263.676 190.927 264.101 191.048 264.624 191.048C265.109 191.048 265.492 190.941 265.772 190.726C266.052 190.511 266.192 190.241 266.192 189.914C266.192 189.578 266.042 189.331 265.744 189.172C265.445 189.004 264.983 188.841 264.358 188.682C263.788 188.533 263.322 188.383 262.958 188.234C262.603 188.075 262.295 187.847 262.034 187.548C261.782 187.24 261.656 186.839 261.656 186.344C261.656 185.952 261.772 185.593 262.006 185.266C262.239 184.939 262.57 184.683 263 184.496C263.429 184.3 263.919 184.202 264.47 184.202C265.319 184.202 266.005 184.417 266.528 184.846C267.05 185.275 267.33 185.863 267.368 186.61H266.094C266.066 186.209 265.902 185.887 265.604 185.644C265.314 185.401 264.922 185.28 264.428 185.28C263.97 185.28 263.606 185.378 263.336 185.574C263.065 185.77 262.93 186.027 262.93 186.344C262.93 186.596 263.009 186.806 263.168 186.974C263.336 187.133 263.541 187.263 263.784 187.366C264.036 187.459 264.381 187.567 264.82 187.688C265.37 187.837 265.818 187.987 266.164 188.136C266.509 188.276 266.803 188.491 267.046 188.78C267.298 189.069 267.428 189.447 267.438 189.914C267.438 190.334 267.321 190.712 267.088 191.048C266.854 191.384 266.523 191.65 266.094 191.846C265.674 192.033 265.188 192.126 264.638 192.126Z" fill="white" fill-opacity="0.5"/>
<path d="M423.028 184.349C422.935 183.958 422.772 183.664 422.539 183.468C422.315 183.272 421.989 183.174 421.56 183.174C420.916 183.174 420.441 183.436 420.133 183.958C419.835 184.471 419.681 185.31 419.671 186.475C419.895 186.102 420.222 185.813 420.651 185.608C421.079 185.394 421.546 185.286 422.049 185.286C422.655 185.286 423.191 185.417 423.658 185.678C424.124 185.939 424.488 186.321 424.749 186.825C425.01 187.319 425.14 187.916 425.14 188.615C425.14 189.277 425.005 189.869 424.735 190.392C424.474 190.904 424.087 191.305 423.574 191.594C423.061 191.883 422.45 192.028 421.741 192.028C420.772 192.028 420.007 191.814 419.448 191.385C418.898 190.956 418.511 190.359 418.287 189.594C418.072 188.82 417.965 187.869 417.965 186.741C417.965 185.035 418.259 183.748 418.846 182.881C419.434 182.004 420.361 181.566 421.63 181.566C422.609 181.566 423.369 181.832 423.909 182.363C424.45 182.895 424.763 183.557 424.847 184.349H423.028ZM421.602 186.895C421.107 186.895 420.692 187.039 420.357 187.328C420.021 187.618 419.853 188.037 419.853 188.587C419.853 189.137 420.007 189.571 420.315 189.888C420.632 190.205 421.075 190.364 421.644 190.364C422.147 190.364 422.543 190.21 422.832 189.902C423.131 189.594 423.28 189.179 423.28 188.657C423.28 188.116 423.135 187.687 422.846 187.37C422.567 187.053 422.152 186.895 421.602 186.895Z" fill="white"/>
</g>
<path d="M211.5 17C211.5 8.43959 218.44 1.5 227 1.5H422C430.56 1.5 437.5 8.43959 437.5 17V201.5H211.5V17Z" stroke="white" stroke-opacity="0.1" shape-rendering="crispEdges"/>
</g>
</g>
<defs>
<filter id="filter0_f_13043_14665" x="310.591" y="-264.445" width="1513.72" height="1127.52" filterUnits="userSpaceOnUse" color-interpolation-filters="sRGB">
<feFlood flood-opacity="0" result="BackgroundImageFix"/>
<feBlend mode="normal" in="SourceGraphic" in2="BackgroundImageFix" result="shape"/>
<feGaussianBlur stdDeviation="200" result="effect1_foregroundBlur_13043_14665"/>
</filter>
<filter id="filter1_d_13043_14665" x="160" y="-47" width="307" height="281" filterUnits="userSpaceOnUse" color-interpolation-filters="sRGB">
<feFlood flood-opacity="0" result="BackgroundImageFix"/>
<feColorMatrix in="SourceAlpha" type="matrix" values="0 0 0 0 0 0 0 0 0 0 0 0 0 0 0 0 0 0 127 0" result="hardAlpha"/>
<feOffset dx="-11" dy="-8"/>
<feGaussianBlur stdDeviation="20"/>
<feComposite in2="hardAlpha" operator="out"/>
<feColorMatrix type="matrix" values="0 0 0 0 0 0 0 0 0 0 0 0 0 0 0 0 0 0 0.3 0"/>
<feBlend mode="normal" in2="BackgroundImageFix" result="effect1_dropShadow_13043_14665"/>
<feBlend mode="normal" in="SourceGraphic" in2="effect1_dropShadow_13043_14665" result="shape"/>
</filter>
<radialGradient id="paint0_angular_13043_14665" cx="0" cy="0" r="1" gradientUnits="userSpaceOnUse" gradientTransform="translate(552 102) rotate(90) scale(100 542)">
<stop offset="0.264473" stop-color="#1DC981"/>
<stop offset="0.503503" stop-color="#1DC981" stop-opacity="0"/>
<stop offset="0.608804" stop-color="#1DC981" stop-opacity="0.629183"/>
<stop offset="0.913576" stop-color="#1DC981" stop-opacity="0.725116"/>
</radialGradient>
<linearGradient id="paint1_linear_13043_14665" x1="514.566" y1="48.3007" x2="490.44" y2="68.6003" gradientUnits="userSpaceOnUse">
<stop stop-color="#B6509E"/>
<stop offset="1" stop-color="#2EBAC6"/>
</linearGradient>
<linearGradient id="paint2_linear_13043_14665" x1="791.376" y1="92.0762" x2="1102" y2="92.0762" gradientUnits="userSpaceOnUse">
<stop stop-color="white"/>
<stop offset="1" stop-color="white" stop-opacity="0"/>
</linearGradient>
<linearGradient id="paint3_linear_13043_14665" x1="324.5" y1="1" x2="324.5" y2="202" gradientUnits="userSpaceOnUse">
<stop stop-color="#313F54"/>
<stop offset="1" stop-color="#1DC981"/>
</linearGradient>
<linearGradient id="paint4_linear_13043_14665" x1="425.808" y1="16" x2="233.87" y2="95.0061" gradientUnits="userSpaceOnUse">
<stop stop-color="#B3529F"/>
<stop offset="1" stop-color="#31B8C4"/>
</linearGradient>
<clipPath id="clip0_13043_14665">
<rect width="1096" height="203" rx="16" fill="white"/>
</clipPath>
<clipPath id="clip1_13043_14665">
<rect width="32.7874" height="32.7874" fill="white" transform="translate(486.083 42.0823)"/>
</clipPath>
<clipPath id="clip2_13043_14665">
<rect width="10.0193" height="10.0193" fill="white" transform="matrix(1 0 0 -1 534.095 73.4854)"/>
</clipPath>
<clipPath id="clip3_13043_14665">
<path d="M211 17C211 8.16345 218.163 1 227 1H422C430.837 1 438 8.16344 438 17V202H211V17Z" fill="white"/>
</clipPath>
</defs>
</svg>
