<svg width="364" height="151" viewBox="0 0 364 151" fill="none" xmlns="http://www.w3.org/2000/svg">
<g clip-path="url(#clip0_13043_16350)">
<g clip-path="url(#clip1_13043_16350)">
<path d="M152 14.8665C152 8.31283 157.313 3 163.867 3H309.133C315.687 3 321 8.31284 321 14.8666V149H152V14.8665Z" fill="url(#paint0_linear_13043_16350)" fill-opacity="0.2"/>
<rect x="162" y="13" width="149" height="34.858" rx="5.19162" fill="url(#paint1_linear_13043_16350)"/>
<path fill-rule="evenodd" clip-rule="evenodd" d="M215.791 28.8569C215.791 26.3048 213.725 24.2383 211.173 24.2383C208.621 24.2383 206.554 26.3048 206.554 28.8569V34.8182H215.791V28.8569ZM208.364 28.5807C208.364 28.0474 208.792 27.6189 209.325 27.6189C209.859 27.6189 210.287 28.0474 210.287 28.5807C210.287 29.114 209.859 29.5425 209.325 29.5425C208.792 29.5425 208.364 29.114 208.364 28.5807ZM211.773 28.5807C211.773 28.0474 212.201 27.6189 212.735 27.6189C213.268 27.6189 213.696 28.0474 213.696 28.5807C213.696 29.114 213.268 29.5425 212.735 29.5425C212.201 29.5425 211.773 29.114 211.773 28.5807ZM211.944 30.3043C211.944 30.5329 211.63 30.8471 211.201 30.8471C210.773 30.8471 210.535 30.6281 210.468 30.4091C210.439 30.3329 210.43 30.1234 210.62 30.1234C210.709 30.1234 210.788 30.1379 210.872 30.1535C210.967 30.1711 211.069 30.1901 211.201 30.1901C211.331 30.1901 211.448 30.1707 211.55 30.1539C211.65 30.1374 211.735 30.1235 211.801 30.1329C211.887 30.1424 211.944 30.2186 211.944 30.3043Z" fill="white"/>
<path fill-rule="evenodd" clip-rule="evenodd" d="M215.791 30.4571C215.791 26.448 213.725 24.8577 211.173 24.8577C208.62 24.8577 206.554 26.3337 206.554 28.7716V35.1615H215.791V30.4571ZM208.363 28.5811C208.363 28.0478 208.792 27.6193 209.325 27.6193C209.858 27.6193 210.287 28.0478 210.287 28.5811C210.287 29.1144 209.858 29.5429 209.325 29.5429C208.792 29.5429 208.363 29.1144 208.363 28.5811ZM211.773 28.5811C211.773 28.0478 212.201 27.6193 212.734 27.6193C213.268 27.6193 213.696 28.0478 213.696 28.5811C213.696 29.1144 213.268 29.5429 212.734 29.5429C212.201 29.5429 211.773 29.1144 211.773 28.5811ZM211.944 30.3048C211.944 30.5334 211.63 30.8476 211.201 30.8476C210.772 30.8476 210.534 30.6286 210.468 30.4096C210.439 30.3334 210.43 30.1239 210.62 30.1239C210.709 30.1239 210.788 30.1384 210.871 30.1539C210.967 30.1716 211.069 30.1905 211.201 30.1905C211.331 30.1905 211.448 30.1712 211.55 30.1544C211.65 30.1379 211.735 30.124 211.801 30.1334C211.887 30.1429 211.944 30.2191 211.944 30.3048Z" fill="white"/>
<path fill-rule="evenodd" clip-rule="evenodd" d="M215.791 30.7047C215.791 26.8384 213.724 25.3052 211.172 25.3052C208.62 25.3052 206.553 26.7336 206.592 29.0858V37.2564C206.592 37.5326 206.811 37.7516 207.087 37.7516C207.363 37.7516 207.582 37.5326 207.582 37.2564V35.7613V35.7518C207.582 35.4852 207.82 35.2757 208.106 35.2757H208.115C208.401 35.2852 208.629 35.4947 208.629 35.7613V36.4089C208.629 36.6851 208.849 36.9041 209.125 36.9041C209.401 36.9041 209.62 36.6851 209.62 36.4089V35.7518C209.62 35.4852 209.858 35.2757 210.144 35.2757H210.153C210.439 35.2852 210.667 35.4947 210.667 35.7613V35.8851C210.667 36.1613 210.886 36.3803 211.163 36.3803C211.439 36.3803 211.658 36.1613 211.658 35.8851V35.7518C211.658 35.4852 211.896 35.2757 212.182 35.2757H212.191C212.477 35.2852 212.705 35.4947 212.705 35.7613V36.4089C212.705 36.6851 212.924 36.9041 213.2 36.9041C213.477 36.9041 213.696 36.6851 213.696 36.4089V35.7518C213.696 35.4852 213.934 35.2757 214.219 35.2757H214.229C214.515 35.2852 214.743 35.4947 214.743 35.7613V37.2279C214.743 37.5135 214.972 37.7516 215.267 37.7516C215.553 37.7516 215.791 37.5231 215.791 37.2279V30.7047ZM208.363 28.5811C208.363 28.0478 208.791 27.6192 209.325 27.6192C209.858 27.6192 210.286 28.0478 210.286 28.5811C210.286 29.1143 209.858 29.5429 209.325 29.5429C208.791 29.5429 208.363 29.1143 208.363 28.5811ZM211.772 28.5811C211.772 28.0478 212.201 27.6192 212.734 27.6192C213.267 27.6192 213.696 28.0478 213.696 28.5811C213.696 29.1143 213.267 29.5429 212.734 29.5429C212.201 29.5429 211.772 29.1143 211.772 28.5811ZM211.943 30.3047C211.943 30.5333 211.629 30.8475 211.2 30.8475C210.772 30.8475 210.534 30.6285 210.467 30.4095C210.439 30.3333 210.429 30.1238 210.62 30.1238C210.709 30.1238 210.787 30.1383 210.871 30.1539C210.966 30.1715 211.069 30.1905 211.2 30.1905C211.33 30.1905 211.448 30.1711 211.549 30.1543C211.649 30.1378 211.734 30.1239 211.8 30.1333C211.886 30.1428 211.943 30.219 211.943 30.3047Z" fill="white"/>
<path opacity="0.2563" fill-rule="evenodd" clip-rule="evenodd" d="M207.048 29.9231C207.181 29.9231 207.296 30.0374 207.296 30.1707V31.2849C207.296 31.4182 207.181 31.5325 207.048 31.5325C206.915 31.5325 206.801 31.4182 206.801 31.2849V30.1707C206.801 30.0374 206.905 29.9231 207.048 29.9231Z" fill="white"/>
<path opacity="0.2563" fill-rule="evenodd" clip-rule="evenodd" d="M215.477 31.5337C215.61 31.5337 215.724 31.648 215.724 31.7813V33.8668C215.724 34.0001 215.61 34.1144 215.477 34.1144C215.343 34.1144 215.229 34.0001 215.229 33.8668V31.7813C215.229 31.648 215.343 31.5337 215.477 31.5337Z" fill="white"/>
<path opacity="0.2563" fill-rule="evenodd" clip-rule="evenodd" d="M215.477 30.4568C215.61 30.4568 215.724 30.5711 215.724 30.7044V30.9329C215.724 31.0663 215.61 31.1805 215.477 31.1805C215.343 31.1805 215.229 31.0663 215.229 30.9329V30.7044C215.229 30.5615 215.343 30.4568 215.477 30.4568Z" fill="white"/>
<path fill-rule="evenodd" clip-rule="evenodd" d="M240.979 24.2385C241.493 24.248 241.941 24.5718 242.122 25.0385L242.15 25.1146L246.864 36.5421C246.902 36.6278 246.921 36.7135 246.921 36.7992V36.8659C246.931 37.0945 246.855 37.323 246.693 37.5039C246.531 37.6754 246.302 37.7611 246.064 37.7515C245.893 37.7515 245.722 37.6944 245.579 37.5896C245.455 37.4944 245.36 37.3801 245.283 37.2468L245.245 37.1611L240.76 25.9812L239.103 30.0856H239.903C240.341 30.0856 240.703 30.4284 240.741 30.8665V30.9331V30.9522C240.741 31.3902 240.398 31.7521 239.97 31.7997H239.903H238.417L236.256 37.1611C236.189 37.3325 236.065 37.4754 235.922 37.5896C235.78 37.6944 235.608 37.7515 235.437 37.7515C235.199 37.7611 234.97 37.6754 234.808 37.5039C234.656 37.3325 234.57 37.104 234.58 36.8659C234.58 36.7802 234.589 36.704 234.618 36.6183L234.646 36.5421L236.599 31.7902H235.761C235.323 31.7902 234.961 31.4474 234.923 31.0093V30.9331C234.923 30.4951 235.265 30.1332 235.694 30.0856H235.761H237.332L239.379 25.1051C239.532 24.6194 239.97 24.2766 240.474 24.229H240.56H240.979V24.2385ZM226.895 24.2385C227.409 24.248 227.866 24.5623 228.047 25.0385L228.076 25.1146L232.789 36.5421C232.818 36.6183 232.837 36.704 232.847 36.7802V36.9421C232.837 37.1516 232.761 37.3421 232.618 37.5039C232.456 37.6754 232.228 37.7611 231.989 37.7515C231.818 37.7515 231.647 37.6944 231.504 37.5896C231.38 37.4944 231.285 37.3801 231.209 37.2468L231.171 37.1611L226.685 25.9812L225.047 30.0856H225.847C226.295 30.0856 226.657 30.4284 226.695 30.8665V30.9331V30.9522C226.695 31.3998 226.352 31.7616 225.914 31.7997H225.847H224.352L222.19 37.1611C222.124 37.3325 222 37.4754 221.857 37.5896C221.714 37.6944 221.543 37.7515 221.371 37.7515C221.133 37.7611 220.905 37.6754 220.743 37.5039C220.591 37.3325 220.505 37.104 220.514 36.8659C220.514 36.7802 220.524 36.704 220.552 36.6183L220.581 36.5421L222.533 31.7902H221.695C221.257 31.7902 220.895 31.4474 220.857 31.0093V30.9331C220.857 30.4951 221.2 30.1332 221.629 30.0856H221.695H223.247L225.295 25.1051C225.447 24.6194 225.885 24.2766 226.39 24.229H226.476H226.895V24.2385ZM246.598 24.2385C246.769 24.2385 246.94 24.2957 247.083 24.4004C247.226 24.5147 247.35 24.6575 247.417 24.8289L251.902 36.0088L256.387 24.8289C256.463 24.6575 256.578 24.5147 256.72 24.4004C256.863 24.2957 257.035 24.2385 257.206 24.2385C257.435 24.229 257.663 24.3147 257.825 24.4861C257.987 24.6575 258.063 24.8861 258.063 25.1242C258.063 25.2384 258.044 25.3432 258.006 25.4479L253.292 36.8754C253.13 37.3897 252.654 37.742 252.111 37.7515H251.692C251.15 37.742 250.673 37.3897 250.512 36.8754L245.798 25.4479C245.76 25.3432 245.741 25.2384 245.741 25.1242C245.731 24.8861 245.817 24.6671 245.969 24.4861C246.141 24.3147 246.369 24.2195 246.598 24.2385ZM268.338 24.3242C268.557 24.3147 268.767 24.4099 268.919 24.5718C269.081 24.7242 269.167 24.9337 269.167 25.1527C269.176 25.3718 269.081 25.5717 268.919 25.7241C268.767 25.8765 268.557 25.9622 268.338 25.9622H261.568V30.1808H267.653C267.872 30.1713 268.081 30.2665 268.234 30.4284C268.386 30.5808 268.481 30.7903 268.481 31.0093C268.491 31.2283 268.396 31.4283 268.234 31.5807C268.081 31.7331 267.872 31.8188 267.653 31.8188H261.568V36.0565H268.338C268.557 36.0469 268.767 36.1422 268.919 36.3041C269.081 36.4564 269.167 36.6659 269.167 36.885C269.176 37.104 269.081 37.304 268.919 37.4563C268.767 37.6087 268.557 37.6944 268.338 37.6849H260.682C260.453 37.7039 260.225 37.6087 260.073 37.4373C259.911 37.2754 259.825 37.0564 259.825 36.8278V25.2099C259.815 24.9718 259.911 24.7528 260.073 24.5814C260.234 24.4099 260.453 24.3242 260.682 24.3338H268.338V24.3242Z" fill="white"/>
<path d="M167.551 64.6701H164.637L164.169 66.0496H162.178L165.004 58.2399H167.206L170.032 66.0496H168.019L167.551 64.6701ZM167.062 63.2016L166.094 60.3425L165.137 63.2016H167.062ZM175.754 64.6701H172.839L172.372 66.0496H170.38L173.206 58.2399H175.409L178.235 66.0496H176.221L175.754 64.6701ZM175.264 63.2016L174.296 60.3425L173.34 63.2016H175.264ZM186.426 58.2399L183.656 66.0496H181.275L178.505 58.2399H180.53L182.465 64.1361L184.412 58.2399H186.426ZM189.123 59.764V61.3437H191.671V62.8122H189.123V64.5255H192.005V66.0496H187.221V58.2399H192.005V59.764H189.123Z" fill="white"/>
<path d="M169.229 76.6688V83.0496H168.39V78.2917L166.269 83.0496H165.679L163.549 78.2824V83.0496H162.71V76.6688H163.614L165.974 81.9431L168.335 76.6688H169.229ZM170.339 80.5046C170.339 79.9883 170.443 79.5365 170.652 79.1492C170.861 78.7558 171.147 78.4515 171.51 78.2363C171.878 78.0212 172.287 77.9136 172.736 77.9136C173.179 77.9136 173.563 78.0089 173.889 78.1995C174.214 78.39 174.457 78.6298 174.617 78.9187V77.9966H175.465V83.0496H174.617V82.109C174.451 82.4041 174.202 82.65 173.87 82.8467C173.544 83.0373 173.163 83.1325 172.727 83.1325C172.278 83.1325 171.872 83.0219 171.51 82.8006C171.147 82.5793 170.861 82.2689 170.652 81.8693C170.443 81.4697 170.339 81.0149 170.339 80.5046ZM174.617 80.5139C174.617 80.1327 174.54 79.8008 174.386 79.518C174.233 79.2352 174.024 79.0201 173.759 78.8726C173.501 78.7189 173.215 78.642 172.902 78.642C172.588 78.642 172.303 78.7158 172.044 78.8633C171.786 79.0109 171.58 79.226 171.427 79.5088C171.273 79.7916 171.196 80.1235 171.196 80.5046C171.196 80.8919 171.273 81.23 171.427 81.5189C171.58 81.8017 171.786 82.0199 172.044 82.1736C172.303 82.3211 172.588 82.3949 172.902 82.3949C173.215 82.3949 173.501 82.3211 173.759 82.1736C174.024 82.0199 174.233 81.8017 174.386 81.5189C174.54 81.23 174.617 80.895 174.617 80.5139ZM179.52 83.0496L178.322 81.1685L177.169 83.0496H176.293L177.925 80.5415L176.293 77.9966H177.243L178.442 79.8684L179.585 77.9966H180.461L178.838 80.4954L180.47 83.0496H179.52ZM187.553 81.6203H184.75L184.233 83.0496H183.348L185.672 76.6596H186.64L188.954 83.0496H188.069L187.553 81.6203ZM187.313 80.938L186.151 77.6923L184.989 80.938H187.313ZM194.264 78.5037C194.264 79.0385 194.079 79.4842 193.711 79.8407C193.348 80.1911 192.792 80.3663 192.042 80.3663H190.806V83.0496H189.967V76.6227H192.042C192.767 76.6227 193.317 76.7979 193.692 77.1483C194.073 77.4987 194.264 77.9505 194.264 78.5037ZM192.042 79.6748C192.509 79.6748 192.853 79.5733 193.074 79.3705C193.296 79.1676 193.406 78.8787 193.406 78.5037C193.406 77.7108 192.951 77.3143 192.042 77.3143H190.806V79.6748H192.042ZM199.806 76.6227L197.713 80.6245V83.0496H196.874V80.6245L194.772 76.6227H195.703L197.289 79.8776L198.875 76.6227H199.806Z" fill="#7D7D7D"/>
<path d="M246.55 80.1699C246.55 78.9735 246.764 78.0365 247.193 77.3588C247.629 76.681 248.348 76.3422 249.351 76.3422C250.353 76.3422 251.069 76.681 251.498 77.3588C251.934 78.0365 252.151 78.9735 252.151 80.1699C252.151 81.3732 251.934 82.3172 251.498 83.0019C251.069 83.6865 250.353 84.0288 249.351 84.0288C248.348 84.0288 247.629 83.6865 247.193 83.0019C246.764 82.3172 246.55 81.3732 246.55 80.1699ZM250.72 80.1699C250.72 79.6582 250.685 79.2294 250.616 78.8836C250.554 78.5309 250.422 78.244 250.222 78.0227C250.028 77.8014 249.738 77.6907 249.351 77.6907C248.963 77.6907 248.669 77.8014 248.469 78.0227C248.275 78.244 248.144 78.5309 248.075 78.8836C248.012 79.2294 247.981 79.6582 247.981 80.1699C247.981 80.6955 248.012 81.1381 248.075 81.4977C248.137 81.8504 248.268 82.1374 248.469 82.3587C248.669 82.5731 248.963 82.6803 249.351 82.6803C249.738 82.6803 250.032 82.5731 250.232 82.3587C250.433 82.1374 250.564 81.8504 250.627 81.4977C250.689 81.1381 250.72 80.6955 250.72 80.1699ZM254.065 84.1222C253.802 84.1222 253.584 84.0426 253.412 83.8836C253.246 83.7176 253.163 83.5136 253.163 83.2716C253.163 83.0295 253.246 82.829 253.412 82.6699C253.584 82.5039 253.802 82.4209 254.065 82.4209C254.321 82.4209 254.532 82.5039 254.698 82.6699C254.864 82.829 254.947 83.0295 254.947 83.2716C254.947 83.5136 254.864 83.7176 254.698 83.8836C254.532 84.0426 254.321 84.1222 254.065 84.1222ZM255.774 77.8256V76.4874H258.274V84.0496H256.78V77.8256H255.774ZM260.974 80.0455C260.283 79.6858 259.937 79.1291 259.937 78.3753C259.937 78.0019 260.031 77.663 260.217 77.3588C260.411 77.0476 260.698 76.8021 261.078 76.6223C261.465 76.4355 261.936 76.3422 262.489 76.3422C263.042 76.3422 263.509 76.4355 263.889 76.6223C264.277 76.8021 264.564 77.0476 264.75 77.3588C264.944 77.663 265.041 78.0019 265.041 78.3753C265.041 78.7557 264.947 79.0911 264.761 79.3816C264.574 79.6651 264.325 79.8864 264.014 80.0455C264.394 80.2114 264.692 80.4535 264.906 80.7716C265.12 81.0897 265.228 81.4666 265.228 81.9023C265.228 82.3725 265.107 82.784 264.864 83.1367C264.629 83.4825 264.304 83.7487 263.889 83.9355C263.474 84.1222 263.008 84.2155 262.489 84.2155C261.97 84.2155 261.504 84.1222 261.089 83.9355C260.681 83.7487 260.356 83.4825 260.113 83.1367C259.878 82.784 259.761 82.3725 259.761 81.9023C259.761 81.4666 259.868 81.0897 260.082 80.7716C260.297 80.4466 260.594 80.2045 260.974 80.0455ZM263.63 78.5828C263.63 78.244 263.526 77.9812 263.319 77.7944C263.118 77.6077 262.842 77.5144 262.489 77.5144C262.143 77.5144 261.867 77.6077 261.659 77.7944C261.459 77.9812 261.358 78.2474 261.358 78.5932C261.358 78.9044 261.462 79.1533 261.669 79.3401C261.884 79.5268 262.157 79.6201 262.489 79.6201C262.821 79.6201 263.094 79.5268 263.308 79.3401C263.523 79.1464 263.63 78.894 263.63 78.5828ZM262.489 80.6782C262.095 80.6782 261.773 80.7785 261.524 80.9791C261.282 81.1796 261.161 81.4666 261.161 81.84C261.161 82.1858 261.279 82.4694 261.514 82.6907C261.756 82.905 262.081 83.0122 262.489 83.0122C262.897 83.0122 263.219 82.9016 263.454 82.6803C263.689 82.459 263.806 82.1789 263.806 81.84C263.806 81.4735 263.685 81.19 263.443 80.9894C263.201 80.782 262.883 80.6782 262.489 80.6782ZM273.431 79.7343V80.9583H269.033V79.7343H273.431ZM277.822 82.4106C278.486 81.8573 279.015 81.3974 279.409 81.0309C279.804 80.6575 280.132 80.2702 280.395 79.8691C280.658 79.468 280.789 79.0738 280.789 78.6865C280.789 78.3339 280.706 78.0572 280.54 77.8567C280.374 77.6561 280.118 77.5559 279.772 77.5559C279.427 77.5559 279.16 77.6734 278.974 77.9085C278.787 78.1368 278.69 78.4514 278.683 78.8525H277.273C277.3 78.0227 277.546 77.3933 278.009 76.9646C278.479 76.5358 279.074 76.3214 279.793 76.3214C280.582 76.3214 281.187 76.5324 281.609 76.9542C282.03 77.3691 282.241 77.9189 282.241 78.6036C282.241 79.143 282.096 79.6582 281.806 80.1492C281.515 80.6402 281.183 81.069 280.81 81.4355C280.436 81.7951 279.949 82.2308 279.347 82.7425H282.407V83.9458H277.283V82.867L277.822 82.4106ZM283.146 77.8256V76.4874H285.646V84.0496H284.152V77.8256H283.146ZM287.89 84.1222C287.627 84.1222 287.409 84.0426 287.236 83.8836C287.07 83.7176 286.987 83.5136 286.987 83.2716C286.987 83.0295 287.07 82.829 287.236 82.6699C287.409 82.5039 287.627 82.4209 287.89 82.4209C288.146 82.4209 288.357 82.5039 288.523 82.6699C288.689 82.829 288.772 83.0295 288.772 83.2716C288.772 83.5136 288.689 83.7176 288.523 83.8836C288.357 84.0426 288.146 84.1222 287.89 84.1222ZM291.041 80.0455C290.349 79.6858 290.004 79.1291 290.004 78.3753C290.004 78.0019 290.097 77.663 290.284 77.3588C290.477 77.0476 290.764 76.8021 291.145 76.6223C291.532 76.4355 292.002 76.3422 292.555 76.3422C293.109 76.3422 293.575 76.4355 293.956 76.6223C294.343 76.8021 294.63 77.0476 294.817 77.3588C295.01 77.663 295.107 78.0019 295.107 78.3753C295.107 78.7557 295.014 79.0911 294.827 79.3816C294.64 79.6651 294.392 79.8864 294.08 80.0455C294.461 80.2114 294.758 80.4535 294.972 80.7716C295.187 81.0897 295.294 81.4666 295.294 81.9023C295.294 82.3725 295.173 82.784 294.931 83.1367C294.696 83.4825 294.371 83.7487 293.956 83.9355C293.541 84.1222 293.074 84.2155 292.555 84.2155C292.037 84.2155 291.57 84.1222 291.155 83.9355C290.747 83.7487 290.422 83.4825 290.18 83.1367C289.945 82.784 289.827 82.3725 289.827 81.9023C289.827 81.4666 289.934 81.0897 290.149 80.7716C290.363 80.4466 290.661 80.2045 291.041 80.0455ZM293.697 78.5828C293.697 78.244 293.593 77.9812 293.385 77.7944C293.185 77.6077 292.908 77.5144 292.555 77.5144C292.21 77.5144 291.933 77.6077 291.726 77.7944C291.525 77.9812 291.425 78.2474 291.425 78.5932C291.425 78.9044 291.528 79.1533 291.736 79.3401C291.95 79.5268 292.223 79.6201 292.555 79.6201C292.887 79.6201 293.161 79.5268 293.375 79.3401C293.589 79.1464 293.697 78.894 293.697 78.5828ZM292.555 80.6782C292.161 80.6782 291.84 80.7785 291.591 80.9791C291.349 81.1796 291.228 81.4666 291.228 81.84C291.228 82.1858 291.345 82.4694 291.58 82.6907C291.822 82.905 292.147 83.0122 292.555 83.0122C292.963 83.0122 293.285 82.9016 293.52 82.6803C293.755 82.459 293.873 82.1789 293.873 81.84C293.873 81.4735 293.752 81.19 293.51 80.9894C293.268 80.782 292.95 80.6782 292.555 80.6782ZM296.897 82.4106C297.561 81.8573 298.09 81.3974 298.485 81.0309C298.879 80.6575 299.207 80.2702 299.47 79.8691C299.733 79.468 299.864 79.0738 299.864 78.6865C299.864 78.3339 299.781 78.0572 299.615 77.8567C299.449 77.6561 299.193 77.5559 298.848 77.5559C298.502 77.5559 298.236 77.6734 298.049 77.9085C297.862 78.1368 297.765 78.4514 297.758 78.8525H296.348C296.375 78.0227 296.621 77.3933 297.084 76.9646C297.554 76.5358 298.149 76.3214 298.868 76.3214C299.657 76.3214 300.262 76.5324 300.684 76.9542C301.106 77.3691 301.317 77.9189 301.317 78.6036C301.317 79.143 301.171 79.6582 300.881 80.1492C300.59 80.6402 300.258 81.069 299.885 81.4355C299.512 81.7951 299.024 82.2308 298.422 82.7425H301.483V83.9458H296.358V82.867L296.897 82.4106ZM302.232 78.3442C302.232 77.8186 302.384 77.4072 302.688 77.1098C302.999 76.8124 303.397 76.6637 303.881 76.6637C304.365 76.6637 304.759 76.8124 305.064 77.1098C305.375 77.4072 305.53 77.8186 305.53 78.3442C305.53 78.8767 305.375 79.2917 305.064 79.589C304.759 79.8864 304.365 80.0351 303.881 80.0351C303.397 80.0351 302.999 79.8864 302.688 79.589C302.384 79.2917 302.232 78.8767 302.232 78.3442ZM308.891 76.7882L304.815 84.0496H303.404L307.47 76.7882H308.891ZM303.871 77.5351C303.49 77.5351 303.3 77.8048 303.3 78.3442C303.3 78.8906 303.49 79.1637 303.871 79.1637C304.057 79.1637 304.203 79.098 304.306 78.9666C304.41 78.8283 304.462 78.6208 304.462 78.3442C304.462 77.8048 304.265 77.5351 303.871 77.5351ZM306.786 82.4832C306.786 81.9507 306.938 81.5392 307.242 81.2488C307.553 80.9514 307.951 80.8027 308.435 80.8027C308.919 80.8027 309.31 80.9514 309.607 81.2488C309.911 81.5392 310.064 81.9507 310.064 82.4832C310.064 83.0157 309.911 83.4306 309.607 83.728C309.31 84.0254 308.919 84.174 308.435 84.174C307.944 84.174 307.546 84.0254 307.242 83.728C306.938 83.4306 306.786 83.0157 306.786 82.4832ZM308.425 81.6741C308.03 81.6741 307.833 81.9438 307.833 82.4832C307.833 83.0295 308.03 83.3027 308.425 83.3027C308.812 83.3027 309.005 83.0295 309.005 82.4832C309.005 81.9438 308.812 81.6741 308.425 81.6741Z" fill="white"/>
<path d="M166.666 94.6227V95.305H164.914V101.05H164.075V95.305H162.314V94.6227H166.666ZM168.538 96.8172C168.685 96.5283 168.894 96.304 169.165 96.1441C169.441 95.9843 169.776 95.9044 170.17 95.9044V96.7711H169.948C169.008 96.7711 168.538 97.2814 168.538 98.3018V101.05H167.699V95.9966H168.538V96.8172ZM175.62 95.9966V101.05H174.781V100.303C174.621 100.561 174.396 100.764 174.107 100.911C173.825 101.053 173.511 101.123 173.167 101.123C172.773 101.123 172.42 101.043 172.107 100.884C171.793 100.718 171.544 100.472 171.36 100.146C171.181 99.8201 171.092 99.4236 171.092 98.9565V95.9966H171.922V98.8458C171.922 99.3437 172.048 99.7279 172.3 99.9984C172.552 100.263 172.896 100.395 173.333 100.395C173.782 100.395 174.135 100.257 174.393 99.98C174.651 99.7033 174.781 99.3007 174.781 98.772V95.9966H175.62ZM178.825 101.133C178.438 101.133 178.091 101.068 177.783 100.939C177.476 100.804 177.233 100.619 177.055 100.386C176.877 100.146 176.778 99.8724 176.76 99.565H177.626C177.651 99.8171 177.768 100.023 177.977 100.183C178.192 100.343 178.472 100.423 178.816 100.423C179.136 100.423 179.388 100.352 179.572 100.21C179.756 100.069 179.849 99.8908 179.849 99.6757C179.849 99.4544 179.75 99.2915 179.554 99.187C179.357 99.0763 179.053 98.9687 178.641 98.8642C178.266 98.7659 177.958 98.6675 177.719 98.5692C177.485 98.4647 177.282 98.3141 177.11 98.1174C176.944 97.9145 176.861 97.6502 176.861 97.3244C176.861 97.0662 176.938 96.8295 177.092 96.6144C177.245 96.3992 177.464 96.2302 177.746 96.1072C178.029 95.9782 178.352 95.9136 178.715 95.9136C179.274 95.9136 179.726 96.055 180.07 96.3378C180.414 96.6205 180.599 97.0078 180.623 97.4996H179.784C179.766 97.2352 179.658 97.0232 179.461 96.8633C179.271 96.7035 179.013 96.6236 178.687 96.6236C178.386 96.6236 178.146 96.6882 177.968 96.8172C177.789 96.9463 177.7 97.1154 177.7 97.3244C177.7 97.4904 177.753 97.6287 177.857 97.7393C177.968 97.8438 178.103 97.9299 178.263 97.9975C178.429 98.059 178.656 98.1297 178.945 98.2096C179.308 98.3079 179.603 98.4063 179.83 98.5046C180.058 98.5968 180.251 98.7382 180.411 98.9288C180.577 99.1194 180.663 99.3683 180.669 99.6757C180.669 99.9523 180.592 100.201 180.439 100.423C180.285 100.644 180.067 100.819 179.784 100.948C179.508 101.071 179.188 101.133 178.825 101.133ZM182.877 96.6882V99.6664C182.877 99.9123 182.93 100.088 183.034 100.192C183.139 100.29 183.32 100.34 183.578 100.34H184.196V101.05H183.44C182.973 101.05 182.622 100.942 182.389 100.727C182.155 100.512 182.038 100.158 182.038 99.6664V96.6882H181.384V95.9966H182.038V94.7241H182.877V95.9966H184.196V96.6882H182.877ZM189.46 101.133C189.072 101.133 188.725 101.068 188.418 100.939C188.11 100.804 187.868 100.619 187.689 100.386C187.511 100.146 187.413 99.8724 187.394 99.565H188.261C188.286 99.8171 188.402 100.023 188.611 100.183C188.826 100.343 189.106 100.423 189.45 100.423C189.77 100.423 190.022 100.352 190.207 100.21C190.391 100.069 190.483 99.8908 190.483 99.6757C190.483 99.4544 190.385 99.2915 190.188 99.187C189.991 99.0763 189.687 98.9687 189.275 98.8642C188.9 98.7659 188.593 98.6675 188.353 98.5692C188.12 98.4647 187.917 98.3141 187.745 98.1174C187.579 97.9145 187.496 97.6502 187.496 97.3244C187.496 97.0662 187.572 96.8295 187.726 96.6144C187.88 96.3992 188.098 96.2302 188.381 96.1072C188.664 95.9782 188.986 95.9136 189.349 95.9136C189.908 95.9136 190.36 96.055 190.704 96.3378C191.049 96.6205 191.233 97.0078 191.258 97.4996H190.419C190.4 97.2352 190.293 97.0232 190.096 96.8633C189.905 96.7035 189.647 96.6236 189.321 96.6236C189.02 96.6236 188.78 96.6882 188.602 96.8172C188.424 96.9463 188.335 97.1154 188.335 97.3244C188.335 97.4904 188.387 97.6287 188.491 97.7393C188.602 97.8438 188.737 97.9299 188.897 97.9975C189.063 98.059 189.291 98.1297 189.58 98.2096C189.942 98.3079 190.237 98.4063 190.465 98.5046C190.692 98.5968 190.886 98.7382 191.046 98.9288C191.212 99.1194 191.298 99.3683 191.304 99.6757C191.304 99.9523 191.227 100.201 191.073 100.423C190.92 100.644 190.701 100.819 190.419 100.948C190.142 101.071 189.822 101.133 189.46 101.133ZM192.175 98.5139C192.175 97.9913 192.279 97.5365 192.488 97.1492C192.697 96.7558 192.986 96.4515 193.355 96.2363C193.73 96.0212 194.157 95.9136 194.637 95.9136C195.258 95.9136 195.768 96.0642 196.167 96.3654C196.573 96.6666 196.84 97.0846 196.97 97.6194H196.066C195.98 97.3121 195.811 97.0693 195.559 96.891C195.313 96.7127 195.006 96.6236 194.637 96.6236C194.157 96.6236 193.77 96.7896 193.475 97.1215C193.18 97.4473 193.032 97.9114 193.032 98.5139C193.032 99.1224 193.18 99.5927 193.475 99.9246C193.77 100.257 194.157 100.423 194.637 100.423C195.006 100.423 195.313 100.336 195.559 100.164C195.805 99.9922 195.974 99.7464 196.066 99.4267H196.97C196.834 99.9431 196.564 100.358 196.158 100.672C195.752 100.979 195.245 101.133 194.637 101.133C194.157 101.133 193.73 101.025 193.355 100.81C192.986 100.595 192.697 100.29 192.488 99.897C192.279 99.5035 192.175 99.0425 192.175 98.5139ZM200.293 101.133C199.82 101.133 199.389 101.025 199.002 100.81C198.621 100.595 198.32 100.29 198.098 99.897C197.883 99.4974 197.776 99.0364 197.776 98.5139C197.776 97.9975 197.886 97.5426 198.108 97.1492C198.335 96.7496 198.642 96.4453 199.03 96.2363C199.417 96.0212 199.85 95.9136 200.33 95.9136C200.809 95.9136 201.243 96.0212 201.63 96.2363C202.017 96.4453 202.322 96.7465 202.543 97.14C202.77 97.5334 202.884 97.9913 202.884 98.5139C202.884 99.0364 202.767 99.4974 202.534 99.897C202.306 100.29 201.996 100.595 201.602 100.81C201.209 101.025 200.772 101.133 200.293 101.133ZM200.293 100.395C200.594 100.395 200.877 100.324 201.141 100.183C201.406 100.041 201.618 99.8293 201.777 99.5466C201.943 99.2638 202.026 98.9196 202.026 98.5139C202.026 98.1081 201.947 97.7639 201.787 97.4811C201.627 97.1984 201.418 96.9894 201.16 96.8541C200.902 96.7127 200.622 96.642 200.321 96.642C200.013 96.642 199.73 96.7127 199.472 96.8541C199.22 96.9894 199.017 97.1984 198.864 97.4811C198.71 97.7639 198.633 98.1081 198.633 98.5139C198.633 98.9257 198.707 99.273 198.855 99.5558C199.008 99.8386 199.211 100.051 199.463 100.192C199.715 100.327 199.992 100.395 200.293 100.395ZM204.826 96.8172C204.974 96.5283 205.183 96.304 205.453 96.1441C205.73 95.9843 206.065 95.9044 206.458 95.9044V96.7711H206.237C205.297 96.7711 204.826 97.2814 204.826 98.3018V101.05H203.987V95.9966H204.826V96.8172ZM212.037 98.3294C212.037 98.4893 212.028 98.6583 212.01 98.8366H207.971C208.002 99.3345 208.171 99.7248 208.478 100.008C208.792 100.284 209.17 100.423 209.612 100.423C209.975 100.423 210.276 100.34 210.516 100.174C210.762 100.001 210.934 99.774 211.032 99.4913H211.936C211.801 99.9769 211.53 100.373 211.124 100.681C210.719 100.982 210.215 101.133 209.612 101.133C209.133 101.133 208.703 101.025 208.321 100.81C207.946 100.595 207.651 100.29 207.436 99.897C207.221 99.4974 207.113 99.0364 207.113 98.5139C207.113 97.9913 207.218 97.5334 207.427 97.14C207.636 96.7465 207.928 96.4453 208.303 96.2363C208.684 96.0212 209.121 95.9136 209.612 95.9136C210.092 95.9136 210.516 96.0181 210.885 96.2271C211.254 96.4361 211.536 96.725 211.733 97.0939C211.936 97.4565 212.037 97.8684 212.037 98.3294ZM211.171 98.1542C211.171 97.8346 211.1 97.561 210.959 97.3336C210.817 97.1 210.624 96.9248 210.378 96.808C210.138 96.6851 209.87 96.6236 209.575 96.6236C209.151 96.6236 208.789 96.7588 208.487 97.0293C208.192 97.2998 208.023 97.6748 207.98 98.1542H211.171Z" fill="#7D7D7D"/>
<path d="M279.1 99.533L282.067 96.5663L285.033 99.533" stroke="#1DC981" stroke-width="1.48332"/>
<path d="M290.714 99.8971C290.77 100.205 290.896 100.443 291.092 100.611C291.295 100.772 291.565 100.853 291.901 100.853C292.335 100.853 292.65 100.674 292.846 100.317C293.042 99.9531 293.14 99.3442 293.14 98.4902C292.979 98.7142 292.751 98.8892 292.457 99.0152C292.17 99.1412 291.859 99.2042 291.523 99.2042C291.075 99.2042 290.669 99.1132 290.305 98.9312C289.948 98.7422 289.664 98.4657 289.454 98.1017C289.244 97.7307 289.139 97.2827 289.139 96.7578C289.139 95.9808 289.37 95.3648 289.832 94.9098C290.294 94.4479 290.924 94.2169 291.722 94.2169C292.716 94.2169 293.416 94.5354 293.822 95.1723C294.235 95.8093 294.442 96.7683 294.442 98.0492C294.442 98.9592 294.361 99.7047 294.2 100.286C294.046 100.867 293.777 101.308 293.392 101.609C293.014 101.91 292.496 102.06 291.838 102.06C291.32 102.06 290.879 101.962 290.515 101.766C290.151 101.563 289.871 101.301 289.675 100.979C289.486 100.65 289.377 100.289 289.349 99.8971H290.714ZM291.827 98.0072C292.191 98.0072 292.478 97.8952 292.688 97.6712C292.898 97.4472 293.003 97.1463 293.003 96.7683C293.003 96.3553 292.891 96.0368 292.667 95.8128C292.45 95.5818 292.153 95.4663 291.775 95.4663C291.397 95.4663 291.096 95.5853 290.872 95.8233C290.655 96.0543 290.546 96.3623 290.546 96.7473C290.546 97.1183 290.651 97.4227 290.861 97.6607C291.078 97.8917 291.4 98.0072 291.827 98.0072ZM296.405 102.123C296.139 102.123 295.918 102.043 295.743 101.882C295.575 101.714 295.491 101.507 295.491 101.262C295.491 101.017 295.575 100.814 295.743 100.653C295.918 100.485 296.139 100.401 296.405 100.401C296.664 100.401 296.877 100.485 297.045 100.653C297.213 100.814 297.297 101.017 297.297 101.262C297.297 101.507 297.213 101.714 297.045 101.882C296.877 102.043 296.664 102.123 296.405 102.123ZM298.775 100.391C299.447 99.8306 299.983 99.3652 300.382 98.9942C300.781 98.6162 301.113 98.2242 301.379 97.8182C301.645 97.4122 301.778 97.0133 301.778 96.6213C301.778 96.2643 301.694 95.9843 301.526 95.7813C301.358 95.5783 301.099 95.4768 300.749 95.4768C300.399 95.4768 300.13 95.5958 299.941 95.8338C299.752 96.0648 299.654 96.3833 299.647 96.7893H298.219C298.247 95.9493 298.495 95.3123 298.964 94.8783C299.44 94.4444 300.042 94.2274 300.77 94.2274C301.568 94.2274 302.181 94.4409 302.608 94.8678C303.035 95.2878 303.248 95.8443 303.248 96.5373C303.248 97.0833 303.101 97.6047 302.807 98.1017C302.513 98.5987 302.177 99.0327 301.799 99.4037C301.421 99.7677 300.928 100.209 300.319 100.727H303.416V101.945H298.229V100.853L298.775 100.391ZM309.487 95.6658H306.085V97.4612C306.232 97.2792 306.442 97.1323 306.715 97.0203C306.988 96.9013 307.279 96.8418 307.587 96.8418C308.147 96.8418 308.605 96.9643 308.962 97.2093C309.319 97.4542 309.578 97.7692 309.739 98.1542C309.9 98.5322 309.981 98.9382 309.981 99.3722C309.981 100.177 309.75 100.825 309.288 101.315C308.833 101.805 308.182 102.05 307.335 102.05C306.537 102.05 305.9 101.85 305.424 101.451C304.948 101.052 304.678 100.531 304.615 99.8866H306.043C306.106 100.167 306.246 100.391 306.463 100.559C306.687 100.727 306.971 100.811 307.314 100.811C307.727 100.811 308.038 100.681 308.248 100.422C308.458 100.163 308.563 99.8201 308.563 99.3932C308.563 98.9592 308.455 98.6302 308.238 98.4062C308.028 98.1752 307.716 98.0597 307.303 98.0597C307.009 98.0597 306.764 98.1332 306.568 98.2802C306.372 98.4272 306.232 98.6232 306.148 98.8682H304.741V94.3744H309.487V95.6658Z" fill="#1DC981"/>
<path d="M166.666 112.623V113.305H164.914V119.05H164.075V113.305H162.314V112.623H166.666ZM173.01 112.623L170.585 119.05H169.616L167.191 112.623H168.086L170.105 118.164L172.125 112.623H173.01ZM174.769 118.367H177.019V119.05H173.93V112.623H174.769V118.367Z" fill="#7D7D7D"/>
<path d="M281.882 117.965C281.882 118.324 281.788 118.663 281.602 118.981C281.422 119.292 281.152 119.552 280.792 119.759C280.44 119.96 280.021 120.077 279.537 120.112V120.952H278.873V120.101C278.182 120.039 277.625 119.832 277.203 119.479C276.781 119.119 276.564 118.635 276.55 118.027H278.106C278.147 118.525 278.403 118.826 278.873 118.929V116.948C278.375 116.823 277.974 116.699 277.67 116.574C277.366 116.45 277.103 116.249 276.882 115.973C276.66 115.696 276.55 115.319 276.55 114.842C276.55 114.24 276.764 113.749 277.193 113.369C277.629 112.989 278.189 112.771 278.873 112.716V111.875H279.537V112.716C280.201 112.771 280.73 112.971 281.124 113.317C281.526 113.663 281.75 114.14 281.799 114.749H280.232C280.212 114.548 280.139 114.375 280.014 114.23C279.897 114.078 279.738 113.971 279.537 113.909V115.869C280.056 116.001 280.464 116.128 280.761 116.253C281.066 116.37 281.328 116.568 281.55 116.844C281.771 117.114 281.882 117.487 281.882 117.965ZM278.064 114.77C278.064 114.998 278.133 115.184 278.272 115.33C278.41 115.468 278.611 115.582 278.873 115.672V113.877C278.624 113.912 278.427 114.005 278.282 114.158C278.137 114.31 278.064 114.514 278.064 114.77ZM279.537 118.95C279.8 118.902 280.004 118.794 280.149 118.628C280.301 118.462 280.378 118.262 280.378 118.027C280.378 117.799 280.305 117.615 280.16 117.477C280.014 117.339 279.807 117.225 279.537 117.135V118.95ZM283.793 118.411C284.457 117.857 284.986 117.397 285.381 117.031C285.775 116.657 286.103 116.27 286.366 115.869C286.629 115.468 286.76 115.074 286.76 114.687C286.76 114.334 286.677 114.057 286.511 113.857C286.345 113.656 286.089 113.556 285.744 113.556C285.398 113.556 285.132 113.673 284.945 113.909C284.758 114.137 284.661 114.451 284.654 114.853H283.244C283.271 114.023 283.517 113.393 283.98 112.965C284.45 112.536 285.045 112.321 285.764 112.321C286.553 112.321 287.158 112.532 287.58 112.954C288.002 113.369 288.212 113.919 288.212 114.604C288.212 115.143 288.067 115.658 287.777 116.149C287.486 116.64 287.154 117.069 286.781 117.435C286.408 117.795 285.92 118.231 285.318 118.743H288.378V119.946H283.254V118.867L283.793 118.411ZM290.103 120.122C289.84 120.122 289.622 120.043 289.449 119.884C289.283 119.718 289.2 119.514 289.2 119.272C289.2 119.03 289.283 118.829 289.449 118.67C289.622 118.504 289.84 118.421 290.103 118.421C290.359 118.421 290.57 118.504 290.735 118.67C290.901 118.829 290.984 119.03 290.984 119.272C290.984 119.514 290.901 119.718 290.735 119.884C290.57 120.043 290.359 120.122 290.103 120.122ZM296.801 113.587L294.042 120.05H292.569L295.349 113.753H291.802V112.508H296.801V113.587ZM301.592 114.375C301.523 114.085 301.402 113.867 301.229 113.722C301.063 113.577 300.821 113.504 300.503 113.504C300.026 113.504 299.673 113.698 299.445 114.085C299.224 114.465 299.11 115.088 299.103 115.952C299.269 115.675 299.511 115.461 299.829 115.309C300.147 115.15 300.493 115.07 300.866 115.07C301.316 115.07 301.713 115.167 302.059 115.361C302.405 115.554 302.675 115.838 302.868 116.211C303.062 116.578 303.159 117.021 303.159 117.539C303.159 118.03 303.058 118.469 302.858 118.857C302.664 119.237 302.377 119.534 301.997 119.749C301.617 119.963 301.164 120.07 300.638 120.07C299.919 120.07 299.352 119.911 298.937 119.593C298.529 119.275 298.242 118.832 298.076 118.265C297.917 117.691 297.837 116.986 297.837 116.149C297.837 114.884 298.055 113.929 298.491 113.286C298.926 112.636 299.615 112.311 300.555 112.311C301.281 112.311 301.845 112.508 302.246 112.902C302.647 113.297 302.879 113.788 302.941 114.375H301.592ZM300.534 116.263C300.168 116.263 299.86 116.37 299.611 116.585C299.362 116.799 299.238 117.11 299.238 117.518C299.238 117.926 299.352 118.248 299.58 118.483C299.815 118.718 300.144 118.836 300.565 118.836C300.939 118.836 301.233 118.722 301.447 118.494C301.668 118.265 301.779 117.958 301.779 117.57C301.779 117.169 301.672 116.851 301.458 116.616C301.25 116.381 300.942 116.263 300.534 116.263ZM308.58 116.336C308.988 116.412 309.324 116.616 309.587 116.948C309.849 117.28 309.981 117.66 309.981 118.089C309.981 118.476 309.884 118.819 309.69 119.116C309.504 119.406 309.23 119.635 308.871 119.801C308.511 119.967 308.086 120.05 307.595 120.05H304.473V112.809H307.46C307.951 112.809 308.373 112.889 308.726 113.048C309.085 113.207 309.355 113.428 309.535 113.711C309.721 113.995 309.815 114.317 309.815 114.676C309.815 115.098 309.701 115.451 309.472 115.734C309.251 116.018 308.954 116.218 308.58 116.336ZM305.925 115.796H307.253C307.598 115.796 307.865 115.72 308.051 115.568C308.238 115.409 308.331 115.184 308.331 114.894C308.331 114.604 308.238 114.379 308.051 114.22C307.865 114.061 307.598 113.981 307.253 113.981H305.925V115.796ZM307.387 118.867C307.74 118.867 308.013 118.784 308.207 118.618C308.407 118.452 308.508 118.217 308.508 117.913C308.508 117.601 308.404 117.359 308.197 117.187C307.989 117.007 307.709 116.917 307.356 116.917H305.925V118.867H307.387Z" fill="white"/>
<path d="M166.509 135.62H163.706L163.189 137.05H162.304L164.628 130.66H165.596L167.91 137.05H167.025L166.509 135.62ZM166.269 134.938L165.107 131.692L163.946 134.938H166.269ZM170.712 137.133C170.325 137.133 169.977 137.068 169.67 136.939C169.363 136.804 169.12 136.619 168.942 136.386C168.763 136.146 168.665 135.872 168.647 135.565H169.513C169.538 135.817 169.655 136.023 169.864 136.183C170.079 136.343 170.359 136.423 170.703 136.423C171.022 136.423 171.274 136.352 171.459 136.21C171.643 136.069 171.736 135.891 171.736 135.676C171.736 135.454 171.637 135.291 171.44 135.187C171.244 135.076 170.939 134.969 170.528 134.864C170.153 134.766 169.845 134.668 169.606 134.569C169.372 134.465 169.169 134.314 168.997 134.117C168.831 133.915 168.748 133.65 168.748 133.324C168.748 133.066 168.825 132.83 168.979 132.614C169.132 132.399 169.35 132.23 169.633 132.107C169.916 131.978 170.239 131.914 170.601 131.914C171.161 131.914 171.613 132.055 171.957 132.338C172.301 132.621 172.485 133.008 172.51 133.5H171.671C171.653 133.235 171.545 133.023 171.348 132.863C171.158 132.704 170.9 132.624 170.574 132.624C170.272 132.624 170.033 132.688 169.854 132.817C169.676 132.946 169.587 133.115 169.587 133.324C169.587 133.49 169.639 133.629 169.744 133.739C169.854 133.844 169.99 133.93 170.15 133.997C170.316 134.059 170.543 134.13 170.832 134.21C171.195 134.308 171.49 134.406 171.717 134.505C171.945 134.597 172.138 134.738 172.298 134.929C172.464 135.119 172.55 135.368 172.556 135.676C172.556 135.952 172.479 136.201 172.326 136.423C172.172 136.644 171.954 136.819 171.671 136.948C171.394 137.071 171.075 137.133 170.712 137.133ZM175.529 137.133C175.142 137.133 174.795 137.068 174.488 136.939C174.18 136.804 173.937 136.619 173.759 136.386C173.581 136.146 173.482 135.872 173.464 135.565H174.331C174.355 135.817 174.472 136.023 174.681 136.183C174.896 136.343 175.176 136.423 175.52 136.423C175.84 136.423 176.092 136.352 176.276 136.21C176.461 136.069 176.553 135.891 176.553 135.676C176.553 135.454 176.455 135.291 176.258 135.187C176.061 135.076 175.757 134.969 175.345 134.864C174.97 134.766 174.663 134.668 174.423 134.569C174.189 134.465 173.987 134.314 173.814 134.117C173.648 133.915 173.565 133.65 173.565 133.324C173.565 133.066 173.642 132.83 173.796 132.614C173.95 132.399 174.168 132.23 174.451 132.107C174.733 131.978 175.056 131.914 175.419 131.914C175.978 131.914 176.43 132.055 176.774 132.338C177.119 132.621 177.303 133.008 177.328 133.5H176.488C176.47 133.235 176.362 133.023 176.166 132.863C175.975 132.704 175.717 132.624 175.391 132.624C175.09 132.624 174.85 132.688 174.672 132.817C174.494 132.946 174.405 133.115 174.405 133.324C174.405 133.49 174.457 133.629 174.561 133.739C174.672 133.844 174.807 133.93 174.967 133.997C175.133 134.059 175.36 134.13 175.649 134.21C176.012 134.308 176.307 134.406 176.535 134.505C176.762 134.597 176.956 134.738 177.115 134.929C177.281 135.119 177.367 135.368 177.374 135.676C177.374 135.952 177.297 136.201 177.143 136.423C176.989 136.644 176.771 136.819 176.488 136.948C176.212 137.071 175.892 137.133 175.529 137.133ZM183.169 134.329C183.169 134.489 183.159 134.658 183.141 134.837H179.102C179.133 135.335 179.302 135.725 179.609 136.008C179.923 136.284 180.301 136.423 180.743 136.423C181.106 136.423 181.407 136.34 181.647 136.174C181.893 136.001 182.065 135.774 182.163 135.491H183.067C182.932 135.977 182.661 136.373 182.256 136.681C181.85 136.982 181.346 137.133 180.743 137.133C180.264 137.133 179.834 137.025 179.453 136.81C179.078 136.595 178.783 136.29 178.567 135.897C178.352 135.497 178.245 135.036 178.245 134.514C178.245 133.991 178.349 133.533 178.558 133.14C178.767 132.747 179.059 132.445 179.434 132.236C179.815 132.021 180.252 131.914 180.743 131.914C181.223 131.914 181.647 132.018 182.016 132.227C182.385 132.436 182.668 132.725 182.864 133.094C183.067 133.457 183.169 133.868 183.169 134.329ZM182.302 134.154C182.302 133.835 182.231 133.561 182.09 133.334C181.948 133.1 181.755 132.925 181.509 132.808C181.269 132.685 181.002 132.624 180.707 132.624C180.282 132.624 179.92 132.759 179.619 133.029C179.323 133.3 179.154 133.675 179.111 134.154H182.302ZM185.3 132.688V135.666C185.3 135.912 185.352 136.088 185.456 136.192C185.561 136.29 185.742 136.34 186 136.34H186.618V137.05H185.862C185.395 137.05 185.044 136.942 184.811 136.727C184.577 136.512 184.46 136.158 184.46 135.666V132.688H183.806V131.997H184.46V130.724H185.3V131.997H186.618V132.688H185.3ZM189.424 137.133C189.036 137.133 188.689 137.068 188.382 136.939C188.074 136.804 187.832 136.619 187.653 136.386C187.475 136.146 187.377 135.872 187.358 135.565H188.225C188.25 135.817 188.366 136.023 188.575 136.183C188.79 136.343 189.07 136.423 189.414 136.423C189.734 136.423 189.986 136.352 190.171 136.21C190.355 136.069 190.447 135.891 190.447 135.676C190.447 135.454 190.349 135.291 190.152 135.187C189.955 135.076 189.651 134.969 189.239 134.864C188.864 134.766 188.557 134.668 188.317 134.569C188.084 134.465 187.881 134.314 187.709 134.117C187.543 133.915 187.46 133.65 187.46 133.324C187.46 133.066 187.536 132.83 187.69 132.614C187.844 132.399 188.062 132.23 188.345 132.107C188.628 131.978 188.95 131.914 189.313 131.914C189.872 131.914 190.324 132.055 190.668 132.338C191.013 132.621 191.197 133.008 191.222 133.5H190.383C190.364 133.235 190.257 133.023 190.06 132.863C189.869 132.704 189.611 132.624 189.285 132.624C188.984 132.624 188.744 132.688 188.566 132.817C188.388 132.946 188.299 133.115 188.299 133.324C188.299 133.49 188.351 133.629 188.455 133.739C188.566 133.844 188.701 133.93 188.861 133.997C189.027 134.059 189.255 134.13 189.544 134.21C189.906 134.308 190.201 134.406 190.429 134.505C190.656 134.597 190.85 134.738 191.01 134.929C191.176 135.119 191.262 135.368 191.268 135.676C191.268 135.952 191.191 136.201 191.037 136.423C190.884 136.644 190.665 136.819 190.383 136.948C190.106 137.071 189.786 137.133 189.424 137.133Z" fill="#7D7D7D"/>
<path d="M308.824 132.334C308.671 131.566 308.198 131.182 307.402 131.182C306.787 131.182 306.327 131.421 306.023 131.898C305.719 132.368 305.57 133.146 305.577 134.232C305.736 133.873 305.999 133.592 306.365 133.392C306.739 133.184 307.153 133.081 307.61 133.081C308.322 133.081 308.889 133.302 309.311 133.745C309.74 134.187 309.954 134.799 309.954 135.581C309.954 136.051 309.861 136.473 309.674 136.846C309.494 137.22 309.218 137.517 308.844 137.738C308.478 137.96 308.032 138.07 307.506 138.07C306.794 138.07 306.237 137.911 305.836 137.593C305.435 137.275 305.155 136.836 304.996 136.276C304.837 135.716 304.757 135.024 304.757 134.201C304.757 131.663 305.642 130.394 307.413 130.394C308.091 130.394 308.623 130.577 309.01 130.944C309.398 131.31 309.626 131.774 309.695 132.334H308.824ZM307.413 133.879C307.115 133.879 306.835 133.942 306.573 134.066C306.31 134.184 306.095 134.367 305.929 134.616C305.77 134.858 305.691 135.155 305.691 135.508C305.691 136.034 305.843 136.462 306.147 136.794C306.452 137.119 306.887 137.282 307.454 137.282C307.938 137.282 308.322 137.133 308.606 136.836C308.896 136.532 309.041 136.124 309.041 135.612C309.041 135.072 308.903 134.651 308.627 134.346C308.35 134.035 307.945 133.879 307.413 133.879Z" fill="white"/>
<path d="M167.077 154.44H163.921L163.339 156.05H162.343L164.959 148.854H166.049L168.656 156.05H167.659L167.077 154.44ZM166.807 153.672L165.499 150.017L164.191 153.672H166.807ZM171.81 156.143C171.374 156.143 170.983 156.07 170.637 155.925C170.291 155.773 170.018 155.565 169.817 155.302C169.616 155.032 169.505 154.724 169.485 154.378H170.461C170.488 154.662 170.62 154.894 170.855 155.074C171.097 155.254 171.412 155.344 171.8 155.344C172.16 155.344 172.444 155.264 172.651 155.105C172.859 154.945 172.963 154.745 172.963 154.502C172.963 154.253 172.852 154.07 172.631 153.952C172.409 153.828 172.066 153.706 171.603 153.589C171.18 153.478 170.834 153.367 170.564 153.256C170.301 153.139 170.073 152.969 169.879 152.748C169.692 152.519 169.599 152.222 169.599 151.855C169.599 151.564 169.685 151.298 169.858 151.055C170.031 150.813 170.277 150.623 170.596 150.484C170.914 150.339 171.277 150.266 171.686 150.266C172.316 150.266 172.824 150.425 173.212 150.744C173.6 151.062 173.807 151.498 173.835 152.052H172.89C172.869 151.754 172.748 151.516 172.527 151.336C172.312 151.156 172.021 151.066 171.655 151.066C171.315 151.066 171.045 151.138 170.845 151.284C170.644 151.429 170.544 151.619 170.544 151.855C170.544 152.042 170.602 152.197 170.72 152.322C170.845 152.44 170.997 152.537 171.177 152.613C171.364 152.682 171.62 152.762 171.945 152.852C172.354 152.962 172.686 153.073 172.942 153.184C173.198 153.288 173.416 153.447 173.596 153.661C173.783 153.876 173.88 154.156 173.887 154.502C173.887 154.814 173.8 155.094 173.627 155.344C173.454 155.593 173.209 155.79 172.89 155.935C172.579 156.074 172.219 156.143 171.81 156.143ZM177.235 156.143C176.799 156.143 176.408 156.07 176.062 155.925C175.716 155.773 175.442 155.565 175.242 155.302C175.041 155.032 174.93 154.724 174.909 154.378H175.885C175.913 154.662 176.045 154.894 176.28 155.074C176.522 155.254 176.837 155.344 177.225 155.344C177.585 155.344 177.869 155.264 178.076 155.105C178.284 154.945 178.388 154.745 178.388 154.502C178.388 154.253 178.277 154.07 178.055 153.952C177.834 153.828 177.491 153.706 177.028 153.589C176.605 153.478 176.259 153.367 175.989 153.256C175.726 153.139 175.498 152.969 175.304 152.748C175.117 152.519 175.024 152.222 175.024 151.855C175.024 151.564 175.11 151.298 175.283 151.055C175.456 150.813 175.702 150.623 176.02 150.484C176.339 150.339 176.702 150.266 177.111 150.266C177.741 150.266 178.249 150.425 178.637 150.744C179.025 151.062 179.232 151.498 179.26 152.052H178.315C178.294 151.754 178.173 151.516 177.952 151.336C177.737 151.156 177.446 151.066 177.079 151.066C176.74 151.066 176.47 151.138 176.27 151.284C176.069 151.429 175.968 151.619 175.968 151.855C175.968 152.042 176.027 152.197 176.145 152.322C176.27 152.44 176.422 152.537 176.602 152.613C176.789 152.682 177.045 152.762 177.37 152.852C177.779 152.962 178.111 153.073 178.367 153.184C178.623 153.288 178.841 153.447 179.021 153.661C179.208 153.876 179.305 154.156 179.312 154.502C179.312 154.814 179.225 155.094 179.052 155.344C178.879 155.593 178.633 155.79 178.315 155.935C178.004 156.074 177.644 156.143 177.235 156.143ZM185.837 152.987C185.837 153.166 185.827 153.357 185.806 153.558H181.258C181.293 154.118 181.483 154.558 181.829 154.876C182.182 155.188 182.608 155.344 183.107 155.344C183.515 155.344 183.854 155.25 184.124 155.063C184.401 154.869 184.595 154.613 184.706 154.295H185.723C185.571 154.842 185.266 155.288 184.809 155.634C184.353 155.973 183.785 156.143 183.107 156.143C182.567 156.143 182.082 156.022 181.653 155.78C181.231 155.537 180.898 155.195 180.656 154.752C180.414 154.302 180.293 153.783 180.293 153.194C180.293 152.606 180.41 152.09 180.646 151.647C180.881 151.204 181.21 150.865 181.632 150.63C182.061 150.387 182.553 150.266 183.107 150.266C183.646 150.266 184.124 150.384 184.539 150.619C184.955 150.854 185.273 151.18 185.495 151.595C185.723 152.004 185.837 152.467 185.837 152.987ZM184.861 152.789C184.861 152.429 184.782 152.121 184.622 151.865C184.463 151.602 184.245 151.405 183.968 151.273C183.698 151.135 183.397 151.066 183.065 151.066C182.587 151.066 182.179 151.218 181.84 151.522C181.507 151.827 181.317 152.249 181.269 152.789H184.861ZM188.237 151.138V154.492C188.237 154.769 188.296 154.966 188.414 155.084C188.531 155.195 188.735 155.25 189.026 155.25H189.722V156.05H188.87C188.344 156.05 187.95 155.928 187.687 155.686C187.424 155.444 187.292 155.046 187.292 154.492V151.138H186.555V150.36H187.292V148.927H188.237V150.36H189.722V151.138H188.237ZM192.881 156.143C192.445 156.143 192.054 156.07 191.708 155.925C191.362 155.773 191.088 155.565 190.887 155.302C190.687 155.032 190.576 154.724 190.555 154.378H191.531C191.559 154.662 191.69 154.894 191.926 155.074C192.168 155.254 192.483 155.344 192.871 155.344C193.231 155.344 193.514 155.264 193.722 155.105C193.93 154.945 194.034 154.745 194.034 154.502C194.034 154.253 193.923 154.07 193.701 153.952C193.48 153.828 193.137 153.706 192.673 153.589C192.251 153.478 191.905 153.367 191.635 153.256C191.372 153.139 191.144 152.969 190.95 152.748C190.763 152.519 190.669 152.222 190.669 151.855C190.669 151.564 190.756 151.298 190.929 151.055C191.102 150.813 191.348 150.623 191.666 150.484C191.985 150.339 192.348 150.266 192.756 150.266C193.386 150.266 193.895 150.425 194.283 150.744C194.67 151.062 194.878 151.498 194.906 152.052H193.961C193.94 151.754 193.819 151.516 193.597 151.336C193.383 151.156 193.092 151.066 192.725 151.066C192.386 151.066 192.116 151.138 191.915 151.284C191.715 151.429 191.614 151.619 191.614 151.855C191.614 152.042 191.673 152.197 191.791 152.322C191.915 152.44 192.068 152.537 192.248 152.613C192.435 152.682 192.691 152.762 193.016 152.852C193.424 152.962 193.757 153.073 194.013 153.184C194.269 153.288 194.487 153.447 194.667 153.661C194.854 153.876 194.951 154.156 194.958 154.502C194.958 154.814 194.871 155.094 194.698 155.344C194.525 155.593 194.279 155.79 193.961 155.935C193.649 156.074 193.289 156.143 192.881 156.143Z" fill="white"/>
<path d="M308.471 150.375C308.402 150.085 308.281 149.867 308.108 149.722C307.942 149.577 307.7 149.504 307.382 149.504C306.905 149.504 306.552 149.698 306.324 150.085C306.102 150.465 305.988 151.088 305.981 151.952C306.147 151.675 306.389 151.461 306.707 151.309C307.026 151.15 307.371 151.07 307.745 151.07C308.194 151.07 308.592 151.167 308.938 151.361C309.283 151.554 309.553 151.838 309.747 152.211C309.94 152.578 310.037 153.021 310.037 153.539C310.037 154.03 309.937 154.469 309.736 154.857C309.543 155.237 309.256 155.534 308.875 155.749C308.495 155.963 308.042 156.07 307.517 156.07C306.797 156.07 306.23 155.911 305.815 155.593C305.407 155.275 305.12 154.832 304.954 154.265C304.795 153.691 304.716 152.986 304.716 152.149C304.716 150.884 304.934 149.929 305.369 149.286C305.805 148.636 306.493 148.311 307.434 148.311C308.16 148.311 308.723 148.508 309.124 148.902C309.526 149.297 309.757 149.788 309.819 150.375H308.471ZM307.413 152.263C307.046 152.263 306.739 152.37 306.49 152.585C306.241 152.799 306.116 153.11 306.116 153.518C306.116 153.926 306.23 154.248 306.458 154.483C306.694 154.718 307.022 154.836 307.444 154.836C307.817 154.836 308.111 154.722 308.326 154.494C308.547 154.265 308.658 153.958 308.658 153.57C308.658 153.169 308.55 152.851 308.336 152.616C308.129 152.381 307.821 152.263 307.413 152.263Z" fill="white"/>
</g>
<path d="M152.371 14.8665C152.371 8.51764 157.518 3.37083 163.867 3.37083H309.133C315.482 3.37083 320.629 8.51764 320.629 14.8666V148.629H152.371V14.8665Z" stroke="white" stroke-opacity="0.1" stroke-width="0.74166"/>
<g filter="url(#filter0_f_13043_16350)">
<ellipse cx="791.684" cy="222.706" rx="278.122" ry="86.234" transform="rotate(-18.8713 791.684 222.706)" fill="#1DC981"/>
</g>
<path d="M336.484 2.9978H350.133C356.687 2.9978 362 8.31064 362 14.8644V75.9978V137.131C362 143.685 356.687 148.998 350.133 148.998H18.8665C12.3128 148.998 7 143.685 7 137.131V75.9978" stroke="#1DC981" stroke-width="2.22498" stroke-linecap="round"/>
<path d="M42.4258 80.6317C42.8858 83.0544 44.2965 84.2657 46.6578 84.2657C48.2832 84.2657 49.4332 83.5451 50.1079 82.1037C50.7826 80.6623 51.1199 78.3163 51.1199 75.0656C50.4452 76.0163 49.5252 76.7523 48.3599 77.2736C47.1945 77.795 45.8912 78.0556 44.4498 78.0556C42.4871 78.0556 40.7391 77.657 39.2057 76.8596C37.6724 76.0316 36.461 74.8202 35.5717 73.2256C34.713 71.6002 34.2836 69.6375 34.2836 67.3375C34.2836 65.0681 34.7436 63.0901 35.6637 61.4034C36.6143 59.7167 37.9484 58.4133 39.6657 57.4933C41.4138 56.5733 43.4685 56.1133 45.8298 56.1133C50.3686 56.1133 53.5426 57.524 55.352 60.3454C57.1613 63.1667 58.066 67.3221 58.066 72.8116C58.066 76.7983 57.698 80.095 56.962 82.7017C56.2567 85.2777 55.0453 87.2404 53.3279 88.5898C51.6412 89.9392 49.3259 90.6138 46.3818 90.6138C44.0511 90.6138 42.0578 90.1538 40.4017 89.2338C38.7764 88.3138 37.519 87.1024 36.6297 85.5998C35.771 84.0971 35.2803 82.441 35.1577 80.6317H42.4258ZM46.2438 71.8455C47.5318 71.8455 48.5592 71.4622 49.3259 70.6955C50.0926 69.8982 50.4759 68.8248 50.4759 67.4755C50.4759 66.0034 50.0772 64.8688 49.2799 64.0714C48.4825 63.2741 47.4092 62.8754 46.0598 62.8754C44.7105 62.8754 43.6371 63.2894 42.8398 64.1174C42.0731 64.9148 41.6898 66.0188 41.6898 67.4295C41.6898 68.7482 42.0731 69.8215 42.8398 70.6495C43.6371 71.4469 44.7718 71.8455 46.2438 71.8455ZM65.5749 90.8438C64.1949 90.8438 63.0602 90.4452 62.1709 89.6478C61.3122 88.8198 60.8828 87.8078 60.8828 86.6118C60.8828 85.3851 61.3122 84.3577 62.1709 83.5297C63.0602 82.7017 64.1949 82.2877 65.5749 82.2877C66.9243 82.2877 68.0283 82.7017 68.887 83.5297C69.7763 84.3577 70.221 85.3851 70.221 86.6118C70.221 87.8078 69.7763 88.8198 68.887 89.6478C68.0283 90.4452 66.9243 90.8438 65.5749 90.8438ZM72.6694 84.1737C73.7121 83.3457 74.1875 82.9624 74.0955 83.0237C77.1009 80.5397 79.4622 78.5003 81.1796 76.9056C82.9276 75.3109 84.3996 73.6396 85.5957 71.8915C86.7917 70.1435 87.3897 68.4415 87.3897 66.7855C87.3897 65.5281 87.0983 64.5468 86.5157 63.8414C85.933 63.1361 85.059 62.7834 83.8936 62.7834C82.7283 62.7834 81.8083 63.2281 81.1336 64.1174C80.4896 64.9761 80.1676 66.2028 80.1676 67.7975H72.5774C72.6388 65.1908 73.1908 63.0134 74.2335 61.2654C75.3068 59.5173 76.7022 58.2293 78.4195 57.4013C80.1676 56.5733 82.0996 56.1593 84.2156 56.1593C87.865 56.1593 90.6097 57.0946 92.4498 58.9653C94.3205 60.836 95.2558 63.2741 95.2558 66.2794C95.2558 69.5608 94.1365 72.6122 91.8978 75.4336C89.659 78.2243 86.807 80.9537 83.3416 83.6217H95.7618V90.0158H72.6694V84.1737ZM121.72 63.7494H107.367V70.0975C107.981 69.4228 108.839 68.8708 109.943 68.4415C111.047 68.0121 112.243 67.7975 113.531 67.7975C115.831 67.7975 117.733 68.3188 119.235 69.3615C120.769 70.4042 121.888 71.7535 122.594 73.4096C123.299 75.0656 123.652 76.8596 123.652 78.7916C123.652 82.3797 122.64 85.2317 120.616 87.3478C118.591 89.4331 115.739 90.4758 112.059 90.4758C109.606 90.4758 107.475 90.0618 105.665 89.2338C103.856 88.3751 102.461 87.1944 101.479 85.6918C100.498 84.1891 99.9612 82.4564 99.8692 80.4937H107.551C107.735 81.4444 108.18 82.2417 108.885 82.8857C109.591 83.4991 110.557 83.8057 111.783 83.8057C113.225 83.8057 114.298 83.3457 115.003 82.4257C115.709 81.5057 116.061 80.279 116.061 78.7456C116.061 77.243 115.693 76.0929 114.957 75.2956C114.221 74.4982 113.148 74.0996 111.737 74.0996C110.695 74.0996 109.836 74.3602 109.161 74.8816C108.487 75.3723 108.042 76.0316 107.827 76.8596H100.237V56.8493H121.72V63.7494Z" fill="#1DC981"/>
<circle cx="7.4166" cy="74.8839" r="7.4166" fill="#1DC981"/>
</g>
<defs>
<filter id="filter0_f_13043_16350" x="230.352" y="-195.41" width="1122.66" height="836.233" filterUnits="userSpaceOnUse" color-interpolation-filters="sRGB">
<feFlood flood-opacity="0" result="BackgroundImageFix"/>
<feBlend mode="normal" in="SourceGraphic" in2="BackgroundImageFix" result="shape"/>
<feGaussianBlur stdDeviation="148.332" result="effect1_foregroundBlur_13043_16350"/>
</filter>
<linearGradient id="paint0_linear_13043_16350" x1="236.5" y1="3" x2="236.5" y2="149" gradientUnits="userSpaceOnUse">
<stop stop-color="#313F54"/>
<stop offset="1" stop-color="#1DC981"/>
</linearGradient>
<linearGradient id="paint1_linear_13043_16350" x1="310.859" y1="13" x2="169.557" y2="70.5617" gradientUnits="userSpaceOnUse">
<stop stop-color="#B3529F"/>
<stop offset="1" stop-color="#31B8C4"/>
</linearGradient>
<clipPath id="clip0_13043_16350">
<rect y="0.717773" width="364" height="149.62" rx="11.8666" fill="white"/>
</clipPath>
<clipPath id="clip1_13043_16350">
<path d="M152 14.8665C152 8.31283 157.313 3 163.867 3H309.133C315.687 3 321 8.31284 321 14.8666V149H152V14.8665Z" fill="white"/>
</clipPath>
</defs>
</svg>
